<svg width="48" height="48" viewBox="0 0 48 48" fill="none" xmlns="http://www.w3.org/2000/svg">
<path d="M8.22688 32.266H7.45576V40.999C7.45576 41.2553 7.52972 41.4741 7.67922 41.6555C7.82794 41.8349 8.01049 41.9242 8.22688 41.9242H8.36851L8.3811 42.07H5.74985V41.9242H5.90722C6.11495 41.9242 6.29199 41.8359 6.43913 41.6593C6.58785 41.4827 6.66654 41.2678 6.67519 41.0144V32.8802C6.66654 32.6269 6.58785 32.4109 6.43913 32.2315C6.29199 32.0501 6.11495 31.9589 5.90722 31.9589H5.74985V31.8092H8.99485C9.7227 31.8092 10.2947 32.0568 10.7102 32.5501C11.1272 33.0443 11.3365 33.6854 11.3365 34.4733C11.3365 35.2592 11.1383 35.9377 10.7417 36.5078C10.3451 37.0788 9.86197 37.3638 9.29386 37.3638C9.41503 37.4329 9.55824 37.5692 9.72191 37.7707C9.88557 37.9703 10.0311 38.1776 10.1594 38.3926C10.8495 39.5931 11.2988 40.333 11.5065 40.6113C11.7142 40.8906 11.8622 41.0816 11.9503 41.1833C12.0384 41.286 12.1336 41.3858 12.2367 41.4827C12.3414 41.5806 12.446 41.6583 12.5515 41.7169C12.7844 41.8551 13.033 41.9242 13.2974 41.9242V42.07H12.6364C12.2918 42.07 11.9708 41.9952 11.6733 41.8436C11.3775 41.6929 11.1548 41.5365 11.0061 41.3752C10.8589 41.214 10.7307 41.0585 10.6221 40.9069C10.5151 40.7534 10.2168 40.2467 9.7282 39.3868C9.23878 38.5269 8.95472 38.0375 8.87525 37.9166C8.79499 37.7937 8.71158 37.6738 8.62345 37.5557C8.36536 37.2237 8.10806 37.0567 7.85233 37.0567V36.9108C7.91686 36.9214 8.00105 36.9262 8.10413 36.9262C8.20878 36.9262 8.33782 36.9214 8.49126 36.9108C9.48349 36.883 10.1075 36.3753 10.364 35.3869C10.412 35.193 10.4364 35.0097 10.4364 34.8379C10.4364 34.6671 10.4364 34.5568 10.4364 34.5078C10.4191 33.8533 10.279 33.3255 10.0146 32.9263C9.75024 32.5251 9.39458 32.3102 8.94764 32.2814C8.75407 32.2718 8.51408 32.266 8.22688 32.266Z" fill="#42433E"/>
<path d="M21.7685 41.9242H21.8629V42.07H19.1593V41.9242H19.2695C19.4371 41.9242 19.563 41.8589 19.6471 41.7284C19.7306 41.596 19.773 41.4703 19.773 41.3522C19.773 41.2351 19.7573 41.1171 19.7258 40.9991L18.9547 38.5077H15.7129L14.9071 41.0144C14.8756 41.1324 14.8599 41.2476 14.8599 41.3599C14.8599 41.4731 14.9016 41.596 14.9858 41.7284C15.0692 41.8589 15.1951 41.9242 15.3635 41.9242H15.4705V42.07H13.0564V41.9242H13.1634C13.3649 41.9242 13.5608 41.8464 13.752 41.69C13.9448 41.5346 14.1014 41.3042 14.221 40.9991L16.9372 33.1144C17.2331 32.3236 17.381 31.8207 17.381 31.6058H17.4912L20.711 40.9991C20.8219 41.3042 20.9738 41.5346 21.1674 41.69C21.3601 41.8464 21.5608 41.9242 21.7685 41.9242ZM15.8545 38.0701H18.8131L17.3684 33.3639L15.8545 38.0701Z" fill="#42433E"/>
<path d="M32.5329 41.9242H32.7249V42.07H30.1188V41.9395H30.2982C30.4344 41.9395 30.5508 41.8743 30.6476 41.7438C30.7436 41.6113 30.7837 41.4655 30.7672 41.3061L30.2258 33.9359L27.7016 40.7802C27.4766 41.3772 27.3412 41.8743 27.2956 42.2735H27.1728L24.0978 34.1393L23.5816 41.3061C23.5643 41.4655 23.6044 41.6113 23.7012 41.7438C23.7972 41.8743 23.9097 41.9395 24.038 41.9395H24.23V42.07H21.8977V41.9242H22.0897C22.314 41.9242 22.5083 41.8416 22.672 41.6747C22.8372 41.5086 22.9364 41.2831 22.9679 40.9991L23.868 31.6058H23.9908L27.3428 40.4424L30.6224 31.6058H30.7294L31.6548 40.9991C31.6965 41.3906 31.857 41.6651 32.1363 41.8205C32.2559 41.8896 32.3881 41.9242 32.5329 41.9242Z" fill="#42433E"/>
<path d="M34.941 33.0798C35.7381 32.0971 36.7775 31.6058 38.0601 31.6058C39.3419 31.6058 40.3829 32.0971 41.1823 33.0798C41.9834 34.0606 42.3847 35.3475 42.3847 36.9416C42.3847 38.5337 41.9834 39.8206 41.1823 40.8033C40.3829 41.7841 39.3419 42.2735 38.0601 42.2735C36.7775 42.2735 35.7381 41.7841 34.941 40.8033C34.1431 39.8206 33.7449 38.5337 33.7449 36.9416C33.7449 35.3475 34.1431 34.0606 34.941 33.0798ZM35.6019 40.4885C36.2228 41.3868 37.0442 41.8359 38.0664 41.8359C39.0877 41.8359 39.9084 41.3868 40.5277 40.4885C41.1485 39.5883 41.4593 38.406 41.4593 36.9416C41.4593 35.9742 41.3185 35.1201 41.0376 34.3773C40.7582 33.6326 40.3609 33.0587 39.8447 32.6537C39.3285 32.2468 38.7336 32.0434 38.0601 32.0434C37.0419 32.0434 36.2228 32.4944 35.6019 33.3946C34.9803 34.2929 34.6703 35.4752 34.6703 36.9416C34.6703 38.406 34.9803 39.5883 35.6019 40.4885Z" fill="#42433E"/>
<path d="M1.42894 45.9002C1.42894 45.9924 1.41398 46.0797 1.38487 46.1613C1.32822 46.3177 1.22514 46.4252 1.07642 46.4837C1.03236 46.502 0.991442 46.5106 0.953673 46.5106C0.835644 46.5106 0.731779 46.4741 0.642077 46.3993V46.3686C0.763253 46.3743 0.862397 46.3254 0.937935 46.2227C1.00246 46.1363 1.03551 46.0221 1.03551 45.881C1.03551 45.7352 1.00718 45.6238 0.950525 45.5471C0.893871 45.4684 0.816759 45.4281 0.720763 45.4281H0.557096V47.1785C0.557096 47.2303 0.572833 47.2745 0.604307 47.3129C0.635782 47.3493 0.671977 47.3666 0.714468 47.3666H0.745942V47.3973H0V47.3666H0.0314743C0.0755384 47.3666 0.111734 47.3493 0.141635 47.3129C0.170748 47.2745 0.186485 47.2303 0.188846 47.1785V45.5049C0.188846 45.4569 0.173109 45.4156 0.141635 45.382C0.111734 45.3494 0.0755384 45.3321 0.0314743 45.3321H0V45.3014H0.82148C1.02056 45.3014 1.17085 45.3542 1.27156 45.4588C1.37622 45.5663 1.42894 45.7141 1.42894 45.9002Z" fill="#42433E"/>
<path d="M3.28836 45.4319H3.18134C3.17898 45.4319 3.17662 45.4319 3.17505 45.4319V47.1785C3.17662 47.2303 3.19236 47.2745 3.22226 47.3129C3.25373 47.3493 3.28993 47.3666 3.33242 47.3666H3.36389V47.3973H2.61795V47.3666H2.64943C2.70765 47.3666 2.75329 47.3359 2.78477 47.2745C2.79736 47.2467 2.80444 47.2159 2.8068 47.1824V45.5202C2.80444 45.4693 2.7887 45.4262 2.75959 45.3897C2.72969 45.3513 2.69349 45.3321 2.64943 45.3321H2.61795V45.3014H3.46146C3.61884 45.3014 3.7526 45.3436 3.86434 45.4281C3.91863 45.4693 3.96191 45.5279 3.99338 45.6047C4.02643 45.6795 4.04374 45.7764 4.04374 45.8964C4.04374 46.0173 4.00912 46.1334 3.93987 46.2457C3.87221 46.3561 3.77306 46.4204 3.64087 46.4377C3.73687 46.4741 3.82106 46.5605 3.89266 46.6987C4.06892 47.0442 4.19954 47.2505 4.28609 47.3167C4.3278 47.3474 4.38052 47.3647 4.44346 47.3666V47.3973H4.20426C4.06105 47.3973 3.94302 47.3743 3.8486 47.3282C3.75418 47.2822 3.68021 47.2016 3.62828 47.0864C3.5968 47.0202 3.52835 46.8503 3.4237 46.5758C3.37727 46.453 3.3214 46.3858 3.25688 46.3724V46.3417H3.33242C3.4056 46.3417 3.47091 46.3148 3.52756 46.2611C3.58421 46.2073 3.62198 46.121 3.64087 46C3.64716 45.9569 3.65031 45.9233 3.65031 45.9002C3.65031 45.7371 3.62277 45.6191 3.56848 45.5471C3.51576 45.4732 3.44651 45.4348 3.36075 45.4319C3.3458 45.4319 3.3214 45.4319 3.28836 45.4319Z" fill="#42433E"/>
<path d="M5.73224 45.5548C5.90614 45.358 6.14141 45.2592 6.43727 45.2592C6.73312 45.2592 6.96761 45.358 7.14229 45.5548C7.31619 45.7496 7.40353 46.0144 7.40353 46.3494C7.40353 46.6853 7.31619 46.9511 7.14229 47.1478C6.96761 47.3426 6.73312 47.4396 6.43727 47.4396C6.14141 47.4396 5.90614 47.3426 5.73224 47.1478C5.55756 46.9511 5.471 46.6853 5.471 46.3494C5.471 46.0144 5.55756 45.7496 5.73224 45.5548ZM6.02495 47.0557C6.12567 47.2275 6.2618 47.3129 6.43412 47.3129C6.60801 47.3129 6.74571 47.2275 6.84643 47.0557C6.94872 46.882 7.00066 46.6469 7.00066 46.3494C7.00066 46.0528 6.94872 45.8187 6.84643 45.6469C6.74571 45.4732 6.60801 45.3859 6.43412 45.3859C6.2618 45.3859 6.12567 45.4732 6.02495 45.6469C5.92423 45.8187 5.87388 46.0528 5.87388 46.3494C5.87388 46.6469 5.92423 46.882 6.02495 47.0557Z" fill="#42433E"/>
<path d="M9.34087 45.3321C9.28186 45.3321 9.23701 45.3628 9.20553 45.4242C9.19058 45.453 9.1835 45.4847 9.1835 45.5202V47.309C9.1835 47.4491 9.15203 47.5749 9.08908 47.6852C9.0277 47.7975 8.95216 47.8781 8.86246 47.9271C8.77197 47.975 8.68148 48 8.59178 48C8.57054 48 8.54929 47.9981 8.52883 47.9962V47.9693C8.62719 47.9175 8.69958 47.8311 8.74601 47.7083C8.79165 47.5873 8.81525 47.4511 8.81525 47.2975V45.5202C8.81289 45.4463 8.78692 45.3916 8.73656 45.3551C8.71139 45.3398 8.68463 45.3321 8.65788 45.3321H8.6264V45.3014H9.37235V45.3321H9.34087Z" fill="#42433E"/>
<path d="M10.6049 47.3666C10.6466 47.3666 10.682 47.3494 10.7119 47.3129C10.7433 47.2745 10.7599 47.2303 10.7622 47.1785V45.5125C10.7575 45.4588 10.7449 45.4204 10.7245 45.3974C10.6843 45.3542 10.6442 45.3321 10.6049 45.3321H10.5734V45.3014H11.5113C11.5932 45.3014 11.66 45.2937 11.7128 45.2784C11.7647 45.263 11.7962 45.2534 11.8072 45.2477V45.7697H11.782V45.7352C11.782 45.6123 11.7442 45.5241 11.6687 45.4703C11.6325 45.4454 11.5908 45.4319 11.5428 45.4319H11.1305V46.3033H11.4547C11.5153 46.3014 11.5648 46.2755 11.6026 46.2265C11.6419 46.1785 11.6624 46.1171 11.6624 46.0423V46.0154H11.6876V46.7102H11.6624V46.6833C11.6624 46.6123 11.6419 46.5519 11.6026 46.5029C11.5648 46.4549 11.516 46.429 11.4578 46.4261H11.1305V47.2668H11.4515C11.5711 47.2668 11.6703 47.2265 11.7505 47.144C11.8324 47.0595 11.8929 46.9405 11.9331 46.787H11.9583L11.845 47.3973H10.5734V47.3666H10.6049Z" fill="#42433E"/>
<path d="M14.0326 45.4242V47.1824C14.0342 47.2342 14.0499 47.2774 14.0798 47.3129C14.1113 47.3493 14.1475 47.3666 14.19 47.3666H14.2183L14.2215 47.3973H13.4755V47.3666H13.507C13.5487 47.3666 13.5841 47.3493 13.614 47.3129C13.6431 47.2774 13.6596 47.2351 13.6644 47.1862V45.4242H13.3339C13.2583 45.4271 13.1985 45.4569 13.1545 45.5125C13.1104 45.5663 13.0884 45.6392 13.0884 45.7313V45.7659H13.0632V45.2438C13.1301 45.2774 13.2269 45.2956 13.3528 45.2976H14.3411C14.3914 45.2976 14.4457 45.2928 14.5047 45.2822C14.5653 45.2697 14.607 45.2573 14.6306 45.2438V45.7659H14.6086V45.7313C14.6086 45.6066 14.5693 45.5183 14.4921 45.4665C14.4559 45.4415 14.4135 45.4271 14.3631 45.4242H14.0326Z" fill="#42433E"/>
<path d="M16.0544 45.5548C16.2283 45.358 16.4635 45.2592 16.7594 45.2592C17.0553 45.2592 17.2897 45.358 17.4644 45.5548C17.6383 45.7496 17.7257 46.0144 17.7257 46.3494C17.7257 46.6853 17.6383 46.9511 17.4644 47.1478C17.2897 47.3426 17.0553 47.4396 16.7594 47.4396C16.4635 47.4396 16.2283 47.3426 16.0544 47.1478C15.8797 46.9511 15.7931 46.6853 15.7931 46.3494C15.7931 46.0144 15.8797 45.7496 16.0544 45.5548ZM16.3471 47.0557C16.4478 47.2275 16.5839 47.3129 16.7563 47.3129C16.9301 47.3129 17.0678 47.2275 17.1686 47.0557C17.2709 46.882 17.3228 46.6469 17.3228 46.3494C17.3228 46.0528 17.2709 45.8187 17.1686 45.6469C17.0678 45.4732 16.9301 45.3859 16.7563 45.3859C16.5839 45.3859 16.4478 45.4732 16.3471 45.6469C16.2464 45.8187 16.196 46.0528 16.196 46.3494C16.196 46.6469 16.2464 46.882 16.3471 47.0557Z" fill="#42433E"/>
<path d="M18.9611 47.1171C18.9611 46.9741 18.9863 46.8522 19.0366 46.7524H19.0587C19.0563 46.7678 19.0555 46.7831 19.0555 46.7985C19.0555 46.9367 19.0964 47.0576 19.1783 47.1593C19.2601 47.262 19.3711 47.3129 19.5119 47.3129C19.6205 47.3129 19.7055 47.2812 19.7668 47.2169C19.8274 47.1536 19.8581 47.073 19.8581 46.9751C19.8581 46.9165 19.8432 46.8657 19.8141 46.8215C19.7842 46.7755 19.7338 46.7246 19.663 46.668L19.2349 46.3225C19.0776 46.192 18.9989 46.0327 18.9989 45.8427C18.9989 45.8225 18.9997 45.8033 19.002 45.7851C19.0123 45.6267 19.0626 45.5001 19.1531 45.4051C19.2452 45.3081 19.3671 45.2592 19.5182 45.2592C19.6079 45.2592 19.7196 45.2697 19.8518 45.2899H20.0061L19.9746 45.7313H19.9494C19.9494 45.6267 19.9179 45.5432 19.855 45.4818C19.792 45.4185 19.7078 45.3859 19.6032 45.3859C19.4773 45.3859 19.3844 45.4338 19.3262 45.5279C19.2963 45.574 19.2821 45.62 19.2821 45.6661C19.2821 45.7121 19.2892 45.7525 19.3042 45.7851C19.327 45.8369 19.3774 45.8916 19.4553 45.9501L19.9242 46.3225C20.0706 46.4405 20.1445 46.5941 20.1445 46.7831C20.1445 46.9962 20.0847 47.1584 19.9651 47.2707C19.8471 47.3839 19.6897 47.4396 19.493 47.4396C19.3813 47.4396 19.279 47.4223 19.1846 47.3897C19.0917 47.357 19.0225 47.3119 18.9768 47.2553C18.9658 47.2198 18.9611 47.1737 18.9611 47.1171Z" fill="#42433E"/>
<path d="M24.705 47.3666H24.727V47.3973H23.9433V47.3666H23.9653C24.0007 47.3666 24.0267 47.3542 24.044 47.3282C24.0629 47.3004 24.0723 47.2745 24.0723 47.2515C24.0723 47.2265 24.0676 47.2016 24.0598 47.1785L23.937 46.81H23.3642L23.2351 47.1785C23.2288 47.2044 23.2257 47.2284 23.2257 47.2515C23.2257 47.2745 23.2335 47.3004 23.2509 47.3282C23.2697 47.3542 23.2965 47.3666 23.3327 47.3666H23.3516V47.3973H22.826V47.3666H22.848C22.8858 47.3666 22.9235 47.3532 22.9613 47.3244C22.9991 47.2966 23.0305 47.2553 23.0557 47.2016L23.6223 45.6354C23.6994 45.4358 23.7403 45.3043 23.745 45.24H23.767L24.4972 47.1939C24.5201 47.2534 24.5508 47.2966 24.5885 47.3244C24.6263 47.3532 24.6648 47.3666 24.705 47.3666ZM23.4051 46.6833H23.8961L23.66 45.9463L23.4051 46.6833Z" fill="#42433E"/>
<path d="M27.9856 47.3666H28.0234V47.3973H27.2869V47.3705H27.3246C27.3514 47.3685 27.375 47.3541 27.3939 47.3282C27.4144 47.3033 27.423 47.2735 27.4191 47.2399L27.3246 46.1536L26.862 47.1248C26.8006 47.2476 26.7707 47.3589 26.7707 47.4588H26.7455L26.1129 46.1651L26.0185 47.2399C26.0137 47.2735 26.0216 47.3042 26.0405 47.3321C26.061 47.358 26.0853 47.3705 26.1129 47.3705H26.1507V47.3973H25.6376V47.3666H25.6754C25.721 47.3666 25.7612 47.3503 25.795 47.3167C25.828 47.2841 25.8485 47.238 25.8548 47.1785L26.0594 45.2592H26.0814L26.8431 46.787L27.5733 45.2592H27.5953L27.8062 47.1785C27.8141 47.238 27.8353 47.2841 27.8692 47.3167C27.9022 47.3503 27.9415 47.3666 27.9856 47.3666Z" fill="#42433E"/>
<path d="M29.8866 47.3973H29.1123V47.3666H29.1438C29.202 47.3666 29.2477 47.3359 29.2791 47.2745C29.2917 47.2467 29.2988 47.2159 29.3012 47.1824V45.5164C29.2988 45.4655 29.2823 45.4223 29.2508 45.3859C29.2209 45.3503 29.1855 45.3321 29.1438 45.3321H29.1123V45.3014H29.8236C30.0125 45.3014 30.162 45.3436 30.2737 45.4281C30.387 45.5125 30.4445 45.6411 30.4468 45.8119C30.4445 45.9022 30.4287 45.9789 30.3996 46.0423C30.3469 46.168 30.2619 46.24 30.1447 46.2572C30.2706 46.2707 30.3744 46.3283 30.4563 46.43C30.5381 46.5298 30.579 46.6584 30.579 46.8138C30.579 47.001 30.5169 47.1459 30.3933 47.2476C30.269 47.3474 30.1006 47.3973 29.8866 47.3973ZM30.0534 45.8542C30.051 45.573 29.9464 45.4319 29.7387 45.4319H29.6694V47.2591H29.7827C29.7827 47.2591 29.7835 47.2591 29.7859 47.2591C29.8992 47.2591 29.9889 47.2198 30.0565 47.1401C30.1234 47.0614 30.1573 46.9396 30.1573 46.7755C30.1573 46.6123 30.1195 46.4904 30.044 46.4108C29.9684 46.3292 29.8709 46.2879 29.7512 46.2879V46.2611C29.837 46.2611 29.9086 46.2284 29.9653 46.1613C30.0219 46.0951 30.051 45.9924 30.0534 45.8542Z" fill="#42433E"/>
<path d="M31.8083 47.3666C31.85 47.3666 31.8854 47.3493 31.9153 47.3129C31.9468 47.2745 31.9633 47.2303 31.9657 47.1785V45.5164C31.9633 45.4655 31.9468 45.4223 31.9153 45.3859C31.8854 45.3503 31.85 45.3321 31.8083 45.3321H31.7768V45.3014H32.5228L32.5196 45.3321H32.4913C32.4472 45.3321 32.4095 45.3503 32.378 45.3859C32.3481 45.4223 32.3339 45.4655 32.3339 45.5164V47.1785C32.3339 47.2303 32.3481 47.2745 32.378 47.3129C32.4095 47.3493 32.4472 47.3666 32.4913 47.3666H32.5196L32.5228 47.3973H31.7768V47.3666H31.8083Z" fill="#42433E"/>
<path d="M33.7665 47.3666C33.8082 47.3666 33.8436 47.3494 33.8735 47.3129C33.905 47.2745 33.9215 47.2303 33.9238 47.1785V45.5125C33.9191 45.4588 33.9065 45.4204 33.8861 45.3974C33.8459 45.3542 33.8058 45.3321 33.7665 45.3321H33.735V45.3014H34.6729C34.7548 45.3014 34.8216 45.2937 34.8744 45.2784C34.9263 45.263 34.9578 45.2534 34.9688 45.2477V45.7697H34.9436V45.7352C34.9436 45.6123 34.9058 45.5241 34.8303 45.4703C34.7941 45.4454 34.7524 45.4319 34.7044 45.4319H34.2921V46.3033H34.6163C34.6769 46.3014 34.7264 46.2755 34.7642 46.2265C34.8035 46.1785 34.824 46.1171 34.824 46.0423V46.0154H34.8492V46.7102H34.824V46.6833C34.824 46.6123 34.8035 46.5519 34.7642 46.5029C34.7264 46.4549 34.6776 46.429 34.6194 46.4261H34.2921V47.2668H34.6131C34.7327 47.2668 34.8319 47.2265 34.9121 47.144C34.994 47.0595 35.0546 46.9405 35.0947 46.787H35.1199L35.0066 47.3973H33.735V47.3666H33.7665Z" fill="#42433E"/>
<path d="M38.1951 45.3321C38.1384 45.3321 38.0952 45.3619 38.0661 45.4204C38.0535 45.4463 38.0456 45.477 38.044 45.5125V47.0557C38.044 47.1891 38.0511 47.3014 38.0661 47.3935L38.0724 47.4395H38.0503L36.8102 46V47.1862C36.8102 47.238 36.8244 47.2812 36.8543 47.3167C36.8834 47.3503 36.9188 47.3666 36.9613 47.3666H37.0085V47.3973H36.2626V47.3666H36.3066C36.3507 47.3666 36.3869 47.3503 36.4168 47.3167C36.4459 47.2812 36.4609 47.238 36.4609 47.1862V45.6315C36.4609 45.4991 36.453 45.3887 36.4388 45.3014L36.4325 45.2553H36.4546L37.6947 46.6948V45.5125C37.6923 45.4617 37.6766 45.4194 37.6474 45.3859C37.6175 45.3503 37.5829 45.3321 37.5436 45.3321H37.4995V45.3014H38.2423V45.3321H38.1951Z" fill="#42433E"/>
<path d="M40.3272 45.4242V47.1824C40.3288 47.2342 40.3445 47.2774 40.3744 47.3129C40.4059 47.3493 40.4421 47.3666 40.4846 47.3666H40.5129L40.5161 47.3973H39.7701V47.3666H39.8016C39.8433 47.3666 39.8787 47.3493 39.9086 47.3129C39.9377 47.2774 39.9542 47.2351 39.959 47.1862V45.4242H39.6285C39.5529 45.4271 39.4931 45.4569 39.4491 45.5125C39.405 45.5663 39.383 45.6392 39.383 45.7313V45.7659H39.3578V45.2438C39.4247 45.2774 39.5215 45.2956 39.6474 45.2976H40.6357C40.686 45.2976 40.7403 45.2928 40.7993 45.2822C40.8599 45.2697 40.9016 45.2573 40.9252 45.2438V45.7659H40.9032V45.7313C40.9032 45.6066 40.8639 45.5183 40.7867 45.4665C40.7505 45.4415 40.7081 45.4271 40.6577 45.4242H40.3272Z" fill="#42433E"/>
<path d="M43.781 47.3666H43.803V47.3973H43.0193V47.3666H43.0414C43.0768 47.3666 43.1027 47.3542 43.12 47.3282C43.1389 47.3004 43.1484 47.2745 43.1484 47.2515C43.1484 47.2265 43.1437 47.2016 43.1358 47.1785L43.013 46.81H42.4402L42.3112 47.1785C42.3049 47.2044 42.3017 47.2284 42.3017 47.2515C42.3017 47.2745 42.3096 47.3004 42.3269 47.3282C42.3458 47.3542 42.3725 47.3666 42.4087 47.3666H42.4276V47.3973H41.902V47.3666H41.924C41.9618 47.3666 41.9996 47.3532 42.0373 47.3244C42.0751 47.2966 42.1066 47.2553 42.1318 47.2016L42.6983 45.6354C42.7754 45.4358 42.8163 45.3043 42.821 45.24H42.8431L43.5733 47.1939C43.5961 47.2534 43.6268 47.2966 43.6646 47.3244C43.7023 47.3532 43.7409 47.3666 43.781 47.3666ZM42.4811 46.6833H42.9721L42.7361 45.9463L42.4811 46.6833Z" fill="#42433E"/>
<path d="M44.871 47.3666C44.9127 47.3666 44.9481 47.3493 44.978 47.3129C45.0095 47.2745 45.026 47.2303 45.0284 47.1785V45.5164C45.026 45.4655 45.0095 45.4223 44.978 45.3859C44.9481 45.3503 44.9127 45.3321 44.871 45.3321H44.8395V45.3014H45.5854L45.5823 45.3321H45.554C45.5099 45.3321 45.4721 45.3503 45.4407 45.3859C45.4108 45.4223 45.3966 45.4655 45.3966 45.5164V47.1785C45.3966 47.2303 45.4108 47.2745 45.4407 47.3129C45.4721 47.3493 45.5099 47.3666 45.554 47.3666H45.5823L45.5854 47.3973H44.8395V47.3666H44.871Z" fill="#42433E"/>
<path d="M46.8166 47.1171C46.8166 46.9741 46.8417 46.8522 46.8921 46.7524H46.9141C46.9118 46.7678 46.911 46.7831 46.911 46.7985C46.911 46.9367 46.9519 47.0576 47.0337 47.1593C47.1156 47.262 47.2265 47.3129 47.3674 47.3129C47.476 47.3129 47.5609 47.2812 47.6223 47.2169C47.6829 47.1536 47.7136 47.073 47.7136 46.9751C47.7136 46.9165 47.6986 46.8657 47.6695 46.8215C47.6396 46.7755 47.5893 46.7246 47.5184 46.668L47.0904 46.3225C46.933 46.192 46.8543 46.0327 46.8543 45.8427C46.8543 45.8225 46.8551 45.8033 46.8575 45.7851C46.8677 45.6267 46.9181 45.5001 47.0086 45.4051C47.1006 45.3081 47.2226 45.2592 47.3737 45.2592C47.4634 45.2592 47.5751 45.2697 47.7073 45.2899H47.8615L47.83 45.7313H47.8049C47.8049 45.6267 47.7734 45.5432 47.7104 45.4818C47.6475 45.4185 47.5633 45.3859 47.4586 45.3859C47.3327 45.3859 47.2399 45.4338 47.1817 45.5279C47.1518 45.574 47.1376 45.62 47.1376 45.6661C47.1376 45.7121 47.1447 45.7525 47.1596 45.7851C47.1825 45.8369 47.2328 45.8916 47.3107 45.9501L47.7797 46.3225C47.926 46.4405 48 46.5941 48 46.7831C48 46.9962 47.9402 47.1584 47.8206 47.2707C47.7026 47.3839 47.5452 47.4396 47.3485 47.4396C47.2367 47.4396 47.1345 47.4223 47.04 47.3897C46.9472 47.357 46.8779 47.3119 46.8323 47.2553C46.8213 47.2198 46.8166 47.1737 46.8166 47.1171Z" fill="#42433E"/>
<path d="M21.1841 20.6339C21.166 20.6013 21.1534 20.5811 21.1424 20.5591C20.9803 20.2261 20.7733 19.9353 20.5664 19.6445C20.5286 19.5879 20.4806 19.5505 20.4232 19.5322C20.3972 19.5245 20.372 19.514 20.3469 19.5053C20.195 19.4526 20.0423 19.4017 19.8905 19.348C19.8291 19.3278 19.7709 19.3 19.7142 19.2635C19.682 19.2414 19.6481 19.2242 19.6135 19.2098C19.5183 19.1704 19.4262 19.1253 19.3357 19.0735C19.2641 19.0313 19.1957 18.9842 19.1288 18.9334C18.9392 18.7904 18.7787 18.6052 18.6236 18.4132C18.5827 18.3624 18.5434 18.3115 18.5143 18.2491C18.5103 18.2376 18.5048 18.2271 18.497 18.2175C18.4002 18.1119 18.3522 17.966 18.2821 17.8384C18.2271 17.7357 18.1964 17.6186 18.157 17.5064C18.1326 17.4353 18.1169 17.3595 18.0886 17.2914C18.0484 17.1925 18.028 17.086 18.0044 16.9814C17.9824 16.8816 17.9816 16.7789 17.9855 16.6762C17.9879 16.6081 18.05 16.5515 18.109 16.5592C18.1413 16.562 18.1704 16.5745 18.1979 16.5947C18.3176 16.6897 18.4419 16.7751 18.5434 16.8989C18.5961 16.9622 18.6598 17.0083 18.711 17.0745C18.7724 17.1532 18.8408 17.2252 18.9038 17.3019C18.9887 17.4075 19.0745 17.5121 19.1737 17.5985C19.187 17.6081 19.1988 17.6206 19.2098 17.6349C19.272 17.7338 19.3586 17.7971 19.4428 17.8633C19.6017 17.99 19.7622 18.1129 19.9227 18.2367C19.9275 18.2405 19.9314 18.2434 19.9361 18.2463C20.0494 18.3 20.1525 18.3787 20.2635 18.4392C20.4169 18.5236 20.5743 18.5965 20.7246 18.6887C20.8221 18.7223 20.9047 18.7914 20.9921 18.8518C21.0739 18.9094 21.1565 18.9622 21.2313 19.0361C21.321 19.1253 21.4209 19.1983 21.5169 19.2769C21.5303 19.2875 21.5437 19.2961 21.5586 19.3048C21.5799 19.3163 21.5988 19.3115 21.6153 19.2913C21.6318 19.2654 21.6483 19.2405 21.6625 19.2136C21.7136 19.1167 21.7656 19.0198 21.8128 18.9199C21.8505 18.8422 21.893 18.7683 21.9395 18.6992C21.9552 18.6733 21.9733 18.6493 21.9922 18.6282C22.0724 18.5438 22.1582 18.4699 22.2495 18.4056C22.2833 18.3825 22.3116 18.3893 22.3345 18.4267C22.3526 18.4583 22.3738 18.4881 22.3856 18.5236C22.4344 18.6743 22.4659 18.8307 22.4336 18.9938C22.4155 19.0869 22.4069 19.1819 22.4069 19.2789C22.4053 19.4324 22.3935 19.586 22.3833 19.7395C22.3754 19.8422 22.377 19.9439 22.3872 20.0466C22.3903 20.0869 22.4053 20.1195 22.4328 20.1435C22.4446 20.156 22.458 20.1666 22.4714 20.1771C22.5863 20.2577 22.6846 20.3662 22.7853 20.4689C22.8821 20.5677 22.9726 20.6742 23.0584 20.7875C23.1441 20.9007 23.2323 21.0111 23.3196 21.1224C23.355 21.1694 23.392 21.2155 23.4251 21.2654C23.5092 21.3882 23.5934 21.5111 23.6745 21.6377C23.7398 21.7385 23.802 21.8422 23.8633 21.9468C23.9389 22.0773 24.0128 22.2097 24.086 22.3431C24.1057 22.3815 24.1222 22.4208 24.1379 22.4621C24.2064 22.6281 24.2827 22.7894 24.3661 22.9458C24.3732 22.9602 24.3827 22.9631 24.3945 22.9554C24.3992 22.9525 24.4015 22.9477 24.4031 22.941C24.4055 22.9103 24.4118 22.8776 24.4086 22.8469C24.3866 22.63 24.3772 22.4122 24.3551 22.1963C24.3394 22.0302 24.3268 21.8642 24.3024 21.7001C24.2788 21.5351 24.267 21.369 24.2481 21.204C24.2229 20.9813 24.2017 20.7577 24.1789 20.5351C24.1458 20.2097 24.0789 19.8921 24.0231 19.5735C24.0183 19.5476 24.0136 19.5236 24.0073 19.4986C24.0026 19.4804 23.9987 19.4583 23.9884 19.4459C23.9105 19.3576 23.8924 19.2184 23.8067 19.1359C23.7744 19.1052 23.7524 19.0581 23.7264 19.0178C23.6737 18.9372 23.617 18.8614 23.5462 18.8029C23.4888 18.7549 23.4487 18.6867 23.3991 18.6292C23.3574 18.5793 23.3141 18.5332 23.2685 18.49C23.1835 18.4142 23.1079 18.323 23.0198 18.252C22.9097 18.1637 22.8003 18.0745 22.6823 18.0035C22.6358 17.9737 22.5918 17.9382 22.5516 17.8979C22.4556 17.8067 22.3549 17.7252 22.255 17.6407C22.2031 17.5966 22.1496 17.5553 22.0976 17.5121C22.0661 17.4891 22.0362 17.4632 22.0079 17.4334C21.8631 17.2712 21.6924 17.1551 21.5327 17.0188C21.4768 16.9718 21.4178 16.9277 21.3698 16.8672C21.3501 16.8451 21.3296 16.8259 21.3076 16.8077C21.1227 16.6369 20.9527 16.4459 20.7993 16.2338C20.6569 16.0371 20.5152 15.8384 20.3744 15.6388C20.3539 15.6091 20.3358 15.5774 20.3201 15.5438C20.2768 15.4565 20.2351 15.3672 20.1903 15.2799C20.1635 15.2242 20.1344 15.1715 20.1014 15.1216C20.0172 15.0026 19.9621 14.8644 19.907 14.7262C19.859 14.6043 19.8126 14.4824 19.763 14.3615C19.7071 14.2233 19.6654 14.0774 19.623 13.9325C19.5883 13.8116 19.5608 13.6878 19.5411 13.5621C19.5049 13.3347 19.4593 13.111 19.4042 12.8894C19.3916 12.8404 19.3822 12.7905 19.3704 12.7416C19.3326 12.5804 19.2972 12.4191 19.2563 12.2598C19.2366 12.1869 19.2201 12.113 19.2067 12.0381C19.1894 11.9374 19.1666 11.8385 19.1398 11.7406C19.1146 11.6504 19.1013 11.5545 19.084 11.4604C19.0666 11.3644 19.0784 11.2694 19.0981 11.1754C19.1013 11.1629 19.1052 11.1514 19.1107 11.1399C19.1257 11.1015 19.1508 11.0813 19.1862 11.0804C19.2516 11.0765 19.3121 11.0948 19.368 11.1351C19.4333 11.1783 19.4908 11.233 19.5419 11.2992C19.667 11.4633 19.8 11.6188 19.9188 11.7905C19.9259 11.8001 19.9353 11.8078 19.9416 11.8174C20.0597 12.0074 20.1966 12.1763 20.3138 12.3673C20.4082 12.5209 20.5137 12.6648 20.6199 12.8078C20.6372 12.8308 20.6561 12.8539 20.6726 12.8788C20.8095 13.0986 20.9669 13.2982 21.1156 13.5055C21.2376 13.6744 21.3619 13.8394 21.4784 14.0141C21.5209 14.0784 21.5704 14.1369 21.6176 14.1974C21.6287 14.2108 21.6436 14.2204 21.653 14.2358C21.7286 14.3596 21.8254 14.4604 21.9096 14.5746C21.9654 14.6513 22.0252 14.7243 22.0827 14.7991C22.1079 14.8317 22.1322 14.8653 22.1551 14.8999C22.2526 15.0438 22.3502 15.1868 22.4533 15.3241C22.4997 15.3855 22.5422 15.4507 22.5808 15.5189C22.6673 15.6724 22.7523 15.826 22.8325 15.9843C22.8798 16.0764 22.9167 16.1772 22.9577 16.2732C23.0363 16.4555 23.1087 16.6417 23.1953 16.8173C23.2897 17.0102 23.3731 17.2108 23.4628 17.4056C23.4809 17.4449 23.4967 17.4852 23.51 17.5275C23.5431 17.6215 23.5769 17.7156 23.61 17.8096C23.6155 17.8259 23.6241 17.8307 23.6344 17.8211C23.6391 17.8163 23.6407 17.8106 23.6407 17.8038C23.621 17.7175 23.6021 17.6311 23.5809 17.5457C23.5683 17.4958 23.5596 17.4459 23.5541 17.395C23.5431 17.2866 23.5242 17.1801 23.4982 17.0745C23.4754 16.9833 23.455 16.8902 23.4502 16.7933C23.4479 16.7607 23.4447 16.729 23.44 16.6973C23.4062 16.4507 23.37 16.205 23.3377 15.9574C23.3204 15.8308 23.3054 15.7041 23.2976 15.5764C23.2913 15.4805 23.2779 15.3845 23.2669 15.2905C23.2559 15.2079 23.248 15.1254 23.2441 15.0419C23.2417 14.9651 23.2362 14.8884 23.2315 14.8116C23.2189 14.6139 23.2142 14.4152 23.2039 14.2166C23.1898 13.9527 23.1992 13.6907 23.2024 13.4277C23.2032 13.3126 23.1945 13.1965 23.1953 13.0813C23.1961 13.0554 23.1929 13.0304 23.1858 13.0055C23.1394 12.8567 23.1135 12.6965 23.0403 12.5602C23.0198 12.5228 23.0064 12.4805 22.9891 12.4412C22.938 12.3212 22.8829 12.2042 22.8066 12.1044C22.7499 12.0276 22.7011 11.945 22.6602 11.8539C22.6295 11.7877 22.5894 11.7272 22.554 11.6629C22.4682 11.5084 22.3958 11.3453 22.3227 11.1811C22.2943 11.1197 22.266 11.0583 22.2377 10.9959C22.1456 10.7944 22.0646 10.5862 21.9945 10.3712C21.9111 10.1207 21.8387 9.8664 21.7758 9.60728C21.764 9.55834 21.7546 9.5094 21.7467 9.45853C21.7341 9.37025 21.7191 9.28195 21.705 9.19367C21.6869 9.07371 21.6767 8.95279 21.6751 8.83091C21.6696 8.64473 21.6656 8.45856 21.6664 8.27334C21.6664 8.09292 21.6743 7.91346 21.6743 7.734C21.6743 7.48353 21.6727 7.23401 21.6515 6.9845C21.6475 6.94035 21.6491 6.89429 21.6475 6.85014C21.6468 6.80504 21.6468 6.75993 21.642 6.71579C21.6208 6.49123 21.6302 6.26762 21.6405 6.04306C21.6412 6.00467 21.6452 5.96629 21.6515 5.92886C21.6586 5.89719 21.668 5.8684 21.6814 5.84057C21.7066 5.78875 21.7435 5.77051 21.7907 5.78683C21.8159 5.79642 21.8403 5.8089 21.8631 5.82521C21.9355 5.87992 21.9961 5.94997 22.0465 6.03346C22.1307 6.17453 22.1983 6.32616 22.2511 6.48739C22.2983 6.6371 22.3494 6.78585 22.3966 6.93556C22.4155 6.99506 22.432 7.05551 22.4454 7.11789C22.4612 7.19947 22.4816 7.27912 22.5068 7.35685C22.5265 7.41539 22.5398 7.47777 22.5564 7.53919C22.5847 7.64859 22.6162 7.75799 22.639 7.87028C22.676 8.05069 22.7279 8.22536 22.7822 8.39906C22.8436 8.59675 22.9097 8.79252 22.9726 8.99021C22.9946 9.06219 23.0143 9.13608 23.0316 9.20998C23.067 9.36449 23.1009 9.51899 23.1331 9.67446C23.1693 9.85584 23.2024 10.0372 23.2165 10.2234C23.2205 10.2675 23.2307 10.3117 23.2354 10.3558C23.2645 10.6101 23.2976 10.8635 23.3094 11.1197C23.3165 11.2608 23.3346 11.4 23.3487 11.5401C23.3487 11.5449 23.3558 11.5535 23.3582 11.5535C23.3676 11.5506 23.3763 11.5468 23.3841 11.541C23.3881 11.5372 23.3912 11.5314 23.3928 11.5257C23.3952 11.5199 23.3975 11.5132 23.3983 11.5074C23.414 11.3596 23.4557 11.2205 23.4896 11.0794C23.5045 11.018 23.5258 10.9585 23.5439 10.899C23.5509 10.875 23.5596 10.851 23.5659 10.827C23.6021 10.6927 23.6367 10.5583 23.6745 10.4249C23.7123 10.2915 23.75 10.1581 23.7949 10.0276C23.8342 9.9163 23.8806 9.80786 23.9286 9.70037C23.9522 9.65047 23.968 9.59673 23.9759 9.53915C23.99 9.42591 24.0152 9.31362 24.0105 9.1975C24.0097 9.16583 24.0183 9.13417 24.0215 9.1025C24.0325 9.00653 24.0482 8.91248 24.0506 8.81651C24.0538 8.72055 24.0412 8.62458 24.0372 8.52861C24.0341 8.43169 24.0144 8.34052 23.979 8.25319C23.9349 8.14378 23.8956 8.0315 23.8602 7.9173C23.8303 7.82133 23.809 7.72249 23.787 7.62364C23.7658 7.53055 23.7453 7.43746 23.7304 7.34246C23.7146 7.23593 23.7052 7.12749 23.6942 7.01905C23.6792 6.87222 23.6658 6.72635 23.6517 6.57952C23.6493 6.54785 23.6462 6.51522 23.6446 6.48355C23.6351 6.22732 23.632 5.97108 23.6643 5.71581C23.6871 5.54499 23.6973 5.37129 23.7115 5.19855C23.7217 5.08435 23.739 4.9711 23.7642 4.85882C23.7823 4.77245 23.802 4.68416 23.809 4.59587C23.8193 4.4596 23.8507 4.33196 23.8854 4.20337C23.9074 4.11892 23.9302 4.03254 23.9499 3.94617C23.9932 3.74752 24.0451 3.55271 24.1049 3.36077C24.1309 3.27728 24.1466 3.18899 24.182 3.10934C24.1891 3.09398 24.1859 3.07191 24.1883 3.05368C24.1915 3.02873 24.1962 3.00378 24.2017 2.97882C24.2119 2.93564 24.2182 2.88957 24.2363 2.85215C24.2882 2.74658 24.3024 2.62087 24.3622 2.5201C24.3952 2.46252 24.4236 2.40014 24.4456 2.33488C24.4708 2.27059 24.4991 2.20917 24.5322 2.15063C24.6258 1.97309 24.7218 1.79555 24.8162 1.61705C24.8611 1.53068 24.9106 1.44623 24.9358 1.34642C24.9413 1.32819 24.9484 1.31091 24.9563 1.2946C25.0114 1.16312 25.0664 1.03165 25.1215 0.901132C25.1325 0.87906 25.1404 0.855068 25.1475 0.831076C25.164 0.76198 25.1939 0.70152 25.223 0.640101C25.2419 0.602674 25.2592 0.563328 25.2734 0.522062C25.3182 0.382909 25.3891 0.26295 25.4591 0.142991C25.4866 0.0940473 25.526 0.0614183 25.5645 0.0268703C25.5905 0.00287831 25.6227 -7.72556e-07 25.655 0.00383816C25.6826 0.00767661 25.7062 0.0191929 25.7203 0.0499025C25.7227 0.0556604 25.725 0.0614184 25.7282 0.0671766C25.8053 0.216886 25.8415 0.382909 25.8588 0.557569C25.8714 0.690964 25.8832 0.824359 25.8745 0.959672C25.8675 1.08155 25.8745 1.20343 25.8698 1.32531C25.8596 1.58826 25.8502 1.85025 25.8328 2.11224C25.8179 2.33584 25.8029 2.55945 25.7872 2.78305C25.7754 2.94907 25.7723 3.11606 25.7486 3.28112C25.74 3.35118 25.7368 3.42123 25.7392 3.49225C25.7431 3.71681 25.7313 3.94138 25.7298 4.16594C25.7274 4.50662 25.7085 4.84539 25.6393 5.17743C25.6149 5.29547 25.5968 5.41543 25.5645 5.53059C25.5519 5.57282 25.5386 5.61505 25.5228 5.65535C25.5157 5.67263 25.5126 5.69086 25.5118 5.71005C25.5134 5.72253 25.5181 5.73309 25.526 5.74172C25.5299 5.74556 25.5354 5.74652 25.5401 5.7446C25.559 5.735 25.581 5.72829 25.5968 5.71197C25.6967 5.60545 25.8163 5.53827 25.9336 5.46726C25.9532 5.4567 25.9729 5.44806 25.9934 5.4423C26.0846 5.41064 26.1759 5.37897 26.2672 5.34826C26.2719 5.34634 26.2774 5.34538 26.2821 5.34346C26.4324 5.30795 26.5835 5.27916 26.7369 5.29451C26.8479 5.30603 26.9557 5.34058 27.0517 5.41064C27.1477 5.48069 27.2437 5.54787 27.331 5.62944C27.4207 5.71581 27.5104 5.80794 27.5608 5.94133C27.5639 5.94709 27.5663 5.95285 27.5694 5.95765C27.6481 6.09296 27.6772 6.24843 27.6977 6.40773C27.704 6.45764 27.6985 6.50946 27.6993 6.56128C27.7001 6.63134 27.7008 6.7014 27.704 6.77145C27.704 6.77817 27.7197 6.78777 27.7292 6.78777C27.7394 6.78681 27.7488 6.78201 27.7575 6.77433C27.8291 6.70619 27.907 6.65437 27.992 6.61694C28.0903 6.57088 28.1879 6.5229 28.2902 6.49123C28.4389 6.44708 28.5805 6.37511 28.7245 6.31177C28.7788 6.28778 28.8339 6.26378 28.8874 6.23883C28.948 6.21196 29.0102 6.19949 29.0739 6.20237C29.1195 6.20332 29.1565 6.2254 29.1849 6.26954C29.1959 6.28298 29.203 6.30025 29.2069 6.31849C29.214 6.3895 29.2116 6.46052 29.1801 6.52386C29.1093 6.66685 29.0354 6.80408 28.937 6.925C28.8402 7.04208 28.745 7.16108 28.6529 7.28584C28.59 7.37125 28.5239 7.45378 28.4594 7.53823C28.4373 7.56606 28.4169 7.59485 28.398 7.62652C28.3398 7.72633 28.2721 7.81654 28.1966 7.89715C28.1659 7.93266 28.1375 7.97008 28.1116 8.01039C28.0793 8.06125 28.0431 8.10828 28.0093 8.15722C27.992 8.18121 27.9731 8.20424 27.9574 8.23015C27.9117 8.30789 27.8669 8.38658 27.8094 8.45472C27.7835 8.48543 27.7646 8.52573 27.7433 8.5622C27.6835 8.66009 27.6308 8.76469 27.5584 8.85106C27.5474 8.8645 27.538 8.87985 27.5301 8.89617C27.4451 9.05163 27.3609 9.20614 27.2767 9.36161C27.2421 9.42591 27.2083 9.49116 27.1752 9.55738C27.1485 9.61208 27.1225 9.66774 27.0989 9.72532C27.0808 9.77139 27.0572 9.81457 27.0289 9.852C27.0068 9.87983 26.9887 9.9115 26.9754 9.94605C26.9337 10.0727 26.8676 10.1812 26.8101 10.2963C26.6921 10.5324 26.5607 10.7579 26.4356 10.9883C26.401 11.0526 26.3663 11.1168 26.3317 11.1811C26.2853 11.2675 26.2404 11.3548 26.1783 11.4259C26.1665 11.4393 26.1562 11.4537 26.1484 11.47C26.0563 11.6533 25.9249 11.7944 25.8053 11.9479C25.6959 12.0861 25.5747 12.2099 25.4551 12.3366C25.3961 12.4019 25.3292 12.4508 25.2545 12.4844C25.1703 12.5209 25.0893 12.5708 25.009 12.6178C24.9075 12.6763 24.7997 12.7061 24.6903 12.7272C24.6227 12.7397 24.555 12.7521 24.4865 12.7627C24.3913 12.7761 24.3032 12.8193 24.2174 12.8683C24.193 12.8817 24.1718 12.8999 24.1521 12.922C24.0907 12.9921 24.0309 13.064 23.9727 13.1389C23.9546 13.1629 23.9412 13.1897 23.9326 13.2205C23.8964 13.3414 23.8531 13.4585 23.8106 13.5755C23.7846 13.6523 23.761 13.731 23.7414 13.8107C23.6784 14.0487 23.6241 14.2905 23.5738 14.5333C23.5572 14.6139 23.5502 14.6974 23.5384 14.779C23.5329 14.8173 23.5273 14.8548 23.5226 14.8922C23.5053 15.0256 23.4943 15.16 23.4904 15.2943C23.4801 15.5592 23.5022 15.8202 23.5352 16.0803C23.5628 16.3087 23.5848 16.538 23.6147 16.7664C23.6344 16.9181 23.6619 17.0687 23.6863 17.2204C23.6981 17.2895 23.7115 17.3576 23.7201 17.4277C23.7485 17.6637 23.802 17.8931 23.8523 18.1215C23.883 18.2635 23.9216 18.4046 23.9578 18.5457C23.9617 18.5572 23.968 18.5678 23.9759 18.5764C23.9774 18.5783 23.9869 18.5764 23.9884 18.5735C24.0128 18.5303 24.0191 18.4785 24.0294 18.4296C24.0435 18.3681 24.0545 18.3048 24.0616 18.2415C24.0734 18.1465 24.0931 18.0534 24.1222 17.9641C24.1765 17.7895 24.2111 17.6081 24.2725 17.4373C24.3016 17.3595 24.3118 17.2779 24.3032 17.1925C24.3 17.1676 24.3016 17.1407 24.2985 17.1158C24.2686 16.8451 24.3024 16.5783 24.3354 16.3125C24.3441 16.2559 24.3504 16.1983 24.3535 16.1407C24.3575 16.0899 24.363 16.039 24.3716 15.9891C24.3772 15.944 24.385 15.9008 24.3897 15.8557C24.4212 15.5352 24.4975 15.229 24.5817 14.9248C24.6038 14.8461 24.6329 14.7703 24.6596 14.6935C24.7068 14.5582 24.7548 14.422 24.8036 14.2876C24.817 14.2531 24.8327 14.2195 24.8501 14.1868C24.9185 14.0573 24.9885 13.9287 25.057 13.7991C25.1396 13.6417 25.2435 13.5064 25.3473 13.3692C25.4111 13.2838 25.4819 13.207 25.5393 13.1139C25.5708 13.064 25.6117 13.0208 25.6511 12.9786C25.7723 12.8452 25.8926 12.7118 26.0178 12.5832C26.0815 12.517 26.1523 12.4604 26.2223 12.4019C26.3954 12.256 26.567 12.1063 26.7605 11.9997C26.8085 11.9729 26.8534 11.9383 26.8998 11.9086C27.0021 11.8424 27.1036 11.7742 27.2075 11.7118C27.2744 11.6735 27.342 11.6389 27.4121 11.6092C27.63 11.5132 27.8417 11.399 28.0589 11.3001C28.1627 11.2522 28.2658 11.2042 28.3681 11.1524C28.4366 11.1178 28.5011 11.0756 28.5687 11.0391C28.7033 10.9652 28.8347 10.8856 28.974 10.8251C29.0637 10.7848 29.1494 10.7368 29.2336 10.6821C29.4091 10.5698 29.5995 10.5209 29.7931 10.4835C29.8033 10.4806 29.8136 10.4796 29.8246 10.4806C29.8804 10.4844 29.9339 10.5257 29.9253 10.6178C29.9214 10.6629 29.9111 10.7061 29.8962 10.7474C29.7947 11.0247 29.6578 11.2762 29.5114 11.5199C29.4374 11.6437 29.3509 11.7579 29.2706 11.876C29.2565 11.8951 29.2415 11.9134 29.2297 11.9345C29.1699 12.0401 29.103 12.1399 29.0298 12.232C28.9897 12.2829 28.9504 12.3337 28.9087 12.3836C28.8481 12.4546 28.7914 12.5304 28.7387 12.6111C28.6923 12.6802 28.6427 12.7454 28.5892 12.8068C28.5483 12.8567 28.5113 12.9114 28.479 12.97C28.3626 13.1763 28.2485 13.3846 28.1297 13.589C28.062 13.7032 28.0061 13.827 27.944 13.9469C27.9298 13.9738 27.918 14.0035 27.8991 14.0266C27.8165 14.1273 27.7575 14.2492 27.6906 14.3644C27.6387 14.4527 27.5875 14.5419 27.534 14.6302C27.4931 14.6964 27.4467 14.7578 27.4066 14.825C27.3664 14.8922 27.3224 14.9555 27.2767 15.0189C27.2185 15.1005 27.1603 15.183 27.0989 15.2626C27.0265 15.3557 26.9541 15.4488 26.8778 15.5361C26.7739 15.6551 26.6701 15.7732 26.5654 15.8912C26.5465 15.9123 26.5245 15.9315 26.5048 15.9517C26.4143 16.0409 26.316 16.1167 26.2334 16.2166C26.113 16.3096 26.0028 16.421 25.8919 16.5284C25.7219 16.6935 25.5338 16.8221 25.3458 16.9526C25.3096 16.9795 25.2718 17.0016 25.2325 17.0198C25.0074 17.1119 24.791 17.2309 24.5691 17.3317C24.5251 17.3509 24.4849 17.3835 24.4409 17.4056C24.3764 17.4373 24.3417 17.4977 24.3252 17.5764C24.2882 17.7501 24.2355 17.9181 24.1938 18.0908C24.1364 18.325 24.0978 18.5639 24.0758 18.8067C24.0687 18.8969 24.0703 18.9862 24.0789 19.0754C24.0844 19.133 24.0892 19.1906 24.0947 19.2482C24.0962 19.2731 24.1002 19.299 24.1057 19.323C24.1694 19.5754 24.2127 19.8326 24.2528 20.0917C24.2733 20.2241 24.3 20.3556 24.3213 20.4881C24.3598 20.7337 24.3897 20.9804 24.411 21.2299C24.4259 21.4017 24.4472 21.5734 24.4676 21.7452C24.4692 21.7625 24.4802 21.7788 24.4881 21.7951C24.4928 21.7942 24.4975 21.7913 24.5015 21.7875C24.5086 21.7779 24.5133 21.7663 24.5164 21.7548C24.5416 21.6032 24.5849 21.4583 24.6195 21.3105C24.6746 21.0754 24.7415 20.847 24.8217 20.6224C24.8752 20.4698 24.9264 20.3144 24.9996 20.1723C25.0137 20.1455 25.0263 20.1176 25.0381 20.0888C25.1121 19.8883 25.2152 19.7098 25.3167 19.5303C25.3261 19.514 25.3395 19.5015 25.3466 19.4852C25.4134 19.3153 25.5118 19.1733 25.6133 19.0332C25.6755 18.9468 25.74 18.8614 25.8022 18.7741C25.9123 18.6196 26.0351 18.4785 26.1531 18.3326C26.2648 18.1964 26.386 18.0735 26.5166 17.9641C26.6945 17.8125 26.8888 17.6973 27.0847 17.587C27.1658 17.5409 27.2468 17.4939 27.3302 17.4526C27.4711 17.3816 27.6072 17.2962 27.752 17.2357C27.8016 17.2127 27.8527 17.2012 27.9062 17.2002C27.9692 17.2012 28.0321 17.1993 28.0958 17.1993C28.206 17.1993 28.317 17.1954 28.4232 17.2424C28.4476 17.253 28.4751 17.253 28.5011 17.2597C28.5215 17.2636 28.542 17.2712 28.5617 17.2808C28.6285 17.3183 28.6962 17.3538 28.7607 17.3979C28.8347 17.4478 28.9118 17.4881 28.9921 17.5198C29.0975 17.5601 29.203 17.6014 29.3092 17.6397C29.3391 17.6503 29.3706 17.6589 29.4012 17.6647C29.4429 17.6724 29.4847 17.6791 29.5271 17.6858C29.6499 17.7031 29.7616 17.7549 29.8623 17.8422C29.952 17.9209 30.0473 17.9919 30.1401 18.0639C30.1889 18.1023 30.24 18.1349 30.2935 18.1628C30.3817 18.2069 30.4564 18.2798 30.5312 18.3518C30.5642 18.3835 30.5941 18.42 30.6248 18.4555C30.6461 18.4814 30.6571 18.513 30.6579 18.5495C30.6586 18.586 30.6492 18.6177 30.6287 18.6455C30.5257 18.7779 30.5178 18.7818 30.3722 18.8115C30.2841 18.8288 30.196 18.847 30.1078 18.8652C30.0654 18.8739 30.0236 18.8748 29.9819 18.8672C29.8773 18.8451 29.7726 18.8365 29.6664 18.8413C29.5657 18.8461 29.4673 18.8288 29.3706 18.7914C29.2045 18.7242 29.0298 18.7098 28.8591 18.6733C28.734 18.6464 28.6089 18.6292 28.4846 18.6013C28.3689 18.5783 28.2532 18.5812 28.1383 18.61C28.0919 18.6234 28.0494 18.6474 28.0117 18.6829C27.929 18.753 27.8511 18.8288 27.7772 18.9113C27.6764 19.0246 27.571 19.1311 27.4813 19.2578C27.4664 19.276 27.4506 19.2933 27.4349 19.3096C27.3153 19.4439 27.1965 19.5812 27.0847 19.7251C26.995 19.8422 26.9053 19.9593 26.8156 20.0764C26.7661 20.1426 26.7165 20.2097 26.6638 20.2721C26.6299 20.3124 26.6 20.3566 26.5741 20.4055C26.563 20.4266 26.5505 20.4477 26.5387 20.4698C26.4907 20.5619 26.434 20.6454 26.3687 20.7203C26.209 20.9065 26.0508 21.0955 25.8801 21.2673C25.6849 21.4631 25.4811 21.6454 25.2576 21.7932C25.138 21.8729 25.0192 21.9573 24.9028 22.0456C24.8225 22.107 24.7485 22.18 24.6935 22.2769C24.6636 22.3306 24.6289 22.3786 24.5896 22.4218C24.5558 22.4583 24.5416 22.5062 24.5392 22.559C24.5369 22.6032 24.5361 22.6483 24.5385 22.6934C24.5463 22.821 24.5479 22.9496 24.5613 23.0763C24.5715 23.1847 24.577 23.2932 24.5778 23.4026C24.5786 23.5369 24.5927 23.6713 24.5825 23.8066C24.5817 23.8392 24.5833 23.8709 24.5872 23.9026C24.6329 24.369 24.6392 24.8373 24.6447 25.3056C24.6463 25.4016 24.6376 25.4975 24.6345 25.5945L24.6171 26.0561C24.6164 26.0753 24.6171 26.0945 24.6148 26.1137C24.588 26.439 24.5754 26.7662 24.5274 27.0896C24.4952 27.3036 24.4731 27.5205 24.448 27.7365C24.4189 27.9841 24.3905 28.2317 24.3504 28.4773C24.3465 28.5023 24.3449 28.5282 24.3465 28.5531C24.3465 28.5637 24.3567 28.5733 24.3638 28.5819C24.3661 28.5839 24.374 28.5819 24.3772 28.5791C24.3866 28.5723 24.3952 28.5647 24.4023 28.556C24.4826 28.4284 24.5636 28.3027 24.6604 28.1923C24.6943 28.1539 24.7179 28.1011 24.7462 28.0551C24.7784 28.0042 24.8107 27.9533 24.8438 27.9034C24.8658 27.8689 24.8902 27.8353 24.9138 27.7998C25.0137 27.652 25.0538 27.4716 25.1011 27.295C25.1089 27.2576 25.1137 27.2192 25.1144 27.1808C25.1184 27.1232 25.1207 27.0657 25.1223 27.0081C25.1262 26.8411 25.1294 26.6741 25.1333 26.5081C25.1341 26.4697 25.1365 26.4313 25.138 26.3929C25.142 26.2451 25.164 26.0993 25.1632 25.9515C25.1632 25.8689 25.1782 25.7854 25.1876 25.7029C25.2041 25.5695 25.223 25.4371 25.238 25.3037C25.2553 25.1501 25.2938 25.0033 25.3316 24.8565C25.3544 24.7711 25.3741 24.6837 25.404 24.6022C25.4528 24.4678 25.4953 24.3287 25.5614 24.2039C25.6283 24.0801 25.6936 23.9563 25.762 23.8344C25.8856 23.6137 25.8863 23.6147 26.0492 23.4026C26.061 23.3882 26.072 23.3757 26.0823 23.3604C26.1334 23.2788 26.1909 23.203 26.2459 23.1262C26.3356 23.0005 26.4175 22.8661 26.5025 22.7356C26.5481 22.6646 26.5929 22.5945 26.6417 22.5264C26.6968 22.4496 26.7409 22.3604 26.7873 22.275C26.8597 22.1406 26.9305 22.0053 27.0005 21.87C27.043 21.7884 27.0855 21.7078 27.1138 21.6166C27.1327 21.5571 27.1642 21.5043 27.1917 21.4496C27.2437 21.345 27.2956 21.2414 27.3365 21.1291C27.3743 21.0245 27.4247 20.9257 27.4569 20.8163C27.4766 20.75 27.4994 20.6848 27.5144 20.6167C27.549 20.4621 27.5938 20.3115 27.6481 20.1646C27.6812 20.0773 27.7103 19.9881 27.7355 19.8969C27.7732 19.7568 27.8244 19.6234 27.8716 19.4871C27.8944 19.4228 27.9275 19.3633 27.9574 19.3038C27.988 19.2434 28.0235 19.1867 28.0534 19.1263C28.0872 19.0581 28.1391 19.013 28.1926 18.9737C28.2406 18.9382 28.2941 18.9411 28.3461 18.9622C28.3563 18.966 28.3657 18.9727 28.3728 18.9814C28.409 19.0294 28.4413 19.0793 28.4547 19.1436C28.4908 19.3249 28.516 19.5063 28.5105 19.6954C28.5034 19.9458 28.5011 20.1963 28.4861 20.4458C28.4853 20.465 28.4853 20.4842 28.4861 20.5034C28.4916 20.7289 28.4641 20.9516 28.4342 21.1733C28.4192 21.2875 28.4043 21.4017 28.4011 21.5168C28.398 21.6464 28.3791 21.7731 28.3602 21.8978C28.3303 22.0936 28.2996 22.2884 28.2729 22.4851C28.2501 22.6492 28.2052 22.8076 28.1698 22.9688C28.1549 23.0369 28.1383 23.1041 28.125 23.1732C28.0966 23.3095 28.0691 23.4467 28.0329 23.5811C28.0069 23.679 27.9873 23.7788 27.9605 23.8757C27.896 24.1137 27.8157 24.3431 27.7315 24.5715C27.7276 24.5839 27.7229 24.5955 27.7174 24.606C27.6599 24.7212 27.6104 24.8421 27.56 24.962C27.5207 25.0532 27.4774 25.1405 27.4294 25.226C27.3051 25.4572 27.1784 25.6856 27.0533 25.916C27.0265 25.9639 26.9958 26.0081 26.9628 26.0494C26.8975 26.1338 26.8345 26.2192 26.7739 26.3085C26.7409 26.3584 26.7039 26.4044 26.6638 26.4457C26.6299 26.4764 26.5985 26.51 26.5686 26.5465C26.4411 26.7019 26.2916 26.8229 26.1421 26.9428C26.1114 26.9678 26.0776 26.9879 26.0492 27.0158C25.954 27.1108 25.8431 27.1693 25.7321 27.2298C25.6936 27.2518 25.6542 27.2691 25.6133 27.2825C25.4622 27.3276 25.3269 27.4102 25.2128 27.5416C25.1939 27.5637 25.1735 27.5839 25.1522 27.6021C25.1262 27.6251 25.105 27.6539 25.0885 27.6866C25.0318 27.795 24.972 27.9015 24.8973 27.9927C24.88 28.0167 24.8642 28.0416 24.8501 28.0695C24.7682 28.2115 24.6762 28.343 24.5747 28.4658C24.5707 28.4697 24.5668 28.4745 24.5636 28.4793C24.4873 28.6021 24.411 28.724 24.3276 28.841C24.2937 28.8919 24.2733 28.9504 24.2654 29.0157C24.2434 29.1731 24.2206 29.3314 24.1946 29.4888C24.1678 29.6529 24.1372 29.8151 24.1073 29.9783C24.1049 29.9975 24.0994 30.0157 24.0923 30.033C24.049 30.1222 24.0286 30.222 24.0018 30.3199C23.9947 30.3439 23.9845 30.366 23.9703 30.3852C23.9601 30.4015 23.9428 30.4024 23.9271 30.3976C23.9113 30.389 23.9035 30.3746 23.9019 30.3535C23.9066 30.3161 23.9129 30.2777 23.9208 30.2412C23.9703 30.0646 24.0058 29.8833 24.038 29.7019C24.0679 29.533 24.0994 29.3641 24.1324 29.1952C24.1442 29.1376 24.1411 29.081 24.1214 29.0263C24.075 28.8957 24.0199 28.7729 23.9444 28.6635C23.8539 28.5301 23.7665 28.3929 23.6776 28.2576C23.6178 28.1674 23.5525 28.0839 23.4817 28.0071C23.4306 27.9514 23.3826 27.8919 23.3369 27.8296C23.2653 27.7355 23.1929 27.6434 23.1095 27.5628C23.0607 27.5138 23.0135 27.462 22.9695 27.4073C22.853 27.2681 22.7224 27.1491 22.6091 27.0042C22.5406 26.9169 22.458 26.8449 22.3809 26.7682C22.3124 26.6971 22.2503 26.6194 22.1944 26.534C22.1456 26.4659 22.0929 26.4035 22.037 26.3459C21.9261 26.2279 21.8199 26.1021 21.7333 25.9563C21.6499 25.8142 21.5673 25.6732 21.4847 25.5321C21.4689 25.5062 21.4548 25.4793 21.443 25.4505C21.38 25.2951 21.321 25.1367 21.2557 24.9832C21.2077 24.8757 21.1731 24.7615 21.151 24.6415C21.1439 24.6022 21.1266 24.5705 21.0983 24.5494C21.0464 24.5052 20.9944 24.4621 20.9417 24.4189C20.8678 24.3565 20.7946 24.2951 20.7301 24.2173C20.6742 24.1502 20.601 24.106 20.5507 24.0302C20.4043 23.892 20.2863 23.7183 20.1572 23.558C20.1281 23.5216 20.1006 23.4822 20.0754 23.44C19.9408 23.2193 19.8008 23.0024 19.6804 22.7682C19.6694 22.7462 19.6591 22.7241 19.6489 22.7011C19.5954 22.583 19.5435 22.464 19.4884 22.3469C19.4435 22.2529 19.405 22.154 19.3727 22.0523C19.346 21.9688 19.32 21.8844 19.2893 21.8028C19.2453 21.6857 19.2185 21.561 19.1855 21.4391C19.1642 21.3662 19.154 21.2903 19.1532 21.2126C19.1556 21.0648 19.1382 20.918 19.1272 20.7712C19.1241 20.7328 19.1233 20.6944 19.1241 20.656C19.1257 20.6253 19.1367 20.6003 19.1563 20.5821C19.176 20.5629 19.1988 20.5562 19.2232 20.5619C19.2445 20.5658 19.2634 20.5744 19.2822 20.5869C19.3405 20.631 19.3971 20.6771 19.4412 20.7433C19.4679 20.7827 19.4986 20.8182 19.5277 20.8556C19.608 20.9573 19.6851 21.0619 19.7685 21.1608C19.8692 21.2817 19.9613 21.4141 20.0589 21.5408C20.1667 21.6809 20.2776 21.8182 20.3713 21.9736C20.4452 22.0562 20.5105 22.1502 20.5931 22.2203C20.7057 22.3162 20.8064 22.4276 20.9071 22.5427C20.9402 22.584 20.9779 22.6176 21.0204 22.6444C21.0251 22.6483 21.0306 22.6492 21.0354 22.6464C21.0409 22.6425 21.044 22.6377 21.0448 22.631C21.048 22.5734 21.0503 22.5168 21.0503 22.4592C21.0487 22.2855 21.0558 22.1128 21.0684 21.94C21.07 21.9276 21.0708 21.9151 21.0708 21.9026C21.0645 21.7606 21.0857 21.6214 21.0952 21.4813C21.1093 21.2769 21.1266 21.0725 21.1605 20.871C21.1723 20.7961 21.1762 20.7184 21.1841 20.6339ZM23.9349 22.9352C23.8366 22.8652 23.7429 22.7817 23.6336 22.7318C23.6139 22.7212 23.5958 22.7087 23.5785 22.6943C23.5289 22.6569 23.4809 22.6176 23.4298 22.584C23.3747 22.5475 23.3157 22.5197 23.2598 22.4832C23.163 22.417 23.0623 22.3633 22.9569 22.322C22.9364 22.3143 22.9175 22.3038 22.8986 22.2913C22.7916 22.2231 22.6854 22.155 22.5776 22.0869C22.554 22.0725 22.5296 22.061 22.5052 22.0504C22.4926 22.0446 22.4706 22.0638 22.4714 22.0792C22.4745 22.156 22.4698 22.2327 22.495 22.3066C22.5036 22.3297 22.5091 22.3546 22.5107 22.3805C22.517 22.4765 22.5335 22.5705 22.5603 22.6617C22.5658 22.6867 22.5705 22.7116 22.5729 22.7366C22.6067 22.9765 22.6398 23.2164 22.6728 23.4573C22.6752 23.4755 22.6799 23.4938 22.6838 23.5129C22.7067 23.631 22.7303 23.75 22.7531 23.868C22.7861 24.0369 22.816 24.2058 22.8687 24.3671C22.8798 24.4026 22.8931 24.4409 22.9136 24.4678C22.982 24.5571 23.0497 24.6473 23.126 24.726C23.1937 24.796 23.2606 24.868 23.3283 24.939C23.3723 24.986 23.4077 25.0427 23.4534 25.0849C23.5195 25.1492 23.5769 25.2231 23.6265 25.3075C23.6548 25.3536 23.6855 25.3968 23.7193 25.438C23.7705 25.5023 23.8169 25.5714 23.8594 25.6444C23.9098 25.7269 23.9617 25.8075 24.0113 25.891C24.0451 25.9476 24.0821 26.0043 24.1057 26.0676C24.1442 26.1722 24.2064 26.2634 24.2284 26.3785C24.2316 26.391 24.2363 26.4025 24.2426 26.4131C24.3 26.5273 24.348 26.6482 24.3866 26.7749C24.3921 26.795 24.4149 26.8085 24.4236 26.7979C24.4322 26.7883 24.4417 26.7806 24.4432 26.771C24.4653 26.5877 24.4968 26.4054 24.4975 26.2183C24.4968 26.1281 24.4999 26.0388 24.507 25.9496C24.5306 25.7192 24.5101 25.4889 24.5204 25.2586C24.5274 25.0983 24.518 24.9381 24.5141 24.7778C24.5101 24.5993 24.5046 24.4198 24.4983 24.2404C24.4944 24.1444 24.4787 24.0484 24.481 23.9534C24.4834 23.8239 24.4653 23.6982 24.4621 23.5696C24.4613 23.5235 24.4495 23.4813 24.4259 23.4448C24.3968 23.3997 24.3709 23.3488 24.3347 23.3124C24.245 23.2241 24.1639 23.1233 24.0687 23.0427C24.0254 23.0053 23.9806 22.9717 23.9349 22.9352ZM24.3205 9.22341L24.3173 9.2215C24.2804 9.29155 24.2402 9.35969 24.2056 9.43166C24.1521 9.54203 24.0986 9.65239 24.0514 9.76755C24.0215 9.84144 24.012 9.92686 23.9648 9.99115C23.9098 10.1572 23.8492 10.3213 23.8012 10.4911C23.6776 10.9278 23.5675 11.3683 23.499 11.8241C23.4935 11.8616 23.4864 11.899 23.4778 11.9364C23.4345 12.1293 23.4219 12.328 23.4085 12.5256C23.3952 12.7301 23.3873 12.9354 23.3739 13.1398C23.3637 13.2742 23.3621 13.4085 23.3684 13.5429C23.3873 13.8558 23.4062 14.1696 23.4258 14.4824C23.4274 14.5016 23.4306 14.5208 23.4353 14.539C23.4392 14.5534 23.4479 14.5602 23.4573 14.5563C23.4628 14.5544 23.4668 14.5515 23.4699 14.5458C23.4762 14.5285 23.4817 14.5112 23.4856 14.493C23.5242 14.3126 23.5604 14.1321 23.6037 13.9536C23.6344 13.8241 23.6706 13.6974 23.7115 13.5727C23.7469 13.4652 23.7886 13.3615 23.8263 13.256C23.8578 13.1677 23.8862 13.0784 23.9176 12.9901C23.9759 12.8279 23.9995 12.659 23.9884 12.4834C23.9877 12.4642 23.9861 12.445 23.9861 12.4258C23.9814 12.0506 24.0199 11.6831 24.1025 11.3222C24.1537 11.0938 24.2158 10.8683 24.2749 10.6428C24.3166 10.4863 24.4362 10.1802 24.4952 10.0478C24.5329 9.96332 24.5786 9.88367 24.6061 9.7925C24.6108 9.77427 24.6187 9.75699 24.6297 9.7426C24.6675 9.69557 24.6864 9.63607 24.7124 9.58041C24.7847 9.42399 24.8666 9.27428 24.9563 9.13129C25.0035 9.05451 25.0562 8.98158 25.1026 8.9048C25.1436 8.83763 25.1829 8.76949 25.2364 8.71575C25.2443 8.70711 25.2506 8.69655 25.2537 8.68408C25.2569 8.6716 25.2561 8.66009 25.2514 8.64953C25.2333 8.6265 25.2144 8.60059 25.1915 8.58811C25.1373 8.55932 25.0948 8.51326 25.0515 8.46527C25.0129 8.42305 24.9641 8.39522 24.9193 8.36163C24.9043 8.35011 24.8752 8.35587 24.8611 8.37315C24.8272 8.41441 24.7887 8.45088 24.7619 8.49694C24.6769 8.64377 24.5723 8.77237 24.4905 8.92208C24.4362 9.02476 24.3772 9.12361 24.3205 9.22341ZM23.4856 26.2518C23.4589 26.2307 23.4329 26.2087 23.4062 26.1895C23.3833 26.1732 23.3597 26.1588 23.3361 26.1444C23.3157 26.1319 23.2976 26.1338 23.296 26.1492C23.2944 26.1674 23.2905 26.1885 23.296 26.2039C23.3157 26.2566 23.3369 26.3075 23.3613 26.3574C23.4282 26.4946 23.488 26.6376 23.5391 26.7854C23.5816 26.9092 23.632 27.0301 23.6729 27.1549C23.717 27.2921 23.7768 27.4207 23.813 27.5618C23.824 27.605 23.8382 27.6463 23.8547 27.6866C23.9475 27.9246 24.012 28.175 24.0899 28.4197C24.1183 28.5032 24.1356 28.5896 24.1419 28.6798C24.1458 28.7182 24.1521 28.7556 24.16 28.7921C24.1623 28.7979 24.1655 28.8027 24.1702 28.8055C24.1789 28.7998 24.1907 28.794 24.1938 28.7835C24.2017 28.7604 24.2072 28.7355 24.2103 28.7105C24.2206 28.6347 24.2269 28.5579 24.2395 28.4821C24.2725 28.2816 24.3016 28.08 24.3213 27.8766C24.3252 27.819 24.3339 27.7624 24.3457 27.7058C24.3709 27.5935 24.3732 27.4783 24.3874 27.3641C24.3921 27.3248 24.3858 27.2873 24.3685 27.2528C24.3575 27.2317 24.3488 27.2077 24.3433 27.1837C24.3268 27.1146 24.2985 27.0541 24.2568 27.0033C24.1631 26.8814 24.0719 26.7566 23.9554 26.6664C23.9279 26.6472 23.9035 26.6232 23.8806 26.5964C23.8271 26.5234 23.7587 26.4745 23.7005 26.4102C23.6847 26.392 23.6674 26.3785 23.6485 26.3689C23.5879 26.3411 23.5384 26.2941 23.4856 26.2518ZM24.2945 8.18697C24.2465 8.28773 24.2151 8.36163 24.1773 8.43073C24.1497 8.47967 24.1379 8.53341 24.1395 8.59291C24.1411 8.63801 24.1372 8.68312 24.1419 8.72726C24.1521 8.83091 24.1442 8.93167 24.1332 9.0334C24.1277 9.0785 24.1214 9.12265 24.1175 9.16679C24.1143 9.18599 24.1136 9.20518 24.1151 9.22438C24.1167 9.23781 24.1222 9.24741 24.1309 9.25508C24.1403 9.25796 24.149 9.25604 24.156 9.24837C24.1781 9.2119 24.1977 9.17447 24.2182 9.13704C24.3874 8.81172 24.5676 8.49694 24.7847 8.21576C24.8005 8.19465 24.8044 8.17065 24.7981 8.14378C24.7737 8.01903 24.7478 7.89523 24.7218 7.77143C24.7179 7.75512 24.6927 7.74744 24.6817 7.75991C24.5723 7.87987 24.4566 7.98832 24.3512 8.11499C24.3252 8.1457 24.3 8.17929 24.2945 8.18697Z" fill="#838B66"/>
</svg>
