<svg width="48" height="49" viewBox="0 0 48 49" fill="none" xmlns="http://www.w3.org/2000/svg">
<path d="M12.1206 32.852C12.0521 32.8005 12.0044 32.7687 11.9627 32.7338C11.3488 32.208 10.5651 31.7488 9.78133 31.2897C9.63829 31.2003 9.45652 31.1412 9.23898 31.1124C9.14064 31.1003 9.04527 31.0836 8.94991 31.0699C8.37478 30.9866 7.79666 30.9063 7.22152 30.8214C6.98908 30.7896 6.76856 30.7456 6.554 30.6881C6.43182 30.6532 6.30368 30.6259 6.17256 30.6032C5.81198 30.5411 5.46331 30.4698 5.12062 30.388C4.84944 30.3213 4.59018 30.2471 4.33688 30.1668C3.6187 29.941 3.01078 29.6485 2.42372 29.3454C2.26876 29.2651 2.11976 29.1848 2.0095 29.0863C1.9946 29.0681 1.97374 29.0514 1.94394 29.0363C1.5774 28.8696 1.39562 28.6393 1.1304 28.4377C0.921797 28.2756 0.805577 28.0907 0.656577 27.9134C0.564197 27.8013 0.504596 27.6815 0.397317 27.5739C0.245337 27.4179 0.167856 27.2497 0.0784568 27.0845C-0.0049832 26.9269 -0.00796302 26.7647 0.00693679 26.6026C0.015877 26.495 0.251297 26.4056 0.474797 26.4177C0.596976 26.4223 0.707237 26.442 0.811537 26.4738C1.2645 26.6238 1.73534 26.7587 2.11976 26.9542C2.31942 27.0542 2.5608 27.1269 2.7545 27.2315C2.98694 27.3557 3.2462 27.4694 3.4846 27.5906C3.80644 27.7573 4.13126 27.9225 4.50674 28.0589C4.5574 28.074 4.6021 28.0937 4.64382 28.1165C4.87924 28.2725 5.20704 28.3726 5.5259 28.4771C6.12786 28.6771 6.73578 28.8711 7.3437 29.0666C7.36158 29.0727 7.37648 29.0772 7.39436 29.0818C7.82348 29.1666 8.21386 29.2909 8.63404 29.3863C9.21514 29.5197 9.81113 29.6349 10.3803 29.7803C10.7498 29.8334 11.0627 29.9425 11.3935 30.038C11.7034 30.1289 12.0163 30.2122 12.2994 30.3289C12.6392 30.4698 13.0176 30.585 13.3812 30.7093C13.4318 30.7259 13.4825 30.7396 13.5391 30.7532C13.6196 30.7714 13.6911 30.7638 13.7537 30.732C13.8163 30.6911 13.8788 30.6517 13.9325 30.6093C14.1262 30.4562 14.3229 30.3032 14.5017 30.1456C14.6447 30.0228 14.8056 29.9061 14.9814 29.797C15.041 29.7561 15.1096 29.7182 15.1811 29.6849C15.4851 29.5515 15.8099 29.4348 16.1556 29.3333C16.2837 29.2969 16.391 29.3075 16.4774 29.3666C16.5459 29.4167 16.6264 29.4636 16.6711 29.5197C16.8559 29.7576 16.9751 30.0046 16.8529 30.2622C16.7843 30.4092 16.7516 30.5593 16.7516 30.7123C16.7456 30.9548 16.7009 31.1972 16.6622 31.4397C16.6324 31.6018 16.6383 31.7625 16.6771 31.9246C16.689 31.9883 16.7456 32.0398 16.8499 32.0777C16.8946 32.0974 16.9453 32.114 16.9959 32.1307C17.431 32.258 17.8035 32.4292 18.1849 32.5914C18.5515 32.7475 18.8942 32.9157 19.219 33.0945C19.5438 33.2733 19.8776 33.4476 20.2084 33.6234C20.3425 33.6976 20.4825 33.7704 20.6077 33.8492C20.9265 34.0431 21.2454 34.2371 21.5523 34.4371C21.7997 34.5962 22.0351 34.7599 22.2675 34.9251C22.5536 35.1312 22.8337 35.3403 23.1109 35.5509C23.1854 35.6116 23.248 35.6737 23.3076 35.7388C23.5668 36.001 23.8559 36.2556 24.1718 36.5026C24.1986 36.5253 24.2343 36.5299 24.279 36.5178C24.2969 36.5132 24.3059 36.5056 24.3118 36.495C24.3208 36.4465 24.3446 36.395 24.3327 36.3465C24.2492 36.004 24.2135 35.66 24.13 35.3191C24.0704 35.0569 24.0228 34.7948 23.9304 34.5356C23.841 34.275 23.7963 34.0128 23.7248 33.7522C23.6294 33.4006 23.5489 33.0475 23.4625 32.6959C23.3374 32.1822 23.0841 31.6806 22.8725 31.1775C22.8546 31.1366 22.8367 31.0987 22.8129 31.0593C22.795 31.0305 22.7801 30.9957 22.7414 30.976C22.4463 30.8366 22.3778 30.6168 22.053 30.4865C21.9308 30.438 21.8474 30.3638 21.749 30.3001C21.5494 30.1728 21.3348 30.0531 21.0666 29.9607C20.8491 29.8849 20.6971 29.7773 20.5093 29.6864C20.3514 29.6076 20.1875 29.5349 20.0147 29.4667C19.6928 29.3469 19.4067 29.203 19.073 29.0908C18.6558 28.9514 18.2416 28.8105 17.7946 28.6984C17.6187 28.6514 17.4519 28.5953 17.2999 28.5317C16.9363 28.3877 16.5549 28.2589 16.1764 28.1255C15.9797 28.0558 15.7771 27.9907 15.5804 27.9225C15.4612 27.8861 15.348 27.8452 15.2407 27.7982C14.6924 27.5421 14.0457 27.3588 13.4408 27.1436C13.2292 27.0693 13.0057 26.9996 12.8239 26.9041C12.7494 26.8693 12.6719 26.839 12.5885 26.8102C11.8882 26.5405 11.2445 26.2389 10.6634 25.904C10.124 25.5933 9.58763 25.2797 9.05422 24.9645C8.97674 24.9175 8.9082 24.8675 8.8486 24.8144C8.6847 24.6765 8.52676 24.5356 8.3569 24.3977C8.25558 24.3098 8.14532 24.2265 8.02016 24.1477C7.7013 23.9598 7.4927 23.7415 7.2841 23.5233C7.10232 23.3309 6.9265 23.1384 6.73876 22.9475C6.52718 22.7293 6.36924 22.4989 6.20832 22.2701C6.0772 22.0792 5.9729 21.8837 5.8984 21.6852C5.76132 21.326 5.58848 20.9729 5.37988 20.6229C5.3322 20.5456 5.29644 20.4668 5.25174 20.3895C5.1087 20.1349 4.9746 19.8803 4.81964 19.6288C4.74514 19.5136 4.68256 19.3969 4.6319 19.2787C4.56634 19.1196 4.47992 18.9635 4.3786 18.809C4.28324 18.6665 4.23258 18.515 4.16702 18.3665C4.10146 18.2149 4.14616 18.0649 4.22066 17.9164C4.23258 17.8967 4.24748 17.8785 4.26834 17.8603C4.32496 17.7997 4.42032 17.7679 4.55442 17.7664C4.80176 17.7603 5.03122 17.7891 5.2428 17.8527C5.49014 17.9209 5.70768 18.0073 5.90138 18.1119C6.3752 18.371 6.87882 18.6165 7.3288 18.8878C7.35562 18.9029 7.39138 18.915 7.41522 18.9302C7.86222 19.2302 8.38074 19.4969 8.82476 19.7985C9.18236 20.041 9.58168 20.2683 9.98398 20.4941C10.0495 20.5304 10.1211 20.5668 10.1836 20.6062C10.7022 20.9532 11.2982 21.2684 11.8614 21.5957C12.3233 21.8625 12.7941 22.1231 13.2352 22.3989C13.3961 22.5004 13.5838 22.5929 13.7626 22.6883C13.8043 22.7096 13.861 22.7247 13.8967 22.749C14.1828 22.9444 14.5493 23.1036 14.8682 23.2839C15.0798 23.4051 15.3063 23.5203 15.5238 23.6385C15.6192 23.69 15.7115 23.743 15.798 23.7976C16.1675 24.0249 16.537 24.2507 16.9274 24.4674C17.1032 24.5644 17.2641 24.6674 17.4101 24.775C17.7379 25.0175 18.0598 25.26 18.3637 25.51C18.5425 25.6555 18.6826 25.8146 18.8376 25.9661C19.1356 26.254 19.4097 26.548 19.7375 26.8253C20.0951 27.1299 20.411 27.4467 20.7507 27.7543C20.8193 27.8164 20.8789 27.8801 20.9295 27.9467C21.0547 28.0952 21.1828 28.2437 21.308 28.3923C21.3288 28.418 21.3616 28.4256 21.4004 28.4104C21.4182 28.4029 21.4242 28.3938 21.4242 28.3832C21.3497 28.2468 21.2782 28.1104 21.1977 27.9755C21.15 27.8967 21.1173 27.8179 21.0964 27.7376C21.0547 27.5664 20.9832 27.3982 20.8848 27.2315C20.7984 27.0875 20.7209 26.9405 20.703 26.7875C20.6941 26.7359 20.6822 26.6859 20.6643 26.6359C20.5362 26.2465 20.3991 25.8585 20.2769 25.4676C20.2113 25.2675 20.1547 25.0675 20.1249 24.866C20.1011 24.7144 20.0504 24.5629 20.0087 24.4144C19.967 24.284 19.9372 24.1537 19.9223 24.0219C19.9133 23.9007 19.8925 23.7794 19.8746 23.6582C19.8269 23.346 19.809 23.0323 19.7703 22.7186C19.7167 22.3019 19.7524 21.8882 19.7643 21.473C19.7673 21.2912 19.7345 21.1078 19.7375 20.9259C19.7405 20.885 19.7286 20.8456 19.7018 20.8062C19.5259 20.5713 19.4276 20.3183 19.1505 20.1031C19.073 20.044 19.0223 19.9773 18.9568 19.9152C18.7631 19.7258 18.5545 19.5409 18.2654 19.3833C18.0508 19.2621 17.8661 19.1317 17.7111 18.9878C17.5949 18.8832 17.4429 18.7877 17.3088 18.6862C16.984 18.4422 16.7098 18.1846 16.4327 17.9255C16.3254 17.8285 16.2181 17.7315 16.1109 17.633C15.7622 17.3148 15.4553 16.9859 15.19 16.6465C14.8742 16.251 14.6 15.8494 14.3616 15.4403C14.3169 15.363 14.2811 15.2857 14.2513 15.2054C14.2037 15.066 14.147 14.9265 14.0934 14.7871C14.0249 14.5977 13.9861 14.4068 13.9802 14.2143C13.9593 13.9203 13.9444 13.6263 13.9474 13.3339C13.9474 13.049 13.9772 12.7656 13.9772 12.4822C13.9772 12.0867 13.9712 11.6927 13.8908 11.2987C13.8759 11.229 13.8818 11.1563 13.8759 11.0865C13.8729 11.0153 13.8729 10.9441 13.855 10.8744C13.7745 10.5198 13.8103 10.1667 13.849 9.81211C13.852 9.75149 13.8669 9.69088 13.8908 9.63178C13.9176 9.58177 13.9533 9.53631 14.004 9.49236C14.0994 9.41053 14.2394 9.38174 14.4182 9.4075C14.5136 9.42265 14.606 9.44235 14.6924 9.46811C14.9665 9.55449 15.196 9.66511 15.3867 9.79695C15.7056 10.0197 15.9619 10.2591 16.1615 10.5137C16.3403 10.7501 16.534 10.985 16.7128 11.2214C16.7843 11.3154 16.8469 11.4108 16.8976 11.5093C16.9572 11.6381 17.0347 11.7639 17.13 11.8867C17.2045 11.9791 17.2552 12.0776 17.3178 12.1746C17.425 12.3473 17.5442 12.5201 17.6307 12.6974C17.7707 12.9823 17.9674 13.2581 18.173 13.5324C18.4055 13.8445 18.6558 14.1537 18.8942 14.4659C18.9776 14.5795 19.0521 14.6962 19.1177 14.8129C19.2518 15.0569 19.3799 15.3008 19.5021 15.5463C19.6392 15.8327 19.7643 16.1191 19.818 16.4131C19.8329 16.4828 19.8716 16.5525 19.8895 16.6223C19.9998 17.0238 20.1249 17.4239 20.1696 17.8285C20.1964 18.0513 20.265 18.271 20.3186 18.4922C20.3186 18.4998 20.3454 18.5135 20.3544 18.5135C20.3901 18.5089 20.4229 18.5028 20.4527 18.4938C20.4676 18.4877 20.4795 18.4786 20.4855 18.4695C20.4944 18.4604 20.5034 18.4498 20.5064 18.4407C20.566 18.2073 20.7239 17.9876 20.852 17.7649C20.9087 17.6679 20.9891 17.5739 21.0577 17.48C21.0845 17.4421 21.1173 17.4042 21.1411 17.3663C21.2782 17.1542 21.4093 16.942 21.5523 16.7314C21.6954 16.5207 21.8384 16.3101 22.0083 16.104C22.1573 15.9282 22.3331 15.757 22.5149 15.5872C22.6043 15.5084 22.6639 15.4236 22.6937 15.3327C22.7473 15.1538 22.8427 14.9765 22.8248 14.7932C22.8218 14.7432 22.8546 14.6932 22.8665 14.6432C22.9082 14.4916 22.9678 14.3431 22.9768 14.1916C22.9887 14.04 22.941 13.8885 22.9261 13.737C22.9142 13.5839 22.8397 13.4399 22.7056 13.302C22.5387 13.1293 22.3897 12.952 22.2556 12.7717C22.1424 12.6201 22.0619 12.464 21.9785 12.3079C21.898 12.161 21.8205 12.014 21.7639 11.8639C21.7043 11.6957 21.6686 11.5245 21.6268 11.3533C21.5702 11.1214 21.5196 10.8911 21.4659 10.6592C21.457 10.6092 21.4451 10.5577 21.4391 10.5077C21.4033 10.1031 21.3914 9.69845 21.5136 9.29536C21.6 9.02562 21.6388 8.75134 21.6924 8.47857C21.7311 8.29824 21.7967 8.11942 21.8921 7.94212C21.9606 7.80574 22.0351 7.66632 22.0619 7.5269C22.1007 7.31172 22.2199 7.11017 22.351 6.90711C22.4344 6.77376 22.5208 6.63737 22.5953 6.50099C22.7592 6.1873 22.9559 5.87968 23.1824 5.5766C23.2807 5.44476 23.3403 5.30535 23.4744 5.17957C23.5013 5.15533 23.4893 5.12047 23.4983 5.09168C23.5102 5.05228 23.5281 5.01288 23.5489 4.97348C23.5877 4.90529 23.6115 4.83255 23.6801 4.77345C23.8767 4.60676 23.9304 4.40824 24.1569 4.24912C24.282 4.1582 24.3893 4.0597 24.4727 3.95666C24.5681 3.85512 24.6754 3.75814 24.8005 3.6657C25.1552 3.38535 25.5187 3.10501 25.8763 2.82315C26.0462 2.68676 26.2339 2.55341 26.3293 2.39581C26.3501 2.36702 26.377 2.33974 26.4068 2.31398C26.6154 2.10637 26.824 1.89876 27.0326 1.69267C27.0743 1.65781 27.1041 1.61993 27.1309 1.58204C27.1935 1.47294 27.3067 1.37747 27.417 1.28048C27.4885 1.22138 27.5541 1.15925 27.6077 1.09409C27.7776 0.87436 28.0458 0.684936 28.311 0.495513C28.4153 0.418228 28.5643 0.366705 28.7103 0.312152C28.8086 0.274267 28.9308 0.26972 29.053 0.275782C29.1573 0.281843 29.2467 0.300028 29.3003 0.348521C29.3093 0.357613 29.3182 0.366705 29.3301 0.375798C29.6222 0.612198 29.7593 0.87436 29.8248 1.15016C29.8725 1.3608 29.9172 1.57144 29.8844 1.78511C29.8576 1.97756 29.8844 2.17001 29.8665 2.36247C29.8278 2.77768 29.792 3.19138 29.7265 3.60509C29.6699 3.95817 29.6132 4.31126 29.5536 4.66434C29.5089 4.9265 29.497 5.19018 29.4076 5.45083C29.3748 5.56145 29.3629 5.67207 29.3719 5.78421C29.3868 6.13881 29.3421 6.49341 29.3361 6.84801C29.3272 7.38597 29.2556 7.92091 28.9934 8.44523C28.901 8.63162 28.8325 8.82104 28.7103 9.00289C28.6626 9.06957 28.612 9.13624 28.5524 9.19989C28.5255 9.22717 28.5136 9.25596 28.5106 9.28627C28.5166 9.30597 28.5345 9.32264 28.5643 9.33628C28.5792 9.34234 28.6 9.34385 28.6179 9.34082C28.6894 9.32567 28.7729 9.31506 28.8325 9.2893C29.2109 9.12109 29.6639 9.01501 30.1079 8.90287C30.1824 8.88621 30.2569 8.87257 30.3344 8.86347C30.6801 8.81347 31.0258 8.76346 31.3714 8.71497C31.3893 8.71194 31.4102 8.71042 31.4281 8.70739C31.9972 8.65132 32.5694 8.60586 33.1505 8.63011C33.5707 8.64829 33.9789 8.70284 34.3425 8.81347C34.7061 8.92409 35.0696 9.03017 35.4004 9.15898C35.7401 9.29536 36.0798 9.44084 36.2705 9.65148C36.2825 9.66057 36.2914 9.66966 36.3033 9.67724C36.6013 9.89091 36.7116 10.1364 36.7891 10.388C36.8129 10.4668 36.792 10.5486 36.795 10.6304C36.798 10.741 36.801 10.8517 36.8129 10.9623C36.8129 10.9729 36.8725 10.988 36.9083 10.988C36.947 10.9865 36.9828 10.979 37.0155 10.9668C37.2867 10.8592 37.5818 10.7774 37.9036 10.7183C38.2761 10.6456 38.6456 10.5698 39.033 10.5198C39.5962 10.4501 40.1326 10.3364 40.678 10.2364C40.8836 10.1985 41.0922 10.1606 41.2948 10.1212C41.5243 10.0788 41.7597 10.0591 42.0011 10.0637C42.1739 10.0652 42.314 10.1 42.4213 10.1697C42.463 10.191 42.4898 10.2182 42.5047 10.247C42.5315 10.3592 42.5226 10.4713 42.4034 10.5713C42.1352 10.7971 41.8551 11.0138 41.4826 11.2047C41.116 11.3896 40.7555 11.5775 40.4068 11.7745C40.1684 11.9094 39.9181 12.0397 39.6737 12.1731C39.5903 12.217 39.5128 12.2625 39.4413 12.3125C39.2207 12.4701 38.9645 12.6125 38.6784 12.7398C38.5622 12.7959 38.4549 12.855 38.3565 12.9186C38.2344 12.999 38.0973 13.0732 37.9692 13.1505C37.9036 13.1884 37.8321 13.2248 37.7725 13.2657C37.5996 13.3884 37.4298 13.5127 37.2122 13.6203C37.1139 13.6688 37.0424 13.7324 36.9619 13.79C36.7354 13.9446 36.5358 14.1097 36.2616 14.2461C36.2199 14.2673 36.1841 14.2916 36.1543 14.3173C35.8325 14.5628 35.5136 14.8068 35.1948 15.0523C35.0637 15.1538 34.9355 15.2569 34.8104 15.3615C34.709 15.4478 34.6107 15.5357 34.5213 15.6266C34.4527 15.6994 34.3633 15.7676 34.2561 15.8267C34.1726 15.8706 34.1041 15.9206 34.0534 15.9752C33.8955 16.1752 33.6452 16.3465 33.4276 16.5283C32.9806 16.9011 32.483 17.2572 32.0092 17.6209C31.878 17.7224 31.7469 17.824 31.6158 17.9255C31.44 18.0619 31.2701 18.1998 31.0347 18.3119C30.99 18.3331 30.9513 18.3559 30.9215 18.3816C30.5728 18.6711 30.0751 18.8938 29.6222 19.1363C29.208 19.3545 28.749 19.55 28.2961 19.75C28.0726 19.8531 27.8193 19.9303 27.5362 19.9834C27.2173 20.041 26.9104 20.1198 26.6064 20.194C26.222 20.2865 25.8137 20.3334 25.3995 20.3668C25.1432 20.3865 24.887 20.4062 24.6277 20.4228C24.2671 20.4441 23.9334 20.5122 23.6085 20.5895C23.5162 20.6107 23.4357 20.6395 23.3612 20.6744C23.1288 20.785 22.9023 20.8987 22.6818 21.0169C22.6132 21.0548 22.5626 21.0972 22.5298 21.1457C22.3927 21.3366 22.2288 21.5215 22.0679 21.7064C21.9695 21.8276 21.8801 21.9519 21.8056 22.0776C21.5672 22.4535 21.3616 22.8353 21.1709 23.2187C21.1083 23.346 21.0815 23.4779 21.0368 23.6067C21.0159 23.6673 20.9951 23.7264 20.9772 23.7855C20.9116 23.9961 20.8699 24.2083 20.855 24.4204C20.8163 24.8387 20.8997 25.2509 21.0249 25.6615C21.1292 26.0222 21.2126 26.3844 21.3259 26.745C21.4004 26.9845 21.5047 27.2224 21.597 27.4618C21.6417 27.5709 21.6924 27.6785 21.7252 27.7891C21.8325 28.1619 22.0351 28.5241 22.2258 28.8848C22.342 29.109 22.4881 29.3318 22.6251 29.5546C22.64 29.5727 22.6639 29.5894 22.6937 29.603C22.6996 29.6061 22.7354 29.603 22.7414 29.5985C22.8337 29.5303 22.8576 29.4485 22.8963 29.3712C22.95 29.2742 22.9917 29.1742 23.0185 29.0742C23.0632 28.9242 23.1377 28.7772 23.248 28.6362C23.4536 28.3604 23.5847 28.074 23.8171 27.8043C23.9274 27.6815 23.9661 27.5527 23.9334 27.4179C23.9214 27.3785 23.9274 27.336 23.9155 27.2966C23.8022 26.8693 23.9304 26.448 24.0555 26.0283C24.0883 25.9388 24.1122 25.8479 24.1241 25.757C24.139 25.6767 24.1598 25.5964 24.1926 25.5176C24.2135 25.4463 24.2433 25.3782 24.2612 25.3069C24.3804 24.8008 24.6694 24.3174 24.9883 23.837C25.0717 23.7127 25.182 23.593 25.2833 23.4718C25.4621 23.2581 25.6439 23.0429 25.8286 22.8308C25.8793 22.7762 25.9389 22.7232 26.0045 22.6717C26.2637 22.4671 26.5289 22.264 26.7882 22.0595C27.1011 21.8109 27.4945 21.5973 27.8878 21.3806C28.1292 21.2457 28.3974 21.1245 28.6149 20.9775C28.7341 20.8987 28.8891 20.8305 29.0381 20.7638C29.497 20.5532 29.953 20.3425 30.4268 20.1395C30.6682 20.0349 30.9364 19.9455 31.2016 19.8531C31.8572 19.6227 32.5068 19.3863 33.2399 19.2181C33.4217 19.1757 33.5915 19.1211 33.7673 19.0741C34.1547 18.9696 34.5392 18.862 34.9325 18.7635C35.1858 18.7029 35.4421 18.6483 35.7073 18.6013C36.5328 18.4498 37.3344 18.2695 38.1569 18.1134C38.5503 18.0376 38.9406 17.9619 39.328 17.88C39.5873 17.8255 39.8316 17.7588 40.0879 17.7012C40.5975 17.5845 41.0952 17.4587 41.6226 17.3633C41.9624 17.2996 42.2872 17.2239 42.606 17.1375C43.2706 16.9602 43.9917 16.8829 44.7248 16.8238C44.7635 16.8193 44.8023 16.8177 44.844 16.8193C45.0556 16.8253 45.2582 16.8905 45.2254 17.036C45.2105 17.1072 45.1718 17.1754 45.1152 17.2405C44.7308 17.6785 44.2122 18.0755 43.658 18.4604C43.3779 18.6559 43.0501 18.8362 42.7461 19.0226C42.6925 19.0529 42.6358 19.0817 42.5911 19.1151C42.3646 19.2818 42.1113 19.4394 41.8342 19.5848C41.6822 19.6651 41.5332 19.7455 41.3753 19.8243C41.1458 19.9364 40.9313 20.0561 40.7316 20.1834C40.5558 20.2925 40.368 20.3956 40.1654 20.4925C40.0104 20.5713 39.8704 20.6577 39.7482 20.7502C39.3072 21.076 38.8751 21.4048 38.4251 21.7276C38.1688 21.9079 37.9572 22.1034 37.7218 22.2928C37.6682 22.3353 37.6235 22.3822 37.5519 22.4186C37.239 22.5777 37.0155 22.7702 36.7622 22.952C36.5656 23.0914 36.3719 23.2324 36.1692 23.3718C36.0143 23.4763 35.8385 23.5733 35.6865 23.6794C35.5345 23.7855 35.3676 23.8855 35.1948 23.9855C34.9743 24.1143 34.7537 24.2446 34.5213 24.3704C34.2471 24.5174 33.973 24.6644 33.6839 24.8023C33.2906 24.9902 32.8972 25.1766 32.5009 25.363C32.4293 25.3963 32.3459 25.4266 32.2714 25.4585C31.9287 25.5994 31.5562 25.7191 31.2433 25.8767C30.7874 26.0237 30.3702 26.1995 29.95 26.3692C29.3063 26.6299 28.5941 26.8329 27.8819 27.039C27.7448 27.0814 27.6017 27.1163 27.4527 27.1451C26.6005 27.2906 25.781 27.4785 24.9406 27.6376C24.7737 27.6679 24.6217 27.7194 24.4549 27.7543C24.2105 27.8043 24.0794 27.8998 24.0168 28.024C23.8767 28.2983 23.6771 28.5635 23.5191 28.8363C23.3016 29.206 23.1556 29.5833 23.0721 29.9667C23.0453 30.1092 23.0513 30.2501 23.0841 30.391C23.1049 30.482 23.1228 30.5729 23.1437 30.6638C23.1496 30.7032 23.1645 30.7441 23.1854 30.782C23.4268 31.1806 23.5907 31.5867 23.7426 31.9958C23.8201 32.205 23.9214 32.4126 24.0019 32.6217C24.1479 33.0096 24.2612 33.3991 24.3416 33.7931C24.3982 34.0643 24.4787 34.3356 24.5562 34.6069C24.5621 34.6341 24.6039 34.6599 24.6337 34.6857C24.6515 34.6841 24.6694 34.6796 24.6843 34.6735C24.7111 34.6584 24.729 34.6402 24.7409 34.622C24.8363 34.3826 25.0002 34.1538 25.1313 33.9204C25.3399 33.5491 25.5932 33.1885 25.8972 32.8339C26.0998 32.5929 26.2935 32.3474 26.5707 32.1231C26.6243 32.0807 26.672 32.0368 26.7167 31.9913C26.9968 31.6746 27.3872 31.3927 27.7716 31.1093C27.8074 31.0836 27.858 31.0639 27.8848 31.0381C28.1381 30.7699 28.5106 30.5456 28.8951 30.3244C29.1305 30.188 29.3748 30.0531 29.6103 29.9152C30.0275 29.6712 30.4923 29.4485 30.9393 29.2181C31.3625 29.003 31.8214 28.809 32.3161 28.6362C32.9896 28.3968 33.7256 28.215 34.4677 28.0407C34.7746 27.9679 35.0815 27.8937 35.3974 27.8285C35.9308 27.7164 36.4464 27.5815 36.9947 27.4861C37.1824 27.4497 37.3761 27.4315 37.5788 27.43C37.8172 27.4315 38.0556 27.4285 38.297 27.4285C38.7142 27.4285 39.1343 27.4224 39.5366 27.4967C39.629 27.5133 39.7333 27.5133 39.8316 27.5239C39.9091 27.53 39.9866 27.5421 40.0611 27.5573C40.3144 27.6164 40.5707 27.6724 40.815 27.7422C41.0952 27.821 41.3872 27.8846 41.6912 27.9346C42.0905 27.9983 42.4898 28.0634 42.8921 28.124C43.0053 28.1407 43.1245 28.1543 43.2408 28.1634C43.3987 28.1756 43.5566 28.1862 43.7176 28.1968C44.1824 28.224 44.6056 28.3059 44.987 28.4438C45.3268 28.568 45.6874 28.6802 46.039 28.7938C46.2238 28.8544 46.4174 28.906 46.6201 28.9499C46.9538 29.0196 47.2369 29.1348 47.5201 29.2484C47.6452 29.2985 47.7584 29.356 47.8747 29.4121C47.9551 29.453 47.9968 29.503 47.9998 29.5606C48.0028 29.6182 47.967 29.6682 47.8896 29.7122C47.4992 29.9213 47.4694 29.9273 46.9181 29.9743C46.5843 30.0016 46.2506 30.0304 45.9168 30.0592C45.7559 30.0728 45.598 30.0743 45.44 30.0622C45.0437 30.0274 44.6473 30.0137 44.245 30.0213C43.8636 30.0289 43.4911 30.0016 43.1245 29.9425C42.4958 29.8364 41.8342 29.8137 41.1875 29.7561C40.7137 29.7137 40.2399 29.6864 39.7691 29.6424C39.331 29.6061 38.893 29.6106 38.4579 29.6561C38.2821 29.6773 38.1211 29.7152 37.9781 29.7713C37.6652 29.8819 37.3702 30.0016 37.09 30.1319C36.7086 30.3107 36.3093 30.4789 35.9696 30.679C35.9129 30.7078 35.8534 30.735 35.7938 30.7608C35.3408 30.973 34.8908 31.1897 34.4677 31.417C34.1279 31.6018 33.7882 31.7867 33.4485 31.9716C33.2607 32.0762 33.073 32.1822 32.8734 32.2807C32.7452 32.3444 32.632 32.4141 32.5336 32.4914C32.4919 32.5247 32.4442 32.5581 32.3995 32.5929C32.2178 32.7384 32.0032 32.8702 31.7559 32.9884C31.1509 33.2824 30.5519 33.5809 29.9053 33.8522C29.1662 34.1613 28.3944 34.4493 27.5481 34.6826C27.0951 34.8084 26.6452 34.9418 26.2041 35.0812C25.9002 35.1782 25.62 35.2933 25.4114 35.4464C25.2982 35.5312 25.1671 35.607 25.0181 35.6752C24.8899 35.7328 24.8363 35.8086 24.8274 35.8919C24.8184 35.9616 24.8154 36.0328 24.8244 36.1041C24.8542 36.3056 24.8601 36.5087 24.9108 36.7087C24.9495 36.8799 24.9704 37.0512 24.9734 37.2239C24.9764 37.4361 25.03 37.6482 24.9913 37.8619C24.9883 37.9134 24.9942 37.9634 25.0091 38.0134C25.182 38.7499 25.2058 39.4894 25.2267 40.2289C25.2326 40.3805 25.1999 40.532 25.1879 40.6851L25.1224 41.414C25.1194 41.4443 25.1224 41.4746 25.1134 41.5049C25.0121 42.0186 24.9644 42.5354 24.7827 43.046C24.6605 43.384 24.577 43.7264 24.4817 44.0674C24.3714 44.4584 24.2641 44.8493 24.1122 45.2373C24.0973 45.2767 24.0913 45.3176 24.0973 45.357C24.0973 45.3737 24.136 45.3888 24.1628 45.4025C24.1718 45.4055 24.2016 45.4025 24.2135 45.3979C24.2492 45.3873 24.282 45.3752 24.3088 45.3615C24.6128 45.16 24.9197 44.9615 25.2863 44.7872C25.4144 44.7266 25.5038 44.6433 25.6111 44.5705C25.7333 44.4902 25.8555 44.4099 25.9806 44.3311C26.0641 44.2765 26.1564 44.2235 26.2458 44.1674C26.6243 43.9341 26.7763 43.6492 26.9551 43.3703C26.9849 43.3112 27.0028 43.2506 27.0057 43.19C27.0206 43.0991 27.0296 43.0082 27.0355 42.9172C27.0504 42.6536 27.0624 42.3899 27.0773 42.1277C27.0802 42.0671 27.0892 42.0065 27.0951 41.9459C27.11 41.7125 27.1935 41.4822 27.1905 41.2488C27.1905 41.1185 27.2471 40.9866 27.2829 40.8563C27.3455 40.6457 27.417 40.4365 27.4736 40.2259C27.5392 39.9834 27.6852 39.7516 27.8282 39.5197C27.9146 39.3849 27.9891 39.247 28.1024 39.1182C28.2871 38.906 28.4481 38.6863 28.6984 38.4893C28.9517 38.2938 29.199 38.0983 29.4583 37.9058C29.9261 37.5573 29.9291 37.5588 30.546 37.2239C30.5907 37.2012 30.6324 37.1815 30.6711 37.1572C30.8648 37.0284 31.0824 36.9087 31.291 36.7875C31.6307 36.589 31.9406 36.3768 32.2625 36.1707C32.4353 36.0586 32.6052 35.948 32.7899 35.8404C32.9985 35.7191 33.1654 35.5782 33.3412 35.4433C33.6154 35.2312 33.8836 35.0175 34.1488 34.8039C34.3097 34.675 34.4706 34.5478 34.5779 34.4038C34.6494 34.3098 34.7686 34.2265 34.8729 34.1401C35.0696 33.9749 35.2663 33.8113 35.4212 33.634C35.5643 33.4688 35.755 33.3127 35.8772 33.14C35.9517 33.0354 36.0381 32.9324 36.0947 32.8248C36.2259 32.5808 36.3957 32.3429 36.6013 32.111C36.7265 31.9731 36.8367 31.8322 36.9321 31.6882C37.0751 31.467 37.2689 31.2563 37.4477 31.0411C37.5341 30.9396 37.6592 30.8457 37.7725 30.7517C37.8887 30.6562 38.0228 30.5668 38.136 30.4714C38.2642 30.3638 38.4609 30.2926 38.6635 30.2304C38.8453 30.1743 39.0479 30.1789 39.2446 30.2122C39.2833 30.2183 39.3191 30.2289 39.3459 30.2425C39.483 30.3183 39.6052 30.3971 39.6558 30.4986C39.7929 30.785 39.8883 31.0715 39.8674 31.37C39.8406 31.7655 39.8316 32.161 39.775 32.555C39.772 32.5853 39.772 32.6156 39.775 32.6459C39.7959 33.0021 39.6916 33.3536 39.5784 33.7037C39.5217 33.884 39.4651 34.0643 39.4532 34.2462C39.4413 34.4508 39.3697 34.6508 39.2982 34.8478C39.185 35.1569 39.0688 35.4646 38.9674 35.7752C38.881 36.0343 38.7112 36.2844 38.5771 36.539C38.5204 36.6466 38.4579 36.7526 38.4072 36.8617C38.2999 37.0769 38.1956 37.2936 38.0586 37.5058C37.9602 37.6604 37.8857 37.818 37.7844 37.971C37.54 38.3468 37.2361 38.709 36.9172 39.0697C36.9023 39.0894 36.8844 39.1075 36.8636 39.1242C36.646 39.3061 36.4583 39.497 36.2676 39.6864C36.1186 39.8304 35.9547 39.9683 35.7729 40.1032C35.3021 40.4684 34.8223 40.829 34.3484 41.1927C34.2471 41.2685 34.1309 41.3382 34.0058 41.4034C33.7584 41.5367 33.52 41.6716 33.2906 41.8125C33.1654 41.8913 33.0253 41.9641 32.8734 42.0292C32.7452 42.0777 32.626 42.1307 32.5128 42.1883C32.03 42.4338 31.4638 42.6248 30.8976 42.8142C30.7814 42.8536 30.6533 42.8854 30.546 42.9294C30.1854 43.0794 29.7652 43.1718 29.345 43.2673C29.199 43.3021 29.05 43.3294 28.8951 43.3506C28.3229 43.4219 27.8103 43.5522 27.3782 43.7598C27.3067 43.7946 27.2292 43.8265 27.1488 43.8553C27.0504 43.8916 26.97 43.9371 26.9074 43.9886C26.6928 44.1598 26.4664 44.3281 26.1833 44.472C26.1177 44.5099 26.0581 44.5493 26.0045 44.5932C25.6945 44.8175 25.3459 45.0251 24.9615 45.2191C24.9466 45.2252 24.9317 45.2327 24.9197 45.2403C24.6307 45.4343 24.3416 45.6267 24.0257 45.8116C23.8976 45.8919 23.8201 45.9844 23.7903 46.0874C23.7069 46.3359 23.6205 46.586 23.5221 46.8345C23.4208 47.0936 23.3046 47.3497 23.1913 47.6073C23.1824 47.6377 23.1615 47.6664 23.1347 47.6937C22.9708 47.8347 22.8933 47.9923 22.792 48.1468C22.7652 48.1847 22.7265 48.2196 22.6728 48.2499C22.6341 48.2756 22.5685 48.2772 22.5089 48.2696C22.4493 48.2559 22.4195 48.2332 22.4136 48.1999C22.4314 48.1408 22.4553 48.0801 22.4851 48.0226C22.6728 47.7437 22.8069 47.4573 22.9291 47.1709C23.0423 46.9042 23.1615 46.6375 23.2867 46.3708C23.3314 46.2799 23.3195 46.1905 23.245 46.1041C23.0692 45.898 22.8606 45.704 22.5745 45.5313C22.2318 45.3206 21.901 45.1039 21.5643 44.8903C21.3378 44.7478 21.0904 44.616 20.8222 44.4947C20.6285 44.4069 20.4468 44.3129 20.2739 44.2144C20.0027 44.0659 19.7286 43.9204 19.4127 43.7931C19.2279 43.7158 19.0491 43.634 18.8823 43.5476C18.4412 43.3279 17.9465 43.14 17.5174 42.9112C17.2582 42.7733 16.9453 42.6596 16.6532 42.5384C16.394 42.4262 16.1585 42.3035 15.947 42.1686C15.7622 42.061 15.5625 41.9625 15.351 41.8716C14.9308 41.6852 14.5285 41.4867 14.2007 41.2564C13.8848 41.0321 13.5719 40.8093 13.259 40.5866C13.1994 40.5457 13.1458 40.5032 13.1011 40.4578C12.8627 40.2123 12.6392 39.9622 12.3918 39.7198C12.21 39.55 12.0789 39.3697 11.9955 39.1803C11.9687 39.1182 11.9031 39.0682 11.7958 39.0348C11.5991 38.9651 11.4025 38.8969 11.2028 38.8287C10.9227 38.7302 10.6455 38.6332 10.4012 38.5105C10.1896 38.4044 9.91245 38.3347 9.72174 38.215C9.16745 37.9968 8.72046 37.7225 8.23174 37.4694C8.12148 37.4118 8.01718 37.3497 7.92182 37.283C7.41224 36.9345 6.8818 36.592 6.42586 36.2223C6.38414 36.1874 6.3454 36.1525 6.30666 36.1162C6.10402 35.9298 5.90734 35.7419 5.69874 35.557C5.52888 35.4085 5.38286 35.2524 5.26068 35.0918C5.15936 34.9599 5.06102 34.8266 4.9448 34.6978C4.77792 34.5129 4.6766 34.3159 4.55144 34.1234C4.47098 34.0083 4.43224 33.8886 4.42926 33.7658C4.4382 33.5324 4.37264 33.3006 4.33092 33.0687C4.319 33.0081 4.31602 32.9475 4.319 32.8869C4.32496 32.8384 4.36668 32.799 4.44118 32.7702C4.51568 32.7399 4.6021 32.7293 4.69448 32.7384C4.77494 32.7444 4.84646 32.7581 4.91798 32.7778C5.1385 32.8475 5.35306 32.9202 5.51994 33.0248C5.62126 33.0869 5.73748 33.143 5.84774 33.2021C6.15169 33.3627 6.44374 33.5279 6.75962 33.684C7.14106 33.8749 7.48971 34.084 7.85924 34.2841C8.2675 34.5053 8.68768 34.722 9.0423 34.9675C9.32242 35.0978 9.56976 35.2463 9.88266 35.357C10.3088 35.5085 10.6902 35.6843 11.0717 35.8661C11.1968 35.9313 11.3399 35.9843 11.5008 36.0268C11.5187 36.0328 11.5395 36.0343 11.5574 36.0298C11.5783 36.0237 11.5902 36.0162 11.5932 36.0056C11.6051 35.9146 11.614 35.8252 11.614 35.7343C11.6081 35.46 11.6349 35.1872 11.6826 34.9145C11.6885 34.8948 11.6915 34.8751 11.6915 34.8554C11.6677 34.6311 11.7481 34.4114 11.7839 34.1901C11.8375 33.8673 11.9031 33.5446 12.0312 33.2263C12.0759 33.1081 12.0908 32.9854 12.1206 32.852ZM22.5387 36.4859C22.1662 36.3753 21.8116 36.2435 21.3974 36.1647C21.3229 36.148 21.2543 36.1283 21.1888 36.1056C21.001 36.0465 20.8193 35.9843 20.6256 35.9313C20.417 35.8737 20.1935 35.8298 19.9819 35.7722C19.6153 35.6676 19.2339 35.5828 18.8346 35.5176C18.7571 35.5055 18.6856 35.4888 18.6141 35.4691C18.2088 35.3615 17.8065 35.2539 17.3982 35.1463C17.3088 35.1236 17.2164 35.1054 17.1241 35.0887C17.0764 35.0797 16.9929 35.11 16.9959 35.1342C17.0078 35.2554 16.99 35.3767 17.0853 35.4934C17.1181 35.5297 17.139 35.5691 17.1449 35.61C17.1688 35.7616 17.2313 35.9101 17.3327 36.054C17.3535 36.0934 17.3714 36.1328 17.3803 36.1722C17.5085 36.5511 17.6336 36.9299 17.7588 37.3103C17.7677 37.3391 17.7856 37.3679 17.8005 37.3982C17.8869 37.5846 17.9763 37.7725 18.0628 37.9589C18.1879 38.2256 18.3012 38.4923 18.5008 38.7469C18.5425 38.803 18.5932 38.8636 18.6707 38.906C18.9299 39.0469 19.1862 39.1894 19.4753 39.3136C19.7316 39.4243 19.9849 39.5379 20.2411 39.6501C20.408 39.7243 20.5421 39.8137 20.715 39.8804C20.9653 39.9819 21.1828 40.0986 21.3706 40.232C21.4778 40.3047 21.5941 40.3729 21.7222 40.4381C21.9159 40.5396 22.0917 40.6487 22.2526 40.7639C22.4434 40.8942 22.64 41.0215 22.8278 41.1533C22.9559 41.2427 23.096 41.3321 23.1854 41.4322C23.3314 41.5973 23.5668 41.7413 23.6503 41.9231C23.6622 41.9428 23.6801 41.961 23.7039 41.9777C23.9214 42.158 24.1032 42.349 24.2492 42.549C24.2701 42.5808 24.3565 42.602 24.3893 42.5854C24.4221 42.5702 24.4578 42.5581 24.4638 42.5429C24.5472 42.2535 24.6664 41.9656 24.6694 41.6701C24.6664 41.5276 24.6784 41.3867 24.7052 41.2458C24.7946 40.8821 24.7171 40.5184 24.7558 40.1547C24.7827 39.9016 24.7469 39.6485 24.732 39.3955C24.7171 39.1136 24.6962 38.8302 24.6724 38.5469C24.6575 38.3953 24.5979 38.2438 24.6068 38.0938C24.6158 37.8892 24.5472 37.6907 24.5353 37.4876C24.5323 37.4149 24.4876 37.3482 24.3982 37.2906C24.288 37.2194 24.1896 37.1391 24.0526 37.0815C23.7128 36.9421 23.4059 36.7829 23.0453 36.6557C22.8814 36.5966 22.7116 36.5435 22.5387 36.4859ZM23.9989 14.8341L23.987 14.8311C23.8469 14.9417 23.695 15.0493 23.5638 15.1629C23.3612 15.3372 23.1586 15.5115 22.9798 15.6933C22.8665 15.81 22.8308 15.9449 22.652 16.0464C22.4434 16.3086 22.2139 16.5677 22.0321 16.8359C21.5643 17.5254 21.1471 18.221 20.8878 18.9408C20.8669 18.9999 20.8401 19.059 20.8073 19.1181C20.6434 19.4227 20.5958 19.7364 20.5451 20.0485C20.4944 20.3713 20.4646 20.6956 20.414 21.0184C20.3752 21.2305 20.3693 21.4427 20.3931 21.6548C20.4646 22.1489 20.5362 22.6444 20.6107 23.1384C20.6166 23.1687 20.6285 23.199 20.6464 23.2278C20.6613 23.2506 20.6941 23.2612 20.7299 23.2551C20.7507 23.2521 20.7656 23.2475 20.7775 23.2384C20.8014 23.2111 20.8222 23.1839 20.8371 23.1551C20.9832 22.8702 21.1202 22.5853 21.2841 22.3034C21.4004 22.0989 21.5374 21.8988 21.6924 21.7018C21.8265 21.5321 21.9844 21.3684 22.1275 21.2017C22.2467 21.0623 22.354 20.9214 22.4732 20.782C22.6937 20.5259 22.7831 20.2592 22.7414 19.9819C22.7384 19.9516 22.7324 19.9212 22.7324 19.8909C22.7145 19.2984 22.8606 18.718 23.1735 18.1482C23.3672 17.7876 23.6026 17.4315 23.8261 17.0754C23.984 16.8283 24.437 16.3449 24.6605 16.1358C24.8035 16.0025 24.9764 15.8767 25.0807 15.7327C25.0985 15.7039 25.1283 15.6767 25.1701 15.6539C25.3131 15.5797 25.3846 15.4857 25.483 15.3978C25.7571 15.1508 26.067 14.9144 26.4068 14.6886C26.5856 14.5674 26.7852 14.4522 26.961 14.331C27.116 14.2249 27.265 14.1173 27.4676 14.0325C27.4974 14.0188 27.5213 14.0021 27.5332 13.9824C27.5451 13.9627 27.5421 13.9446 27.5243 13.9279C27.4557 13.8915 27.3842 13.8506 27.2978 13.8309C27.0922 13.7854 26.9312 13.7127 26.7673 13.6369C26.6213 13.5703 26.4366 13.5263 26.2667 13.4733C26.2101 13.4551 26.0998 13.4642 26.0462 13.4915C25.918 13.5566 25.772 13.6142 25.6707 13.6869C25.3489 13.9188 24.9525 14.1219 24.6426 14.3583C24.437 14.5204 24.2135 14.6765 23.9989 14.8341ZM20.8371 41.7231C20.7358 41.6898 20.6375 41.6549 20.5362 41.6246C20.4497 41.5988 20.3603 41.5761 20.2709 41.5534C20.1935 41.5337 20.1249 41.5367 20.119 41.561C20.113 41.5898 20.0981 41.6231 20.119 41.6473C20.1935 41.7307 20.2739 41.811 20.3663 41.8898C20.6196 42.1065 20.8461 42.3323 21.0398 42.5657C21.2007 42.7611 21.3914 42.9521 21.5464 43.1491C21.7133 43.3658 21.9397 43.5688 22.0768 43.7916C22.1185 43.8598 22.1722 43.925 22.2348 43.9886C22.5864 44.3644 22.8308 44.7599 23.1258 45.1464C23.2331 45.2782 23.2986 45.4146 23.3225 45.557C23.3374 45.6176 23.3612 45.6767 23.391 45.7343C23.3999 45.7434 23.4119 45.751 23.4297 45.7555C23.4625 45.7465 23.5072 45.7374 23.5191 45.7207C23.5489 45.6843 23.5698 45.6449 23.5817 45.6055C23.6205 45.4858 23.6443 45.3646 23.692 45.2449C23.8171 44.9281 23.9274 44.6099 24.0019 44.2887C24.0168 44.1977 24.0496 44.1083 24.0943 44.0189C24.1896 43.8416 24.1986 43.6598 24.2522 43.4794C24.2701 43.4173 24.2463 43.3582 24.1807 43.3037C24.139 43.2703 24.1062 43.2324 24.0853 43.1945C24.0228 43.0854 23.9155 42.99 23.7575 42.9097C23.4029 42.7172 23.0572 42.5202 22.6162 42.3778C22.5119 42.3474 22.4195 42.3096 22.3331 42.2671C22.1305 42.152 21.8712 42.0747 21.6507 41.9731C21.5911 41.9444 21.5255 41.9231 21.454 41.908C21.2245 41.864 21.0368 41.7898 20.8371 41.7231ZM23.9006 13.1975C23.7188 13.3566 23.5996 13.4733 23.4566 13.5824C23.3523 13.6597 23.3076 13.7445 23.3135 13.8385C23.3195 13.9097 23.3046 13.9809 23.3225 14.0506C23.3612 14.2143 23.3314 14.3734 23.2897 14.534C23.2688 14.6053 23.245 14.675 23.2301 14.7447C23.2182 14.775 23.2152 14.8053 23.2211 14.8356C23.2271 14.8568 23.248 14.872 23.2807 14.8841C23.3165 14.8886 23.3493 14.8856 23.3761 14.8735C23.4595 14.8159 23.534 14.7568 23.6115 14.6977C24.2522 14.184 24.9346 13.6869 25.7571 13.2429C25.8167 13.2096 25.8316 13.1717 25.8078 13.1293C25.7154 12.9323 25.6171 12.7368 25.5187 12.5413C25.5038 12.5156 25.4085 12.5034 25.3667 12.5231C24.9525 12.7126 24.5145 12.8838 24.1151 13.0838C24.0168 13.1323 23.9214 13.1854 23.9006 13.1975Z" fill="#838B66"/>
</svg>
