<svg width="48" height="48" viewBox="0 0 48 48" fill="none" xmlns="http://www.w3.org/2000/svg">
<path d="M3.24548 36.6369H2.23513V46.5529C2.23513 46.8438 2.33204 47.0923 2.52793 47.2982C2.72278 47.502 2.96196 47.6033 3.24548 47.6033H3.43105L3.44755 47.769H0V47.6033H0.206193C0.478368 47.6033 0.710335 47.5031 0.903126 47.3026C1.09798 47.1021 1.20108 46.858 1.21242 46.5703V37.3343C1.20108 37.0466 1.09798 36.8014 0.903126 36.5976C0.710335 36.3917 0.478368 36.2882 0.206193 36.2882H0V36.1182H4.2517C5.20535 36.1182 5.95486 36.3993 6.49921 36.9594C7.04562 37.5206 7.31986 38.2485 7.31986 39.1431C7.31986 40.0356 7.06005 40.806 6.54045 41.4532C6.02084 42.1016 5.38783 42.4252 4.64347 42.4252C4.80224 42.5037 4.98987 42.6584 5.20432 42.8872C5.41876 43.1139 5.60949 43.3493 5.77753 43.5933C6.68169 44.9565 7.27037 45.7967 7.54255 46.1127C7.81472 46.4298 8.00854 46.6466 8.12401 46.7621C8.23948 46.8787 8.36423 46.992 8.49928 47.1021C8.6364 47.2132 8.77352 47.3015 8.91167 47.368C9.21683 47.5249 9.54262 47.6033 9.88902 47.6033V47.769H9.02301C8.57145 47.769 8.15082 47.684 7.76111 47.5118C7.37347 47.3407 7.0817 47.1631 6.88685 46.9801C6.69406 46.797 6.52601 46.6205 6.38374 46.4483C6.24353 46.2739 5.85279 45.6986 5.21256 44.7222C4.5713 43.7459 4.19912 43.1902 4.095 43.0529C3.98984 42.9134 3.88056 42.7772 3.76509 42.6432C3.42693 42.2661 3.0898 42.0765 2.75474 42.0765V41.9109C2.83928 41.9229 2.94959 41.9283 3.08465 41.9283C3.22177 41.9283 3.39085 41.9229 3.59188 41.9109C4.89193 41.8793 5.70949 41.3029 6.04558 40.1805C6.10847 39.9604 6.14043 39.7522 6.14043 39.5572C6.14043 39.3632 6.14043 39.2379 6.14043 39.1824C6.11775 38.4392 5.93424 37.8399 5.58783 37.3866C5.24143 36.9311 4.77543 36.687 4.18985 36.6543C3.93623 36.6434 3.62178 36.6369 3.24548 36.6369Z" fill="#42433E"/>
<path d="M20.9881 47.6034H21.1118V47.769H17.5694V47.6034H17.7137C17.9333 47.6034 18.0983 47.5293 18.2086 47.3811C18.3179 47.2307 18.3736 47.0879 18.3736 46.9539C18.3736 46.821 18.3529 46.6869 18.3117 46.5529L17.3014 43.7241H13.0538L11.9981 46.5704C11.9568 46.7044 11.9362 46.8351 11.9362 46.9626C11.9362 47.0912 11.9909 47.2307 12.1012 47.3811C12.2105 47.5293 12.3754 47.6034 12.596 47.6034H12.7362V47.769H9.57324V47.6034H9.71345C9.97738 47.6034 10.2341 47.5151 10.4846 47.3375C10.7372 47.161 10.9424 46.8994 11.0991 46.5529L14.658 37.6002C15.0456 36.7023 15.2394 36.1313 15.2394 35.8872H15.3838L19.6025 46.5529C19.7478 46.8994 19.9468 47.161 20.2004 47.3375C20.453 47.5151 20.7159 47.6034 20.9881 47.6034ZM13.2394 43.2272H17.1158L15.2229 37.8835L13.2394 43.2272Z" fill="#42433E"/>
<path d="M35.0918 47.6034H35.3433V47.769H31.9288V47.6208H32.1638C32.3422 47.6208 32.4948 47.5467 32.6216 47.3985C32.7473 47.2481 32.7999 47.0825 32.7783 46.9016L32.069 38.5329L28.7616 46.3045C28.4668 46.9822 28.2894 47.5467 28.2297 48H28.0688L24.0398 38.7639L23.3635 46.9016C23.3408 47.0825 23.3934 47.2481 23.5202 47.3985C23.646 47.5467 23.7934 47.6208 23.9615 47.6208H24.213V47.769H21.1572V47.6034H21.4088C21.7026 47.6034 21.9573 47.5097 22.1717 47.32C22.3882 47.1315 22.5181 46.8755 22.5593 46.5529L23.7388 35.8872H23.8996L28.2915 45.9209L32.5886 35.8872H32.7288L33.9412 46.5529C33.9958 46.9975 34.2062 47.3092 34.5722 47.4857C34.7289 47.5641 34.9021 47.6034 35.0918 47.6034Z" fill="#42433E"/>
<path d="M38.2472 37.5609C39.2916 36.4451 40.6535 35.8872 42.334 35.8872C44.0134 35.8872 45.3774 36.4451 46.4249 37.5609C47.4744 38.6746 48.0002 40.1358 48.0002 41.9458C48.0002 43.7535 47.4744 45.2148 46.4249 46.3306C45.3774 47.4443 44.0134 48 42.334 48C40.6535 48 39.2916 47.4443 38.2472 46.3306C37.2018 45.2148 36.6802 43.7535 36.6802 41.9458C36.6802 40.1358 37.2018 38.6746 38.2472 37.5609ZM39.1133 45.9732C39.9267 46.9931 41.003 47.5031 42.3422 47.5031C43.6804 47.5031 44.7557 46.9931 45.5671 45.9732C46.3805 44.9511 46.7878 43.6086 46.7878 41.9458C46.7878 40.8474 46.6032 39.8776 46.2352 39.0342C45.8692 38.1886 45.3485 37.537 44.6722 37.0771C43.9959 36.6151 43.2165 36.3841 42.334 36.3841C40.9999 36.3841 39.9267 36.8962 39.1133 37.9183C38.2988 38.9383 37.8926 40.2808 37.8926 41.9458C37.8926 43.6086 38.2988 44.9511 39.1133 45.9732Z" fill="#42433E"/>
<path d="M6.93262 33.3976C6.93262 33.2734 6.95736 33.1655 7.00685 33.075H7.03159C7.0285 33.0903 7.02747 33.1045 7.02747 33.1186C7.02747 33.2385 7.06664 33.3431 7.14706 33.4324C7.22954 33.5196 7.34088 33.5632 7.48109 33.5632C7.59037 33.5632 7.67594 33.536 7.73677 33.4804C7.79966 33.4259 7.83162 33.3562 7.83162 33.2712C7.83162 33.2221 7.81615 33.1775 7.78626 33.1361C7.75533 33.0957 7.70481 33.0522 7.63367 33.0053L7.20892 32.7045C7.04912 32.5912 6.96973 32.4539 6.96973 32.2905C6.96973 32.273 6.97076 32.2556 6.97386 32.2382C6.98417 32.102 7.03571 31.9919 7.12644 31.9069C7.21716 31.823 7.33779 31.7805 7.48934 31.7805C7.58006 31.7805 7.69141 31.7892 7.82337 31.8067H7.98008L7.94709 32.1902H7.92234C7.92234 32.1009 7.89038 32.0279 7.8275 31.9723C7.76358 31.9178 7.68007 31.8895 7.57594 31.8895C7.44604 31.8895 7.35428 31.932 7.29964 32.0159C7.26871 32.0573 7.25428 32.0976 7.25428 32.1379C7.25428 32.1761 7.26046 32.2098 7.2749 32.2382C7.29964 32.2818 7.35016 32.3297 7.42748 32.382L7.89348 32.7045C8.04194 32.807 8.11617 32.9399 8.11617 33.1055C8.11617 33.2886 8.05637 33.4303 7.93884 33.5283C7.82028 33.6242 7.66254 33.6722 7.4646 33.6722C7.35428 33.6722 7.25119 33.6591 7.15531 33.6329C7.06149 33.6046 6.99241 33.5654 6.94911 33.5153C6.93777 33.4837 6.93262 33.4444 6.93262 33.3976Z" fill="#42433E"/>
<path d="M8.67947 33.6112C8.72071 33.6112 8.75577 33.5959 8.7867 33.5632C8.81659 33.5316 8.83309 33.4924 8.83618 33.4455V32.0072C8.83309 31.9614 8.81659 31.9233 8.7867 31.8938C8.75577 31.8622 8.72071 31.8459 8.67947 31.8459H8.64648V31.8197H9.3929V31.8459H9.35991C9.31867 31.8459 9.28156 31.8622 9.24857 31.8938C9.21764 31.9233 9.20321 31.9614 9.20321 32.0072V33.4455C9.20321 33.4924 9.21764 33.5316 9.24857 33.5632C9.28156 33.5959 9.31867 33.6112 9.35991 33.6112H9.3929V33.6373H8.64648V33.6112H8.67947Z" fill="#42433E"/>
<path d="M11.814 31.8459C11.7562 31.8459 11.7119 31.872 11.682 31.9243C11.6707 31.945 11.6635 31.9712 11.6614 32.0028V33.3409C11.6614 33.4575 11.6676 33.5545 11.682 33.6329L11.6903 33.6722H11.6696L10.4284 32.4256V33.4542C10.4284 33.4978 10.4418 33.536 10.4696 33.5676C10.4995 33.597 10.5356 33.6112 10.5768 33.6112H10.6222V33.6373H9.87988V33.6112H9.92525C9.96648 33.6112 10.0015 33.597 10.0325 33.5676C10.0624 33.536 10.0778 33.4978 10.0778 33.4542V32.103C10.0778 31.9897 10.0696 31.896 10.0531 31.8197L10.049 31.7805H10.0696L11.3109 33.0314V32.0028C11.3109 31.9592 11.2954 31.9232 11.2655 31.8938C11.2346 31.8622 11.1995 31.8459 11.1583 31.8459H11.117V31.8197H11.8593V31.8459H11.814Z" fill="#42433E"/>
<path d="M13.3704 33.6722C13.0539 33.6722 12.8055 33.5883 12.624 33.4194C12.4446 33.2516 12.356 33.0216 12.356 32.7307C12.356 32.4376 12.4446 32.2066 12.624 32.0377C12.8024 31.8666 13.0467 31.7805 13.3581 31.7805C13.5941 31.7805 13.7972 31.8284 13.9684 31.9243L13.9766 32.3689H13.956C13.8704 32.0497 13.6797 31.8895 13.3828 31.8895C13.19 31.8895 13.0374 31.9636 12.925 32.1118C12.8116 32.26 12.756 32.4637 12.756 32.722C12.756 32.9781 12.8096 33.1818 12.9168 33.3322C13.024 33.4837 13.1694 33.561 13.3539 33.5632C13.5436 33.5632 13.688 33.5142 13.7869 33.415C13.888 33.3104 13.9601 33.1317 14.0014 32.8789H14.0179L14.0426 33.3235C13.9107 33.5567 13.6859 33.6722 13.3704 33.6722Z" fill="#42433E"/>
<path d="M14.6111 33.6112C14.6524 33.6112 14.6874 33.5959 14.7183 33.5632C14.7482 33.5316 14.7647 33.4924 14.7678 33.4455V32.0028C14.7647 31.957 14.7524 31.9233 14.7307 31.9026C14.6915 31.8655 14.6524 31.8459 14.6111 31.8459H14.5781V31.8197H15.5184C15.6008 31.8197 15.6679 31.8143 15.7204 31.8023C15.772 31.7881 15.8039 31.7783 15.8153 31.7718V32.2251H15.7905V32.1946C15.7905 32.0878 15.7514 32.0115 15.6751 31.9679C15.639 31.9451 15.5967 31.932 15.5472 31.9287H15.1348V32.6871H15.4606C15.5204 32.6849 15.5699 32.6631 15.6091 32.6217C15.6503 32.5782 15.6709 32.5259 15.6709 32.4648V32.4387H15.6957V33.0402H15.6709V33.0184C15.6709 32.9552 15.6514 32.9029 15.6132 32.8615C15.574 32.8179 15.5246 32.7961 15.4648 32.7961H15.1348V33.524H15.4565C15.5771 33.524 15.6771 33.488 15.7576 33.415C15.84 33.3431 15.8998 33.2396 15.939 33.1056H15.9637L15.8524 33.6373H14.5781V33.6112H14.6111Z" fill="#42433E"/>
<path d="M33.2944 31.7805C33.3903 31.7805 33.4862 31.8023 33.5831 31.8459C33.679 31.8873 33.7532 31.9483 33.8058 32.0289C33.8604 32.1074 33.8882 32.2011 33.8882 32.3079C33.8882 32.3983 33.8614 32.4997 33.8099 32.613C33.7821 32.6773 33.7171 32.7688 33.6161 32.8876C33.5552 32.9606 33.4645 33.0467 33.3439 33.1448C33.2253 33.2439 33.1624 33.2962 33.1542 33.3017H33.6614C33.7326 33.3017 33.7913 33.2832 33.8388 33.245C33.8883 33.2047 33.9346 33.1393 33.979 33.0489H34.0037L33.8594 33.6373H32.6841V33.6112C32.7057 33.585 32.747 33.536 32.8078 33.463C32.8707 33.3878 32.9171 33.3322 32.948 33.2973C32.981 33.2603 33.0243 33.2047 33.08 33.1317C33.1377 33.0598 33.181 32.9998 33.2119 32.953C33.2449 32.9072 33.282 32.8506 33.3233 32.783C33.3645 32.7165 33.3954 32.6566 33.4181 32.6043C33.4697 32.4801 33.4965 32.3635 33.4965 32.2556C33.4965 32.1488 33.4676 32.0616 33.4099 31.9941C33.3542 31.9243 33.282 31.8895 33.1913 31.8895C33.0697 31.8895 32.9789 31.9331 32.9191 32.0202C32.8583 32.1052 32.8294 32.2229 32.8325 32.3733H32.8078L32.6882 31.9723C32.8202 31.8448 33.0222 31.7805 33.2944 31.7805Z" fill="#42433E"/>
<path d="M34.6973 32.0377C34.821 31.8666 34.988 31.7805 35.2004 31.7805C35.4148 31.7805 35.5839 31.8666 35.7076 32.0377C35.8314 32.2098 35.8932 32.4408 35.8932 32.7307C35.8932 33.0184 35.8314 33.2483 35.7076 33.4194C35.5839 33.5883 35.4148 33.6722 35.2004 33.6722C34.988 33.6722 34.821 33.5883 34.6973 33.4194C34.5736 33.2483 34.5117 33.0184 34.5117 32.7307C34.5117 32.4408 34.5736 32.2098 34.6973 32.0377ZM35.2045 31.8895C35.0664 31.8895 34.9746 32.0148 34.9282 32.2643C34.9055 32.3896 34.8952 32.5433 34.8952 32.7263C34.8952 33.0031 34.921 33.2123 34.9736 33.354C35.0251 33.4935 35.1014 33.5632 35.2004 33.5632C35.3014 33.5632 35.3788 33.4935 35.4313 33.354C35.4829 33.2123 35.5097 33.0042 35.5097 32.7307C35.5097 32.455 35.4829 32.2458 35.4313 32.103C35.3788 31.9614 35.3035 31.8895 35.2045 31.8895Z" fill="#42433E"/>
<path d="M37.0405 31.7805C37.1364 31.7805 37.2323 31.8023 37.3292 31.8459C37.4251 31.8873 37.4993 31.9483 37.5519 32.0289C37.6065 32.1074 37.6343 32.2011 37.6343 32.3079C37.6343 32.3983 37.6075 32.4997 37.556 32.613C37.5282 32.6773 37.4632 32.7688 37.3622 32.8876C37.3013 32.9606 37.2106 33.0467 37.09 33.1448C36.9714 33.2439 36.9085 33.2962 36.9003 33.3017H37.4075C37.4787 33.3017 37.5374 33.2832 37.5849 33.245C37.6343 33.2047 37.6807 33.1393 37.7251 33.0489H37.7498L37.6055 33.6373H36.4302V33.6112C36.4518 33.585 36.4931 33.536 36.5539 33.463C36.6168 33.3878 36.6632 33.3322 36.6941 33.2973C36.7271 33.2603 36.7704 33.2047 36.8261 33.1317C36.8838 33.0598 36.9271 32.9998 36.958 32.953C36.991 32.9072 37.0281 32.8506 37.0694 32.783C37.1106 32.7165 37.1415 32.6566 37.1642 32.6043C37.2158 32.4801 37.2426 32.3635 37.2426 32.2556C37.2426 32.1488 37.2137 32.0616 37.156 31.9941C37.1003 31.9243 37.0281 31.8895 36.9374 31.8895C36.8158 31.8895 36.725 31.9331 36.6652 32.0202C36.6044 32.1052 36.5755 32.2229 36.5786 32.3733H36.5539L36.4343 31.9723C36.5663 31.8448 36.7683 31.7805 37.0405 31.7805Z" fill="#42433E"/>
<path d="M38.4429 32.0377C38.5666 31.8666 38.7336 31.7805 38.946 31.7805C39.1605 31.7805 39.3295 31.8666 39.4532 32.0377C39.577 32.2098 39.6388 32.4408 39.6388 32.7307C39.6388 33.0184 39.577 33.2483 39.4532 33.4194C39.3295 33.5883 39.1605 33.6722 38.946 33.6722C38.7336 33.6722 38.5666 33.5883 38.4429 33.4194C38.3192 33.2483 38.2573 33.0184 38.2573 32.7307C38.2573 32.4408 38.3192 32.2098 38.4429 32.0377ZM38.9501 31.8895C38.812 31.8895 38.7202 32.0148 38.6738 32.2643C38.6512 32.3896 38.6408 32.5433 38.6408 32.7263C38.6408 33.0031 38.6666 33.2123 38.7192 33.354C38.7707 33.4935 38.847 33.5632 38.946 33.5632C39.047 33.5632 39.1244 33.4935 39.1769 33.354C39.2285 33.2123 39.2553 33.0042 39.2553 32.7307C39.2553 32.455 39.2285 32.2458 39.1769 32.103C39.1244 31.9614 39.0491 31.8895 38.9501 31.8895Z" fill="#42433E"/>
<path d="M20.2225 23.429C20.1988 23.392 20.1823 23.3691 20.1678 23.344C19.9555 22.9659 19.6843 22.6357 19.4132 22.3056C19.3637 22.2413 19.3008 22.1988 19.2255 22.1781C19.1915 22.1694 19.1585 22.1574 19.1255 22.1476C18.9266 22.0876 18.7265 22.0299 18.5276 21.9689C18.4471 21.946 18.3709 21.9144 18.2966 21.873C18.2544 21.8479 18.21 21.8283 18.1647 21.8119C18.0399 21.7673 17.9193 21.7161 17.8007 21.6572C17.7069 21.6093 17.6172 21.5559 17.5296 21.4981C17.2811 21.3358 17.0708 21.1255 16.8677 20.9075C16.8141 20.8498 16.7626 20.792 16.7244 20.7212C16.7193 20.7081 16.712 20.6961 16.7017 20.6852C16.5749 20.5654 16.512 20.3997 16.4203 20.2548C16.3481 20.1382 16.3079 20.0053 16.2563 19.8778C16.2244 19.7971 16.2038 19.7111 16.1667 19.6337C16.1141 19.5215 16.0873 19.4005 16.0563 19.2817C16.0275 19.1684 16.0264 19.0518 16.0316 18.9352C16.0347 18.8578 16.1161 18.7936 16.1935 18.8023C16.2357 18.8055 16.2739 18.8197 16.31 18.8426C16.4667 18.9505 16.6296 19.0474 16.7626 19.188C16.8316 19.2599 16.9151 19.3122 16.9821 19.3874C17.0626 19.4768 17.1523 19.5585 17.2347 19.6457C17.3461 19.7655 17.4585 19.8843 17.5884 19.9824C17.6059 19.9933 17.6213 20.0074 17.6358 20.0238C17.7172 20.136 17.8306 20.2079 17.9409 20.2831C18.1492 20.427 18.3595 20.5665 18.5698 20.707C18.576 20.7114 18.5812 20.7146 18.5874 20.7179C18.7358 20.7789 18.8709 20.8683 19.0162 20.9369C19.2173 21.0328 19.4235 21.1156 19.6204 21.2203C19.7482 21.2584 19.8565 21.3368 19.9709 21.4055C20.0781 21.4709 20.1864 21.5308 20.2843 21.6147C20.4019 21.7161 20.5328 21.7989 20.6586 21.8882C20.6761 21.9002 20.6936 21.91 20.7132 21.9198C20.741 21.9329 20.7658 21.9275 20.7874 21.9046C20.8091 21.8751 20.8307 21.8468 20.8493 21.8163C20.9163 21.7062 20.9844 21.5962 21.0462 21.4829C21.0957 21.3946 21.1514 21.3107 21.2122 21.2322C21.2328 21.2028 21.2565 21.1756 21.2813 21.1516C21.3864 21.0557 21.4988 20.9718 21.6184 20.8988C21.6627 20.8726 21.6998 20.8803 21.7297 20.9228C21.7535 20.9587 21.7813 20.9925 21.7968 21.0328C21.8607 21.2039 21.9019 21.3815 21.8596 21.5668C21.8359 21.6725 21.8246 21.7803 21.8246 21.8904C21.8225 22.0648 21.8071 22.2391 21.7937 22.4134C21.7834 22.53 21.7854 22.6455 21.7988 22.7621C21.8029 22.8079 21.8225 22.845 21.8586 22.8722C21.8741 22.8864 21.8916 22.8984 21.9091 22.9103C22.0597 23.0019 22.1885 23.125 22.3205 23.2416C22.4473 23.3538 22.5659 23.4748 22.6782 23.6034C22.7906 23.732 22.9061 23.8573 23.0205 23.9837C23.0669 24.0371 23.1154 24.0894 23.1587 24.146C23.269 24.2855 23.3793 24.425 23.4855 24.5688C23.5711 24.6832 23.6525 24.8009 23.7329 24.9197C23.8319 25.0679 23.9288 25.2183 24.0247 25.3697C24.0504 25.4133 24.0721 25.458 24.0927 25.5048C24.1824 25.6934 24.2824 25.8764 24.3917 26.054C24.401 26.0704 24.4133 26.0737 24.4288 26.0649C24.435 26.0617 24.4381 26.0562 24.4402 26.0486C24.4432 26.0137 24.4515 25.9767 24.4474 25.9418C24.4185 25.6955 24.4061 25.4482 24.3773 25.203C24.3566 25.0145 24.3402 24.826 24.3082 24.6396C24.2773 24.4522 24.2618 24.2637 24.2371 24.0763C24.2041 23.8235 24.1762 23.5696 24.1463 23.3168C24.103 22.9474 24.0154 22.5867 23.9422 22.2249C23.936 22.1955 23.9298 22.1683 23.9216 22.1399C23.9154 22.1192 23.9102 22.0942 23.8968 22.08C23.7948 21.9798 23.7711 21.8218 23.6587 21.728C23.6164 21.6932 23.5875 21.6398 23.5535 21.594C23.4844 21.5025 23.4102 21.4164 23.3174 21.3499C23.2422 21.2954 23.1896 21.2181 23.1246 21.1527C23.07 21.096 23.0133 21.0437 22.9535 20.9947C22.8422 20.9086 22.7432 20.8051 22.6277 20.7245C22.4834 20.6242 22.3401 20.5229 22.1854 20.4422C22.1246 20.4084 22.0669 20.3681 22.0143 20.3224C21.8885 20.2188 21.7566 20.1262 21.6256 20.0303C21.5576 19.9802 21.4875 19.9334 21.4194 19.8843C21.3782 19.8582 21.339 19.8287 21.3019 19.795C21.1122 19.6108 20.8885 19.479 20.6792 19.3242C20.606 19.2708 20.5287 19.2207 20.4658 19.1521C20.44 19.127 20.4132 19.1052 20.3843 19.0845C20.1421 18.8905 19.9194 18.6737 19.7183 18.4329C19.5317 18.2095 19.3462 17.9839 19.1616 17.7573C19.1348 17.7235 19.1111 17.6875 19.0905 17.6494C19.0338 17.5502 18.9791 17.4489 18.9204 17.3497C18.8853 17.2865 18.8472 17.2266 18.8039 17.1699C18.6936 17.0348 18.6214 16.8779 18.5492 16.721C18.4863 16.5826 18.4255 16.4442 18.3605 16.3069C18.2874 16.15 18.2327 15.9844 18.177 15.8198C18.1317 15.6825 18.0956 15.542 18.0698 15.3992C18.0224 15.141 17.9626 14.8871 17.8904 14.6354C17.8739 14.5798 17.8616 14.5231 17.8461 14.4675C17.7966 14.2845 17.7502 14.1014 17.6966 13.9205C17.6708 13.8377 17.6492 13.7538 17.6317 13.6688C17.609 13.5544 17.5791 13.4422 17.544 13.331C17.511 13.2286 17.4935 13.1196 17.4708 13.0128C17.4481 12.9039 17.4636 12.796 17.4894 12.6892C17.4935 12.675 17.4987 12.662 17.5059 12.6489C17.5255 12.6053 17.5585 12.5824 17.6049 12.5813C17.6904 12.577 17.7698 12.5977 17.843 12.6434C17.9286 12.6925 18.0038 12.7546 18.0708 12.8298C18.2348 13.0161 18.409 13.1926 18.5647 13.3877C18.574 13.3986 18.5863 13.4073 18.5946 13.4182C18.7492 13.6339 18.9286 13.8257 19.0822 14.0426C19.2059 14.2169 19.3441 14.3804 19.4833 14.5427C19.506 14.5689 19.5307 14.595 19.5523 14.6234C19.7317 14.8729 19.9379 15.0996 20.1328 15.3349C20.2926 15.5267 20.4555 15.7141 20.6081 15.9125C20.6637 15.9855 20.7287 16.0519 20.7905 16.1206C20.805 16.1358 20.8246 16.1467 20.8369 16.1642C20.9359 16.3047 21.0627 16.4192 21.173 16.5488C21.2462 16.636 21.3246 16.7188 21.3998 16.8038C21.4328 16.8409 21.4648 16.879 21.4947 16.9182C21.6225 17.0817 21.7504 17.244 21.8854 17.3999C21.9462 17.4696 22.0019 17.5437 22.0524 17.6211C22.1658 17.7954 22.2772 17.9698 22.3823 18.1496C22.4442 18.2542 22.4927 18.3686 22.5463 18.4775C22.6494 18.6846 22.7442 18.896 22.8576 19.0954C22.9813 19.3144 23.0906 19.5422 23.2082 19.7634C23.2319 19.808 23.2525 19.8538 23.27 19.9017C23.3133 20.0085 23.3576 20.1153 23.4009 20.2221C23.4082 20.2406 23.4195 20.2461 23.4329 20.2352C23.4391 20.2297 23.4411 20.2232 23.4411 20.2156C23.4154 20.1175 23.3906 20.0194 23.3628 19.9225C23.3463 19.8658 23.335 19.8091 23.3277 19.7514C23.3133 19.6282 23.2886 19.5073 23.2545 19.3874C23.2246 19.2839 23.1978 19.1782 23.1917 19.0681C23.1886 19.0311 23.1844 18.9951 23.1783 18.9592C23.1339 18.6791 23.0865 18.4002 23.0442 18.119C23.0215 17.9752 23.002 17.8314 22.9916 17.6864C22.9834 17.5775 22.9659 17.4685 22.9514 17.3617C22.937 17.268 22.9267 17.1743 22.9215 17.0795C22.9184 16.9923 22.9112 16.9051 22.905 16.818C22.8886 16.5935 22.8824 16.3679 22.869 16.1424C22.8504 15.8427 22.8628 15.5452 22.8669 15.2467C22.8679 15.1159 22.8566 14.9841 22.8576 14.8533C22.8587 14.8239 22.8545 14.7955 22.8453 14.7672C22.7844 14.5983 22.7504 14.4163 22.6545 14.2616C22.6277 14.2191 22.6102 14.1712 22.5875 14.1265C22.5205 13.9903 22.4483 13.8573 22.3483 13.744C22.2741 13.6568 22.2102 13.5631 22.1566 13.4596C22.1164 13.3844 22.0638 13.3158 22.0174 13.2428C21.905 13.0673 21.8102 12.8821 21.7143 12.6957C21.6772 12.626 21.6401 12.5563 21.6029 12.4854C21.4823 12.2566 21.3761 12.0201 21.2844 11.7761C21.1751 11.4917 21.0802 11.2029 20.9978 10.9087C20.9823 10.8531 20.9699 10.7975 20.9596 10.7398C20.9431 10.6395 20.9235 10.5393 20.905 10.439C20.8813 10.3028 20.8679 10.1655 20.8658 10.0271C20.8586 9.81573 20.8534 9.60434 20.8545 9.39403C20.8545 9.18917 20.8648 8.9854 20.8648 8.78163C20.8648 8.49723 20.8627 8.21391 20.8349 7.9306C20.8297 7.88047 20.8318 7.82817 20.8297 7.77804C20.8287 7.72683 20.8287 7.67562 20.8225 7.62549C20.7947 7.37051 20.807 7.11661 20.8204 6.86163C20.8215 6.81804 20.8266 6.77446 20.8349 6.73196C20.8441 6.696 20.8565 6.66331 20.874 6.63171C20.907 6.57287 20.9555 6.55216 21.0173 6.57069C21.0503 6.58158 21.0823 6.59575 21.1122 6.61427C21.207 6.67638 21.2864 6.75593 21.3524 6.85073C21.4627 7.01091 21.5514 7.18308 21.6205 7.36615C21.6823 7.53614 21.7493 7.70504 21.8112 7.87503C21.8359 7.94259 21.8576 8.01123 21.8751 8.08206C21.8957 8.17469 21.9225 8.26513 21.9555 8.35339C21.9813 8.41986 21.9988 8.49069 22.0205 8.56043C22.0576 8.68465 22.0988 8.80888 22.1287 8.93637C22.1772 9.14123 22.2452 9.33955 22.3164 9.53678C22.3968 9.76125 22.4834 9.98354 22.5659 10.208C22.5947 10.2897 22.6205 10.3736 22.6432 10.4576C22.6896 10.633 22.7339 10.8084 22.7762 10.985C22.8236 11.1909 22.8669 11.3968 22.8855 11.6082C22.8906 11.6584 22.904 11.7085 22.9102 11.7586C22.9483 12.0474 22.9916 12.3351 23.0071 12.626C23.0164 12.7862 23.0401 12.9442 23.0587 13.1033C23.0587 13.1087 23.0679 13.1185 23.071 13.1185C23.0834 13.1153 23.0947 13.1109 23.1051 13.1044C23.1102 13.1 23.1143 13.0935 23.1164 13.0869C23.1195 13.0804 23.1226 13.0728 23.1236 13.0662C23.1442 12.8984 23.1989 12.7404 23.2432 12.5802C23.2628 12.5105 23.2906 12.4429 23.3143 12.3754C23.3236 12.3481 23.335 12.3209 23.3432 12.2937C23.3906 12.1411 23.436 11.9885 23.4855 11.8371C23.535 11.6856 23.5845 11.5341 23.6432 11.386C23.6948 11.2596 23.7556 11.1364 23.8185 11.0144C23.8494 10.9577 23.87 10.8967 23.8803 10.8313C23.8989 10.7027 23.9319 10.5752 23.9257 10.4434C23.9247 10.4074 23.936 10.3715 23.9401 10.3355C23.9546 10.2265 23.9752 10.1198 23.9783 10.0108C23.9824 9.90182 23.9659 9.79285 23.9608 9.68388C23.9566 9.57383 23.9309 9.47031 23.8845 9.37115C23.8267 9.24692 23.7752 9.11943 23.7288 8.98976C23.6896 8.88079 23.6618 8.76856 23.6329 8.65632C23.6051 8.55062 23.5783 8.44492 23.5587 8.33705C23.5381 8.21609 23.5257 8.09296 23.5113 7.96983C23.4917 7.80311 23.4741 7.63748 23.4556 7.47076C23.4525 7.4348 23.4484 7.39775 23.4463 7.36179C23.4339 7.07085 23.4298 6.7799 23.4721 6.49005C23.502 6.29609 23.5154 6.09886 23.5339 5.90272C23.5473 5.77305 23.57 5.64446 23.603 5.51697C23.6267 5.4189 23.6525 5.31865 23.6618 5.2184C23.6752 5.06367 23.7164 4.91874 23.7618 4.77273C23.7906 4.67683 23.8205 4.57876 23.8463 4.48069C23.903 4.25513 23.9711 4.03393 24.0494 3.81599C24.0834 3.72119 24.1041 3.62094 24.1505 3.5305C24.1597 3.51306 24.1556 3.488 24.1587 3.4673C24.1628 3.43897 24.169 3.41063 24.1762 3.3823C24.1896 3.33327 24.1979 3.28096 24.2216 3.23847C24.2896 3.1186 24.3082 2.97585 24.3865 2.86144C24.4298 2.79606 24.467 2.72523 24.4958 2.65113C24.5288 2.57812 24.5659 2.50838 24.6092 2.44191C24.7319 2.24033 24.8577 2.03874 24.9814 1.83606C25.0402 1.73799 25.1051 1.64209 25.1381 1.52877C25.1453 1.50806 25.1546 1.48845 25.1649 1.46993C25.2371 1.32064 25.3093 1.17136 25.3814 1.02316C25.3959 0.998098 25.4062 0.970856 25.4154 0.943614C25.4371 0.865158 25.4763 0.796508 25.5144 0.726769C25.5392 0.684272 25.5618 0.639595 25.5804 0.592739C25.6392 0.434737 25.732 0.298527 25.8237 0.162318C25.8598 0.106745 25.9113 0.0696958 25.9619 0.0304678C25.9959 0.00322575 26.0382 -4.33358e-05 26.0804 0.00431564C26.1165 0.00867405 26.1474 0.0217504 26.166 0.05662C26.1691 0.0631579 26.1722 0.0696959 26.1763 0.0762341C26.2773 0.246223 26.3248 0.434736 26.3474 0.633057C26.3639 0.784521 26.3794 0.935986 26.3681 1.08963C26.3588 1.22802 26.3681 1.36641 26.3619 1.5048C26.3485 1.80337 26.3361 2.10085 26.3134 2.39833C26.2938 2.65222 26.2742 2.90612 26.2536 3.16001C26.2382 3.34852 26.234 3.53813 26.2031 3.72555C26.1918 3.8051 26.1876 3.88464 26.1907 3.96528C26.1959 4.22026 26.1804 4.47524 26.1784 4.73023C26.1753 5.11706 26.1505 5.50172 26.0598 5.87874C26.0278 6.01277 26.0041 6.14898 25.9619 6.27974C25.9454 6.32769 25.9278 6.37564 25.9072 6.4214C25.8979 6.44102 25.8938 6.46172 25.8928 6.48351C25.8948 6.49768 25.901 6.50967 25.9113 6.51947C25.9165 6.52383 25.9237 6.52492 25.9299 6.52274C25.9546 6.51184 25.9835 6.50422 26.0041 6.48569C26.1351 6.36474 26.2918 6.28846 26.4454 6.20783C26.4712 6.19584 26.4969 6.18603 26.5237 6.17949C26.6433 6.14353 26.7629 6.10758 26.8825 6.07271C26.8887 6.07053 26.8959 6.06944 26.9021 6.06726C27.099 6.02694 27.297 5.99425 27.498 6.01168C27.6434 6.02476 27.7846 6.06399 27.9104 6.14353C28.0362 6.22308 28.1619 6.29936 28.2764 6.39198C28.3939 6.49005 28.5114 6.59466 28.5774 6.74612C28.5815 6.75266 28.5846 6.7592 28.5888 6.76465C28.6919 6.91829 28.73 7.09482 28.7568 7.27571C28.7651 7.33237 28.7578 7.39121 28.7589 7.45005C28.7599 7.5296 28.7609 7.60915 28.7651 7.68869C28.7651 7.69632 28.7857 7.70722 28.798 7.70722C28.8115 7.70613 28.8238 7.70068 28.8352 7.69196C28.929 7.61459 29.031 7.55575 29.1424 7.51325C29.2713 7.46095 29.3991 7.40647 29.5331 7.37051C29.728 7.32038 29.9136 7.23866 30.1022 7.16674C30.1734 7.1395 30.2455 7.11225 30.3156 7.08392C30.395 7.05341 30.4765 7.03925 30.56 7.04252C30.6198 7.0436 30.6682 7.06867 30.7053 7.11879C30.7198 7.13405 30.729 7.15366 30.7342 7.17437C30.7435 7.255 30.7404 7.33564 30.6991 7.40756C30.6064 7.56992 30.5095 7.72574 30.3806 7.86304C30.2538 7.99598 30.129 8.1311 30.0084 8.27276C29.9259 8.36974 29.8393 8.46345 29.7548 8.55934C29.7259 8.59094 29.6991 8.62363 29.6744 8.65959C29.5981 8.77292 29.5094 8.87535 29.4104 8.96688C29.3702 9.0072 29.3331 9.04969 29.2991 9.09546C29.2568 9.15321 29.2094 9.20661 29.1651 9.26218C29.1424 9.28942 29.1176 9.31557 29.097 9.34499C29.0372 9.43326 28.9785 9.52261 28.9032 9.59998C28.8692 9.63485 28.8444 9.68061 28.8166 9.72202C28.7383 9.83317 28.6692 9.95194 28.5743 10.05C28.5599 10.0653 28.5475 10.0827 28.5372 10.1012C28.4259 10.2778 28.3156 10.4532 28.2052 10.6297C28.1599 10.7027 28.1155 10.7768 28.0722 10.852C28.0372 10.9141 28.0032 10.9773 27.9722 11.0427C27.9485 11.095 27.9176 11.144 27.8805 11.1865C27.8516 11.2181 27.8279 11.2541 27.8104 11.2933C27.7557 11.4372 27.6691 11.5603 27.5939 11.6911C27.4392 11.9591 27.2671 12.2152 27.1031 12.4767C27.0578 12.5497 27.0124 12.6227 26.9671 12.6957C26.9062 12.7938 26.8475 12.893 26.766 12.9736C26.7505 12.9889 26.7371 13.0052 26.7268 13.0237C26.6062 13.2319 26.434 13.392 26.2773 13.5664C26.134 13.7233 25.9753 13.8639 25.8186 14.0077C25.7412 14.0818 25.6536 14.1374 25.5557 14.1755C25.4453 14.2169 25.3392 14.2736 25.234 14.327C25.101 14.3935 24.9598 14.4272 24.8165 14.4512C24.7278 14.4654 24.6391 14.4795 24.5494 14.4915C24.4247 14.5068 24.3092 14.5558 24.1968 14.6114C24.1649 14.6266 24.1371 14.6473 24.1113 14.6724C24.0309 14.752 23.9525 14.8337 23.8762 14.9187C23.8525 14.9459 23.835 14.9764 23.8236 15.0113C23.7762 15.1486 23.7195 15.2815 23.6638 15.4145C23.6298 15.5016 23.5989 15.591 23.5731 15.6814C23.4906 15.9517 23.4195 16.2263 23.3535 16.502C23.3319 16.5935 23.3226 16.6883 23.3071 16.7809C23.2999 16.8245 23.2927 16.867 23.2865 16.9095C23.2638 17.061 23.2494 17.2135 23.2442 17.3661C23.2308 17.6668 23.2597 17.9632 23.303 18.2585C23.3391 18.5179 23.368 18.7783 23.4071 19.0376C23.4329 19.2098 23.469 19.3809 23.5009 19.5531C23.5164 19.6315 23.5339 19.7089 23.5453 19.7884C23.5824 20.0565 23.6525 20.3169 23.7185 20.5763C23.7587 20.7375 23.8092 20.8977 23.8566 21.0579C23.8618 21.071 23.87 21.083 23.8803 21.0928C23.8824 21.0949 23.8948 21.0928 23.8968 21.0895C23.9288 21.0405 23.937 20.9816 23.9504 20.926C23.969 20.8563 23.9834 20.7844 23.9927 20.7125C24.0082 20.6046 24.034 20.4989 24.0721 20.3976C24.1432 20.1992 24.1886 19.9933 24.269 19.7993C24.3072 19.7111 24.3206 19.6184 24.3092 19.5215C24.3051 19.4931 24.3072 19.4626 24.303 19.4343C24.2639 19.127 24.3082 18.8241 24.3515 18.5222C24.3628 18.4579 24.3711 18.3926 24.3752 18.3272C24.3804 18.2694 24.3876 18.2117 24.3989 18.155C24.4061 18.1038 24.4164 18.0548 24.4226 18.0035C24.4639 17.6396 24.5639 17.292 24.6742 16.9466C24.7031 16.8572 24.7412 16.7711 24.7763 16.6839C24.8381 16.5303 24.901 16.3756 24.9649 16.223C24.9824 16.1838 25.0031 16.1456 25.0257 16.1086C25.1154 15.9615 25.2072 15.8155 25.2969 15.6684C25.4051 15.4897 25.5412 15.336 25.6773 15.1802C25.7608 15.0832 25.8536 14.996 25.9289 14.8903C25.9701 14.8337 26.0237 14.7846 26.0753 14.7367C26.234 14.5852 26.3918 14.4338 26.5557 14.2878C26.6392 14.2126 26.732 14.1483 26.8237 14.0818C27.0506 13.9162 27.2753 13.7462 27.5289 13.6252C27.5918 13.5947 27.6506 13.5555 27.7114 13.5217C27.8454 13.4465 27.9784 13.3692 28.1145 13.2983C28.2021 13.2547 28.2908 13.2155 28.3826 13.1817C28.6681 13.0728 28.9455 12.9431 29.23 12.8309C29.3661 12.7764 29.5012 12.7219 29.6352 12.663C29.7249 12.6238 29.8094 12.5759 29.8981 12.5345C30.0744 12.4506 30.2466 12.3601 30.429 12.2915C30.5466 12.2457 30.6589 12.1912 30.7693 12.1291C30.9992 12.0016 31.2487 11.946 31.5023 11.9035C31.5157 11.9003 31.5291 11.8992 31.5435 11.9003C31.6167 11.9046 31.6868 11.9515 31.6755 12.0561C31.6703 12.1073 31.6569 12.1564 31.6373 12.2032C31.5043 12.5181 31.3249 12.8036 31.1332 13.0804C31.0363 13.221 30.9229 13.3506 30.8177 13.4847C30.7992 13.5065 30.7796 13.5272 30.7641 13.5511C30.6857 13.671 30.5981 13.7843 30.5022 13.8889C30.4497 13.9467 30.3981 14.0044 30.3435 14.0611C30.2641 14.1417 30.1899 14.2278 30.1208 14.3194C30.06 14.3978 29.995 14.4719 29.9249 14.5416C29.8713 14.5983 29.8228 14.6604 29.7806 14.7269C29.628 14.9612 29.4785 15.1976 29.3228 15.4297C29.2341 15.5594 29.1609 15.7 29.0795 15.8362C29.0609 15.8667 29.0455 15.9005 29.0207 15.9266C28.9125 16.041 28.8352 16.1794 28.7475 16.3102C28.6795 16.4104 28.6125 16.5118 28.5424 16.612C28.4888 16.6872 28.4279 16.757 28.3754 16.8332C28.3228 16.9095 28.265 16.9814 28.2052 17.0533C28.129 17.146 28.0527 17.2397 27.9722 17.3301C27.8774 17.4358 27.7825 17.5415 27.6825 17.6407C27.5465 17.7758 27.4104 17.9098 27.2732 18.0439C27.2485 18.0678 27.2196 18.0896 27.1939 18.1125C27.0753 18.2138 26.9464 18.2999 26.8382 18.4133C26.6804 18.519 26.5361 18.6454 26.3907 18.7674C26.1681 18.9548 25.9217 19.1008 25.6753 19.249C25.6278 19.2795 25.5783 19.3046 25.5268 19.3253C25.2319 19.4299 24.9484 19.565 24.6577 19.6795C24.6 19.7012 24.5474 19.7383 24.4896 19.7634C24.4051 19.7993 24.3597 19.868 24.3381 19.9573C24.2896 20.1546 24.2206 20.3452 24.1659 20.5414C24.0907 20.8073 24.0401 21.0786 24.0113 21.3543C24.002 21.4567 24.0041 21.5581 24.0154 21.6594C24.0226 21.7248 24.0288 21.7902 24.036 21.8555C24.0381 21.8839 24.0432 21.9133 24.0504 21.9405C24.134 22.2271 24.1907 22.5191 24.2432 22.8134C24.27 22.9637 24.3051 23.113 24.3329 23.2634C24.3835 23.5423 24.4226 23.8224 24.4505 24.1057C24.4701 24.3008 24.4979 24.4958 24.5247 24.6909C24.5268 24.7105 24.5412 24.729 24.5515 24.7475C24.5577 24.7464 24.5639 24.7432 24.569 24.7388C24.5783 24.7279 24.5845 24.7148 24.5886 24.7018C24.6216 24.5296 24.6783 24.3651 24.7237 24.1972C24.7958 23.9303 24.8835 23.6709 24.9886 23.4159C25.0587 23.2427 25.1257 23.0662 25.2216 22.9049C25.2402 22.8744 25.2567 22.8428 25.2721 22.8101C25.3691 22.5823 25.5041 22.3797 25.6371 22.1759C25.6495 22.1574 25.667 22.1432 25.6763 22.1247C25.7639 21.9318 25.8928 21.7705 26.0258 21.6114C26.1072 21.5134 26.1918 21.4164 26.2732 21.3172C26.4175 21.1418 26.5784 20.9816 26.733 20.816C26.8794 20.6613 27.0382 20.5218 27.2093 20.3976C27.4423 20.2254 27.697 20.0946 27.9537 19.9693C28.0599 19.917 28.1661 19.8636 28.2753 19.8168C28.4599 19.7361 28.6382 19.6391 28.8279 19.5705C28.8929 19.5443 28.9599 19.5313 29.03 19.5302C29.1125 19.5313 29.195 19.5291 29.2785 19.5291C29.4228 19.5291 29.5682 19.5247 29.7074 19.5781C29.7393 19.5901 29.7754 19.5901 29.8094 19.5977C29.8362 19.6021 29.863 19.6108 29.8888 19.6217C29.9764 19.6642 30.0651 19.7045 30.1496 19.7546C30.2466 19.8113 30.3476 19.8571 30.4527 19.893C30.5909 19.9388 30.729 19.9857 30.8682 20.0292C30.9074 20.0412 30.9486 20.051 30.9888 20.0576C31.0435 20.0663 31.0981 20.0739 31.1538 20.0815C31.3146 20.1012 31.461 20.16 31.593 20.2592C31.7105 20.3485 31.8353 20.4292 31.9569 20.5109C32.0208 20.5545 32.0879 20.5915 32.158 20.6231C32.2734 20.6732 32.3714 20.7561 32.4693 20.8378C32.5126 20.8737 32.5518 20.9151 32.592 20.9555C32.6198 20.9849 32.6343 21.0208 32.6353 21.0623C32.6363 21.1037 32.624 21.1396 32.5972 21.1712C32.4621 21.3216 32.4518 21.326 32.2611 21.3597C32.1456 21.3793 32.0301 21.4 31.9147 21.4208C31.859 21.4306 31.8043 21.4317 31.7497 21.4229C31.6126 21.3979 31.4755 21.3881 31.3363 21.3935C31.2043 21.399 31.0755 21.3793 30.9486 21.3368C30.7311 21.2606 30.5022 21.2442 30.2785 21.2028C30.1146 21.1723 29.9507 21.1527 29.7878 21.1211C29.6362 21.0949 29.4847 21.0982 29.3342 21.1309C29.2733 21.1462 29.2177 21.1734 29.1682 21.2137C29.0599 21.2933 28.9578 21.3793 28.8609 21.4731C28.729 21.6016 28.5908 21.7226 28.4733 21.8664C28.4537 21.8871 28.4331 21.9067 28.4125 21.9253C28.2558 22.0778 28.1001 22.2336 27.9537 22.3971C27.8362 22.53 27.7186 22.663 27.6011 22.7959C27.5361 22.8711 27.4712 22.9474 27.4021 23.0182C27.3578 23.064 27.3186 23.1141 27.2846 23.1697C27.2702 23.1937 27.2537 23.2176 27.2382 23.2427C27.1753 23.3473 27.1011 23.4421 27.0155 23.5271C26.8062 23.7385 26.599 23.9532 26.3753 24.1482C26.1196 24.3705 25.8526 24.5775 25.5598 24.7453C25.4031 24.8358 25.2474 24.9317 25.0948 25.0319C24.9897 25.1017 24.8927 25.1845 24.8206 25.2945C24.7814 25.3556 24.736 25.41 24.6845 25.4591C24.6402 25.5005 24.6216 25.555 24.6185 25.6149C24.6154 25.665 24.6144 25.7162 24.6175 25.7675C24.6278 25.9124 24.6299 26.0584 24.6474 26.2022C24.6608 26.3254 24.668 26.4485 24.669 26.5727C24.6701 26.7253 24.6886 26.8778 24.6752 27.0315C24.6742 27.0685 24.6762 27.1045 24.6814 27.1404C24.7412 27.67 24.7494 28.2018 24.7567 28.7336C24.7587 28.8425 24.7474 28.9515 24.7433 29.0615L24.7206 29.5857C24.7195 29.6075 24.7206 29.6293 24.7175 29.6511C24.6824 30.0205 24.6659 30.392 24.603 30.7593C24.5608 31.0023 24.5319 31.2485 24.4989 31.4937C24.4608 31.7748 24.4237 32.056 24.3711 32.3349C24.3659 32.3633 24.3639 32.3927 24.3659 32.421C24.3659 32.433 24.3793 32.4439 24.3886 32.4537C24.3917 32.4559 24.402 32.4537 24.4061 32.4504C24.4185 32.4428 24.4298 32.4341 24.4391 32.4243C24.5443 32.2793 24.6505 32.1366 24.7773 32.0113C24.8216 31.9677 24.8525 31.9078 24.8897 31.8555C24.9319 31.7977 24.9742 31.74 25.0175 31.6833C25.0464 31.6441 25.0783 31.6059 25.1093 31.5656C25.2402 31.3978 25.2928 31.1929 25.3546 30.9924C25.3649 30.9499 25.3711 30.9064 25.3721 30.8628C25.3773 30.7974 25.3804 30.732 25.3825 30.6666C25.3876 30.477 25.3917 30.2874 25.3969 30.0989C25.3979 30.0553 25.401 30.0117 25.4031 29.9682C25.4082 29.8003 25.4371 29.6347 25.4361 29.4669C25.4361 29.3732 25.4557 29.2784 25.468 29.1847C25.4897 29.0332 25.5144 28.8828 25.534 28.7314C25.5567 28.557 25.6072 28.3903 25.6567 28.2236C25.6866 28.1266 25.7124 28.0274 25.7515 27.9348C25.8155 27.7823 25.8711 27.6243 25.9577 27.4826C26.0454 27.342 26.1309 27.2015 26.2206 27.0631C26.3825 26.8125 26.3835 26.8135 26.5969 26.5727C26.6124 26.5564 26.6268 26.5422 26.6402 26.5248C26.7072 26.4322 26.7825 26.3461 26.8547 26.2589C26.9722 26.1162 27.0794 25.9636 27.1908 25.8154C27.2506 25.7348 27.3093 25.6552 27.3733 25.5779C27.4454 25.4907 27.5032 25.3893 27.564 25.2924C27.6588 25.1398 27.7516 24.9862 27.8434 24.8325C27.899 24.7399 27.9547 24.6484 27.9918 24.5448C28.0166 24.4773 28.0578 24.4174 28.0939 24.3552C28.1619 24.2365 28.23 24.1188 28.2836 23.9913C28.3331 23.8725 28.3991 23.7603 28.4413 23.6361C28.4671 23.5609 28.497 23.4868 28.5166 23.4094C28.562 23.234 28.6207 23.0629 28.6919 22.8962C28.7352 22.797 28.7733 22.6957 28.8063 22.5922C28.8558 22.4331 28.9228 22.2816 28.9847 22.1269C29.0146 22.0539 29.0579 21.9863 29.097 21.9187C29.1372 21.8501 29.1836 21.7858 29.2228 21.7171C29.2671 21.6398 29.3352 21.5886 29.4053 21.5439C29.4682 21.5036 29.5383 21.5068 29.6063 21.5308C29.6197 21.5352 29.6321 21.5428 29.6414 21.5526C29.6888 21.6071 29.7311 21.6638 29.7486 21.7368C29.796 21.9427 29.829 22.1487 29.8218 22.3633C29.8125 22.6477 29.8094 22.9321 29.7898 23.2154C29.7888 23.2372 29.7888 23.259 29.7898 23.2808C29.7971 23.5369 29.761 23.7897 29.7218 24.0414C29.7022 24.1711 29.6826 24.3008 29.6785 24.4315C29.6744 24.5786 29.6496 24.7225 29.6249 24.8641C29.5857 25.0864 29.5455 25.3076 29.5104 25.531C29.4805 25.7173 29.4218 25.8971 29.3754 26.0802C29.3558 26.1576 29.3342 26.2338 29.3166 26.3123C29.2795 26.467 29.2434 26.6229 29.196 26.7754C29.162 26.8866 29.1362 26.9999 29.1012 27.1099C29.0166 27.3802 28.9115 27.6406 28.8011 27.9C28.796 27.9141 28.7898 27.9272 28.7826 27.9392C28.7073 28.0699 28.6424 28.2072 28.5764 28.3434C28.5248 28.447 28.4681 28.5461 28.4053 28.6431C28.2424 28.9057 28.0764 29.1651 27.9124 29.4266C27.8774 29.4811 27.8372 29.5312 27.7939 29.578C27.7083 29.6739 27.6258 29.7709 27.5465 29.8723C27.5032 29.9289 27.4547 29.9812 27.4021 30.0281C27.3578 30.063 27.3165 30.1011 27.2774 30.1425C27.1104 30.319 26.9145 30.4563 26.7186 30.5925C26.6784 30.6209 26.6341 30.6437 26.5969 30.6753C26.4722 30.7832 26.3268 30.8497 26.1815 30.9183C26.1309 30.9434 26.0794 30.963 26.0258 30.9783C25.8278 31.0295 25.6505 31.1232 25.501 31.2725C25.4763 31.2976 25.4495 31.3204 25.4216 31.3411C25.3876 31.3673 25.3598 31.4 25.3381 31.437C25.2639 31.5602 25.1855 31.6811 25.0876 31.7846C25.0649 31.8119 25.0443 31.8402 25.0257 31.8718C24.9185 32.0331 24.7979 32.1824 24.6649 32.3218C24.6598 32.3262 24.6546 32.3317 24.6505 32.3371C24.5505 32.4766 24.4505 32.615 24.3412 32.7479C24.2969 32.8057 24.27 32.8721 24.2597 32.9462C24.2309 33.1249 24.201 33.3047 24.1669 33.4834C24.1319 33.6698 24.0917 33.8539 24.0525 34.0392C24.0494 34.061 24.0422 34.0817 24.0329 34.1013C23.9762 34.2026 23.9494 34.3159 23.9144 34.4271C23.9051 34.4543 23.8917 34.4794 23.8731 34.5012C23.8597 34.5197 23.837 34.5208 23.8164 34.5154C23.7958 34.5056 23.7855 34.4892 23.7834 34.4652C23.7896 34.4227 23.7979 34.3791 23.8082 34.3377C23.8731 34.1372 23.9195 33.9313 23.9618 33.7253C24.001 33.5336 24.0422 33.3418 24.0855 33.15C24.101 33.0846 24.0968 33.0203 24.0711 32.9582C24.0102 32.81 23.9381 32.6705 23.8391 32.5463C23.7205 32.3949 23.6061 32.239 23.4896 32.0854C23.4113 31.983 23.3257 31.8882 23.2329 31.801C23.1659 31.7378 23.103 31.6702 23.0432 31.5994C22.9494 31.4926 22.8545 31.388 22.7452 31.2965C22.6813 31.2409 22.6195 31.182 22.5617 31.1199C22.4092 30.9619 22.238 30.8268 22.0896 30.6623C21.9999 30.5631 21.8916 30.4814 21.7906 30.3942C21.7009 30.3136 21.6194 30.2253 21.5462 30.1283C21.4823 30.051 21.4132 29.9801 21.34 29.9148C21.1947 29.7807 21.0555 29.638 20.9421 29.4723C20.8328 29.3111 20.7246 29.1509 20.6163 28.9907C20.5957 28.9613 20.5771 28.9308 20.5617 28.8981C20.4792 28.7216 20.4019 28.5418 20.3163 28.3674C20.2534 28.2454 20.208 28.1157 20.1792 27.9795C20.1699 27.9348 20.1472 27.8989 20.1101 27.8749C20.0421 27.8248 19.974 27.7757 19.9049 27.7267C19.808 27.6559 19.7121 27.5861 19.6276 27.4979C19.5544 27.4216 19.4585 27.3715 19.3925 27.2854C19.2008 27.1285 19.0461 26.9312 18.8771 26.7493C18.8389 26.7078 18.8028 26.6632 18.7698 26.6152C18.5935 26.3646 18.41 26.1183 18.2523 25.8525C18.2379 25.8274 18.2245 25.8023 18.2111 25.7762C18.141 25.6421 18.0729 25.507 18.0007 25.3741C17.942 25.2673 17.8915 25.1551 17.8492 25.0396C17.8141 24.9448 17.7801 24.8489 17.7399 24.7562C17.6822 24.6233 17.6471 24.4816 17.6038 24.3433C17.576 24.2604 17.5626 24.1744 17.5616 24.0861C17.5646 23.9183 17.542 23.7516 17.5275 23.5848C17.5234 23.5413 17.5224 23.4977 17.5234 23.4541C17.5255 23.4192 17.5399 23.3909 17.5657 23.3702C17.5914 23.3484 17.6213 23.3408 17.6533 23.3473C17.6811 23.3517 17.7059 23.3615 17.7306 23.3756C17.8069 23.4258 17.8812 23.4781 17.9389 23.5532C17.9739 23.5979 18.0141 23.6382 18.0523 23.6807C18.1574 23.7962 18.2585 23.915 18.3678 24.0273C18.4997 24.1646 18.6204 24.3149 18.7482 24.4588C18.8894 24.6179 19.0348 24.7737 19.1575 24.9502C19.2544 25.0439 19.34 25.1507 19.4482 25.2303C19.5956 25.3392 19.7276 25.4656 19.8596 25.5964C19.9029 25.6432 19.9524 25.6814 20.008 25.7119C20.0142 25.7162 20.0214 25.7173 20.0276 25.7141C20.0348 25.7097 20.039 25.7043 20.04 25.6966C20.0441 25.6313 20.0472 25.567 20.0472 25.5016C20.0451 25.3043 20.0544 25.1082 20.0709 24.9121C20.073 24.8979 20.074 24.8837 20.074 24.8696C20.0658 24.7083 20.0936 24.5503 20.106 24.3912C20.1245 24.1591 20.1472 23.927 20.1915 23.6982C20.207 23.6132 20.2122 23.5249 20.2225 23.429ZM23.8267 26.0421C23.6979 25.9625 23.5752 25.8677 23.4319 25.811C23.4061 25.7991 23.3824 25.7849 23.3597 25.7686C23.2948 25.7261 23.2319 25.6814 23.1649 25.6432C23.0927 25.6018 23.0154 25.5702 22.9422 25.5288C22.8154 25.4536 22.6834 25.3926 22.5452 25.3458C22.5184 25.337 22.4937 25.3251 22.4689 25.3109C22.3287 25.2335 22.1896 25.1562 22.0483 25.0788C22.0174 25.0624 21.9854 25.0494 21.9535 25.0374C21.937 25.0308 21.9081 25.0526 21.9091 25.0701C21.9133 25.1572 21.9071 25.2444 21.9401 25.3283C21.9514 25.3545 21.9586 25.3828 21.9607 25.4122C21.9689 25.5212 21.9906 25.628 22.0256 25.7315C22.0328 25.7598 22.039 25.7882 22.0421 25.8165C22.0865 26.0889 22.1298 26.3613 22.1731 26.6348C22.1762 26.6555 22.1823 26.6762 22.1875 26.698C22.2174 26.8321 22.2483 26.9672 22.2782 27.1012C22.3215 27.293 22.3607 27.4848 22.4298 27.6679C22.4442 27.7082 22.4617 27.7518 22.4885 27.7823C22.5782 27.8836 22.6669 27.986 22.7669 28.0754C22.8556 28.1549 22.9432 28.2367 23.0319 28.3173C23.0896 28.3707 23.136 28.435 23.1958 28.4829C23.2824 28.5559 23.3576 28.6398 23.4226 28.7357C23.4597 28.788 23.4999 28.8371 23.5442 28.8839C23.6113 28.9569 23.6721 29.0354 23.7278 29.1182C23.7937 29.2119 23.8618 29.3035 23.9267 29.3983C23.9711 29.4625 24.0195 29.5268 24.0504 29.5988C24.101 29.7175 24.1824 29.821 24.2113 29.9518C24.2154 29.966 24.2216 29.979 24.2298 29.991C24.3051 30.1207 24.368 30.258 24.4185 30.4018C24.4257 30.4247 24.4556 30.44 24.467 30.428C24.4783 30.4171 24.4907 30.4084 24.4927 30.3975C24.5216 30.1894 24.5628 29.9823 24.5639 29.7698C24.5628 29.6674 24.567 29.5661 24.5762 29.4647C24.6072 29.2032 24.5804 28.9417 24.5938 28.6802C24.603 28.4982 24.5907 28.3162 24.5855 28.1342C24.5804 27.9316 24.5731 27.7278 24.5649 27.524C24.5597 27.415 24.5391 27.3061 24.5422 27.1982C24.5453 27.0511 24.5216 26.9083 24.5175 26.7623C24.5164 26.71 24.501 26.6621 24.4701 26.6207C24.4319 26.5695 24.3979 26.5117 24.3505 26.4703C24.2329 26.3701 24.1267 26.2556 24.002 26.1641C23.9453 26.1216 23.8865 26.0835 23.8267 26.0421ZM24.3319 10.4728L24.3278 10.4706C24.2793 10.5502 24.2267 10.6275 24.1814 10.7093C24.1113 10.8346 24.0412 10.9599 23.9793 11.0907C23.9401 11.1746 23.9278 11.2715 23.8659 11.3445C23.7937 11.5331 23.7144 11.7194 23.6515 11.9123C23.4896 12.4081 23.3453 12.9082 23.2556 13.4258C23.2484 13.4683 23.2391 13.5108 23.2277 13.5533C23.171 13.7723 23.1545 13.9979 23.137 14.2224C23.1195 14.4545 23.1092 14.6877 23.0917 14.9198C23.0782 15.0723 23.0762 15.2249 23.0844 15.3774C23.1092 15.7327 23.1339 16.089 23.1597 16.4442C23.1618 16.466 23.1659 16.4878 23.1721 16.5085C23.1772 16.5249 23.1886 16.5325 23.2009 16.5281C23.2082 16.5259 23.2133 16.5227 23.2174 16.5161C23.2257 16.4965 23.2329 16.4769 23.238 16.4562C23.2886 16.2513 23.336 16.0465 23.3927 15.8438C23.4329 15.6967 23.4803 15.5529 23.5339 15.4112C23.5803 15.2892 23.635 15.1715 23.6845 15.0516C23.7257 14.9514 23.7628 14.85 23.804 14.7498C23.8803 14.5656 23.9113 14.3738 23.8968 14.1744C23.8958 14.1526 23.8937 14.1308 23.8937 14.109C23.8876 13.683 23.9381 13.2656 24.0463 12.8559C24.1133 12.5966 24.1948 12.3405 24.2721 12.0844C24.3267 11.9068 24.4835 11.5592 24.5608 11.4088C24.6103 11.3129 24.6701 11.2225 24.7061 11.119C24.7123 11.0983 24.7226 11.0787 24.7371 11.0623C24.7866 11.0089 24.8113 10.9414 24.8453 10.8782C24.9402 10.7005 25.0474 10.5306 25.1649 10.3682C25.2268 10.281 25.2959 10.1982 25.3567 10.111C25.4103 10.0348 25.4618 9.95739 25.5319 9.89637C25.5423 9.88656 25.5505 9.87458 25.5546 9.86041C25.5588 9.84625 25.5577 9.83317 25.5515 9.82118C25.5278 9.79503 25.5031 9.76561 25.4732 9.75144C25.402 9.71875 25.3464 9.66645 25.2897 9.61197C25.2392 9.56402 25.1752 9.53242 25.1165 9.49428C25.0969 9.4812 25.0587 9.48774 25.0402 9.50736C24.9958 9.55421 24.9453 9.59562 24.9103 9.64792C24.7989 9.81464 24.6618 9.96066 24.5546 10.1306C24.4835 10.2472 24.4061 10.3595 24.3319 10.4728ZM23.238 29.808C23.203 29.784 23.169 29.7589 23.1339 29.7371C23.104 29.7186 23.0731 29.7023 23.0422 29.6859C23.0154 29.6718 22.9916 29.6739 22.9896 29.6914C22.9875 29.7121 22.9824 29.736 22.9896 29.7535C23.0154 29.8134 23.0432 29.8712 23.0752 29.9278C23.1628 30.0837 23.2411 30.246 23.3082 30.4138C23.3638 30.5544 23.4298 30.6917 23.4834 30.8334C23.5412 30.9892 23.6195 31.1352 23.6669 31.2954C23.6814 31.3444 23.6999 31.3913 23.7216 31.437C23.8432 31.7073 23.9278 31.9917 24.0298 32.2695C24.0669 32.3643 24.0896 32.4624 24.0979 32.5648C24.103 32.6084 24.1113 32.6509 24.1216 32.6923C24.1247 32.6989 24.1288 32.7043 24.135 32.7076C24.1463 32.7011 24.1618 32.6945 24.1659 32.6825C24.1762 32.6564 24.1834 32.628 24.1876 32.5997C24.201 32.5136 24.2092 32.4265 24.2257 32.3404C24.269 32.1126 24.3072 31.8838 24.3329 31.6528C24.3381 31.5874 24.3494 31.5231 24.3649 31.4588C24.3979 31.3313 24.401 31.2006 24.4195 31.0709C24.4257 31.0262 24.4175 30.9837 24.3948 30.9445C24.3804 30.9205 24.369 30.8933 24.3618 30.866C24.3402 30.7876 24.303 30.7189 24.2484 30.6612C24.1257 30.5228 24.0061 30.3811 23.8535 30.2787C23.8175 30.2569 23.7855 30.2297 23.7556 30.1992C23.6855 30.1163 23.5958 30.0608 23.5195 29.9878C23.4989 29.9671 23.4762 29.9518 23.4515 29.9409C23.3721 29.9093 23.3071 29.8559 23.238 29.808ZM24.2979 9.29596C24.235 9.41038 24.1938 9.49428 24.1443 9.57274C24.1082 9.62831 24.0927 9.68933 24.0948 9.75689C24.0968 9.80811 24.0917 9.85932 24.0979 9.90945C24.1113 10.0271 24.101 10.1415 24.0865 10.2571C24.0793 10.3083 24.0711 10.3584 24.0659 10.4085C24.0618 10.4303 24.0608 10.4521 24.0628 10.4739C24.0649 10.4892 24.0721 10.5 24.0834 10.5088C24.0958 10.512 24.1072 10.5099 24.1164 10.5011C24.1453 10.4597 24.1711 10.4172 24.1979 10.3747C24.4195 10.0053 24.6556 9.64792 24.9402 9.32865C24.9608 9.30468 24.9659 9.27744 24.9577 9.24692C24.9257 9.10527 24.8917 8.9647 24.8577 8.82413C24.8525 8.80561 24.8196 8.79689 24.8051 8.81106C24.6618 8.94726 24.5103 9.0704 24.3721 9.21423C24.3381 9.2491 24.3051 9.28724 24.2979 9.29596Z" fill="#838B66"/>
</svg>
