<svg width="304" height="240" viewBox="0 0 304 240" fill="none" xmlns="http://www.w3.org/2000/svg">
<path d="M20.5 171.545H14.125V230.816C14.125 232.54 14.7344 234.014 15.9583 235.233C17.1927 236.457 18.7083 237.066 20.5 237.066H21.6875L21.7917 238.066H0V237.066H1.29167C3.02604 237.066 4.50521 236.472 5.72917 235.274C6.94792 234.082 7.59375 232.623 7.66667 230.899V175.712C7.59375 173.993 6.94792 172.519 5.72917 171.295C4.50521 170.076 3.02604 169.462 1.29167 169.462H0V168.462H26.8542C32.8802 168.462 37.6146 170.139 41.0625 173.483C44.5208 176.832 46.25 181.17 46.25 186.503C46.25 191.837 44.6042 196.451 41.3125 200.337C38.0312 204.212 34.0417 206.149 29.3333 206.149C30.3333 206.608 31.5104 207.519 32.875 208.878C34.2344 210.243 35.4427 211.649 36.5 213.108C42.2083 221.264 45.9219 226.285 47.6458 228.17C49.3646 230.061 50.5885 231.352 51.3125 232.045C52.0469 232.743 52.8438 233.42 53.7083 234.087C54.5677 234.753 55.4271 235.285 56.2917 235.67C58.2083 236.602 60.2604 237.066 62.4583 237.066V238.066H56.9792C54.1302 238.066 51.4792 237.556 49.0208 236.524C46.5729 235.498 44.7344 234.441 43.5 233.358C42.276 232.264 41.2135 231.201 40.3125 230.17C39.4219 229.144 36.9583 225.712 32.9167 219.878C28.875 214.045 26.5208 210.712 25.8542 209.878C25.1979 209.045 24.5052 208.233 23.7708 207.441C21.6458 205.191 19.526 204.066 17.4167 204.066V203.066C17.9427 203.139 18.6354 203.17 19.5 203.17C20.3594 203.17 21.4219 203.139 22.6875 203.066C30.8958 202.873 36.0625 199.431 38.1875 192.733C38.5885 191.399 38.7917 190.16 38.7917 189.003C38.7917 187.837 38.7917 187.087 38.7917 186.753C38.651 182.311 37.4844 178.733 35.2917 176.024C33.1094 173.306 30.1667 171.847 26.4583 171.649C24.8594 171.582 22.875 171.545 20.5 171.545Z" fill="#42433E"/>
<path d="M132.561 237.066H133.353V238.066H110.978V237.066H111.874C113.259 237.066 114.301 236.623 114.999 235.733C115.691 234.832 116.04 233.983 116.04 233.191C116.04 232.399 115.905 231.608 115.645 230.816L109.29 213.899H82.4362L75.7695 230.899C75.5039 231.707 75.3737 232.493 75.3737 233.253C75.3737 234.003 75.7175 234.832 76.4154 235.733C77.1081 236.623 78.1549 237.066 79.5612 237.066H80.457V238.066H60.457V237.066H61.3529C63.0195 237.066 64.6445 236.54 66.2279 235.483C67.8216 234.431 69.1133 232.873 70.1029 230.816L92.582 177.316C95.0404 171.941 96.2695 168.524 96.2695 167.066H97.1654L123.811 230.816C124.728 232.873 125.983 234.431 127.582 235.483C129.176 236.54 130.837 237.066 132.561 237.066ZM83.6237 210.92H108.103L96.1654 179.003L83.6237 210.92Z" fill="#42433E"/>
<path d="M221.644 237.066H223.227V238.066H201.644V237.17H203.144C204.269 237.17 205.227 236.727 206.019 235.837C206.821 234.936 207.154 233.957 207.019 232.899L202.54 182.878L181.665 229.316C179.8 233.358 178.675 236.743 178.29 239.462H177.29L151.832 184.274L147.561 232.899C147.42 233.957 147.748 234.936 148.54 235.837C149.342 236.727 150.274 237.17 151.332 237.17H152.936V238.066H133.644V237.066H135.227C137.087 237.066 138.691 236.503 140.04 235.378C141.399 234.253 142.212 232.733 142.477 230.816L149.936 167.066H150.936L178.686 227.024L205.832 167.066H206.727L214.373 230.816C214.707 233.457 216.029 235.311 218.352 236.378C219.352 236.837 220.446 237.066 221.644 237.066Z" fill="#42433E"/>
<path d="M241.563 177.066C248.157 170.399 256.756 167.066 267.355 167.066C277.964 167.066 286.584 170.399 293.209 177.066C299.845 183.722 303.167 192.451 303.167 203.253C303.167 214.061 299.845 222.795 293.209 229.462C286.584 236.128 277.964 239.462 267.355 239.462C256.756 239.462 248.157 236.128 241.563 229.462C234.964 222.795 231.667 214.061 231.667 203.253C231.667 192.451 234.964 183.722 241.563 177.066ZM247.022 227.337C252.157 233.436 258.959 236.483 267.417 236.483C275.876 236.483 282.667 233.436 287.792 227.337C292.928 221.227 295.501 213.201 295.501 203.253C295.501 196.701 294.339 190.899 292.022 185.858C289.699 180.816 286.402 176.92 282.126 174.17C277.86 171.42 272.944 170.045 267.376 170.045C258.944 170.045 252.157 173.102 247.022 179.212C241.897 185.311 239.334 193.332 239.334 203.274C239.334 213.207 241.897 221.227 247.022 227.337Z" fill="#42433E"/>
<path d="M132.469 114.24C132.344 114.063 132.261 113.948 132.188 113.828C131.1 111.99 129.714 110.38 128.329 108.771C128.074 108.458 127.756 108.255 127.365 108.151C127.193 108.109 127.027 108.047 126.86 108C125.839 107.714 124.818 107.427 123.803 107.13C123.391 107.026 122.995 106.87 122.62 106.667C122.407 106.547 122.178 106.448 121.943 106.37C121.308 106.156 120.688 105.901 120.084 105.615C119.605 105.38 119.146 105.125 118.699 104.844C117.428 104.052 116.355 103.026 115.313 101.969C115.042 101.688 114.777 101.406 114.584 101.063C114.553 100.995 114.516 100.938 114.469 100.885C113.818 100.302 113.495 99.5 113.032 98.7917C112.657 98.224 112.449 97.5781 112.188 96.9583C112.027 96.5625 111.917 96.1458 111.73 95.7708C111.459 95.224 111.324 94.6354 111.167 94.0573C111.016 93.5 111.011 92.9375 111.037 92.3698C111.058 91.9948 111.475 91.6771 111.865 91.724C112.084 91.7396 112.282 91.8073 112.464 91.9219C113.261 92.4427 114.094 92.9115 114.777 93.599C115.126 93.9479 115.558 94.2031 115.902 94.5677C116.313 95.0052 116.772 95.401 117.188 95.8281C117.761 96.4115 118.334 96.9844 118.995 97.4635C119.089 97.5208 119.167 97.5885 119.24 97.6667C119.662 98.2135 120.24 98.5677 120.798 98.9323C121.865 99.625 122.943 100.307 124.016 100.99C124.048 101.01 124.079 101.031 124.11 101.047C124.865 101.344 125.558 101.776 126.298 102.109C127.324 102.578 128.381 102.979 129.386 103.49C130.042 103.672 130.594 104.057 131.178 104.391C131.73 104.708 132.282 105 132.777 105.411C133.381 105.901 134.053 106.302 134.693 106.745C134.782 106.797 134.876 106.849 134.969 106.896C135.115 106.958 135.245 106.932 135.355 106.818C135.464 106.677 135.574 106.542 135.667 106.391C136.011 105.854 136.36 105.318 136.678 104.766C136.933 104.339 137.214 103.932 137.527 103.547C137.631 103.406 137.751 103.276 137.881 103.156C138.412 102.688 138.99 102.281 139.605 101.927C139.829 101.797 140.016 101.833 140.173 102.042C140.292 102.214 140.438 102.385 140.511 102.578C140.839 103.406 141.053 104.276 140.834 105.172C140.714 105.693 140.652 106.219 140.657 106.75C140.646 107.599 140.563 108.448 140.495 109.297C140.443 109.865 140.454 110.427 140.527 110.995C140.548 111.219 140.646 111.396 140.829 111.531C140.912 111.599 140.995 111.656 141.089 111.714C141.855 112.161 142.516 112.76 143.188 113.328C143.839 113.875 144.449 114.464 145.021 115.089C145.594 115.714 146.188 116.323 146.766 116.938C147.011 117.198 147.251 117.453 147.475 117.724C148.042 118.406 148.605 119.089 149.146 119.786C149.584 120.344 150.001 120.917 150.412 121.49C150.917 122.214 151.417 122.948 151.907 123.682C152.032 123.896 152.146 124.115 152.251 124.344C152.714 125.26 153.225 126.151 153.782 127.01C153.829 127.094 153.891 127.109 153.969 127.068C154.001 127.047 154.016 127.026 154.027 126.99C154.042 126.818 154.089 126.635 154.063 126.464C153.917 125.271 153.855 124.068 153.709 122.87C153.6 121.958 153.516 121.036 153.355 120.13C153.193 119.219 153.115 118.302 152.99 117.385C152.824 116.156 152.678 114.927 152.527 113.698C152.308 111.896 151.855 110.141 151.48 108.375C151.454 108.24 151.417 108.099 151.376 107.964C151.344 107.865 151.318 107.745 151.251 107.677C150.73 107.188 150.605 106.422 150.032 105.964C149.813 105.792 149.667 105.531 149.495 105.307C149.141 104.859 148.761 104.443 148.287 104.12C147.907 103.854 147.631 103.479 147.298 103.161C147.027 102.885 146.735 102.63 146.423 102.391C145.855 101.974 145.355 101.474 144.761 101.078C144.027 100.589 143.292 100.094 142.501 99.7031C142.188 99.5365 141.896 99.3438 141.626 99.1198C140.985 98.6198 140.308 98.1667 139.641 97.7031C139.292 97.4583 138.933 97.2292 138.584 96.9896C138.376 96.8594 138.173 96.7135 137.98 96.5573C137.016 95.6563 135.87 95.0156 134.803 94.2656C134.423 94 134.032 93.7604 133.709 93.4271C133.579 93.3073 133.438 93.1927 133.292 93.0938C132.053 92.151 130.917 91.0938 129.886 89.9271C128.933 88.8386 127.985 87.7396 127.042 86.6354C126.907 86.474 126.787 86.2969 126.683 86.1146C126.386 85.6302 126.105 85.1354 125.808 84.651C125.631 84.3438 125.433 84.0521 125.209 83.776C124.652 83.1198 124.282 82.3594 123.912 81.5938C123.589 80.9219 123.277 80.2448 122.949 79.5781C122.568 78.8177 122.292 78.0104 122.011 77.2083C121.777 76.5417 121.589 75.8542 121.459 75.1615C121.219 73.9063 120.912 72.6667 120.542 71.4479C120.459 71.1771 120.397 70.8958 120.313 70.625C120.063 69.7396 119.829 68.849 119.553 67.9688C119.423 67.5625 119.313 67.1511 119.225 66.7396C119.105 66.1823 118.954 65.6354 118.771 65.099C118.605 64.5938 118.511 64.0677 118.396 63.5469C118.282 63.0156 118.365 62.4896 118.495 61.9688C118.516 61.9011 118.542 61.8385 118.579 61.776C118.678 61.5625 118.85 61.4531 119.084 61.4479C119.521 61.4219 119.928 61.5261 120.303 61.75C120.735 61.9896 121.126 62.2917 121.464 62.6563C122.303 63.5625 123.193 64.4271 123.99 65.3698C124.037 65.4271 124.1 65.4636 124.141 65.5208C124.933 66.5677 125.855 67.5052 126.636 68.5573C127.266 69.4063 127.975 70.2031 128.683 70.9896C128.803 71.1198 128.933 71.2448 129.037 71.3854C129.959 72.599 131.011 73.7031 132.011 74.849C132.824 75.7813 133.657 76.6927 134.433 77.6563C134.725 78.0156 135.053 78.3385 135.37 78.6719C135.443 78.7448 135.542 78.8021 135.605 78.8854C136.115 79.5677 136.761 80.125 137.324 80.7552C137.699 81.1771 138.1 81.5833 138.485 81.9948C138.652 82.1771 138.813 82.3646 138.969 82.5521C139.62 83.349 140.277 84.1406 140.969 84.8958C141.277 85.2344 141.563 85.5938 141.818 85.974C142.396 86.8229 142.969 87.6719 143.511 88.5469C143.824 89.0573 144.068 89.6094 144.35 90.1406C144.876 91.1458 145.355 92.1771 145.938 93.151C146.568 94.2135 147.126 95.3229 147.73 96.401C147.85 96.6198 147.954 96.8438 148.048 97.0729C148.266 97.5938 148.49 98.1146 148.714 98.6354C148.756 98.7188 148.808 98.75 148.881 98.6979C148.912 98.6719 148.923 98.6406 148.917 98.599C148.787 98.125 148.662 97.6458 148.516 97.1719C148.438 96.901 148.376 96.6198 148.344 96.3385C148.266 95.7396 148.141 95.151 147.964 94.5729C147.813 94.0677 147.673 93.5521 147.646 93.0156C147.631 92.8385 147.61 92.6615 147.574 92.4844C147.35 91.125 147.105 89.7656 146.891 88.3958C146.777 87.6979 146.673 86.9948 146.62 86.2917C146.579 85.7604 146.49 85.2344 146.417 84.7083C146.339 84.2552 146.292 83.7969 146.266 83.3385C146.245 82.9115 146.214 82.4896 146.178 82.0677C146.094 80.9688 146.063 79.875 145.995 78.776C145.902 77.3229 145.964 75.8698 145.98 74.4167C145.99 73.7813 145.933 73.1406 145.938 72.5052C145.943 72.3594 145.923 72.224 145.876 72.0885C145.563 71.2604 145.391 70.3802 144.896 69.625C144.761 69.4219 144.673 69.1875 144.558 68.9635C144.214 68.3021 143.844 67.6615 143.334 67.1042C142.954 66.6823 142.626 66.224 142.355 65.724C142.147 65.3542 141.881 65.0208 141.641 64.6667C141.068 63.8125 140.579 62.9115 140.089 62.0052C139.907 61.6615 139.714 61.3281 139.527 60.9844C138.907 59.8646 138.36 58.7135 137.891 57.526C137.334 56.1458 136.85 54.7396 136.428 53.3073C136.35 53.0365 136.282 52.7656 136.235 52.4844C136.152 51.9948 136.053 51.5104 135.954 51.0208C135.834 50.3594 135.766 49.6927 135.751 49.0156C135.719 47.9896 135.688 46.9635 135.693 45.9323C135.699 44.9427 135.751 43.9479 135.745 42.9583C135.745 41.5729 135.735 40.1927 135.594 38.8125C135.574 38.5677 135.579 38.3177 135.574 38.0729C135.563 37.8229 135.563 37.5729 135.537 37.3281C135.391 36.0885 135.454 34.849 135.521 33.6094C135.527 33.3958 135.553 33.1875 135.594 32.9792C135.641 32.8073 135.709 32.6458 135.798 32.4896C135.969 32.2031 136.209 32.1094 136.532 32.1979C136.699 32.2448 136.86 32.3177 137.011 32.4063C137.495 32.7135 137.907 33.0938 138.245 33.5573C138.803 34.3385 139.261 35.1771 139.615 36.0677C139.933 36.8958 140.272 37.7135 140.589 38.5417C140.714 38.8698 140.824 39.2083 140.912 39.5521C141.016 40 141.157 40.4427 141.324 40.8698C141.459 41.1979 141.548 41.5417 141.657 41.875C141.85 42.4844 142.063 43.0885 142.214 43.7083C142.459 44.7083 142.808 45.6719 143.173 46.6302C143.584 47.724 144.027 48.8073 144.443 49.901C144.594 50.2969 144.725 50.7031 144.839 51.1094C145.079 51.9636 145.308 52.8177 145.516 53.6823C145.766 54.6771 145.985 55.6823 146.079 56.7135C146.105 56.9583 146.173 57.1979 146.209 57.4427C146.402 58.849 146.62 60.25 146.704 61.6667C146.751 62.4427 146.87 63.2136 146.964 63.9844C146.964 64.0156 147.011 64.0625 147.032 64.0625C147.089 64.0469 147.147 64.026 147.199 63.9948C147.23 63.9688 147.251 63.9427 147.261 63.9063C147.277 63.875 147.292 63.8438 147.298 63.8073C147.402 62.9948 147.683 62.224 147.912 61.4427C148.011 61.1042 148.146 60.776 148.271 60.4427C148.318 60.3125 148.376 60.1823 148.423 60.0469C148.662 59.3073 148.891 58.5625 149.146 57.8229C149.402 57.0885 149.652 56.349 149.954 55.6302C150.214 55.0104 150.527 54.4167 150.85 53.8229C151.006 53.5469 151.11 53.25 151.167 52.9323C151.261 52.3021 151.433 51.6875 151.396 51.0417C151.391 50.8698 151.449 50.6927 151.475 50.5156C151.542 49.9896 151.652 49.4636 151.667 48.9375C151.683 48.4063 151.6 47.8802 151.579 47.349C151.553 46.8125 151.423 46.3073 151.188 45.8229C150.891 45.2188 150.626 44.6042 150.391 43.9688C150.188 43.4375 150.048 42.8906 149.902 42.3438C149.761 41.8333 149.62 41.3177 149.521 40.7969C149.417 40.2031 149.35 39.6042 149.277 39.0052C149.178 38.1927 149.089 37.3854 148.995 36.5729C148.975 36.401 148.954 36.224 148.949 36.0469C148.881 34.6302 148.86 33.2135 149.079 31.8021C149.23 30.8594 149.303 29.901 149.391 28.9479C149.464 28.3125 149.579 27.6875 149.745 27.0677C149.87 26.5885 150.001 26.1042 150.048 25.6146C150.115 24.8646 150.329 24.1563 150.558 23.4479C150.709 22.9792 150.86 22.5052 150.99 22.026C151.282 20.9271 151.631 19.849 152.032 18.7917C152.204 18.3281 152.308 17.8385 152.548 17.401C152.594 17.3125 152.574 17.1927 152.589 17.0938C152.61 16.9531 152.641 16.8177 152.678 16.6823C152.745 16.4427 152.787 16.1823 152.912 15.9792C153.261 15.3958 153.355 14.7031 153.756 14.1458C153.975 13.8229 154.162 13.4844 154.313 13.125C154.48 12.7656 154.673 12.4271 154.891 12.1042C155.521 11.1198 156.162 10.1406 156.792 9.15105C157.094 8.67709 157.428 8.21354 157.594 7.66146C157.631 7.5573 157.678 7.46355 157.735 7.3698C158.105 6.64584 158.475 5.92188 158.844 5.19792C158.912 5.07292 158.969 4.94271 159.016 4.8073C159.126 4.4323 159.329 4.09896 159.521 3.76042C159.646 3.54688 159.761 3.32813 159.86 3.10417C160.162 2.33855 160.631 1.67188 161.1 1.00521C161.287 0.739588 161.553 0.557296 161.803 0.369796C161.98 0.234378 162.199 0.218753 162.412 0.239587C162.6 0.260419 162.756 0.328129 162.85 0.494796C162.865 0.526045 162.881 0.557296 162.902 0.588546C163.423 1.41667 163.662 2.33855 163.777 3.29688C163.865 4.03646 163.943 4.77084 163.886 5.52084C163.834 6.19271 163.886 6.8698 163.85 7.54167C163.782 8.9948 163.719 10.4427 163.605 11.8906C163.506 13.1302 163.407 14.3646 163.298 15.599C163.225 16.5156 163.199 17.4375 163.042 18.349C162.98 18.7344 162.959 19.125 162.975 19.5156C163.006 20.7604 162.923 22 162.912 23.2396C162.896 25.1198 162.772 26.9896 162.308 28.8281C162.147 29.4792 162.021 30.1406 161.803 30.7813C161.725 31.0156 161.631 31.2448 161.527 31.4688C161.485 31.5625 161.459 31.6667 161.454 31.7708C161.464 31.8385 161.495 31.901 161.548 31.9479C161.579 31.9688 161.61 31.974 161.646 31.9635C161.771 31.9063 161.917 31.875 162.021 31.7865C162.693 31.1927 163.495 30.8229 164.282 30.4323C164.407 30.3698 164.542 30.3229 164.678 30.2917C165.292 30.1146 165.902 29.9427 166.511 29.7708C166.548 29.7604 166.579 29.7552 166.615 29.75C167.62 29.5469 168.636 29.3906 169.662 29.474C170.407 29.5417 171.126 29.7292 171.771 30.1198C172.412 30.5052 173.058 30.875 173.636 31.3281C174.24 31.8073 174.844 32.3125 175.183 33.0521C175.199 33.0833 175.214 33.1094 175.24 33.1406C175.766 33.8854 175.959 34.75 176.1 35.625C176.141 35.9011 176.105 36.1927 176.105 36.474C176.11 36.8646 176.12 37.25 176.136 37.6354C176.136 37.6719 176.245 37.724 176.303 37.724C176.376 37.724 176.438 37.6979 176.495 37.651C176.975 37.2813 177.501 36.9896 178.068 36.7813C178.725 36.526 179.376 36.2604 180.068 36.0885C181.063 35.8438 182.011 35.4479 182.975 35.099C183.339 34.9688 183.704 34.8333 184.068 34.6927C184.469 34.5417 184.886 34.4792 185.313 34.4948C185.62 34.4948 185.87 34.6198 186.058 34.8594C186.131 34.9375 186.178 35.0313 186.204 35.1354C186.251 35.526 186.24 35.9167 186.027 36.2708C185.553 37.0573 185.058 37.8177 184.396 38.4844C183.751 39.1354 183.11 39.7917 182.495 40.4792C182.074 40.9479 181.631 41.4063 181.199 41.875C181.048 42.0261 180.912 42.1875 180.787 42.3594C180.396 42.9115 179.943 43.4115 179.438 43.8594C179.23 44.0521 179.042 44.2604 178.87 44.4844C178.652 44.7656 178.412 45.026 178.183 45.2917C178.068 45.4271 177.938 45.5521 177.839 45.6979C177.527 46.125 177.23 46.5625 176.844 46.9375C176.673 47.1094 176.542 47.3333 176.402 47.5313C176.001 48.0729 175.646 48.6511 175.162 49.125C175.089 49.2031 175.027 49.2865 174.975 49.3802C174.407 50.2344 173.839 51.0938 173.277 51.9479C173.042 52.3073 172.813 52.6667 172.6 53.0313C172.417 53.3333 172.24 53.6406 172.084 53.9583C171.964 54.2188 171.808 54.4531 171.615 54.6615C171.464 54.8125 171.344 54.9844 171.256 55.1823C170.98 55.8802 170.532 56.4792 170.146 57.1146C169.36 58.4219 168.48 59.6667 167.641 60.9375C167.412 61.2917 167.178 61.651 166.943 62.0052C166.636 62.4792 166.334 62.9636 165.917 63.3594C165.839 63.4271 165.772 63.5104 165.714 63.6042C165.105 64.6146 164.219 65.3958 163.417 66.2396C162.688 67.0052 161.876 67.6927 161.079 68.3854C160.678 68.75 160.23 69.0208 159.73 69.2083C159.167 69.4063 158.626 69.6823 158.084 69.9427C157.407 70.2708 156.683 70.4271 155.949 70.5469C155.495 70.6146 155.048 70.6875 154.589 70.7448C153.949 70.8177 153.355 71.0573 152.782 71.3281C152.62 71.4063 152.475 71.5 152.344 71.625C151.938 72.0156 151.537 72.4115 151.146 72.8229C151.027 72.9531 150.938 73.1042 150.876 73.276C150.631 73.9427 150.344 74.5885 150.058 75.2344C149.881 75.6615 149.73 76.0938 149.594 76.5365C149.173 77.8542 148.808 79.1875 148.475 80.526C148.36 80.9688 148.313 81.4323 148.235 81.8854C148.199 82.0938 148.162 82.3073 148.131 82.5156C148.011 83.25 147.943 83.9896 147.912 84.7344C147.844 86.1979 147.995 87.6354 148.214 89.0781C148.402 90.3385 148.548 91.6042 148.745 92.8646C148.876 93.7083 149.063 94.5365 149.23 95.375C149.303 95.7552 149.396 96.1354 149.454 96.5208C149.646 97.8229 150.001 99.0938 150.339 100.354C150.548 101.146 150.803 101.917 151.042 102.698C151.074 102.766 151.11 102.823 151.167 102.87C151.178 102.88 151.24 102.87 151.251 102.849C151.412 102.615 151.454 102.328 151.521 102.057C151.615 101.719 151.688 101.37 151.74 101.021C151.818 100.49 151.954 99.9792 152.146 99.4844C152.511 98.5208 152.745 97.5156 153.152 96.5729C153.35 96.1458 153.417 95.6927 153.355 95.224C153.334 95.0833 153.344 94.9375 153.329 94.7969C153.126 93.3021 153.355 91.8281 153.574 90.3594C153.631 90.0469 153.673 89.7292 153.699 89.4115C153.719 89.1302 153.761 88.849 153.813 88.5729C153.855 88.3281 153.907 88.0833 153.938 87.8385C154.146 86.0677 154.662 84.3698 155.225 82.6875C155.37 82.2552 155.568 81.8386 155.745 81.4115C156.063 80.6615 156.381 79.9167 156.709 79.1719C156.798 78.9792 156.902 78.7917 157.021 78.6146C157.48 77.9011 157.949 77.1875 158.407 76.474C158.959 75.599 159.657 74.8542 160.35 74.0938C160.782 73.625 161.256 73.2031 161.636 72.6875C161.85 72.4063 162.12 72.1719 162.386 71.9375C163.199 71.2031 164.006 70.4636 164.844 69.7552C165.271 69.3906 165.745 69.0729 166.214 68.75C167.376 67.9479 168.521 67.1146 169.818 66.526C170.136 66.3802 170.438 66.1875 170.751 66.026C171.438 65.6615 172.115 65.2813 172.813 64.9375C173.261 64.724 173.714 64.5365 174.183 64.3698C175.641 63.8385 177.063 63.2083 178.516 62.6615C179.209 62.401 179.902 62.1302 180.589 61.849C181.042 61.6563 181.48 61.4219 181.928 61.2188C182.834 60.8125 183.714 60.3698 184.646 60.0365C185.245 59.8125 185.824 59.5521 186.386 59.25C187.563 58.625 188.834 58.3542 190.131 58.1458C190.199 58.1354 190.272 58.1302 190.339 58.1354C190.719 58.151 191.079 58.3854 191.016 58.8958C190.99 59.1406 190.923 59.3802 190.824 59.6042C190.141 61.1406 189.225 62.5313 188.245 63.875C187.745 64.5625 187.173 65.1875 186.631 65.8438C186.537 65.9531 186.438 66.0521 186.36 66.1667C185.959 66.7552 185.511 67.3021 185.016 67.8125C184.751 68.0938 184.485 68.375 184.209 68.6458C183.798 69.0417 183.417 69.4583 183.068 69.9063C182.761 70.2865 182.428 70.6511 182.068 70.9896C181.792 71.2656 181.548 71.5625 181.329 71.8854C180.548 73.0313 179.787 74.1823 178.99 75.3073C178.537 75.9427 178.162 76.625 177.745 77.2865C177.652 77.4375 177.568 77.6042 177.449 77.724C176.891 78.2865 176.495 78.9583 176.048 79.5938C175.704 80.0833 175.36 80.5781 175.001 81.0625C174.725 81.4323 174.417 81.7708 174.146 82.1406C173.881 82.5156 173.579 82.8646 173.277 83.2083C172.886 83.6667 172.495 84.1198 172.084 84.5573C171.6 85.0729 171.115 85.5885 170.605 86.0729C169.907 86.7292 169.214 87.3802 168.511 88.0313C168.386 88.151 168.24 88.2552 168.105 88.3646C167.501 88.8594 166.844 89.2813 166.287 89.8281C165.48 90.3438 164.745 90.9583 164.001 91.5521C162.86 92.4688 161.6 93.1719 160.344 93.8958C160.1 94.0469 159.85 94.1667 159.584 94.2656C158.074 94.776 156.626 95.4323 155.141 95.9896C154.844 96.099 154.574 96.2813 154.282 96.401C153.844 96.5781 153.615 96.9115 153.506 97.3438C153.256 98.3021 152.902 99.2344 152.626 100.182C152.245 101.479 151.98 102.802 151.839 104.141C151.792 104.641 151.798 105.135 151.86 105.63C151.896 105.948 151.923 106.266 151.964 106.578C151.975 106.724 152.001 106.859 152.037 107C152.464 108.391 152.756 109.813 153.021 111.245C153.157 111.974 153.339 112.698 153.48 113.432C153.74 114.792 153.938 116.151 154.084 117.531C154.183 118.484 154.324 119.432 154.459 120.38C154.469 120.474 154.548 120.563 154.594 120.656C154.631 120.646 154.662 120.635 154.688 120.609C154.735 120.557 154.766 120.5 154.787 120.432C154.954 119.594 155.245 118.797 155.475 117.979C155.844 116.682 156.298 115.417 156.829 114.177C157.188 113.333 157.532 112.474 158.021 111.688C158.12 111.542 158.204 111.385 158.282 111.224C158.777 110.12 159.469 109.135 160.152 108.141C160.209 108.052 160.298 107.984 160.344 107.891C160.798 106.953 161.454 106.167 162.131 105.396C162.553 104.917 162.98 104.443 163.396 103.964C164.136 103.109 164.959 102.328 165.751 101.526C166.501 100.771 167.313 100.089 168.183 99.4844C169.376 98.6458 170.678 98.0156 171.99 97.401C172.537 97.1458 173.079 96.8854 173.631 96.6563C174.579 96.2708 175.49 95.7969 176.459 95.4583C176.792 95.3333 177.136 95.2708 177.49 95.2656C177.917 95.2708 178.339 95.2552 178.761 95.2604C179.501 95.2604 180.24 95.2396 180.959 95.5C181.12 95.5573 181.303 95.5521 181.475 95.5938C181.615 95.6146 181.751 95.6563 181.881 95.7083C182.334 95.9167 182.782 96.1146 183.214 96.3594C183.709 96.6354 184.23 96.8594 184.766 97.0313C185.475 97.2552 186.183 97.4844 186.891 97.6979C187.094 97.7552 187.298 97.7969 187.511 97.8281C187.787 97.875 188.068 97.9115 188.35 97.9479C189.173 98.0417 189.923 98.3333 190.594 98.8125C191.199 99.25 191.834 99.6406 192.459 100.036C192.787 100.25 193.126 100.432 193.485 100.583C194.074 100.828 194.579 101.229 195.074 101.625C195.298 101.802 195.495 102.005 195.699 102.198C195.844 102.344 195.917 102.516 195.923 102.719C195.928 102.922 195.865 103.099 195.73 103.25C195.037 103.979 194.985 104.005 194.011 104.167C193.423 104.266 192.829 104.365 192.235 104.464C191.959 104.516 191.678 104.521 191.396 104.474C190.699 104.354 189.995 104.307 189.287 104.333C188.61 104.359 187.949 104.266 187.303 104.057C186.188 103.688 185.021 103.609 183.876 103.406C183.042 103.255 182.199 103.161 181.365 103.01C180.589 102.88 179.818 102.896 179.048 103.057C178.735 103.125 178.454 103.26 178.199 103.458C177.647 103.844 177.126 104.266 176.631 104.719C175.954 105.344 175.251 105.938 174.646 106.635C174.548 106.734 174.443 106.828 174.334 106.917C173.532 107.667 172.74 108.422 171.99 109.219C171.386 109.865 170.787 110.51 170.188 111.161C169.855 111.526 169.521 111.896 169.173 112.24C168.943 112.464 168.74 112.708 168.568 112.974C168.495 113.094 168.407 113.208 168.334 113.328C168.011 113.839 167.631 114.302 167.193 114.714C166.12 115.745 165.063 116.786 163.923 117.74C162.61 118.823 161.251 119.828 159.756 120.646C158.949 121.089 158.152 121.552 157.376 122.042C156.839 122.38 156.344 122.781 155.975 123.318C155.777 123.615 155.542 123.88 155.277 124.12C155.053 124.318 154.959 124.583 154.943 124.875C154.923 125.125 154.923 125.37 154.933 125.62C154.985 126.323 154.995 127.036 155.084 127.734C155.157 128.333 155.193 128.938 155.199 129.536C155.204 130.281 155.298 131.026 155.23 131.771C155.225 131.948 155.235 132.125 155.261 132.302C155.568 134.875 155.605 137.469 155.646 140.057C155.652 140.583 155.6 141.115 155.579 141.651L155.459 144.198C155.459 144.307 155.459 144.411 155.449 144.521C155.266 146.318 155.183 148.125 154.86 149.911C154.646 151.094 154.495 152.292 154.329 153.484C154.136 154.854 153.943 156.224 153.673 157.583C153.646 157.719 153.636 157.859 153.646 158C153.646 158.057 153.719 158.115 153.766 158.156C153.777 158.172 153.829 158.156 153.855 158.141C153.917 158.109 153.975 158.068 154.021 158.016C154.558 157.313 155.105 156.615 155.751 156.01C155.98 155.797 156.136 155.5 156.329 155.245C156.542 154.964 156.761 154.688 156.98 154.411C157.131 154.219 157.292 154.031 157.449 153.839C158.115 153.021 158.386 152.026 158.704 151.047C158.756 150.839 158.787 150.63 158.792 150.417C158.818 150.099 158.834 149.781 158.844 149.458C158.87 148.542 158.891 147.62 158.917 146.698C158.923 146.484 158.943 146.271 158.949 146.063C158.98 145.245 159.126 144.443 159.12 143.625C159.12 143.167 159.219 142.708 159.287 142.25C159.391 141.516 159.522 140.781 159.62 140.042C159.735 139.193 159.995 138.385 160.245 137.573C160.397 137.099 160.532 136.62 160.735 136.167C161.063 135.422 161.339 134.656 161.787 133.969C162.235 133.281 162.673 132.599 163.126 131.927C163.959 130.708 163.964 130.708 165.058 129.536C165.131 129.458 165.209 129.391 165.277 129.307C165.62 128.854 166.001 128.438 166.37 128.01C166.975 127.313 167.516 126.573 168.089 125.854C168.397 125.464 168.699 125.073 169.021 124.698C169.391 124.276 169.688 123.781 169.995 123.307C170.485 122.563 170.954 121.818 171.428 121.068C171.714 120.62 171.995 120.172 172.188 119.667C172.308 119.344 172.521 119.047 172.709 118.745C173.058 118.172 173.402 117.599 173.678 116.979C173.933 116.396 174.266 115.849 174.485 115.245C174.615 114.88 174.766 114.521 174.87 114.141C175.1 113.286 175.402 112.458 175.766 111.646C175.985 111.167 176.178 110.672 176.35 110.167C176.605 109.391 176.949 108.656 177.261 107.906C177.412 107.547 177.631 107.219 177.839 106.885C178.042 106.557 178.277 106.245 178.48 105.911C178.704 105.531 179.053 105.281 179.412 105.063C179.735 104.87 180.089 104.885 180.438 105C180.511 105.021 180.568 105.057 180.62 105.109C180.86 105.37 181.079 105.646 181.167 106.005C181.407 107.01 181.579 108.01 181.542 109.052C181.49 110.438 181.475 111.818 181.381 113.198C181.37 113.307 181.37 113.411 181.376 113.521C181.417 114.766 181.23 115.995 181.032 117.219C180.928 117.849 180.829 118.484 180.808 119.12C180.782 119.833 180.657 120.531 180.532 121.224C180.334 122.307 180.131 123.385 179.949 124.469C179.798 125.375 179.495 126.25 179.256 127.141C179.157 127.521 179.048 127.891 178.954 128.271C178.771 129.026 178.584 129.781 178.344 130.526C178.167 131.062 178.037 131.615 177.86 132.156C177.423 133.469 176.886 134.74 176.324 136C176.298 136.068 176.266 136.13 176.23 136.188C175.839 136.823 175.511 137.49 175.173 138.156C174.912 138.656 174.62 139.146 174.303 139.615C173.464 140.891 172.62 142.156 171.777 143.427C171.6 143.693 171.396 143.938 171.173 144.167C170.735 144.63 170.318 145.104 169.912 145.594C169.688 145.875 169.443 146.125 169.167 146.354C168.943 146.526 168.735 146.714 168.532 146.911C167.678 147.771 166.678 148.438 165.678 149.104C165.469 149.24 165.245 149.349 165.053 149.505C164.417 150.031 163.673 150.354 162.928 150.688C162.673 150.807 162.407 150.906 162.136 150.974C161.12 151.229 160.219 151.688 159.454 152.406C159.324 152.531 159.188 152.641 159.042 152.745C158.87 152.875 158.73 153.031 158.62 153.214C158.235 153.812 157.839 154.396 157.339 154.901C157.219 155.031 157.115 155.177 157.021 155.328C156.469 156.109 155.855 156.839 155.178 157.516C155.152 157.536 155.126 157.562 155.1 157.589C154.589 158.271 154.079 158.948 153.527 159.589C153.298 159.875 153.157 160.193 153.105 160.557C152.954 161.427 152.803 162.302 152.631 163.172C152.449 164.078 152.245 164.974 152.048 165.875C152.032 165.979 151.995 166.078 151.943 166.177C151.657 166.672 151.516 167.224 151.344 167.766C151.292 167.896 151.219 168.016 151.131 168.125C151.063 168.214 150.943 168.219 150.839 168.193C150.735 168.146 150.678 168.062 150.673 167.948C150.699 167.74 150.74 167.531 150.798 167.328C151.131 166.354 151.365 165.349 151.584 164.349C151.782 163.411 151.995 162.479 152.214 161.547C152.298 161.229 152.271 160.917 152.141 160.615C151.829 159.896 151.459 159.219 150.959 158.609C150.35 157.87 149.766 157.115 149.167 156.37C148.772 155.87 148.334 155.406 147.855 154.984C147.516 154.672 147.193 154.349 146.886 154C146.407 153.479 145.923 152.969 145.365 152.526C145.037 152.26 144.725 151.974 144.423 151.672C143.646 150.901 142.766 150.245 142.011 149.443C141.553 148.958 141.001 148.557 140.48 148.135C140.022 147.745 139.605 147.313 139.23 146.844C138.907 146.469 138.553 146.12 138.178 145.802C137.433 145.151 136.725 144.453 136.141 143.651C135.584 142.865 135.032 142.083 134.48 141.307C134.37 141.161 134.277 141.01 134.199 140.854C133.777 139.995 133.386 139.12 132.943 138.276C132.626 137.677 132.391 137.047 132.245 136.385C132.199 136.167 132.079 135.995 131.891 135.875C131.542 135.63 131.193 135.391 130.844 135.151C130.35 134.812 129.86 134.474 129.428 134.042C129.053 133.667 128.558 133.427 128.219 133.01C127.245 132.24 126.454 131.281 125.584 130.401C125.391 130.193 125.209 129.979 125.042 129.75C124.136 128.526 123.199 127.328 122.391 126.031C122.318 125.911 122.251 125.786 122.183 125.667C121.824 125.01 121.475 124.354 121.11 123.708C120.808 123.182 120.553 122.641 120.329 122.078C120.152 121.615 119.98 121.151 119.771 120.698C119.48 120.047 119.298 119.365 119.079 118.688C118.938 118.286 118.865 117.865 118.865 117.438C118.876 116.62 118.761 115.813 118.688 115C118.667 114.786 118.662 114.573 118.667 114.365C118.678 114.193 118.751 114.057 118.881 113.953C119.016 113.849 119.167 113.813 119.329 113.844C119.469 113.865 119.6 113.911 119.725 113.979C120.115 114.224 120.495 114.474 120.792 114.844C120.969 115.063 121.178 115.26 121.37 115.464C121.907 116.026 122.428 116.604 122.985 117.151C123.662 117.818 124.277 118.552 124.928 119.25C125.652 120.026 126.391 120.786 127.021 121.641C127.516 122.099 127.954 122.615 128.506 123.005C129.261 123.531 129.938 124.151 130.61 124.786C130.834 125.016 131.084 125.203 131.37 125.349C131.402 125.37 131.438 125.375 131.469 125.359C131.506 125.339 131.527 125.313 131.532 125.276C131.553 124.958 131.574 124.641 131.568 124.323C131.558 123.37 131.61 122.411 131.693 121.458C131.704 121.391 131.709 121.318 131.709 121.25C131.667 120.464 131.808 119.693 131.87 118.922C131.964 117.792 132.079 116.661 132.308 115.547C132.386 115.135 132.412 114.708 132.469 114.24ZM150.891 126.953C150.235 126.568 149.605 126.104 148.87 125.828C148.74 125.771 148.62 125.703 148.501 125.625C148.173 125.422 147.85 125.198 147.511 125.016C147.141 124.813 146.74 124.656 146.37 124.458C145.725 124.094 145.048 123.797 144.339 123.568C144.204 123.526 144.074 123.469 143.954 123.401C143.235 123.021 142.521 122.646 141.798 122.266C141.641 122.193 141.48 122.125 141.313 122.063C141.235 122.031 141.084 122.141 141.089 122.229C141.11 122.651 141.079 123.078 141.251 123.479C141.303 123.609 141.339 123.75 141.35 123.891C141.396 124.422 141.506 124.943 141.683 125.443C141.725 125.578 141.751 125.719 141.771 125.859C141.99 127.188 142.214 128.51 142.438 129.839C142.454 129.943 142.485 130.042 142.511 130.146C142.667 130.802 142.824 131.458 142.975 132.115C143.193 133.042 143.396 133.979 143.751 134.87C143.829 135.062 143.912 135.276 144.053 135.427C144.511 135.917 144.964 136.417 145.469 136.849C145.928 137.24 146.376 137.635 146.829 138.031C147.12 138.286 147.36 138.604 147.662 138.839C148.105 139.193 148.495 139.599 148.824 140.063C149.016 140.318 149.225 140.557 149.449 140.786C149.787 141.141 150.105 141.521 150.386 141.927C150.725 142.38 151.074 142.828 151.402 143.286C151.626 143.604 151.876 143.917 152.032 144.266C152.292 144.844 152.714 145.349 152.855 145.984C152.881 146.052 152.912 146.115 152.949 146.172C153.339 146.807 153.662 147.474 153.917 148.172C153.959 148.281 154.11 148.359 154.167 148.302C154.225 148.25 154.287 148.208 154.298 148.151C154.449 147.135 154.657 146.13 154.662 145.099C154.652 144.599 154.673 144.104 154.725 143.615C154.881 142.339 154.745 141.068 154.813 139.792C154.865 138.911 154.798 138.026 154.771 137.141C154.74 136.151 154.709 135.156 154.662 134.167C154.641 133.641 154.537 133.109 154.548 132.578C154.563 131.87 154.443 131.172 154.428 130.464C154.423 130.203 154.339 129.974 154.178 129.776C153.985 129.521 153.813 129.24 153.574 129.042C152.969 128.552 152.428 127.995 151.787 127.552C151.495 127.344 151.199 127.156 150.891 126.953ZM153.475 51.1875L153.454 51.1771C153.204 51.5625 152.938 51.9375 152.704 52.3385C152.35 52.9479 151.99 53.5573 151.673 54.1927C151.469 54.599 151.407 55.0729 151.089 55.4271C150.725 56.349 150.318 57.2552 149.995 58.1927C149.167 60.6042 148.428 63.0417 147.969 65.5573C147.933 65.7656 147.886 65.974 147.829 66.1771C147.537 67.2448 147.454 68.3438 147.365 69.4375C147.277 70.5677 147.225 71.6979 147.136 72.8281C147.063 73.5677 147.053 74.3125 147.1 75.0573C147.225 76.7865 147.35 78.5156 147.48 80.25C147.49 80.3542 147.511 80.4583 147.548 80.5573C147.574 80.6406 147.626 80.6771 147.693 80.6563C147.725 80.6458 147.756 80.625 147.777 80.599C147.818 80.5 147.855 80.4063 147.881 80.3021C148.141 79.3125 148.386 78.3125 148.673 77.3281C148.876 76.6094 149.12 75.9115 149.396 75.2188C149.631 74.625 149.912 74.0521 150.162 73.4688C150.376 72.9844 150.563 72.4844 150.777 72C151.167 71.1042 151.324 70.1719 151.251 69.1979C151.245 69.0938 151.235 68.9844 151.235 68.8802C151.204 66.8125 151.464 64.7813 152.016 62.7865C152.36 61.5208 152.771 60.276 153.173 59.0313C153.449 58.1615 154.245 56.474 154.646 55.7396C154.896 55.2708 155.204 54.8333 155.386 54.3333C155.423 54.2292 155.475 54.1354 155.542 54.0573C155.798 53.7969 155.928 53.4688 156.1 53.1615C156.584 52.2917 157.131 51.4688 157.73 50.6771C158.048 50.25 158.402 49.8542 158.714 49.4271C158.99 49.0521 159.251 48.6771 159.61 48.3802C159.662 48.3333 159.704 48.276 159.725 48.2031C159.745 48.1406 159.74 48.0781 159.709 48.0156C159.589 47.8906 159.464 47.7448 159.308 47.6771C158.943 47.5156 158.662 47.2656 158.37 46.9948C158.115 46.7656 157.787 46.6094 157.485 46.4219C157.381 46.3594 157.188 46.3906 157.094 46.4896C156.87 46.7135 156.61 46.9167 156.433 47.1719C155.86 47.9844 155.162 48.6927 154.615 49.5208C154.251 50.0885 153.855 50.6354 153.475 51.1875ZM147.881 145.281C147.704 145.167 147.532 145.047 147.35 144.938C147.199 144.849 147.037 144.771 146.881 144.693C146.74 144.62 146.62 144.63 146.61 144.714C146.6 144.818 146.579 144.932 146.61 145.016C146.74 145.307 146.886 145.589 147.048 145.865C147.501 146.625 147.896 147.417 148.24 148.234C148.527 148.917 148.865 149.583 149.136 150.276C149.428 151.031 149.834 151.745 150.074 152.526C150.152 152.76 150.24 152.99 150.35 153.214C150.98 154.526 151.407 155.911 151.928 157.266C152.12 157.724 152.235 158.203 152.277 158.703C152.303 158.911 152.344 159.115 152.402 159.318C152.412 159.354 152.438 159.38 152.469 159.396C152.527 159.359 152.605 159.328 152.626 159.276C152.678 159.146 152.714 159.01 152.74 158.87C152.808 158.448 152.844 158.026 152.928 157.609C153.152 156.5 153.35 155.385 153.48 154.26C153.506 153.943 153.563 153.63 153.641 153.318C153.813 152.698 153.829 152.057 153.923 151.427C153.954 151.208 153.912 151.005 153.798 150.818C153.725 150.698 153.667 150.568 153.626 150.432C153.521 150.047 153.324 149.719 153.048 149.438C152.423 148.76 151.808 148.073 151.032 147.573C150.844 147.464 150.678 147.339 150.527 147.188C150.173 146.786 149.714 146.51 149.318 146.156C149.219 146.057 149.1 145.984 148.969 145.927C148.568 145.776 148.235 145.516 147.881 145.281ZM153.303 45.4583C152.98 46.0156 152.766 46.4219 152.516 46.8021C152.334 47.0781 152.251 47.375 152.266 47.7031C152.271 47.9531 152.251 48.2031 152.277 48.4479C152.35 49.0156 152.292 49.5781 152.219 50.1406C152.183 50.3854 152.141 50.6302 152.115 50.875C152.094 50.9792 152.089 51.0885 152.1 51.1927C152.11 51.2656 152.146 51.3177 152.204 51.3594C152.266 51.3802 152.324 51.3646 152.376 51.3229C152.521 51.125 152.657 50.9167 152.787 50.7083C153.923 48.9115 155.131 47.1719 156.584 45.6146C156.688 45.5 156.719 45.3698 156.673 45.2188C156.506 44.5313 156.334 43.849 156.162 43.1667C156.136 43.0729 155.964 43.0313 155.891 43.099C155.162 43.7604 154.386 44.3646 153.683 45.0625C153.506 45.2292 153.339 45.4167 153.298 45.4583H153.303Z" fill="#838B66"/>
</svg>
