<svg width="400" height="250" viewBox="0 0 400 250" fill="none" xmlns="http://www.w3.org/2000/svg">
<path d="M68.5573 168.052H62.1313V213.537C62.1313 214.871 62.7477 216.011 63.9935 216.956C65.2328 217.89 66.7541 218.355 68.5573 218.355H69.7376L69.8425 219.115H47.9154V218.355H49.2268C50.9579 218.355 52.4333 217.895 53.6595 216.975C54.8988 216.056 55.5545 214.936 55.6266 213.617V171.251C55.5545 169.932 54.8988 168.807 53.6595 167.872C52.4333 166.928 50.9579 166.453 49.2268 166.453H47.9154V165.673H74.9571C81.0225 165.673 85.7895 166.963 89.2517 169.532C92.727 172.106 94.4712 175.445 94.4712 179.548C94.4712 183.642 92.8188 187.176 89.514 190.145C86.2092 193.119 82.1831 194.603 77.4488 194.603C78.4586 194.963 79.652 195.673 81.0159 196.722C82.3798 197.762 83.5929 198.842 84.6617 199.961C90.4123 206.214 94.1564 210.068 95.8875 211.517C97.6186 212.972 98.8514 213.967 99.5858 214.496C100.32 215.031 101.114 215.551 101.973 216.056C102.845 216.566 103.717 216.971 104.595 217.275C106.536 217.995 108.608 218.355 110.812 218.355V219.115H105.304C102.432 219.115 99.7563 218.725 97.2777 217.935C94.8122 217.15 92.9565 216.336 91.7172 215.496C90.491 214.656 89.4222 213.847 88.5173 213.057C87.6255 212.257 85.1404 209.618 81.0684 205.14C76.9898 200.661 74.6227 198.112 73.9604 197.482C73.2916 196.842 72.5965 196.218 71.8621 195.603C69.7114 193.873 67.5672 193.004 65.4361 193.004V192.244C65.9738 192.299 66.6754 192.324 67.5344 192.324C68.4065 192.324 69.4819 192.299 70.7605 192.244C79.0291 192.099 84.2289 189.455 86.3665 184.307C86.7665 183.297 86.9698 182.342 86.9698 181.448C86.9698 180.558 86.9698 179.983 86.9698 179.728C86.8256 176.319 85.6584 173.57 83.4552 171.491C81.252 169.402 78.2881 168.282 74.5637 168.132C72.9506 168.082 70.9507 168.052 68.5573 168.052Z" fill="#42433E"/>
<path d="M181.404 218.355H182.191V219.115H159.661V218.355H160.579C161.975 218.355 163.025 218.015 163.726 217.335C164.421 216.646 164.775 215.991 164.775 215.376C164.775 214.766 164.644 214.152 164.382 213.537L157.956 200.561H130.94L124.226 213.617C123.964 214.231 123.832 214.831 123.832 215.416C123.832 216.006 124.18 216.646 124.882 217.335C125.577 218.015 126.626 218.355 128.029 218.355H128.921V219.115H108.803V218.355H109.695C111.374 218.355 113.007 217.95 114.6 217.135C116.207 216.326 117.511 215.126 118.508 213.537L141.143 172.471C143.609 168.352 144.842 165.733 144.842 164.613H145.76L172.592 213.537C173.516 215.126 174.782 216.326 176.395 217.135C178.001 217.95 179.673 218.355 181.404 218.355ZM132.121 198.282H156.776L144.737 173.77L132.121 198.282Z" fill="#42433E"/>
<path d="M271.108 218.355H272.708V219.115H250.99V218.435H252.485C253.62 218.435 254.59 218.095 255.397 217.415C256.197 216.726 256.531 215.966 256.393 215.136L251.882 176.749L230.847 212.397C228.971 215.506 227.844 218.095 227.463 220.174H226.44L200.815 177.809L196.513 215.136C196.369 215.966 196.704 216.726 197.51 217.415C198.31 218.095 199.248 218.435 200.317 218.435H201.917V219.115H182.481V218.355H184.081C185.95 218.355 187.569 217.925 188.933 217.056C190.31 216.191 191.137 215.016 191.399 213.537L198.9 164.613H199.923L227.857 210.638L255.187 164.613H256.079L263.79 213.537C264.137 215.576 265.475 217.006 267.803 217.815C268.8 218.175 269.901 218.355 271.108 218.355Z" fill="#42433E"/>
<path d="M291.175 172.291C297.817 167.173 306.479 164.613 317.167 164.613C327.849 164.613 336.524 167.173 343.186 172.291C349.861 177.399 353.205 184.102 353.205 192.404C353.205 200.696 349.861 207.399 343.186 212.517C336.524 217.625 327.849 220.174 317.167 220.174C306.479 220.174 297.817 217.625 291.175 212.517C284.526 207.399 281.208 200.696 281.208 192.404C281.208 184.102 284.526 177.399 291.175 172.291ZM296.683 210.878C301.856 215.556 308.702 217.895 317.22 217.895C325.731 217.895 332.57 215.556 337.731 210.878C342.904 206.189 345.494 200.031 345.494 192.404C345.494 187.366 344.321 182.917 341.98 179.048C339.652 175.17 336.34 172.181 332.039 170.072C327.737 167.952 322.78 166.893 317.167 166.893C308.682 166.893 301.856 169.242 296.683 173.93C291.503 178.609 288.919 184.767 288.919 192.404C288.919 200.031 291.503 206.189 296.683 210.878Z" fill="#42433E"/>
<path d="M11.9078 239.064C11.9078 239.544 11.7832 239.998 11.5406 240.423C11.0685 241.238 10.2095 241.798 8.97019 242.103C8.60299 242.198 8.26202 242.243 7.94727 242.243C6.9637 242.243 6.09816 242.053 5.35064 241.663V241.503C6.36044 241.533 7.18664 241.278 7.81613 240.743C8.35382 240.293 8.62922 239.698 8.62922 238.964C8.62922 238.204 8.39316 237.624 7.92104 237.224C7.44893 236.814 6.80633 236.605 6.00635 236.605H4.64247V245.721C4.64247 245.991 4.77361 246.221 5.0359 246.421C5.29818 246.611 5.59981 246.701 5.9539 246.701H6.21618V246.861H0V246.701H0.262286C0.629487 246.701 0.931115 246.611 1.18029 246.421C1.4229 246.221 1.55405 245.991 1.57372 245.721V237.004C1.57372 236.755 1.44257 236.54 1.18029 236.365C0.931115 236.195 0.629487 236.105 0.262286 236.105H0V235.945H6.84567C8.50463 235.945 9.75705 236.22 10.5964 236.765C11.4685 237.324 11.9078 238.094 11.9078 239.064Z" fill="#42433E"/>
<path d="M27.403 236.625H26.5112C26.4915 236.625 26.4719 236.625 26.4587 236.625V245.721C26.4719 245.991 26.603 246.221 26.8522 246.421C27.1145 246.611 27.4161 246.701 27.7702 246.701H28.0325V246.861H21.8163V246.701H22.0786C22.5638 246.701 22.9441 246.541 23.2064 246.221C23.3113 246.076 23.3703 245.916 23.39 245.741V237.084C23.3703 236.819 23.2392 236.595 22.9966 236.405C22.7474 236.205 22.4458 236.105 22.0786 236.105H21.8163V235.945H28.8455C30.157 235.945 31.2717 236.165 32.2028 236.605C32.6552 236.819 33.0159 237.124 33.2782 237.524C33.5536 237.914 33.6978 238.419 33.6978 239.044C33.6978 239.674 33.4093 240.278 32.8323 240.863C32.2684 241.438 31.4422 241.773 30.3406 241.863C31.1405 242.053 31.8422 242.503 32.4389 243.222C33.9077 245.022 34.9962 246.096 35.7174 246.441C36.065 246.601 36.5043 246.691 37.0289 246.701V246.861H35.0355C33.8421 246.861 32.8585 246.741 32.0717 246.501C31.2848 246.261 30.6684 245.841 30.2357 245.242C29.9734 244.897 29.4029 244.012 28.5308 242.583C28.1439 241.943 27.6784 241.593 27.1407 241.523V241.363H27.7702C28.38 241.363 28.9242 241.223 29.3963 240.943C29.8685 240.663 30.1832 240.213 30.3406 239.584C30.393 239.359 30.4193 239.184 30.4193 239.064C30.4193 238.214 30.1898 237.599 29.7373 237.224C29.298 236.839 28.721 236.64 28.0062 236.625C27.8816 236.625 27.6784 236.625 27.403 236.625Z" fill="#42433E"/>
<path d="M47.7687 237.264C49.2178 236.24 51.1784 235.725 53.6439 235.725C56.1094 235.725 58.0634 236.24 59.5191 237.264C60.9682 238.279 61.6961 239.659 61.6961 241.403C61.6961 243.152 60.9682 244.537 59.5191 245.562C58.0634 246.576 56.1094 247.081 53.6439 247.081C51.1784 247.081 49.2178 246.576 47.7687 245.562C46.313 244.537 45.5917 243.152 45.5917 241.403C45.5917 239.659 46.313 238.279 47.7687 237.264ZM50.2079 245.082C51.0473 245.976 52.1816 246.421 53.6177 246.421C55.0668 246.421 56.2143 245.976 57.0536 245.082C57.906 244.177 58.3388 242.952 58.3388 241.403C58.3388 239.858 57.906 238.639 57.0536 237.744C56.2143 236.84 55.0668 236.385 53.6177 236.385C52.1816 236.385 51.0473 236.84 50.2079 237.744C49.3686 238.639 48.949 239.858 48.949 241.403C48.949 242.952 49.3686 244.177 50.2079 245.082Z" fill="#42433E"/>
<path d="M77.8406 236.105C77.3488 236.105 76.9751 236.265 76.7128 236.585C76.5882 236.735 76.5292 236.899 76.5292 237.084V246.401C76.5292 247.131 76.2669 247.786 75.7423 248.361C75.2309 248.945 74.6014 249.365 73.8539 249.62C73.0998 249.87 72.3457 250 71.5982 250C71.4212 250 71.2441 249.99 71.0736 249.98V249.84C71.8933 249.57 72.4965 249.12 72.8834 248.481C73.2637 247.851 73.4604 247.141 73.4604 246.341V237.084C73.4408 236.7 73.2244 236.415 72.8047 236.225C72.5949 236.145 72.3719 236.105 72.149 236.105H71.8867V235.945H78.1029V236.105H77.8406Z" fill="#42433E"/>
<path d="M88.3739 246.701C88.7214 246.701 89.0165 246.611 89.2656 246.421C89.5279 246.221 89.6656 245.991 89.6853 245.721V237.044C89.6459 236.765 89.541 236.565 89.3705 236.445C89.0361 236.22 88.7017 236.105 88.3739 236.105H88.1116V235.945H95.9277C96.6096 235.945 97.167 235.905 97.6063 235.825C98.0391 235.745 98.3014 235.695 98.3932 235.665V238.384H98.1834V238.204C98.1834 237.564 97.8686 237.104 97.2391 236.825C96.9375 236.695 96.59 236.625 96.19 236.625H92.754V241.163H95.4556C95.9605 241.153 96.3736 241.018 96.6883 240.763C97.0162 240.513 97.1867 240.193 97.1867 239.803V239.664H97.3965V243.282H97.1867V243.142C97.1867 242.772 97.0162 242.458 96.6883 242.203C96.3736 241.953 95.967 241.818 95.4818 241.803H92.754V246.181H95.4294C96.426 246.181 97.2522 245.971 97.9211 245.542C98.603 245.102 99.1079 244.482 99.4423 243.682H99.6522L98.7079 246.861H88.1116V246.701H88.3739Z" fill="#42433E"/>
<path d="M116.938 236.585V245.741C116.952 246.011 117.083 246.236 117.332 246.421C117.594 246.611 117.896 246.701 118.25 246.701H118.486L118.512 246.861H112.296V246.701H112.558C112.906 246.701 113.201 246.611 113.45 246.421C113.693 246.236 113.83 246.016 113.87 245.761V236.585H111.116C110.486 236.6 109.988 236.754 109.621 237.044C109.253 237.324 109.07 237.704 109.07 238.184V238.364H108.86V235.645C109.417 235.82 110.224 235.915 111.273 235.925H119.509C119.929 235.925 120.381 235.9 120.873 235.845C121.378 235.78 121.725 235.715 121.922 235.645V238.364H121.738V238.184C121.738 237.534 121.41 237.074 120.768 236.804C120.466 236.675 120.112 236.6 119.692 236.585H116.938Z" fill="#42433E"/>
<path d="M133.786 237.264C135.236 236.24 137.196 235.725 139.662 235.725C142.127 235.725 144.081 236.24 145.537 237.264C146.986 238.279 147.714 239.659 147.714 241.403C147.714 243.152 146.986 244.537 145.537 245.562C144.081 246.576 142.127 247.081 139.662 247.081C137.196 247.081 135.236 246.576 133.786 245.562C132.331 244.537 131.609 243.152 131.609 241.403C131.609 239.659 132.331 238.279 133.786 237.264ZM136.226 245.082C137.065 245.976 138.199 246.421 139.635 246.421C141.085 246.421 142.232 245.976 143.071 245.082C143.924 244.177 144.357 242.952 144.357 241.403C144.357 239.858 143.924 238.639 143.071 237.744C142.232 236.84 141.085 236.385 139.635 236.385C138.199 236.385 137.065 236.84 136.226 237.744C135.386 238.639 134.967 239.858 134.967 241.403C134.967 242.952 135.386 244.177 136.226 245.082Z" fill="#42433E"/>
<path d="M158.009 245.402C158.009 244.657 158.219 244.022 158.639 243.502H158.822C158.803 243.582 158.796 243.662 158.796 243.742C158.796 244.462 159.137 245.092 159.819 245.622C160.501 246.156 161.425 246.421 162.599 246.421C163.504 246.421 164.212 246.256 164.724 245.921C165.229 245.592 165.484 245.172 165.484 244.662C165.484 244.357 165.36 244.092 165.117 243.862C164.868 243.622 164.448 243.357 163.858 243.062L160.291 241.263C158.98 240.583 158.324 239.754 158.324 238.764C158.324 238.659 158.331 238.559 158.35 238.464C158.435 237.639 158.855 236.979 159.609 236.485C160.376 235.98 161.393 235.725 162.652 235.725C163.399 235.725 164.33 235.78 165.432 235.885H166.717L166.455 238.184H166.245C166.245 237.639 165.983 237.204 165.458 236.884C164.934 236.555 164.232 236.385 163.36 236.385C162.311 236.385 161.537 236.635 161.052 237.124C160.803 237.364 160.685 237.604 160.685 237.844C160.685 238.084 160.744 238.294 160.868 238.464C161.058 238.734 161.478 239.019 162.127 239.324L166.035 241.263C167.255 241.878 167.871 242.678 167.871 243.662C167.871 244.772 167.373 245.617 166.376 246.201C165.393 246.791 164.081 247.081 162.442 247.081C161.511 247.081 160.658 246.991 159.871 246.821C159.098 246.651 158.521 246.416 158.14 246.121C158.049 245.936 158.009 245.696 158.009 245.402Z" fill="#42433E"/>
<path d="M205.875 246.701H206.058V246.861H199.527V246.701H199.711C200.006 246.701 200.223 246.636 200.367 246.501C200.524 246.356 200.603 246.221 200.603 246.101C200.603 245.971 200.564 245.841 200.498 245.722L199.475 243.802H194.701L193.626 245.722C193.574 245.856 193.547 245.981 193.547 246.101C193.547 246.221 193.613 246.356 193.757 246.501C193.915 246.636 194.138 246.701 194.439 246.701H194.597V246.861H190.216V246.701H190.4C190.715 246.701 191.029 246.631 191.344 246.481C191.659 246.336 191.921 246.121 192.131 245.841L196.852 237.684C197.495 236.645 197.836 235.96 197.875 235.625H198.059L204.144 245.801C204.334 246.111 204.59 246.336 204.904 246.481C205.219 246.631 205.54 246.701 205.875 246.701ZM195.042 243.142H199.134L197.167 239.304L195.042 243.142Z" fill="#42433E"/>
<path d="M233.213 246.701H233.528V246.861H227.391V246.721H227.705C227.928 246.711 228.125 246.636 228.282 246.501C228.453 246.371 228.525 246.216 228.492 246.041L227.705 240.383L223.85 245.442C223.338 246.081 223.089 246.661 223.089 247.181H222.879L217.607 240.443L216.821 246.041C216.781 246.216 216.847 246.376 217.004 246.521C217.175 246.656 217.378 246.721 217.607 246.721H217.922V246.861H213.647V246.701H213.962C214.342 246.701 214.676 246.616 214.958 246.441C215.234 246.271 215.404 246.031 215.457 245.721L217.162 235.725H217.345L223.692 243.682L229.777 235.725H229.961L231.718 245.721C231.784 246.031 231.961 246.271 232.243 246.441C232.518 246.616 232.846 246.701 233.213 246.701Z" fill="#42433E"/>
<path d="M249.055 246.861H242.603V246.701H242.865C243.35 246.701 243.73 246.541 243.993 246.221C244.098 246.076 244.157 245.916 244.176 245.741V237.064C244.157 236.799 244.019 236.575 243.757 236.385C243.508 236.2 243.212 236.105 242.865 236.105H242.603V235.945H248.53C250.104 235.945 251.35 236.165 252.281 236.605C253.225 237.044 253.704 237.714 253.724 238.604C253.704 239.074 253.573 239.474 253.33 239.803C252.891 240.458 252.183 240.833 251.206 240.923C252.255 240.993 253.12 241.293 253.802 241.823C254.484 242.343 254.825 243.012 254.825 243.822C254.825 244.797 254.307 245.551 253.278 246.081C252.242 246.601 250.838 246.861 249.055 246.861ZM250.445 238.824C250.425 237.359 249.553 236.625 247.822 236.625H247.245V246.141H248.189C248.189 246.141 248.196 246.141 248.216 246.141C249.16 246.141 249.907 245.936 250.471 245.522C251.029 245.112 251.311 244.477 251.311 243.622C251.311 242.772 250.996 242.138 250.366 241.723C249.737 241.298 248.924 241.083 247.927 241.083V240.943C248.642 240.943 249.238 240.773 249.711 240.423C250.183 240.078 250.425 239.544 250.445 238.824Z" fill="#42433E"/>
<path d="M265.069 246.701C265.417 246.701 265.712 246.611 265.961 246.421C266.223 246.221 266.361 245.991 266.381 245.721V237.064C266.361 236.799 266.223 236.575 265.961 236.385C265.712 236.2 265.417 236.105 265.069 236.105H264.807V235.945H271.023L270.997 236.105H270.761C270.394 236.105 270.079 236.2 269.817 236.385C269.567 236.575 269.449 236.799 269.449 237.064V245.721C269.449 245.991 269.567 246.221 269.817 246.421C270.079 246.611 270.394 246.701 270.761 246.701H270.997L271.023 246.861H264.807V246.701H265.069Z" fill="#42433E"/>
<path d="M281.387 246.701C281.735 246.701 282.03 246.611 282.279 246.421C282.541 246.221 282.679 245.991 282.699 245.721V237.044C282.659 236.765 282.554 236.565 282.384 236.445C282.049 236.22 281.715 236.105 281.387 236.105H281.125V235.945H288.941C289.623 235.945 290.18 235.905 290.62 235.825C291.052 235.745 291.315 235.695 291.407 235.665V238.384H291.197V238.204C291.197 237.564 290.882 237.104 290.252 236.825C289.951 236.695 289.603 236.625 289.203 236.625H285.767V241.163H288.469C288.974 241.153 289.387 241.018 289.702 240.763C290.03 240.513 290.2 240.193 290.2 239.803V239.664H290.41V243.282H290.2V243.142C290.2 242.772 290.03 242.458 289.702 242.203C289.387 241.953 288.98 241.818 288.495 241.803H285.767V246.181H288.443C289.439 246.181 290.266 245.971 290.934 245.542C291.616 245.102 292.121 244.482 292.456 243.682H292.666L291.721 246.861H281.125V246.701H281.387Z" fill="#42433E"/>
<path d="M318.293 236.105C317.82 236.105 317.46 236.26 317.217 236.565C317.112 236.7 317.047 236.859 317.034 237.044V245.082C317.034 245.776 317.093 246.361 317.217 246.841L317.27 247.081H317.086L306.752 239.584V245.761C306.752 246.031 306.87 246.256 307.119 246.441C307.362 246.616 307.657 246.701 308.011 246.701H308.404V246.861H302.188V246.701H302.555C302.923 246.701 303.224 246.616 303.473 246.441C303.716 246.256 303.841 246.031 303.841 245.761V237.664C303.841 236.974 303.775 236.4 303.657 235.945L303.604 235.705H303.788L314.122 243.202V237.044C314.103 236.779 313.971 236.56 313.729 236.385C313.48 236.2 313.191 236.105 312.863 236.105H312.496V235.945H318.686V236.105H318.293Z" fill="#42433E"/>
<path d="M336.06 236.585V245.741C336.073 246.011 336.204 246.236 336.454 246.421C336.716 246.611 337.018 246.701 337.372 246.701H337.608L337.634 246.861H331.418V246.701H331.68C332.028 246.701 332.323 246.611 332.572 246.421C332.814 246.236 332.952 246.016 332.991 245.761V236.585H330.237C329.608 236.6 329.11 236.754 328.742 237.044C328.375 237.324 328.192 237.704 328.192 238.184V238.364H327.982V235.645C328.539 235.82 329.346 235.915 330.395 235.925H338.631C339.05 235.925 339.503 235.9 339.994 235.845C340.499 235.78 340.847 235.715 341.044 235.645V238.364H340.86V238.184C340.86 237.534 340.532 237.074 339.89 236.804C339.588 236.675 339.234 236.6 338.814 236.585H336.06Z" fill="#42433E"/>
<path d="M364.842 246.701H365.025V246.861H358.494V246.701H358.678C358.973 246.701 359.189 246.636 359.334 246.501C359.491 246.356 359.57 246.221 359.57 246.101C359.57 245.971 359.53 245.841 359.465 245.722L358.442 243.802H353.668L352.593 245.722C352.541 245.856 352.514 245.981 352.514 246.101C352.514 246.221 352.58 246.356 352.724 246.501C352.882 246.636 353.104 246.701 353.406 246.701H353.563V246.861H349.183V246.701H349.367C349.682 246.701 349.996 246.631 350.311 246.481C350.626 246.336 350.888 246.121 351.098 245.841L355.819 237.684C356.462 236.645 356.803 235.96 356.842 235.625H357.026L363.111 245.801C363.301 246.111 363.557 246.336 363.871 246.481C364.186 246.631 364.507 246.701 364.842 246.701ZM354.009 243.142H358.101L356.134 239.304L354.009 243.142Z" fill="#42433E"/>
<path d="M373.925 246.701C374.272 246.701 374.567 246.611 374.817 246.421C375.079 246.221 375.217 245.991 375.236 245.721V237.064C375.217 236.799 375.079 236.575 374.817 236.385C374.567 236.2 374.272 236.105 373.925 236.105H373.663V235.945H379.879L379.853 236.105H379.616C379.249 236.105 378.935 236.2 378.672 236.385C378.423 236.575 378.305 236.799 378.305 237.064V245.721C378.305 245.991 378.423 246.221 378.672 246.421C378.935 246.611 379.249 246.701 379.616 246.701H379.853L379.879 246.861H373.663V246.701H373.925Z" fill="#42433E"/>
<path d="M390.138 245.402C390.138 244.657 390.348 244.022 390.768 243.502H390.951C390.931 243.582 390.925 243.662 390.925 243.742C390.925 244.462 391.266 245.092 391.948 245.622C392.63 246.156 393.554 246.421 394.728 246.421C395.633 246.421 396.341 246.256 396.853 245.921C397.357 245.592 397.613 245.172 397.613 244.662C397.613 244.357 397.489 244.092 397.246 243.862C396.997 243.622 396.577 243.357 395.987 243.062L392.42 241.263C391.109 240.583 390.453 239.754 390.453 238.764C390.453 238.659 390.459 238.559 390.479 238.464C390.564 237.639 390.984 236.979 391.738 236.485C392.505 235.98 393.522 235.725 394.781 235.725C395.528 235.725 396.459 235.78 397.561 235.885H398.846L398.584 238.184H398.374C398.374 237.639 398.112 237.204 397.587 236.884C397.062 236.555 396.361 236.385 395.489 236.385C394.44 236.385 393.666 236.635 393.181 237.124C392.931 237.364 392.813 237.604 392.813 237.844C392.813 238.084 392.872 238.294 392.997 238.464C393.187 238.734 393.607 239.019 394.256 239.324L398.164 241.263C399.384 241.878 400 242.678 400 243.662C400 244.772 399.502 245.617 398.505 246.201C397.521 246.791 396.21 247.081 394.571 247.081C393.64 247.081 392.787 246.991 392 246.821C391.227 246.651 390.649 246.416 390.269 246.121C390.177 245.936 390.138 245.696 390.138 245.402Z" fill="#42433E"/>
<path d="M176.534 107.468C176.383 107.298 176.278 107.193 176.186 107.078C174.836 105.344 173.111 103.83 171.387 102.315C171.072 102.02 170.672 101.825 170.193 101.73C169.977 101.69 169.767 101.635 169.557 101.59C168.292 101.315 167.02 101.051 165.754 100.771C165.243 100.666 164.757 100.521 164.285 100.331C164.016 100.216 163.734 100.126 163.446 100.051C162.652 99.846 161.885 99.611 161.131 99.3411C160.535 99.1212 159.964 98.8763 159.407 98.6114C157.826 97.8666 156.489 96.902 155.197 95.9023C154.856 95.6374 154.528 95.3725 154.286 95.0476C154.253 94.9876 154.207 94.9326 154.141 94.8826C153.335 94.3328 152.935 93.5731 152.351 92.9083C151.892 92.3735 151.636 91.7637 151.309 91.1789C151.105 90.809 150.974 90.4142 150.738 90.0593C150.404 89.5445 150.233 88.9897 150.037 88.4448C149.853 87.925 149.846 87.3902 149.879 86.8554C149.899 86.5005 150.417 86.2056 150.909 86.2456C151.177 86.2606 151.42 86.3256 151.65 86.4305C152.646 86.9254 153.682 87.3702 154.528 88.015C154.968 88.3449 155.499 88.5848 155.925 88.9297C156.436 89.3395 157.007 89.7144 157.531 90.1143C158.24 90.6641 158.954 91.2089 159.78 91.6587C159.892 91.7087 159.99 91.7737 160.082 91.8487C160.6 92.3635 161.321 92.6934 162.023 93.0383C163.348 93.698 164.685 94.3378 166.023 94.9826C166.062 95.0026 166.095 95.0176 166.134 95.0326C167.079 95.3125 167.938 95.7224 168.862 96.0372C170.141 96.4771 171.452 96.857 172.705 97.3368C173.518 97.5118 174.206 97.8716 174.934 98.1865C175.616 98.4864 176.305 98.7613 176.927 99.1462C177.675 99.611 178.508 99.9909 179.308 100.401C179.419 100.456 179.531 100.501 179.655 100.546C179.832 100.606 179.99 100.581 180.127 100.476C180.265 100.341 180.403 100.211 180.521 100.071C180.947 99.566 181.38 99.0612 181.773 98.5414C182.088 98.1365 182.442 97.7517 182.829 97.3918C182.96 97.2568 183.111 97.1319 183.268 97.0219C183.937 96.5821 184.652 96.1972 185.412 95.8623C185.694 95.7424 185.93 95.7773 186.121 95.9723C186.271 96.1372 186.448 96.2922 186.547 96.4771C186.953 97.2618 187.216 98.0766 186.947 98.9263C186.796 99.4111 186.724 99.9059 186.724 100.411C186.711 101.21 186.612 102.01 186.527 102.81C186.462 103.345 186.475 103.875 186.56 104.409C186.586 104.619 186.711 104.789 186.94 104.914C187.039 104.979 187.15 105.034 187.262 105.089C188.219 105.509 189.038 106.074 189.878 106.609C190.684 107.123 191.438 107.678 192.153 108.268C192.868 108.858 193.602 109.433 194.33 110.012C194.625 110.257 194.933 110.497 195.209 110.757C195.91 111.397 196.612 112.037 197.287 112.697C197.832 113.221 198.35 113.761 198.861 114.306C199.491 114.986 200.107 115.676 200.717 116.37C200.881 116.57 201.018 116.775 201.15 116.99C201.72 117.855 202.356 118.695 203.051 119.509C203.11 119.584 203.189 119.599 203.287 119.559C203.327 119.544 203.346 119.519 203.359 119.484C203.379 119.324 203.431 119.154 203.405 118.994C203.222 117.865 203.143 116.73 202.959 115.606C202.828 114.741 202.723 113.876 202.52 113.021C202.323 112.162 202.225 111.297 202.068 110.437C201.858 109.278 201.681 108.113 201.491 106.954C201.215 105.259 200.658 103.605 200.192 101.945C200.153 101.81 200.114 101.685 200.061 101.555C200.022 101.46 199.989 101.345 199.904 101.28C199.255 100.821 199.104 100.096 198.389 99.666C198.12 99.5061 197.937 99.2611 197.72 99.0512C197.281 98.6314 196.809 98.2365 196.219 97.9316C195.74 97.6817 195.405 97.3268 194.992 97.0269C194.645 96.767 194.284 96.5271 193.904 96.3022C193.196 95.9073 192.566 95.4325 191.832 95.0626C190.914 94.6027 190.002 94.1379 189.019 93.768C188.632 93.6131 188.265 93.4281 187.93 93.2182C187.13 92.7434 186.291 92.3185 185.458 91.8787C185.026 91.6487 184.58 91.4338 184.147 91.2089C183.885 91.0889 183.635 90.954 183.399 90.799C182.193 89.9543 180.77 89.3495 179.439 88.6398C178.973 88.3949 178.481 88.1649 178.081 87.85C177.918 87.7351 177.747 87.6351 177.563 87.5401C176.023 86.6505 174.606 85.6558 173.328 84.5512C172.141 83.5265 170.96 82.4919 169.787 81.4522C169.616 81.2973 169.465 81.1323 169.334 80.9574C168.974 80.5025 168.626 80.0377 168.252 79.5829C168.029 79.293 167.787 79.0181 167.511 78.7581C166.81 78.1384 166.351 77.4186 165.892 76.6988C165.492 76.0641 165.105 75.4293 164.692 74.7995C164.226 74.0797 163.879 73.32 163.525 72.5653C163.236 71.9355 163.007 71.2907 162.843 70.6359C162.541 69.4513 162.161 68.2867 161.702 67.1321C161.597 66.8772 161.518 66.6173 161.42 66.3624C161.105 65.5227 160.81 64.6829 160.469 63.8532C160.305 63.4734 160.167 63.0885 160.056 62.6986C159.912 62.1738 159.721 61.659 159.499 61.1491C159.289 60.6793 159.177 60.1795 159.033 59.6896C158.889 59.1898 158.987 58.695 159.151 58.2051C159.177 58.1402 159.21 58.0802 159.256 58.0202C159.38 57.8203 159.59 57.7153 159.885 57.7103C160.43 57.6903 160.935 57.7853 161.4 57.9952C161.944 58.2201 162.423 58.505 162.849 58.8499C163.892 59.7046 165 60.5144 165.99 61.4091C166.049 61.459 166.128 61.499 166.18 61.549C167.164 62.5387 168.305 63.4184 169.282 64.413C170.069 65.2128 170.947 65.9625 171.833 66.7073C171.977 66.8272 172.134 66.9472 172.272 67.0771C173.413 68.2217 174.724 69.2614 175.964 70.341C176.98 71.2207 178.016 72.0804 178.986 72.9901C179.34 73.325 179.754 73.6299 180.147 73.9448C180.239 74.0148 180.363 74.0647 180.442 74.1447C181.072 74.7895 181.878 75.3143 182.58 75.9091C183.045 76.309 183.544 76.6889 184.022 77.0787C184.232 77.2487 184.435 77.4236 184.626 77.6035C185.439 78.3533 186.252 79.098 187.111 79.8128C187.498 80.1327 187.852 80.4726 188.173 80.8274C188.894 81.6272 189.602 82.4269 190.271 83.2516C190.665 83.7314 190.973 84.2563 191.314 84.7561C191.97 85.7058 192.573 86.6754 193.294 87.5901C194.081 88.5948 194.776 89.6394 195.524 90.6541C195.674 90.859 195.805 91.0689 195.917 91.2889C196.192 91.7787 196.474 92.2685 196.75 92.7584C196.796 92.8433 196.868 92.8683 196.953 92.8183C196.992 92.7934 197.005 92.7634 197.005 92.7284C196.842 92.2785 196.684 91.8287 196.507 91.3838C196.402 91.1239 196.33 90.864 196.284 90.5991C196.192 90.0343 196.035 89.4795 195.819 88.9297C195.628 88.4548 195.458 87.97 195.419 87.4652C195.399 87.2952 195.373 87.1303 195.333 86.9653C195.051 85.6808 194.75 84.4012 194.481 83.1117C194.337 82.4519 194.212 81.7921 194.147 81.1273C194.094 80.6275 193.983 80.1277 193.891 79.6378C193.799 79.208 193.733 78.7781 193.701 78.3433C193.681 77.9434 193.635 77.5436 193.596 77.1437C193.491 76.114 193.451 75.0794 193.366 74.0448C193.248 72.6702 193.327 71.3057 193.353 69.9362C193.36 69.3364 193.288 68.7316 193.294 68.1318C193.301 67.9968 193.274 67.8669 193.215 67.7369C192.829 66.9622 192.612 66.1274 192.002 65.4177C191.832 65.2228 191.72 65.0028 191.576 64.7979C191.15 64.1731 190.691 63.5633 190.055 63.0435C189.583 62.6436 189.176 62.2138 188.835 61.7389C188.579 61.3941 188.245 61.0792 187.95 60.7443C187.235 59.9396 186.632 59.0898 186.022 58.2351C185.786 57.9152 185.55 57.5954 185.314 57.2705C184.547 56.2208 183.871 55.1362 183.288 54.0166C182.593 52.712 181.99 51.3875 181.465 50.0379C181.367 49.783 181.288 49.5281 181.222 49.2632C181.117 48.8034 180.993 48.3435 180.875 47.8837C180.724 47.2589 180.639 46.6291 180.626 45.9943C180.58 45.0246 180.547 44.055 180.554 43.0903C180.554 42.1506 180.619 41.2159 180.619 40.2813C180.619 38.9767 180.606 37.6772 180.429 36.3776C180.396 36.1477 180.409 35.9078 180.396 35.6778C180.39 35.4429 180.39 35.208 180.35 34.9781C180.173 33.8085 180.252 32.6439 180.337 31.4743C180.344 31.2743 180.376 31.0744 180.429 30.8795C180.488 30.7145 180.567 30.5646 180.678 30.4196C180.888 30.1497 181.196 30.0547 181.59 30.1397C181.799 30.1897 182.003 30.2547 182.193 30.3397C182.796 30.6246 183.301 30.9894 183.721 31.4243C184.422 32.159 184.986 32.9488 185.426 33.7885C185.819 34.5682 186.245 35.3429 186.639 36.1227C186.796 36.4326 186.934 36.7475 187.045 37.0724C187.176 37.4972 187.347 37.9121 187.557 38.3169C187.721 38.6218 187.832 38.9467 187.97 39.2666C188.206 39.8364 188.468 40.4062 188.658 40.991C188.966 41.9307 189.399 42.8404 189.852 43.7451C190.363 44.7747 190.914 45.7944 191.438 46.824C191.622 47.1989 191.786 47.5838 191.93 47.9686C192.225 48.7734 192.507 49.5781 192.776 50.3878C193.078 51.3325 193.353 52.2772 193.471 53.2468C193.504 53.4768 193.589 53.7067 193.629 53.9366C193.871 55.2612 194.147 56.5807 194.245 57.9152C194.304 58.65 194.455 59.3748 194.573 60.1045C194.573 60.1295 194.632 60.1745 194.651 60.1745C194.73 60.1595 194.802 60.1395 194.868 60.1095C194.901 60.0895 194.927 60.0595 194.94 60.0295C194.96 59.9995 194.979 59.9646 194.986 59.9346C195.117 59.1648 195.464 58.4401 195.746 57.7053C195.871 57.3854 196.048 57.0755 196.199 56.7656C196.258 56.6407 196.33 56.5157 196.383 56.3908C196.684 55.691 196.973 54.9912 197.287 54.2965C197.602 53.6017 197.917 52.907 198.291 52.2272C198.619 51.6474 199.005 51.0826 199.405 50.5228C199.602 50.2629 199.733 49.983 199.799 49.6831C199.917 49.0933 200.127 48.5085 200.087 47.9037C200.081 47.7387 200.153 47.5738 200.179 47.4088C200.271 46.909 200.402 46.4192 200.422 45.9193C200.448 45.4195 200.343 44.9197 200.31 44.4199C200.284 43.915 200.12 43.4402 199.825 42.9853C199.458 42.4155 199.13 41.8307 198.835 41.2359C198.586 40.7361 198.409 40.2213 198.225 39.7065C198.048 39.2216 197.878 38.7368 197.753 38.242C197.622 37.6871 197.543 37.1223 197.451 36.5575C197.327 35.7928 197.215 35.0331 197.097 34.2683C197.078 34.1034 197.051 33.9334 197.038 33.7685C196.96 32.4339 196.933 31.0994 197.202 29.7698C197.392 28.8801 197.478 27.9755 197.596 27.0758C197.681 26.481 197.825 25.8912 198.035 25.3064C198.186 24.8565 198.35 24.3967 198.409 23.9368C198.494 23.2271 198.756 22.5623 199.045 21.8925C199.228 21.4527 199.418 21.0028 199.582 20.553C199.943 19.5183 200.376 18.5037 200.874 17.504C201.091 17.0692 201.222 16.6093 201.517 16.1945C201.576 16.1145 201.55 15.9995 201.569 15.9046C201.595 15.7746 201.635 15.6447 201.681 15.5147C201.766 15.2898 201.818 15.0499 201.969 14.8549C202.402 14.3051 202.52 13.6503 203.018 13.1255C203.294 12.8256 203.53 12.5007 203.713 12.1609C203.923 11.826 204.159 11.5061 204.435 11.2012C205.215 10.2765 206.015 9.35181 206.802 8.42213C207.176 7.97228 207.589 7.53243 207.799 7.01261C207.844 6.91764 207.903 6.82767 207.969 6.7427C208.428 6.05793 208.887 5.37317 209.346 4.6934C209.438 4.57844 209.503 4.45348 209.562 4.32852C209.7 3.96864 209.949 3.65375 210.192 3.33386C210.349 3.13893 210.494 2.934 210.612 2.71907C210.985 1.99432 211.575 1.36953 212.159 0.744743C212.389 0.48983 212.716 0.319887 213.038 0.13995C213.254 0.0149912 213.523 -4.02373e-06 213.792 0.0199904C214.021 0.0399823 214.218 0.0999632 214.336 0.259909C214.356 0.289898 214.375 0.319888 214.402 0.349878C215.044 1.12961 215.346 1.99432 215.49 2.90401C215.595 3.59877 215.693 4.29353 215.621 4.99829C215.562 5.63308 215.621 6.26786 215.582 6.90264C215.497 8.27218 215.418 9.63671 215.274 11.0012C215.149 12.1658 215.025 13.3305 214.893 14.4951C214.795 15.3598 214.769 16.2295 214.572 17.0892C214.5 17.454 214.474 17.8189 214.493 18.1888C214.526 19.3584 214.428 20.528 214.415 21.6976C214.395 23.472 214.238 25.2364 213.661 26.9658C213.457 27.5806 213.307 28.2054 213.038 28.8052C212.933 29.0251 212.821 29.245 212.69 29.455C212.631 29.5449 212.605 29.6399 212.598 29.7399C212.611 29.8048 212.651 29.8598 212.716 29.9048C212.749 29.9248 212.795 29.9298 212.834 29.9198C212.992 29.8698 213.175 29.8348 213.307 29.7499C214.139 29.195 215.136 28.8452 216.113 28.4753C216.277 28.4203 216.441 28.3753 216.611 28.3453C217.372 28.1804 218.133 28.0154 218.893 27.8555C218.933 27.8455 218.978 27.8405 219.018 27.8305C220.27 27.6456 221.529 27.4956 222.808 27.5756C223.732 27.6356 224.631 27.8155 225.431 28.1804C226.231 28.5453 227.031 28.8951 227.759 29.32C228.506 29.7698 229.254 30.2497 229.673 30.9444C229.699 30.9744 229.719 31.0044 229.745 31.0294C230.401 31.7342 230.644 32.5439 230.814 33.3736C230.867 33.6335 230.821 33.9034 230.827 34.1733C230.834 34.5382 230.84 34.9031 230.867 35.268C230.867 35.303 230.998 35.3529 231.076 35.3529C231.162 35.3479 231.24 35.323 231.312 35.283C231.909 34.9281 232.558 34.6582 233.267 34.4632C234.086 34.2233 234.899 33.9734 235.752 33.8085C236.991 33.5785 238.171 33.2037 239.371 32.8738C239.824 32.7488 240.283 32.6239 240.729 32.4939C241.233 32.354 241.751 32.289 242.283 32.304C242.663 32.309 242.971 32.4239 243.207 32.6539C243.299 32.7238 243.358 32.8138 243.391 32.9088C243.45 33.2787 243.43 33.6485 243.168 33.9784C242.578 34.7232 241.961 35.4379 241.142 36.0677C240.335 36.6775 239.542 37.2973 238.775 37.9471C238.25 38.3919 237.699 38.8218 237.161 39.2616C236.978 39.4066 236.807 39.5565 236.65 39.7215C236.165 40.2413 235.601 40.7111 234.971 41.131C234.716 41.3159 234.48 41.5108 234.263 41.7208C233.994 41.9857 233.693 42.2306 233.411 42.4855C233.267 42.6105 233.109 42.7304 232.978 42.8654C232.598 43.2702 232.224 43.6801 231.745 44.035C231.529 44.1949 231.371 44.4049 231.194 44.5948C230.696 45.1046 230.257 45.6494 229.654 46.0993C229.562 46.1693 229.483 46.2492 229.417 46.3342C228.709 47.1439 228.008 47.9486 227.306 48.7584C227.018 49.0933 226.736 49.4331 226.46 49.778C226.237 50.0629 226.021 50.3528 225.824 50.6527C225.673 50.8926 225.477 51.1176 225.241 51.3125C225.057 51.4575 224.906 51.6224 224.795 51.8023C224.447 52.4621 223.896 53.0269 223.418 53.6267C222.434 54.8563 221.339 56.0309 220.296 57.2305C220.008 57.5654 219.719 57.9003 219.431 58.2351C219.044 58.685 218.67 59.1398 218.152 59.5097C218.054 59.5797 217.969 59.6547 217.903 59.7396C217.136 60.6943 216.041 61.4291 215.044 62.2288C214.133 62.9485 213.123 63.5933 212.126 64.2531C211.634 64.593 211.077 64.8479 210.454 65.0228C209.753 65.2128 209.077 65.4727 208.408 65.7176C207.562 66.0225 206.664 66.1774 205.753 66.2874C205.189 66.3524 204.625 66.4174 204.054 66.4723C203.261 66.5423 202.527 66.7672 201.812 67.0221C201.609 67.0921 201.432 67.1871 201.268 67.3021C200.756 67.6669 200.258 68.0418 199.773 68.4317C199.622 68.5566 199.51 68.6966 199.438 68.8565C199.137 69.4863 198.776 70.0961 198.422 70.7059C198.205 71.1058 198.009 71.5156 197.845 71.9305C197.32 73.17 196.868 74.4296 196.448 75.6942C196.31 76.114 196.251 76.5489 196.153 76.9738C196.107 77.1737 196.061 77.3686 196.022 77.5635C195.878 78.2583 195.786 78.9581 195.753 79.6578C195.668 81.0374 195.851 82.3969 196.127 83.7514C196.356 84.941 196.54 86.1356 196.789 87.3252C196.953 88.115 197.182 88.8997 197.386 89.6894C197.484 90.0493 197.596 90.4042 197.668 90.769C197.904 91.9986 198.35 93.1932 198.769 94.3828C199.025 95.1226 199.346 95.8573 199.648 96.5921C199.681 96.652 199.733 96.707 199.799 96.752C199.812 96.762 199.891 96.752 199.904 96.737C200.107 96.5121 200.159 96.2422 200.245 95.9873C200.363 95.6674 200.455 95.3375 200.514 95.0076C200.612 94.5128 200.776 94.0279 201.018 93.5631C201.471 92.6534 201.759 91.7087 202.271 90.819C202.513 90.4142 202.599 89.9893 202.527 89.5445C202.5 89.4145 202.513 89.2746 202.487 89.1446C202.238 87.7351 202.52 86.3456 202.795 84.961C202.868 84.6661 202.92 84.3662 202.946 84.0663C202.979 83.8014 203.025 83.5365 203.097 83.2766C203.143 83.0417 203.209 82.8168 203.248 82.5818C203.51 80.9124 204.146 79.318 204.848 77.7335C205.031 77.3236 205.274 76.9288 205.497 76.5289C205.89 75.8241 206.29 75.1144 206.697 74.4146C206.808 74.2347 206.94 74.0597 207.084 73.8898C207.654 73.215 208.238 72.5453 208.808 71.8705C209.497 71.0508 210.362 70.346 211.228 69.6313C211.759 69.1864 212.349 68.7865 212.828 68.3017C213.09 68.0418 213.431 67.8169 213.759 67.5969C214.769 66.9022 215.772 66.2074 216.815 65.5376C217.346 65.1928 217.936 64.8979 218.519 64.593C219.962 63.8332 221.391 63.0535 223.005 62.4987C223.405 62.3587 223.778 62.1788 224.165 62.0239C225.018 61.679 225.863 61.3241 226.729 60.9992C227.286 60.7993 227.85 60.6193 228.434 60.4644C230.25 59.9646 232.014 59.3698 233.824 58.8549C234.689 58.605 235.548 58.3551 236.401 58.0852C236.971 57.9053 237.509 57.6853 238.073 57.4954C239.194 57.1105 240.289 56.6957 241.45 56.3808C242.197 56.1708 242.912 55.9209 243.614 55.636C245.076 55.0512 246.663 54.7963 248.276 54.6014C248.361 54.5864 248.446 54.5814 248.538 54.5864C249.004 54.6064 249.45 54.8213 249.377 55.3011C249.345 55.5361 249.259 55.761 249.135 55.9759C248.289 57.4204 247.148 58.73 245.928 59.9995C245.312 60.6443 244.591 61.2391 243.922 61.8539C243.804 61.9539 243.679 62.0488 243.581 62.1588C243.083 62.7086 242.525 63.2284 241.915 63.7083C241.581 63.9732 241.253 64.2381 240.906 64.498C240.401 64.8679 239.929 65.2627 239.489 65.6826C239.102 66.0425 238.689 66.3824 238.243 66.7023C237.902 66.9622 237.594 67.2471 237.325 67.552C236.355 68.6266 235.404 69.7112 234.414 70.7759C233.85 71.3707 233.385 72.0154 232.867 72.6402C232.748 72.7802 232.65 72.9351 232.493 73.0551C231.804 73.5799 231.312 74.2147 230.755 74.8145C230.322 75.2743 229.896 75.7392 229.45 76.199C229.109 76.5439 228.722 76.8638 228.388 77.2137C228.054 77.5636 227.686 77.8934 227.306 78.2233C226.821 78.6482 226.336 79.078 225.824 79.4929C225.221 79.9777 224.618 80.4626 223.982 80.9174C223.116 81.5372 222.25 82.152 221.378 82.7668C221.221 82.8767 221.037 82.9767 220.873 83.0817C220.119 83.5465 219.3 83.9414 218.611 84.4612C217.608 84.946 216.69 85.5258 215.765 86.0856C214.349 86.9454 212.782 87.6151 211.215 88.2949C210.913 88.4348 210.598 88.5498 210.271 88.6448C208.395 89.1246 206.592 89.7444 204.743 90.2692C204.376 90.3692 204.041 90.5391 203.674 90.6541C203.136 90.819 202.848 91.1339 202.71 91.5438C202.402 92.4485 201.963 93.3232 201.615 94.2229C201.136 95.4425 200.815 96.687 200.632 97.9516C200.573 98.4214 200.586 98.8863 200.658 99.3511C200.704 99.651 200.743 99.9509 200.789 100.251C200.802 100.381 200.835 100.516 200.881 100.641C201.412 101.955 201.772 103.295 202.107 104.644C202.277 105.334 202.5 106.019 202.677 106.709C202.999 107.988 203.248 109.273 203.425 110.572C203.549 111.467 203.727 112.362 203.897 113.256C203.91 113.346 204.002 113.431 204.067 113.516C204.107 113.511 204.146 113.496 204.179 113.476C204.238 113.426 204.277 113.366 204.304 113.306C204.513 112.517 204.874 111.762 205.163 110.992C205.622 109.768 206.179 108.578 206.848 107.408C207.294 106.614 207.72 105.804 208.33 105.064C208.448 104.924 208.553 104.779 208.651 104.629C209.267 103.585 210.126 102.655 210.972 101.72C211.051 101.635 211.162 101.57 211.221 101.485C211.779 100.601 212.598 99.8609 213.444 99.1312C213.962 98.6813 214.5 98.2365 215.018 97.7817C215.936 96.9769 216.959 96.2422 217.942 95.4824C218.874 94.7727 219.883 94.1329 220.972 93.5631C222.454 92.7734 224.073 92.1736 225.706 91.5988C226.381 91.3588 227.057 91.1139 227.752 90.899C228.926 90.5291 230.06 90.0843 231.267 89.7694C231.68 89.6494 232.106 89.5895 232.552 89.5845C233.076 89.5895 233.601 89.5795 234.132 89.5795C235.05 89.5795 235.975 89.5595 236.86 89.8044C237.063 89.8594 237.293 89.8594 237.509 89.8943C237.679 89.9143 237.85 89.9543 238.014 90.0043C238.571 90.1992 239.135 90.3842 239.673 90.6141C240.289 90.874 240.932 91.0839 241.601 91.2489C242.479 91.4588 243.358 91.6737 244.243 91.8737C244.492 91.9287 244.755 91.9736 245.01 92.0036C245.358 92.0436 245.705 92.0786 246.06 92.1136C247.082 92.2036 248.014 92.4735 248.853 92.9283C249.6 93.3382 250.394 93.708 251.168 94.0829C251.574 94.2829 252 94.4528 252.446 94.5977C253.181 94.8277 253.804 95.2075 254.426 95.5824C254.702 95.7474 254.951 95.9373 255.207 96.1222C255.384 96.2572 255.476 96.4221 255.482 96.6121C255.489 96.802 255.41 96.9669 255.24 97.1119C254.381 97.8017 254.315 97.8216 253.102 97.9766C252.368 98.0666 251.633 98.1615 250.899 98.2565C250.545 98.3015 250.197 98.3065 249.85 98.2665C248.977 98.1515 248.105 98.1065 247.22 98.1315C246.381 98.1565 245.561 98.0666 244.755 97.8716C243.371 97.5217 241.915 97.4468 240.492 97.2568C239.45 97.1169 238.407 97.0269 237.371 96.882C236.407 96.762 235.443 96.777 234.486 96.9269C234.099 96.9969 233.745 97.1219 233.43 97.3068C232.742 97.6717 232.093 98.0666 231.476 98.4964C230.637 99.0862 229.758 99.641 229.011 100.301C228.886 100.396 228.755 100.486 228.624 100.571C227.627 101.27 226.637 101.985 225.706 102.735C224.959 103.345 224.211 103.955 223.464 104.564C223.05 104.909 222.637 105.259 222.198 105.584C221.916 105.794 221.667 106.024 221.451 106.279C221.359 106.389 221.254 106.499 221.155 106.614C220.755 107.093 220.283 107.528 219.739 107.918C218.408 108.888 217.09 109.873 215.667 110.767C214.041 111.787 212.343 112.737 210.48 113.506C209.484 113.921 208.494 114.361 207.523 114.821C206.854 115.141 206.238 115.521 205.779 116.025C205.53 116.305 205.241 116.555 204.913 116.78C204.631 116.97 204.513 117.22 204.494 117.495C204.474 117.725 204.467 117.96 204.487 118.195C204.553 118.859 204.566 119.529 204.677 120.189C204.763 120.754 204.808 121.319 204.815 121.888C204.822 122.588 204.94 123.288 204.854 123.993C204.848 124.163 204.861 124.328 204.894 124.493C205.274 126.922 205.326 129.361 205.372 131.8C205.385 132.3 205.313 132.8 205.287 133.305L205.143 135.709C205.136 135.809 205.143 135.909 205.123 136.009C204.9 137.703 204.795 139.407 204.395 141.092C204.127 142.207 203.943 143.336 203.733 144.461C203.49 145.75 203.254 147.04 202.92 148.319C202.887 148.449 202.874 148.584 202.887 148.714C202.887 148.769 202.972 148.819 203.031 148.864C203.051 148.874 203.117 148.864 203.143 148.849C203.222 148.814 203.294 148.774 203.353 148.729C204.022 148.065 204.697 147.41 205.504 146.835C205.785 146.635 205.982 146.36 206.218 146.12C206.487 145.855 206.756 145.59 207.031 145.33C207.215 145.151 207.418 144.976 207.615 144.791C208.448 144.021 208.782 143.081 209.176 142.162C209.241 141.967 209.28 141.767 209.287 141.567C209.32 141.267 209.339 140.967 209.353 140.667C209.385 139.797 209.412 138.928 209.444 138.063C209.451 137.863 209.471 137.663 209.484 137.463C209.516 136.693 209.7 135.934 209.694 135.164C209.694 134.734 209.818 134.299 209.897 133.869C210.035 133.175 210.192 132.485 210.316 131.79C210.461 130.99 210.782 130.226 211.097 129.461C211.287 129.016 211.451 128.561 211.7 128.136C212.107 127.437 212.461 126.712 213.011 126.062C213.569 125.417 214.113 124.772 214.684 124.138C215.713 122.988 215.72 122.993 217.077 121.888C217.175 121.813 217.267 121.748 217.352 121.669C217.779 121.244 218.257 120.849 218.716 120.449C219.464 119.794 220.146 119.094 220.854 118.415C221.234 118.045 221.608 117.68 222.014 117.325C222.473 116.925 222.841 116.46 223.227 116.015C223.831 115.316 224.421 114.611 225.004 113.906C225.359 113.481 225.713 113.061 225.949 112.587C226.106 112.277 226.368 112.002 226.598 111.717C227.031 111.172 227.463 110.632 227.804 110.047C228.119 109.503 228.539 108.988 228.808 108.418C228.972 108.073 229.162 107.733 229.286 107.378C229.575 106.574 229.949 105.789 230.401 105.024C230.676 104.569 230.919 104.105 231.129 103.63C231.444 102.9 231.87 102.205 232.263 101.495C232.453 101.161 232.729 100.851 232.978 100.541C233.234 100.226 233.529 99.9309 233.778 99.616C234.06 99.2612 234.493 99.0262 234.939 98.8213C235.339 98.6364 235.784 98.6514 236.217 98.7613C236.302 98.7813 236.381 98.8163 236.44 98.8613C236.742 99.1112 237.011 99.3711 237.122 99.706C237.424 100.651 237.634 101.595 237.588 102.58C237.529 103.885 237.509 105.189 237.384 106.489C237.378 106.589 237.378 106.689 237.384 106.789C237.43 107.963 237.201 109.123 236.952 110.277C236.827 110.872 236.702 111.467 236.676 112.067C236.65 112.742 236.493 113.401 236.335 114.051C236.086 115.071 235.83 116.085 235.607 117.11C235.417 117.965 235.043 118.789 234.748 119.629C234.624 119.984 234.486 120.334 234.375 120.694C234.139 121.404 233.909 122.118 233.607 122.818C233.391 123.328 233.227 123.848 233.004 124.353C232.467 125.592 231.798 126.787 231.096 127.976C231.063 128.041 231.024 128.101 230.978 128.156C230.499 128.756 230.086 129.386 229.667 130.011C229.339 130.485 228.978 130.94 228.578 131.385C227.542 132.59 226.486 133.779 225.444 134.979C225.221 135.229 224.965 135.459 224.69 135.674C224.146 136.114 223.621 136.558 223.116 137.023C222.841 137.283 222.532 137.523 222.198 137.738C221.916 137.898 221.654 138.073 221.405 138.263C220.342 139.073 219.096 139.702 217.851 140.327C217.595 140.457 217.313 140.562 217.077 140.707C216.283 141.202 215.359 141.507 214.434 141.822C214.113 141.937 213.785 142.027 213.444 142.097C212.185 142.331 211.057 142.761 210.107 143.446C209.949 143.561 209.779 143.666 209.602 143.761C209.385 143.881 209.208 144.031 209.071 144.201C208.598 144.766 208.1 145.32 207.477 145.795C207.333 145.92 207.202 146.05 207.084 146.195C206.402 146.935 205.635 147.62 204.789 148.259C204.756 148.279 204.723 148.304 204.697 148.329C204.061 148.969 203.425 149.604 202.73 150.214C202.448 150.479 202.277 150.784 202.212 151.123C202.028 151.943 201.838 152.768 201.622 153.588C201.399 154.442 201.143 155.287 200.894 156.137C200.874 156.237 200.828 156.332 200.769 156.422C200.409 156.887 200.238 157.406 200.015 157.916C199.956 158.041 199.871 158.156 199.753 158.256C199.668 158.341 199.523 158.346 199.392 158.321C199.261 158.276 199.196 158.201 199.182 158.091C199.222 157.896 199.274 157.696 199.34 157.506C199.753 156.587 200.048 155.642 200.317 154.697C200.566 153.818 200.828 152.938 201.104 152.058C201.202 151.758 201.176 151.463 201.012 151.178C200.625 150.499 200.166 149.859 199.536 149.289C198.782 148.594 198.055 147.88 197.314 147.175C196.815 146.705 196.271 146.27 195.681 145.87C195.255 145.58 194.855 145.27 194.474 144.946C193.878 144.456 193.274 143.976 192.579 143.556C192.173 143.301 191.779 143.031 191.412 142.746C190.442 142.022 189.353 141.402 188.409 140.647C187.839 140.192 187.15 139.817 186.507 139.417C185.937 139.048 185.419 138.643 184.953 138.198C184.547 137.843 184.108 137.518 183.642 137.218C182.717 136.603 181.832 135.949 181.111 135.189C180.416 134.449 179.727 133.714 179.039 132.98C178.908 132.845 178.79 132.705 178.691 132.555C178.167 131.745 177.675 130.92 177.131 130.121C176.731 129.561 176.442 128.966 176.259 128.341C176.2 128.136 176.055 127.971 175.819 127.861C175.386 127.631 174.954 127.407 174.514 127.182C173.898 126.857 173.288 126.537 172.751 126.132C172.285 125.782 171.675 125.552 171.255 125.157C170.036 124.438 169.052 123.533 167.977 122.698C167.734 122.508 167.505 122.303 167.295 122.083C166.174 120.934 165.007 119.804 164.003 118.585C163.911 118.47 163.826 118.355 163.741 118.235C163.295 117.62 162.862 117 162.403 116.39C162.03 115.9 161.708 115.386 161.439 114.856C161.216 114.421 161 113.981 160.744 113.556C160.377 112.946 160.154 112.297 159.879 111.662C159.702 111.282 159.617 110.887 159.61 110.482C159.63 109.713 159.485 108.948 159.394 108.183C159.367 107.983 159.361 107.783 159.367 107.583C159.38 107.423 159.472 107.293 159.636 107.198C159.8 107.098 159.99 107.063 160.194 107.093C160.371 107.113 160.528 107.158 160.685 107.223C161.171 107.453 161.643 107.693 162.01 108.038C162.233 108.243 162.489 108.428 162.731 108.623C163.4 109.153 164.043 109.698 164.738 110.212C165.577 110.842 166.344 111.532 167.157 112.192C168.056 112.921 168.98 113.636 169.76 114.446C170.377 114.876 170.921 115.366 171.61 115.731C172.547 116.23 173.387 116.81 174.226 117.41C174.501 117.625 174.816 117.8 175.17 117.94C175.209 117.96 175.255 117.965 175.295 117.95C175.341 117.93 175.367 117.905 175.373 117.87C175.4 117.57 175.419 117.275 175.419 116.975C175.406 116.07 175.465 115.171 175.57 114.271C175.583 114.206 175.59 114.141 175.59 114.076C175.537 113.336 175.714 112.612 175.793 111.882C175.911 110.817 176.055 109.753 176.337 108.703C176.436 108.313 176.468 107.908 176.534 107.468ZM199.458 119.454C198.638 119.089 197.858 118.655 196.946 118.395C196.782 118.34 196.632 118.275 196.487 118.2C196.074 118.005 195.674 117.8 195.248 117.625C194.789 117.435 194.297 117.29 193.832 117.1C193.025 116.755 192.186 116.475 191.307 116.26C191.137 116.22 190.979 116.165 190.822 116.1C189.93 115.746 189.045 115.391 188.147 115.036C187.95 114.961 187.747 114.901 187.543 114.846C187.439 114.816 187.255 114.916 187.262 114.996C187.288 115.396 187.248 115.796 187.458 116.18C187.53 116.3 187.576 116.43 187.589 116.565C187.642 117.065 187.78 117.555 188.002 118.03C188.048 118.16 188.088 118.29 188.107 118.42C188.389 119.669 188.665 120.919 188.94 122.173C188.96 122.268 188.999 122.363 189.032 122.463C189.222 123.078 189.419 123.698 189.609 124.313C189.884 125.192 190.134 126.072 190.573 126.912C190.665 127.097 190.776 127.297 190.947 127.437C191.517 127.901 192.081 128.371 192.717 128.781C193.281 129.146 193.838 129.521 194.402 129.891C194.769 130.136 195.065 130.431 195.445 130.65C195.996 130.985 196.474 131.37 196.887 131.81C197.123 132.05 197.379 132.275 197.661 132.49C198.087 132.825 198.474 133.185 198.828 133.564C199.248 133.994 199.681 134.414 200.094 134.849C200.376 135.144 200.684 135.439 200.881 135.769C201.202 136.314 201.72 136.788 201.904 137.388C201.93 137.453 201.969 137.513 202.022 137.568C202.5 138.163 202.9 138.793 203.222 139.452C203.268 139.557 203.458 139.627 203.53 139.572C203.602 139.522 203.681 139.482 203.694 139.432C203.877 138.478 204.14 137.528 204.146 136.553C204.14 136.084 204.166 135.619 204.225 135.154C204.422 133.954 204.251 132.755 204.336 131.555C204.395 130.72 204.317 129.886 204.284 129.051C204.251 128.121 204.205 127.187 204.153 126.252C204.12 125.752 203.989 125.252 204.008 124.757C204.028 124.083 203.877 123.428 203.851 122.758C203.845 122.518 203.746 122.298 203.549 122.108C203.307 121.873 203.09 121.609 202.789 121.419C202.041 120.959 201.366 120.434 200.573 120.014C200.212 119.819 199.838 119.644 199.458 119.454ZM202.671 48.0386L202.645 48.0286C202.336 48.3935 202.002 48.7484 201.713 49.1232C201.268 49.6981 200.822 50.2729 200.428 50.8726C200.179 51.2575 200.1 51.7024 199.707 52.0373C199.248 52.902 198.743 53.7567 198.343 54.6414C197.314 56.9156 196.396 59.2098 195.825 61.584C195.779 61.7789 195.72 61.9739 195.648 62.1688C195.287 63.1735 195.183 64.2081 195.071 65.2378C194.96 66.3024 194.894 67.372 194.783 68.4367C194.697 69.1364 194.684 69.8362 194.737 70.5359C194.894 72.1654 195.051 73.7998 195.215 75.4293C195.228 75.5292 195.255 75.6292 195.294 75.7242C195.327 75.7992 195.399 75.8341 195.478 75.8141C195.524 75.8042 195.556 75.7892 195.583 75.7592C195.635 75.6692 195.681 75.5792 195.714 75.4843C196.035 74.5446 196.337 73.6049 196.697 72.6752C196.953 72.0004 197.255 71.3407 197.596 70.6909C197.891 70.1311 198.238 69.5913 198.553 69.0415C198.815 68.5816 199.051 68.1168 199.314 67.6569C199.799 66.8122 199.996 65.9325 199.904 65.0178C199.897 64.9179 199.884 64.8179 199.884 64.7179C199.845 62.7636 200.166 60.8492 200.854 58.9699C201.281 57.7803 201.799 56.6057 202.291 55.4311C202.638 54.6164 203.635 53.0219 204.127 52.3322C204.441 51.8923 204.822 51.4774 205.051 51.0026C205.09 50.9076 205.156 50.8177 205.248 50.7427C205.563 50.4978 205.72 50.1879 205.936 49.898C206.54 49.0833 207.221 48.3035 207.969 47.5588C208.362 47.1589 208.802 46.779 209.189 46.3792C209.53 46.0293 209.857 45.6744 210.303 45.3945C210.369 45.3495 210.421 45.2946 210.448 45.2296C210.474 45.1646 210.467 45.1046 210.428 45.0496C210.277 44.9297 210.12 44.7947 209.93 44.7297C209.477 44.5798 209.123 44.3399 208.762 44.09C208.441 43.87 208.035 43.7251 207.661 43.5501C207.536 43.4902 207.294 43.5202 207.176 43.6101C206.894 43.8251 206.572 44.015 206.349 44.2549C205.641 45.0196 204.769 45.6894 204.087 46.4692C203.635 47.004 203.143 47.5188 202.671 48.0386ZM195.714 136.728C195.491 136.618 195.274 136.503 195.051 136.403C194.861 136.319 194.665 136.244 194.468 136.169C194.297 136.104 194.147 136.114 194.133 136.194C194.12 136.289 194.087 136.398 194.133 136.478C194.297 136.753 194.474 137.018 194.678 137.278C195.235 137.993 195.733 138.738 196.16 139.507C196.514 140.152 196.933 140.782 197.274 141.432C197.641 142.147 198.14 142.816 198.441 143.551C198.533 143.776 198.651 143.991 198.789 144.201C199.563 145.44 200.1 146.745 200.75 148.02C200.986 148.454 201.13 148.904 201.182 149.374C201.215 149.574 201.268 149.769 201.333 149.959C201.353 149.989 201.379 150.014 201.418 150.029C201.491 149.999 201.589 149.969 201.615 149.914C201.681 149.794 201.727 149.664 201.753 149.534C201.838 149.139 201.891 148.739 201.995 148.344C202.271 147.3 202.513 146.25 202.677 145.19C202.71 144.891 202.782 144.596 202.881 144.301C203.09 143.716 203.11 143.116 203.228 142.521C203.268 142.316 203.215 142.122 203.071 141.942C202.979 141.832 202.907 141.707 202.861 141.582C202.723 141.222 202.487 140.907 202.14 140.642C201.359 140.007 200.599 139.357 199.628 138.888C199.399 138.788 199.196 138.663 199.005 138.523C198.559 138.143 197.989 137.888 197.504 137.553C197.373 137.458 197.228 137.388 197.071 137.338C196.566 137.193 196.153 136.948 195.714 136.728ZM202.454 42.6405C202.054 43.1653 201.792 43.5501 201.477 43.91C201.248 44.1649 201.15 44.4448 201.163 44.7547C201.176 44.9897 201.143 45.2246 201.182 45.4545C201.268 45.9943 201.202 46.5191 201.11 47.049C201.064 47.2839 201.012 47.5138 200.979 47.7437C200.953 47.8437 200.946 47.9436 200.959 48.0436C200.973 48.1136 201.018 48.1636 201.091 48.2036C201.169 48.2186 201.241 48.2086 201.3 48.1686C201.484 47.9786 201.648 47.7837 201.818 47.5888C203.228 45.8943 204.73 44.2549 206.54 42.7904C206.671 42.6804 206.703 42.5555 206.651 42.4155C206.448 41.7658 206.231 41.121 206.015 40.4762C205.982 40.3912 205.772 40.3512 205.681 40.4162C204.769 41.041 203.805 41.6058 202.927 42.2656C202.71 42.4255 202.5 42.6005 202.454 42.6405Z" fill="#838B66"/>
</svg>
