<svg width="308" height="244" viewBox="0 0 308 244" fill="none" xmlns="http://www.w3.org/2000/svg">
<g filter="url(#filter0_d_523_45)">
<path d="M22.5 171.545H16.125V230.816C16.125 232.54 16.7344 234.014 17.9583 235.233C19.1927 236.457 20.7083 237.066 22.5 237.066H23.6875L23.7917 238.066H2V237.066H3.29167C5.02604 237.066 6.50521 236.472 7.72917 235.274C8.94792 234.082 9.59375 232.623 9.66667 230.899V175.712C9.59375 173.993 8.94792 172.519 7.72917 171.295C6.50521 170.076 5.02604 169.462 3.29167 169.462H2V168.462H28.8542C34.8802 168.462 39.6146 170.139 43.0625 173.483C46.5208 176.832 48.25 181.17 48.25 186.503C48.25 191.837 46.6042 196.451 43.3125 200.337C40.0313 204.212 36.0417 206.149 31.3333 206.149C32.3333 206.608 33.5104 207.519 34.875 208.878C36.2344 210.243 37.4427 211.649 38.5 213.108C44.2083 221.264 47.9219 226.285 49.6458 228.17C51.3646 230.061 52.5885 231.352 53.3125 232.045C54.0469 232.743 54.8438 233.42 55.7083 234.087C56.5677 234.753 57.4271 235.285 58.2917 235.67C60.2083 236.602 62.2604 237.066 64.4583 237.066V238.066H58.9792C56.1302 238.066 53.4792 237.556 51.0208 236.524C48.5729 235.498 46.7344 234.441 45.5 233.358C44.276 232.264 43.2135 231.201 42.3125 230.17C41.4219 229.144 38.9583 225.712 34.9167 219.878C30.875 214.045 28.5208 210.712 27.8542 209.878C27.1979 209.045 26.5052 208.233 25.7708 207.441C23.6458 205.191 21.526 204.066 19.4167 204.066V203.066C19.9427 203.139 20.6354 203.17 21.5 203.17C22.3594 203.17 23.4219 203.139 24.6875 203.066C32.8958 202.873 38.0625 199.431 40.1875 192.733C40.5885 191.399 40.7917 190.16 40.7917 189.003C40.7917 187.837 40.7917 187.087 40.7917 186.753C40.651 182.311 39.4844 178.733 37.2917 176.024C35.1094 173.306 32.1667 171.847 28.4583 171.649C26.8594 171.582 24.875 171.545 22.5 171.545Z" fill="#42433E"/>
<path d="M134.561 237.066H135.353V238.066H112.978V237.066H113.874C115.259 237.066 116.301 236.623 116.999 235.733C117.691 234.832 118.04 233.983 118.04 233.191C118.04 232.399 117.905 231.608 117.645 230.816L111.29 213.899H84.4362L77.7695 230.899C77.5039 231.707 77.3737 232.493 77.3737 233.253C77.3737 234.003 77.7175 234.832 78.4154 235.733C79.1081 236.623 80.1549 237.066 81.5612 237.066H82.457V238.066H62.457V237.066H63.3529C65.0195 237.066 66.6445 236.54 68.2279 235.483C69.8216 234.431 71.1133 232.873 72.1029 230.816L94.582 177.316C97.0404 171.941 98.2695 168.524 98.2695 167.066H99.1654L125.811 230.816C126.728 232.873 127.983 234.431 129.582 235.483C131.176 236.54 132.837 237.066 134.561 237.066ZM85.6237 210.92H110.103L98.1654 179.003L85.6237 210.92Z" fill="#42433E"/>
<path d="M223.644 237.066H225.227V238.066H203.644V237.17H205.144C206.269 237.17 207.227 236.727 208.019 235.837C208.821 234.936 209.154 233.957 209.019 232.899L204.54 182.878L183.665 229.316C181.8 233.358 180.675 236.743 180.29 239.462H179.29L153.832 184.274L149.561 232.899C149.42 233.957 149.748 234.936 150.54 235.837C151.342 236.727 152.274 237.17 153.332 237.17H154.936V238.066H135.644V237.066H137.227C139.087 237.066 140.691 236.503 142.04 235.378C143.399 234.253 144.212 232.733 144.477 230.816L151.936 167.066H152.936L180.686 227.024L207.832 167.066H208.727L216.373 230.816C216.707 233.457 218.029 235.311 220.352 236.378C221.352 236.837 222.446 237.066 223.644 237.066Z" fill="#42433E"/>
<path d="M243.563 177.066C250.157 170.399 258.756 167.066 269.355 167.066C279.964 167.066 288.584 170.399 295.209 177.066C301.845 183.722 305.167 192.451 305.167 203.253C305.167 214.061 301.845 222.795 295.209 229.462C288.584 236.128 279.964 239.462 269.355 239.462C258.756 239.462 250.157 236.128 243.563 229.462C236.964 222.795 233.667 214.061 233.667 203.253C233.667 192.451 236.964 183.722 243.563 177.066ZM249.022 227.337C254.157 233.436 260.959 236.483 269.417 236.483C277.876 236.483 284.667 233.436 289.792 227.337C294.928 221.227 297.501 213.201 297.501 203.253C297.501 196.701 296.339 190.899 294.022 185.858C291.699 180.816 288.402 176.92 284.126 174.17C279.86 171.42 274.944 170.045 269.376 170.045C260.944 170.045 254.157 173.102 249.022 179.212C243.897 185.311 241.334 193.332 241.334 203.274C241.334 213.207 243.897 221.227 249.022 227.337Z" fill="#42433E"/>
<path d="M134.469 114.24C134.344 114.063 134.261 113.948 134.188 113.828C133.1 111.99 131.714 110.38 130.329 108.771C130.074 108.458 129.756 108.255 129.365 108.151C129.193 108.109 129.027 108.047 128.86 108C127.839 107.714 126.818 107.427 125.803 107.13C125.391 107.026 124.995 106.87 124.62 106.667C124.407 106.547 124.178 106.448 123.943 106.37C123.308 106.156 122.688 105.901 122.084 105.615C121.605 105.38 121.147 105.125 120.699 104.844C119.428 104.052 118.355 103.026 117.313 101.969C117.042 101.688 116.777 101.406 116.584 101.063C116.553 100.995 116.516 100.938 116.469 100.885C115.818 100.302 115.495 99.5 115.032 98.7917C114.657 98.224 114.449 97.5781 114.188 96.9583C114.027 96.5625 113.917 96.1458 113.73 95.7708C113.459 95.224 113.324 94.6354 113.167 94.0573C113.016 93.5 113.011 92.9375 113.037 92.3698C113.058 91.9948 113.475 91.6771 113.865 91.724C114.084 91.7396 114.282 91.8073 114.464 91.9219C115.261 92.4427 116.094 92.9115 116.777 93.599C117.126 93.9479 117.558 94.2031 117.902 94.5677C118.313 95.0052 118.772 95.401 119.188 95.8281C119.761 96.4115 120.334 96.9844 120.995 97.4635C121.089 97.5208 121.167 97.5885 121.24 97.6667C121.662 98.2135 122.24 98.5677 122.798 98.9323C123.865 99.625 124.943 100.307 126.016 100.99C126.048 101.01 126.079 101.031 126.11 101.047C126.865 101.344 127.558 101.776 128.298 102.109C129.324 102.578 130.381 102.979 131.386 103.49C132.042 103.672 132.594 104.057 133.178 104.391C133.73 104.708 134.282 105 134.777 105.411C135.381 105.901 136.053 106.302 136.693 106.745C136.782 106.797 136.876 106.849 136.969 106.896C137.115 106.958 137.245 106.932 137.355 106.818C137.464 106.677 137.574 106.542 137.667 106.391C138.011 105.854 138.36 105.318 138.678 104.766C138.933 104.339 139.214 103.932 139.527 103.547C139.631 103.406 139.751 103.276 139.881 103.156C140.412 102.688 140.99 102.281 141.605 101.927C141.829 101.797 142.016 101.833 142.173 102.042C142.292 102.214 142.438 102.385 142.511 102.578C142.839 103.406 143.053 104.276 142.834 105.172C142.714 105.693 142.652 106.219 142.657 106.75C142.647 107.599 142.563 108.448 142.495 109.297C142.443 109.865 142.454 110.427 142.527 110.995C142.548 111.219 142.647 111.396 142.829 111.531C142.912 111.599 142.995 111.656 143.089 111.714C143.855 112.161 144.516 112.76 145.188 113.328C145.839 113.875 146.449 114.464 147.021 115.089C147.594 115.714 148.188 116.323 148.766 116.938C149.011 117.198 149.251 117.453 149.475 117.724C150.042 118.406 150.605 119.089 151.146 119.786C151.584 120.344 152.001 120.917 152.412 121.49C152.917 122.214 153.417 122.948 153.907 123.682C154.032 123.896 154.147 124.115 154.251 124.344C154.714 125.26 155.225 126.151 155.782 127.01C155.829 127.094 155.891 127.109 155.969 127.068C156.001 127.047 156.016 127.026 156.027 126.99C156.042 126.818 156.089 126.635 156.063 126.464C155.917 125.271 155.855 124.068 155.709 122.87C155.6 121.958 155.516 121.036 155.355 120.13C155.193 119.219 155.115 118.302 154.99 117.385C154.824 116.156 154.678 114.927 154.527 113.698C154.308 111.896 153.855 110.141 153.48 108.375C153.454 108.24 153.417 108.099 153.376 107.964C153.344 107.865 153.318 107.745 153.251 107.677C152.73 107.188 152.605 106.422 152.032 105.964C151.813 105.792 151.667 105.531 151.495 105.307C151.141 104.859 150.761 104.443 150.287 104.12C149.907 103.854 149.631 103.479 149.298 103.161C149.027 102.885 148.735 102.63 148.423 102.391C147.855 101.974 147.355 101.474 146.761 101.078C146.027 100.589 145.292 100.094 144.501 99.7031C144.188 99.5365 143.897 99.3438 143.626 99.1198C142.985 98.6198 142.308 98.1667 141.641 97.7031C141.292 97.4583 140.933 97.2292 140.584 96.9896C140.376 96.8594 140.173 96.7135 139.98 96.5573C139.016 95.6563 137.87 95.0156 136.803 94.2656C136.423 94 136.032 93.7604 135.709 93.4271C135.579 93.3073 135.438 93.1927 135.292 93.0938C134.053 92.151 132.917 91.0938 131.886 89.9271C130.933 88.8386 129.985 87.7396 129.042 86.6354C128.907 86.474 128.787 86.2969 128.683 86.1146C128.386 85.6302 128.105 85.1354 127.808 84.651C127.631 84.3438 127.433 84.0521 127.209 83.776C126.652 83.1198 126.282 82.3594 125.912 81.5938C125.589 80.9219 125.277 80.2448 124.949 79.5781C124.568 78.8177 124.292 78.0104 124.011 77.2083C123.777 76.5417 123.589 75.8542 123.459 75.1615C123.219 73.9063 122.912 72.6667 122.542 71.4479C122.459 71.1771 122.397 70.8958 122.313 70.625C122.063 69.7396 121.829 68.849 121.553 67.9688C121.423 67.5625 121.313 67.1511 121.225 66.7396C121.105 66.1823 120.954 65.6354 120.771 65.099C120.605 64.5938 120.511 64.0677 120.396 63.5469C120.282 63.0156 120.365 62.4896 120.495 61.9688C120.516 61.901 120.542 61.8385 120.579 61.776C120.678 61.5625 120.85 61.4531 121.084 61.4479C121.522 61.4219 121.928 61.526 122.303 61.75C122.735 61.9896 123.126 62.2917 123.464 62.6563C124.303 63.5625 125.193 64.4271 125.99 65.3698C126.037 65.4271 126.1 65.4636 126.141 65.5208C126.933 66.5677 127.855 67.5052 128.636 68.5573C129.266 69.4063 129.975 70.2031 130.683 70.9896C130.803 71.1198 130.933 71.2448 131.037 71.3854C131.959 72.599 133.011 73.7031 134.011 74.849C134.824 75.7813 135.657 76.6927 136.433 77.6563C136.725 78.0156 137.053 78.3385 137.37 78.6719C137.443 78.7448 137.542 78.8021 137.605 78.8854C138.115 79.5677 138.761 80.125 139.324 80.7552C139.699 81.1771 140.1 81.5833 140.485 81.9948C140.652 82.1771 140.813 82.3646 140.969 82.5521C141.62 83.349 142.277 84.1406 142.969 84.8958C143.277 85.2344 143.563 85.5938 143.818 85.974C144.396 86.8229 144.969 87.6719 145.511 88.5469C145.824 89.0573 146.068 89.6094 146.35 90.1406C146.876 91.1458 147.355 92.1771 147.938 93.151C148.568 94.2135 149.126 95.3229 149.73 96.401C149.85 96.6198 149.954 96.8438 150.048 97.0729C150.266 97.5938 150.49 98.1146 150.714 98.6354C150.756 98.7188 150.808 98.75 150.881 98.6979C150.912 98.6719 150.923 98.6406 150.917 98.599C150.787 98.125 150.662 97.6458 150.516 97.1719C150.438 96.901 150.376 96.6198 150.344 96.3385C150.266 95.7396 150.141 95.151 149.964 94.5729C149.813 94.0677 149.673 93.5521 149.646 93.0156C149.631 92.8385 149.61 92.6615 149.574 92.4844C149.35 91.125 149.105 89.7656 148.891 88.3958C148.777 87.6979 148.673 86.9948 148.62 86.2917C148.579 85.7604 148.49 85.2344 148.417 84.7083C148.339 84.2552 148.292 83.7969 148.266 83.3385C148.245 82.9115 148.214 82.4896 148.178 82.0677C148.094 80.9688 148.063 79.875 147.995 78.776C147.902 77.3229 147.964 75.8698 147.98 74.4167C147.99 73.7813 147.933 73.1406 147.938 72.5052C147.943 72.3594 147.923 72.224 147.876 72.0885C147.563 71.2604 147.391 70.3802 146.896 69.625C146.761 69.4219 146.673 69.1875 146.558 68.9635C146.214 68.3021 145.844 67.6615 145.334 67.1042C144.954 66.6823 144.626 66.224 144.355 65.724C144.147 65.3542 143.881 65.0208 143.641 64.6667C143.068 63.8125 142.579 62.9115 142.089 62.0052C141.907 61.6615 141.714 61.3281 141.527 60.9844C140.907 59.8646 140.36 58.7135 139.891 57.526C139.334 56.1458 138.85 54.7396 138.428 53.3073C138.35 53.0365 138.282 52.7656 138.235 52.4844C138.152 51.9948 138.053 51.5104 137.954 51.0208C137.834 50.3594 137.766 49.6927 137.751 49.0156C137.719 47.9896 137.688 46.9635 137.693 45.9323C137.699 44.9427 137.751 43.9479 137.745 42.9583C137.745 41.5729 137.735 40.1927 137.594 38.8125C137.574 38.5677 137.579 38.3177 137.574 38.0729C137.563 37.8229 137.563 37.5729 137.537 37.3281C137.391 36.0885 137.454 34.849 137.521 33.6094C137.527 33.3958 137.553 33.1875 137.594 32.9792C137.641 32.8073 137.709 32.6458 137.798 32.4896C137.969 32.2031 138.209 32.1094 138.532 32.1979C138.699 32.2448 138.86 32.3177 139.011 32.4063C139.495 32.7135 139.907 33.0938 140.245 33.5573C140.803 34.3385 141.261 35.1771 141.615 36.0677C141.933 36.8958 142.272 37.7135 142.589 38.5417C142.714 38.8698 142.824 39.2083 142.912 39.5521C143.016 40 143.157 40.4427 143.324 40.8698C143.459 41.1979 143.548 41.5417 143.657 41.875C143.85 42.4844 144.063 43.0885 144.214 43.7083C144.459 44.7083 144.808 45.6719 145.173 46.6302C145.584 47.724 146.027 48.8073 146.443 49.901C146.594 50.2969 146.725 50.7031 146.839 51.1094C147.079 51.9635 147.308 52.8177 147.516 53.6823C147.766 54.6771 147.985 55.6823 148.079 56.7135C148.105 56.9583 148.173 57.1979 148.209 57.4427C148.402 58.849 148.62 60.25 148.704 61.6667C148.751 62.4427 148.87 63.2135 148.964 63.9844C148.964 64.0156 149.011 64.0625 149.032 64.0625C149.089 64.0469 149.147 64.026 149.199 63.9948C149.23 63.9688 149.251 63.9427 149.261 63.9063C149.277 63.875 149.292 63.8438 149.298 63.8073C149.402 62.9948 149.683 62.224 149.912 61.4427C150.011 61.1042 150.146 60.776 150.271 60.4427C150.318 60.3125 150.376 60.1823 150.423 60.0469C150.662 59.3073 150.891 58.5625 151.146 57.8229C151.402 57.0885 151.652 56.349 151.954 55.6302C152.214 55.0104 152.527 54.4167 152.85 53.8229C153.006 53.5469 153.11 53.25 153.167 52.9323C153.261 52.3021 153.433 51.6875 153.396 51.0417C153.391 50.8698 153.449 50.6927 153.475 50.5156C153.542 49.9896 153.652 49.4635 153.667 48.9375C153.683 48.4063 153.6 47.8802 153.579 47.349C153.553 46.8125 153.423 46.3073 153.188 45.8229C152.891 45.2188 152.626 44.6042 152.391 43.9688C152.188 43.4375 152.048 42.8906 151.902 42.3438C151.761 41.8333 151.62 41.3177 151.521 40.7969C151.417 40.2031 151.35 39.6042 151.277 39.0052C151.178 38.1927 151.089 37.3854 150.995 36.5729C150.975 36.401 150.954 36.224 150.949 36.0469C150.881 34.6302 150.86 33.2135 151.079 31.8021C151.23 30.8594 151.303 29.901 151.391 28.9479C151.464 28.3125 151.579 27.6875 151.745 27.0677C151.87 26.5885 152.001 26.1042 152.048 25.6146C152.115 24.8646 152.329 24.1563 152.558 23.4479C152.709 22.9792 152.86 22.5052 152.99 22.026C153.282 20.9271 153.631 19.849 154.032 18.7917C154.204 18.3281 154.308 17.8385 154.548 17.401C154.594 17.3125 154.574 17.1927 154.589 17.0938C154.61 16.9531 154.641 16.8177 154.678 16.6823C154.745 16.4427 154.787 16.1823 154.912 15.9792C155.261 15.3958 155.355 14.7031 155.756 14.1458C155.975 13.8229 156.162 13.4844 156.313 13.125C156.48 12.7656 156.673 12.4271 156.891 12.1042C157.522 11.1198 158.162 10.1406 158.792 9.15105C159.094 8.67709 159.428 8.21354 159.594 7.66146C159.631 7.5573 159.678 7.46355 159.735 7.3698C160.105 6.64584 160.475 5.92188 160.844 5.19792C160.912 5.07292 160.969 4.94271 161.016 4.8073C161.126 4.4323 161.329 4.09896 161.521 3.76042C161.646 3.54688 161.761 3.32813 161.86 3.10417C162.162 2.33855 162.631 1.67188 163.1 1.00521C163.287 0.739588 163.553 0.557296 163.803 0.369796C163.98 0.234378 164.199 0.218753 164.412 0.239587C164.6 0.260419 164.756 0.328129 164.85 0.494796C164.865 0.526045 164.881 0.557296 164.902 0.588546C165.423 1.41667 165.662 2.33855 165.777 3.29688C165.865 4.03646 165.943 4.77084 165.886 5.52084C165.834 6.19271 165.886 6.8698 165.85 7.54167C165.782 8.9948 165.719 10.4427 165.605 11.8906C165.506 13.1302 165.407 14.3646 165.298 15.599C165.225 16.5156 165.199 17.4375 165.042 18.349C164.98 18.7344 164.959 19.125 164.975 19.5156C165.006 20.7604 164.923 22 164.912 23.2396C164.897 25.1198 164.772 26.9896 164.308 28.8281C164.147 29.4792 164.022 30.1406 163.803 30.7813C163.725 31.0156 163.631 31.2448 163.527 31.4688C163.485 31.5625 163.459 31.6667 163.454 31.7708C163.464 31.8385 163.495 31.901 163.548 31.9479C163.579 31.9688 163.61 31.974 163.646 31.9635C163.771 31.9063 163.917 31.875 164.021 31.7865C164.693 31.1927 165.495 30.8229 166.282 30.4323C166.407 30.3698 166.542 30.3229 166.678 30.2917C167.292 30.1146 167.902 29.9427 168.511 29.7708C168.548 29.7604 168.579 29.7552 168.615 29.75C169.62 29.5469 170.636 29.3906 171.662 29.474C172.407 29.5417 173.126 29.7292 173.771 30.1198C174.412 30.5052 175.058 30.875 175.636 31.3281C176.24 31.8073 176.844 32.3125 177.183 33.0521C177.199 33.0833 177.214 33.1094 177.24 33.1406C177.766 33.8854 177.959 34.75 178.1 35.625C178.141 35.901 178.105 36.1927 178.105 36.474C178.11 36.8646 178.12 37.25 178.136 37.6354C178.136 37.6719 178.245 37.724 178.303 37.724C178.376 37.724 178.438 37.6979 178.495 37.651C178.975 37.2813 179.501 36.9896 180.068 36.7813C180.725 36.526 181.376 36.2604 182.068 36.0885C183.063 35.8438 184.011 35.4479 184.975 35.099C185.339 34.9688 185.704 34.8333 186.068 34.6927C186.469 34.5417 186.886 34.4792 187.313 34.4948C187.62 34.4948 187.87 34.6198 188.058 34.8594C188.131 34.9375 188.178 35.0313 188.204 35.1354C188.251 35.526 188.24 35.9167 188.027 36.2708C187.553 37.0573 187.058 37.8177 186.396 38.4844C185.751 39.1354 185.11 39.7917 184.495 40.4792C184.074 40.9479 183.631 41.4063 183.199 41.875C183.048 42.026 182.912 42.1875 182.787 42.3594C182.397 42.9115 181.943 43.4115 181.438 43.8594C181.23 44.0521 181.042 44.2604 180.87 44.4844C180.652 44.7656 180.412 45.026 180.183 45.2917C180.068 45.4271 179.938 45.5521 179.839 45.6979C179.527 46.125 179.23 46.5625 178.844 46.9375C178.673 47.1094 178.542 47.3333 178.402 47.5313C178.001 48.0729 177.647 48.651 177.162 49.125C177.089 49.2031 177.027 49.2865 176.975 49.3802C176.407 50.2344 175.839 51.0938 175.277 51.9479C175.042 52.3073 174.813 52.6667 174.6 53.0313C174.417 53.3333 174.24 53.6406 174.084 53.9583C173.964 54.2188 173.808 54.4531 173.615 54.6615C173.464 54.8125 173.344 54.9844 173.256 55.1823C172.98 55.8802 172.532 56.4792 172.146 57.1146C171.36 58.4219 170.48 59.6667 169.641 60.9375C169.412 61.2917 169.178 61.651 168.943 62.0052C168.636 62.4792 168.334 62.9635 167.917 63.3594C167.839 63.4271 167.772 63.5104 167.714 63.6042C167.105 64.6146 166.219 65.3958 165.417 66.2396C164.688 67.0052 163.876 67.6927 163.079 68.3854C162.678 68.75 162.23 69.0208 161.73 69.2083C161.167 69.4063 160.626 69.6823 160.084 69.9427C159.407 70.2708 158.683 70.4271 157.949 70.5469C157.495 70.6146 157.048 70.6875 156.589 70.7448C155.949 70.8177 155.355 71.0573 154.782 71.3281C154.62 71.4063 154.475 71.5 154.344 71.625C153.938 72.0156 153.537 72.4115 153.146 72.8229C153.027 72.9531 152.938 73.1042 152.876 73.276C152.631 73.9427 152.344 74.5885 152.058 75.2344C151.881 75.6615 151.73 76.0938 151.594 76.5365C151.173 77.8542 150.808 79.1875 150.475 80.526C150.36 80.9688 150.313 81.4323 150.235 81.8854C150.199 82.0938 150.162 82.3073 150.131 82.5156C150.011 83.25 149.943 83.9896 149.912 84.7344C149.844 86.1979 149.995 87.6354 150.214 89.0781C150.402 90.3385 150.548 91.6042 150.745 92.8646C150.876 93.7083 151.063 94.5365 151.23 95.375C151.303 95.7552 151.397 96.1354 151.454 96.5208C151.647 97.8229 152.001 99.0938 152.339 100.354C152.548 101.146 152.803 101.917 153.042 102.698C153.074 102.766 153.11 102.823 153.167 102.87C153.178 102.88 153.24 102.87 153.251 102.849C153.412 102.615 153.454 102.328 153.521 102.057C153.615 101.719 153.688 101.37 153.74 101.021C153.818 100.49 153.954 99.9792 154.146 99.4844C154.511 98.5208 154.745 97.5156 155.152 96.5729C155.35 96.1458 155.417 95.6927 155.355 95.224C155.334 95.0833 155.344 94.9375 155.329 94.7969C155.126 93.3021 155.355 91.8281 155.574 90.3594C155.631 90.0469 155.673 89.7292 155.699 89.4115C155.719 89.1302 155.761 88.849 155.813 88.5729C155.855 88.3281 155.907 88.0833 155.938 87.8385C156.147 86.0677 156.662 84.3698 157.225 82.6875C157.37 82.2552 157.568 81.8386 157.745 81.4115C158.063 80.6615 158.381 79.9167 158.709 79.1719C158.798 78.9792 158.902 78.7917 159.021 78.6146C159.48 77.9011 159.949 77.1875 160.407 76.474C160.959 75.599 161.657 74.8542 162.35 74.0938C162.782 73.625 163.256 73.2031 163.636 72.6875C163.85 72.4063 164.12 72.1719 164.386 71.9375C165.199 71.2031 166.006 70.4636 166.844 69.7552C167.272 69.3906 167.745 69.0729 168.214 68.75C169.376 67.9479 170.521 67.1146 171.818 66.526C172.136 66.3802 172.438 66.1875 172.751 66.026C173.438 65.6615 174.115 65.2813 174.813 64.9375C175.261 64.724 175.714 64.5365 176.183 64.3698C177.641 63.8385 179.063 63.2083 180.516 62.6615C181.209 62.401 181.902 62.1302 182.589 61.849C183.042 61.6563 183.48 61.4219 183.928 61.2188C184.834 60.8125 185.714 60.3698 186.646 60.0365C187.245 59.8125 187.824 59.5521 188.386 59.25C189.563 58.625 190.834 58.3542 192.131 58.1458C192.199 58.1354 192.272 58.1302 192.339 58.1354C192.719 58.151 193.079 58.3854 193.016 58.8958C192.99 59.1406 192.923 59.3802 192.824 59.6042C192.141 61.1406 191.225 62.5313 190.245 63.875C189.745 64.5625 189.173 65.1875 188.631 65.8438C188.537 65.9531 188.438 66.0521 188.36 66.1667C187.959 66.7552 187.511 67.3021 187.016 67.8125C186.751 68.0938 186.485 68.375 186.209 68.6458C185.798 69.0417 185.417 69.4583 185.068 69.9063C184.761 70.2865 184.428 70.6511 184.068 70.9896C183.792 71.2656 183.548 71.5625 183.329 71.8854C182.548 73.0313 181.787 74.1823 180.99 75.3073C180.537 75.9427 180.162 76.625 179.745 77.2865C179.652 77.4375 179.568 77.6042 179.449 77.724C178.891 78.2865 178.495 78.9583 178.048 79.5938C177.704 80.0833 177.36 80.5781 177.001 81.0625C176.725 81.4323 176.417 81.7708 176.146 82.1406C175.881 82.5156 175.579 82.8646 175.277 83.2083C174.886 83.6667 174.495 84.1198 174.084 84.5573C173.6 85.0729 173.115 85.5885 172.605 86.0729C171.907 86.7292 171.214 87.3802 170.511 88.0313C170.386 88.151 170.24 88.2552 170.105 88.3646C169.501 88.8594 168.844 89.2813 168.287 89.8281C167.48 90.3438 166.745 90.9583 166.001 91.5521C164.86 92.4688 163.6 93.1719 162.344 93.8958C162.1 94.0469 161.85 94.1667 161.584 94.2656C160.074 94.776 158.626 95.4323 157.141 95.9896C156.844 96.099 156.574 96.2813 156.282 96.401C155.844 96.5781 155.615 96.9115 155.506 97.3438C155.256 98.3021 154.902 99.2344 154.626 100.182C154.245 101.479 153.98 102.802 153.839 104.141C153.792 104.641 153.798 105.135 153.86 105.63C153.897 105.948 153.923 106.266 153.964 106.578C153.975 106.724 154.001 106.859 154.037 107C154.464 108.391 154.756 109.813 155.021 111.245C155.157 111.974 155.339 112.698 155.48 113.432C155.74 114.792 155.938 116.151 156.084 117.531C156.183 118.484 156.324 119.432 156.459 120.38C156.469 120.474 156.548 120.563 156.594 120.656C156.631 120.646 156.662 120.635 156.688 120.609C156.735 120.557 156.766 120.5 156.787 120.432C156.954 119.594 157.245 118.797 157.475 117.979C157.844 116.682 158.298 115.417 158.829 114.177C159.188 113.333 159.532 112.474 160.021 111.688C160.12 111.542 160.204 111.385 160.282 111.224C160.777 110.12 161.469 109.135 162.152 108.141C162.209 108.052 162.298 107.984 162.344 107.891C162.798 106.953 163.454 106.167 164.131 105.396C164.553 104.917 164.98 104.443 165.396 103.964C166.136 103.109 166.959 102.328 167.751 101.526C168.501 100.771 169.313 100.089 170.183 99.4844C171.376 98.6458 172.678 98.0156 173.99 97.401C174.537 97.1458 175.079 96.8854 175.631 96.6563C176.579 96.2708 177.49 95.7969 178.459 95.4583C178.792 95.3333 179.136 95.2708 179.49 95.2656C179.917 95.2708 180.339 95.2552 180.761 95.2604C181.501 95.2604 182.24 95.2396 182.959 95.5C183.12 95.5573 183.303 95.5521 183.475 95.5938C183.615 95.6146 183.751 95.6563 183.881 95.7083C184.334 95.9167 184.782 96.1146 185.214 96.3594C185.709 96.6354 186.23 96.8594 186.766 97.0313C187.475 97.2552 188.183 97.4844 188.891 97.6979C189.094 97.7552 189.298 97.7969 189.511 97.8281C189.787 97.875 190.068 97.9115 190.35 97.9479C191.173 98.0417 191.923 98.3333 192.594 98.8125C193.199 99.25 193.834 99.6406 194.459 100.036C194.787 100.25 195.126 100.432 195.485 100.583C196.074 100.828 196.579 101.229 197.074 101.625C197.298 101.802 197.495 102.005 197.699 102.198C197.844 102.344 197.917 102.516 197.923 102.719C197.928 102.922 197.865 103.099 197.73 103.25C197.037 103.979 196.985 104.005 196.011 104.167C195.423 104.266 194.829 104.365 194.235 104.464C193.959 104.516 193.678 104.521 193.396 104.474C192.699 104.354 191.995 104.307 191.287 104.333C190.61 104.359 189.949 104.266 189.303 104.057C188.188 103.688 187.022 103.609 185.876 103.406C185.042 103.255 184.199 103.161 183.365 103.01C182.589 102.88 181.818 102.896 181.048 103.057C180.735 103.125 180.454 103.26 180.199 103.458C179.647 103.844 179.126 104.266 178.631 104.719C177.954 105.344 177.251 105.938 176.646 106.635C176.548 106.734 176.443 106.828 176.334 106.917C175.532 107.667 174.74 108.422 173.99 109.219C173.386 109.865 172.787 110.51 172.188 111.161C171.855 111.526 171.522 111.896 171.173 112.24C170.943 112.464 170.74 112.708 170.568 112.974C170.495 113.094 170.407 113.208 170.334 113.328C170.011 113.839 169.631 114.302 169.193 114.714C168.12 115.745 167.063 116.786 165.923 117.74C164.61 118.823 163.251 119.828 161.756 120.646C160.949 121.089 160.152 121.552 159.376 122.042C158.839 122.38 158.344 122.781 157.975 123.318C157.777 123.615 157.542 123.88 157.277 124.12C157.053 124.318 156.959 124.583 156.943 124.875C156.923 125.125 156.923 125.37 156.933 125.62C156.985 126.323 156.995 127.036 157.084 127.734C157.157 128.333 157.193 128.938 157.199 129.536C157.204 130.281 157.298 131.026 157.23 131.771C157.225 131.948 157.235 132.125 157.261 132.302C157.568 134.875 157.605 137.469 157.646 140.057C157.652 140.583 157.6 141.115 157.579 141.651L157.459 144.198C157.459 144.307 157.459 144.411 157.449 144.521C157.266 146.318 157.183 148.125 156.86 149.911C156.647 151.094 156.495 152.292 156.329 153.484C156.136 154.854 155.943 156.224 155.673 157.583C155.647 157.719 155.636 157.859 155.646 158C155.646 158.057 155.719 158.115 155.766 158.156C155.777 158.172 155.829 158.156 155.855 158.141C155.917 158.109 155.975 158.068 156.021 158.016C156.558 157.313 157.105 156.615 157.751 156.01C157.98 155.797 158.136 155.5 158.329 155.245C158.542 154.964 158.761 154.688 158.98 154.411C159.131 154.219 159.292 154.031 159.449 153.839C160.115 153.021 160.386 152.026 160.704 151.047C160.756 150.839 160.787 150.63 160.792 150.417C160.818 150.099 160.834 149.781 160.844 149.458C160.87 148.542 160.891 147.62 160.917 146.698C160.923 146.484 160.943 146.271 160.949 146.063C160.98 145.245 161.126 144.443 161.12 143.625C161.12 143.167 161.219 142.708 161.287 142.25C161.391 141.516 161.522 140.781 161.62 140.042C161.735 139.193 161.995 138.385 162.245 137.573C162.397 137.099 162.532 136.62 162.735 136.167C163.063 135.422 163.339 134.656 163.787 133.969C164.235 133.281 164.673 132.599 165.126 131.927C165.959 130.708 165.964 130.708 167.058 129.536C167.131 129.458 167.209 129.391 167.277 129.307C167.62 128.854 168.001 128.438 168.37 128.01C168.975 127.313 169.516 126.573 170.089 125.854C170.397 125.464 170.699 125.073 171.021 124.698C171.391 124.276 171.688 123.781 171.995 123.307C172.485 122.563 172.954 121.818 173.428 121.068C173.714 120.62 173.995 120.172 174.188 119.667C174.308 119.344 174.522 119.047 174.709 118.745C175.058 118.172 175.402 117.599 175.678 116.979C175.933 116.396 176.266 115.849 176.485 115.245C176.615 114.88 176.766 114.521 176.87 114.141C177.1 113.286 177.402 112.458 177.766 111.646C177.985 111.167 178.178 110.672 178.35 110.167C178.605 109.391 178.949 108.656 179.261 107.906C179.412 107.547 179.631 107.219 179.839 106.885C180.042 106.557 180.277 106.245 180.48 105.911C180.704 105.531 181.053 105.281 181.412 105.063C181.735 104.87 182.089 104.885 182.438 105C182.511 105.021 182.568 105.057 182.62 105.109C182.86 105.37 183.079 105.646 183.167 106.005C183.407 107.01 183.579 108.01 183.542 109.052C183.49 110.438 183.475 111.818 183.381 113.198C183.37 113.307 183.37 113.411 183.376 113.521C183.417 114.766 183.23 115.995 183.032 117.219C182.928 117.849 182.829 118.484 182.808 119.12C182.782 119.833 182.657 120.531 182.532 121.224C182.334 122.307 182.131 123.385 181.949 124.469C181.798 125.375 181.495 126.25 181.256 127.141C181.157 127.521 181.048 127.891 180.954 128.271C180.772 129.026 180.584 129.781 180.344 130.526C180.167 131.063 180.037 131.615 179.86 132.156C179.423 133.469 178.886 134.74 178.324 136C178.298 136.068 178.266 136.13 178.23 136.188C177.839 136.823 177.511 137.49 177.173 138.156C176.912 138.656 176.62 139.146 176.303 139.615C175.464 140.891 174.62 142.156 173.777 143.427C173.6 143.693 173.397 143.938 173.173 144.167C172.735 144.63 172.318 145.104 171.912 145.594C171.688 145.875 171.443 146.125 171.167 146.354C170.943 146.526 170.735 146.714 170.532 146.911C169.678 147.771 168.678 148.438 167.678 149.104C167.469 149.24 167.245 149.349 167.053 149.505C166.417 150.031 165.673 150.354 164.928 150.688C164.673 150.807 164.407 150.906 164.136 150.974C163.12 151.229 162.219 151.688 161.454 152.406C161.324 152.531 161.188 152.641 161.042 152.745C160.87 152.875 160.73 153.031 160.62 153.214C160.235 153.813 159.839 154.396 159.339 154.901C159.219 155.031 159.115 155.177 159.021 155.328C158.469 156.109 157.855 156.839 157.178 157.516C157.152 157.536 157.126 157.563 157.1 157.589C156.589 158.271 156.079 158.948 155.527 159.589C155.298 159.875 155.157 160.193 155.105 160.557C154.954 161.427 154.803 162.302 154.631 163.172C154.449 164.078 154.245 164.974 154.048 165.875C154.032 165.979 153.995 166.078 153.943 166.177C153.657 166.672 153.516 167.224 153.344 167.766C153.292 167.896 153.219 168.016 153.131 168.125C153.063 168.214 152.943 168.219 152.839 168.193C152.735 168.146 152.678 168.063 152.673 167.948C152.699 167.74 152.74 167.531 152.798 167.328C153.131 166.354 153.365 165.349 153.584 164.349C153.782 163.411 153.995 162.479 154.214 161.547C154.298 161.229 154.272 160.917 154.141 160.615C153.829 159.896 153.459 159.219 152.959 158.609C152.35 157.87 151.766 157.115 151.167 156.37C150.772 155.87 150.334 155.406 149.855 154.984C149.516 154.672 149.193 154.349 148.886 154C148.407 153.479 147.923 152.969 147.365 152.526C147.037 152.26 146.725 151.974 146.423 151.672C145.647 150.901 144.766 150.245 144.011 149.443C143.553 148.958 143.001 148.557 142.48 148.135C142.022 147.745 141.605 147.313 141.23 146.844C140.907 146.469 140.553 146.12 140.178 145.802C139.433 145.151 138.725 144.453 138.141 143.651C137.584 142.865 137.032 142.083 136.48 141.307C136.37 141.161 136.277 141.01 136.199 140.854C135.777 139.995 135.386 139.12 134.943 138.276C134.626 137.677 134.391 137.047 134.245 136.385C134.199 136.167 134.079 135.995 133.891 135.875C133.542 135.63 133.193 135.391 132.844 135.151C132.35 134.813 131.86 134.474 131.428 134.042C131.053 133.667 130.558 133.427 130.219 133.01C129.245 132.24 128.454 131.281 127.584 130.401C127.391 130.193 127.209 129.979 127.042 129.75C126.136 128.526 125.199 127.328 124.391 126.031C124.318 125.911 124.251 125.786 124.183 125.667C123.824 125.01 123.475 124.354 123.11 123.708C122.808 123.182 122.553 122.641 122.329 122.078C122.152 121.615 121.98 121.151 121.771 120.698C121.48 120.047 121.298 119.365 121.079 118.688C120.938 118.286 120.865 117.865 120.865 117.438C120.876 116.62 120.761 115.813 120.688 115C120.667 114.786 120.662 114.573 120.667 114.365C120.678 114.193 120.751 114.057 120.881 113.953C121.016 113.849 121.167 113.813 121.329 113.844C121.469 113.865 121.6 113.911 121.725 113.979C122.115 114.224 122.495 114.474 122.792 114.844C122.969 115.063 123.178 115.26 123.37 115.464C123.907 116.026 124.428 116.604 124.985 117.151C125.662 117.818 126.277 118.552 126.928 119.25C127.652 120.026 128.391 120.786 129.021 121.641C129.516 122.099 129.954 122.615 130.506 123.005C131.261 123.531 131.938 124.151 132.61 124.786C132.834 125.016 133.084 125.203 133.37 125.349C133.402 125.37 133.438 125.375 133.469 125.359C133.506 125.339 133.527 125.313 133.532 125.276C133.553 124.958 133.574 124.641 133.568 124.323C133.558 123.37 133.61 122.411 133.693 121.458C133.704 121.391 133.709 121.318 133.709 121.25C133.667 120.464 133.808 119.693 133.87 118.922C133.964 117.792 134.079 116.661 134.308 115.547C134.386 115.135 134.412 114.708 134.469 114.24ZM152.891 126.953C152.235 126.568 151.605 126.104 150.87 125.828C150.74 125.771 150.62 125.703 150.501 125.625C150.173 125.422 149.85 125.198 149.511 125.016C149.141 124.813 148.74 124.656 148.37 124.458C147.725 124.094 147.048 123.797 146.339 123.568C146.204 123.526 146.074 123.469 145.954 123.401C145.235 123.021 144.522 122.646 143.798 122.266C143.641 122.193 143.48 122.125 143.313 122.063C143.235 122.031 143.084 122.141 143.089 122.229C143.11 122.651 143.079 123.078 143.251 123.479C143.303 123.609 143.339 123.75 143.35 123.891C143.397 124.422 143.506 124.943 143.683 125.443C143.725 125.578 143.751 125.719 143.771 125.859C143.99 127.188 144.214 128.51 144.438 129.839C144.454 129.943 144.485 130.042 144.511 130.146C144.667 130.802 144.824 131.458 144.975 132.115C145.193 133.042 145.397 133.979 145.751 134.87C145.829 135.063 145.912 135.276 146.053 135.427C146.511 135.917 146.964 136.417 147.469 136.849C147.928 137.24 148.376 137.635 148.829 138.031C149.12 138.286 149.36 138.604 149.662 138.839C150.105 139.193 150.495 139.599 150.824 140.063C151.016 140.318 151.225 140.557 151.449 140.786C151.787 141.141 152.105 141.521 152.386 141.927C152.725 142.38 153.074 142.828 153.402 143.286C153.626 143.604 153.876 143.917 154.032 144.266C154.292 144.844 154.714 145.349 154.855 145.984C154.881 146.052 154.912 146.115 154.949 146.172C155.339 146.807 155.662 147.474 155.917 148.172C155.959 148.281 156.11 148.359 156.167 148.302C156.225 148.25 156.287 148.208 156.298 148.151C156.449 147.135 156.657 146.13 156.662 145.099C156.652 144.599 156.673 144.104 156.725 143.615C156.881 142.339 156.745 141.068 156.813 139.792C156.865 138.911 156.798 138.026 156.771 137.141C156.74 136.151 156.709 135.156 156.662 134.167C156.641 133.641 156.537 133.109 156.548 132.578C156.563 131.87 156.443 131.172 156.428 130.464C156.423 130.203 156.339 129.974 156.178 129.776C155.985 129.521 155.813 129.24 155.574 129.042C154.969 128.552 154.428 127.995 153.787 127.552C153.495 127.344 153.199 127.156 152.891 126.953ZM155.475 51.1875L155.454 51.1771C155.204 51.5625 154.938 51.9375 154.704 52.3385C154.35 52.9479 153.99 53.5573 153.673 54.1927C153.469 54.599 153.407 55.0729 153.089 55.4271C152.725 56.349 152.318 57.2552 151.995 58.1927C151.167 60.6042 150.428 63.0417 149.969 65.5573C149.933 65.7656 149.886 65.974 149.829 66.1771C149.537 67.2448 149.454 68.3438 149.365 69.4375C149.277 70.5677 149.225 71.6979 149.136 72.8281C149.063 73.5677 149.053 74.3125 149.1 75.0573C149.225 76.7865 149.35 78.5156 149.48 80.25C149.49 80.3542 149.511 80.4583 149.548 80.5573C149.574 80.6406 149.626 80.6771 149.693 80.6563C149.725 80.6458 149.756 80.625 149.777 80.599C149.818 80.5 149.855 80.4063 149.881 80.3021C150.141 79.3125 150.386 78.3125 150.673 77.3281C150.876 76.6094 151.12 75.9115 151.396 75.2188C151.631 74.625 151.912 74.0521 152.162 73.4688C152.376 72.9844 152.563 72.4844 152.777 72C153.167 71.1042 153.324 70.1719 153.251 69.1979C153.245 69.0938 153.235 68.9844 153.235 68.8802C153.204 66.8125 153.464 64.7813 154.016 62.7865C154.36 61.5208 154.772 60.276 155.173 59.0313C155.449 58.1615 156.245 56.474 156.646 55.7396C156.896 55.2708 157.204 54.8333 157.386 54.3333C157.423 54.2292 157.475 54.1354 157.542 54.0573C157.798 53.7969 157.928 53.4688 158.1 53.1615C158.584 52.2917 159.131 51.4688 159.73 50.6771C160.048 50.25 160.402 49.8542 160.714 49.4271C160.99 49.0521 161.251 48.6771 161.61 48.3802C161.662 48.3333 161.704 48.276 161.725 48.2031C161.745 48.1406 161.74 48.0781 161.709 48.0156C161.589 47.8906 161.464 47.7448 161.308 47.6771C160.943 47.5156 160.662 47.2656 160.37 46.9948C160.115 46.7656 159.787 46.6094 159.485 46.4219C159.381 46.3594 159.188 46.3906 159.094 46.4896C158.87 46.7135 158.61 46.9167 158.433 47.1719C157.86 47.9844 157.162 48.6927 156.615 49.5208C156.251 50.0885 155.855 50.6354 155.475 51.1875ZM149.881 145.281C149.704 145.167 149.532 145.047 149.35 144.938C149.199 144.849 149.037 144.771 148.881 144.693C148.74 144.62 148.62 144.63 148.61 144.714C148.6 144.818 148.579 144.932 148.61 145.016C148.74 145.307 148.886 145.589 149.048 145.865C149.501 146.625 149.897 147.417 150.24 148.234C150.527 148.917 150.865 149.583 151.136 150.276C151.428 151.031 151.834 151.745 152.074 152.526C152.152 152.76 152.24 152.99 152.35 153.214C152.98 154.526 153.407 155.911 153.928 157.266C154.12 157.724 154.235 158.203 154.277 158.703C154.303 158.911 154.344 159.115 154.402 159.318C154.412 159.354 154.438 159.38 154.469 159.396C154.527 159.359 154.605 159.328 154.626 159.276C154.678 159.146 154.714 159.01 154.74 158.87C154.808 158.448 154.844 158.026 154.928 157.609C155.152 156.5 155.35 155.385 155.48 154.26C155.506 153.943 155.563 153.63 155.641 153.318C155.813 152.698 155.829 152.057 155.923 151.427C155.954 151.208 155.912 151.005 155.798 150.818C155.725 150.698 155.667 150.568 155.626 150.432C155.522 150.047 155.324 149.719 155.048 149.438C154.423 148.76 153.808 148.073 153.032 147.573C152.844 147.464 152.678 147.339 152.527 147.188C152.173 146.786 151.714 146.51 151.318 146.156C151.219 146.057 151.1 145.984 150.969 145.927C150.568 145.776 150.235 145.516 149.881 145.281ZM155.303 45.4583C154.98 46.0156 154.766 46.4219 154.516 46.8021C154.334 47.0781 154.251 47.375 154.266 47.7031C154.272 47.9531 154.251 48.2031 154.277 48.4479C154.35 49.0156 154.292 49.5781 154.219 50.1406C154.183 50.3854 154.141 50.6302 154.115 50.875C154.094 50.9792 154.089 51.0885 154.1 51.1927C154.11 51.2656 154.147 51.3177 154.204 51.3594C154.266 51.3802 154.324 51.3646 154.376 51.3229C154.522 51.125 154.657 50.9167 154.787 50.7083C155.923 48.9115 157.131 47.1719 158.584 45.6146C158.688 45.5 158.719 45.3698 158.673 45.2188C158.506 44.5313 158.334 43.849 158.162 43.1667C158.136 43.0729 157.964 43.0313 157.891 43.099C157.162 43.7604 156.386 44.3646 155.683 45.0625C155.506 45.2292 155.339 45.4167 155.298 45.4583H155.303Z" fill="#838B66"/>
</g>
<defs>
<filter id="filter0_d_523_45" x="0" y="0.21875" width="307.167" height="243.243" filterUnits="userSpaceOnUse" color-interpolation-filters="sRGB">
<feFlood flood-opacity="0" result="BackgroundImageFix"/>
<feColorMatrix in="SourceAlpha" type="matrix" values="0 0 0 0 0 0 0 0 0 0 0 0 0 0 0 0 0 0 127 0" result="hardAlpha"/>
<feOffset dy="2"/>
<feGaussianBlur stdDeviation="1"/>
<feComposite in2="hardAlpha" operator="out"/>
<feColorMatrix type="matrix" values="0 0 0 0 0 0 0 0 0 0 0 0 0 0 0 0 0 0 0.25 0"/>
<feBlend mode="normal" in2="BackgroundImageFix" result="effect1_dropShadow_523_45"/>
<feBlend mode="normal" in="SourceGraphic" in2="effect1_dropShadow_523_45" result="shape"/>
</filter>
</defs>
</svg>
