<svg width="320" height="200" viewBox="0 0 320 200" fill="none" xmlns="http://www.w3.org/2000/svg">
<path d="M54.8459 134.442H49.7051V170.829C49.7051 171.897 50.1982 172.809 51.1949 173.564C52.1863 174.312 53.4033 174.684 54.8459 174.684H55.7901L55.8741 175.292H38.3324V174.684H39.3815C40.7664 174.684 41.9467 174.316 42.9276 173.58C43.9191 172.845 44.4436 171.949 44.5013 170.893V137.001C44.4436 135.945 43.9191 135.046 42.9276 134.298C41.9467 133.542 40.7664 133.162 39.3815 133.162H38.3324V132.538H59.9657C64.818 132.538 68.6317 133.57 71.4014 135.625C74.1816 137.685 75.577 140.356 75.577 143.639C75.577 146.914 74.2551 149.741 71.6112 152.116C68.9674 154.495 65.7465 155.683 61.9591 155.683C62.767 155.97 63.7217 156.538 64.8128 157.378C65.9039 158.21 66.8744 159.073 67.7294 159.969C72.3299 164.971 75.3252 168.054 76.7101 169.214C78.095 170.378 79.0812 171.173 79.6687 171.597C80.2562 172.025 80.8909 172.441 81.5781 172.845C82.2758 173.253 82.9735 173.576 83.6764 173.82C85.2291 174.396 86.8868 174.684 88.6494 174.684V175.292H84.2429C81.9453 175.292 79.8051 174.98 77.8222 174.348C75.8498 173.72 74.3652 173.069 73.3738 172.397C72.3929 171.725 71.5378 171.077 70.8139 170.446C70.1005 169.806 68.1123 167.694 64.8548 164.112C61.5919 160.529 59.6982 158.49 59.1684 157.986C58.6333 157.474 58.0773 156.974 57.4898 156.482C55.7692 155.099 54.0538 154.403 52.3489 154.403V153.795C52.7791 153.839 53.3404 153.859 54.0276 153.859C54.7253 153.859 55.5856 153.839 56.6085 153.795C63.2233 153.679 67.3832 151.564 69.0933 147.445C69.4133 146.638 69.5759 145.874 69.5759 145.158C69.5759 144.446 69.5759 143.987 69.5759 143.783C69.4605 141.056 68.5268 138.856 66.7642 137.193C65.0016 135.521 62.6306 134.626 59.651 134.506C58.3605 134.466 56.7606 134.442 54.8459 134.442Z" fill="#42433E"/>
<path d="M145.123 174.684H145.753V175.292H127.728V174.684H128.463C129.58 174.684 130.42 174.412 130.981 173.868C131.537 173.317 131.82 172.793 131.82 172.301C131.82 171.813 131.715 171.321 131.505 170.829L126.365 160.449H104.752L99.3806 170.893C99.1707 171.385 99.0658 171.865 99.0658 172.333C99.0658 172.805 99.3439 173.317 99.9052 173.868C100.461 174.412 101.301 174.684 102.423 174.684H103.137V175.292H87.0426V174.684H87.7561C89.099 174.684 90.4051 174.36 91.6799 173.708C92.9651 173.061 94.009 172.101 94.8063 170.829L112.915 137.977C114.887 134.682 115.873 132.586 115.873 131.691H116.608L138.073 170.829C138.813 172.101 139.825 173.061 141.116 173.708C142.401 174.36 143.738 174.684 145.123 174.684ZM105.696 158.626H125.42L115.789 139.016L105.696 158.626Z" fill="#42433E"/>
<path d="M216.886 174.684H218.166V175.292H200.792V174.748H201.988C202.896 174.748 203.672 174.476 204.317 173.932C204.957 173.381 205.225 172.773 205.115 172.109L201.506 141.399L184.677 169.918C183.177 172.405 182.275 174.476 181.971 176.14H181.152L160.652 142.247L157.211 172.109C157.095 172.773 157.363 173.381 158.008 173.932C158.648 174.476 159.398 174.748 160.253 174.748H161.533V175.292H145.985V174.684H147.265C148.76 174.684 150.056 174.34 151.147 173.644C152.248 172.953 152.909 172.013 153.119 170.829L159.12 131.691H159.938L182.285 168.51L204.149 131.691H204.863L211.032 170.829C211.31 172.461 212.38 173.604 214.242 174.252C215.04 174.54 215.921 174.684 216.886 174.684Z" fill="#42433E"/>
<path d="M232.94 137.833C238.254 133.738 245.183 131.691 253.734 131.691C262.279 131.691 269.219 133.738 274.549 137.833C279.889 141.919 282.564 147.281 282.564 153.923C282.564 160.557 279.889 165.919 274.549 170.014C269.219 174.1 262.279 176.14 253.734 176.14C245.183 176.14 238.254 174.1 232.94 170.014C227.621 165.919 224.966 160.557 224.966 153.923C224.966 147.281 227.621 141.919 232.94 137.833ZM237.346 168.702C241.485 172.445 246.962 174.316 253.776 174.316C260.585 174.316 266.056 172.445 270.184 168.702C274.323 164.951 276.395 160.025 276.395 153.923C276.395 149.893 275.456 146.334 273.584 143.239C271.721 140.136 269.072 137.745 265.631 136.057C262.19 134.362 258.224 133.514 253.734 133.514C246.946 133.514 241.485 135.394 237.346 139.144C233.202 142.887 231.135 147.813 231.135 153.923C231.135 160.025 233.202 164.951 237.346 168.702Z" fill="#42433E"/>
<path d="M9.52623 191.251C9.52623 191.635 9.42656 191.999 9.23247 192.339C8.85478 192.99 8.16759 193.438 7.17615 193.682C6.88239 193.758 6.60961 193.794 6.35782 193.794C5.57096 193.794 4.87852 193.642 4.28051 193.33V193.202C5.08835 193.226 5.74931 193.022 6.2529 192.595C6.68305 192.235 6.90337 191.759 6.90337 191.171C6.90337 190.563 6.71453 190.099 6.33683 189.779C5.95914 189.452 5.44506 189.284 4.80508 189.284H3.71397V196.577C3.71397 196.793 3.81889 196.977 4.02872 197.137C4.23854 197.289 4.47985 197.361 4.76312 197.361H4.97295V197.489H0V197.361H0.209829C0.503589 197.361 0.744892 197.289 0.94423 197.137C1.13832 196.977 1.24324 196.793 1.25897 196.577V189.604C1.25897 189.404 1.15406 189.232 0.94423 189.092C0.744892 188.956 0.503589 188.884 0.209829 188.884H0V188.756H5.47653C6.8037 188.756 7.80563 188.976 8.47709 189.412C9.17477 189.859 9.52623 190.475 9.52623 191.251Z" fill="#42433E"/>
<path d="M21.9222 189.3H21.2088C21.1931 189.3 21.1773 189.3 21.1668 189.3V196.577C21.1773 196.793 21.2822 196.977 21.4816 197.137C21.6914 197.289 21.9327 197.361 22.216 197.361H22.4258V197.489H17.4529V197.361H17.6627C18.0509 197.361 18.3551 197.233 18.565 196.977C18.6489 196.861 18.6961 196.733 18.7118 196.593V189.668C18.6961 189.456 18.5912 189.276 18.3971 189.124C18.1978 188.964 17.9564 188.884 17.6627 188.884H17.4529V188.756H23.0763C24.1254 188.756 25.0172 188.932 25.7621 189.284C26.124 189.456 26.4126 189.7 26.6224 190.019C26.8427 190.331 26.9581 190.735 26.9581 191.235C26.9581 191.739 26.7273 192.223 26.2657 192.69C25.8145 193.15 25.1536 193.418 24.2723 193.49C24.9123 193.642 25.4736 194.002 25.9509 194.578C27.126 196.017 27.9968 196.877 28.5738 197.153C28.8518 197.281 29.2033 197.353 29.6229 197.361V197.489H28.0282C27.0735 197.489 26.2867 197.393 25.6572 197.201C25.0277 197.009 24.5346 196.673 24.1884 196.193C23.9785 195.917 23.5222 195.21 22.8245 194.066C22.515 193.554 22.1425 193.274 21.7124 193.218V193.09H22.216C22.7038 193.09 23.1392 192.978 23.5169 192.754C23.8946 192.531 24.1464 192.171 24.2723 191.667C24.3143 191.487 24.3352 191.347 24.3352 191.251C24.3352 190.571 24.1516 190.079 23.7897 189.779C23.4382 189.472 22.9766 189.312 22.4048 189.3C22.3052 189.3 22.1425 189.3 21.9222 189.3Z" fill="#42433E"/>
<path d="M38.2151 189.811C39.3744 188.992 40.9429 188.58 42.9152 188.58C44.8876 188.58 46.4509 188.992 47.6154 189.811C48.7747 190.623 49.357 191.727 49.357 193.122C49.357 194.522 48.7747 195.63 47.6154 196.449C46.4509 197.261 44.8876 197.665 42.9152 197.665C40.9429 197.665 39.3744 197.261 38.2151 196.449C37.0505 195.63 36.4735 194.522 36.4735 193.122C36.4735 191.727 37.0505 190.623 38.2151 189.811ZM40.1665 196.065C40.8379 196.781 41.7454 197.137 42.8943 197.137C44.0536 197.137 44.9716 196.781 45.643 196.065C46.325 195.342 46.6712 194.362 46.6712 193.122C46.6712 191.887 46.325 190.911 45.643 190.195C44.9716 189.472 44.0536 189.108 42.8943 189.108C41.7454 189.108 40.8379 189.472 40.1665 190.195C39.495 190.911 39.1593 191.887 39.1593 193.122C39.1593 194.362 39.495 195.342 40.1665 196.065Z" fill="#42433E"/>
<path d="M62.2723 188.884C61.8789 188.884 61.5799 189.012 61.3701 189.268C61.2704 189.388 61.2232 189.52 61.2232 189.668V197.121C61.2232 197.705 61.0134 198.229 60.5937 198.688C60.1845 199.156 59.6809 199.492 59.0829 199.696C58.4797 199.896 57.8764 200 57.2784 200C57.1368 200 56.9951 199.992 56.8587 199.984V199.872C57.5145 199.656 57.9971 199.296 58.3066 198.784C58.6108 198.281 58.7682 197.713 58.7682 197.073V189.668C58.7524 189.36 58.5793 189.132 58.2436 188.98C58.0758 188.916 57.8974 188.884 57.719 188.884H57.5092V188.756H62.4822V188.884H62.2723Z" fill="#42433E"/>
<path d="M70.6991 197.361C70.9771 197.361 71.2132 197.289 71.4125 197.137C71.6224 196.977 71.7325 196.793 71.7483 196.577V189.636C71.7168 189.412 71.6329 189.252 71.4965 189.156C71.2289 188.976 70.9614 188.884 70.6991 188.884H70.4893V188.756H76.7422C77.2878 188.756 77.7336 188.724 78.0851 188.66C78.4313 188.596 78.6412 188.556 78.7146 188.532V190.707H78.5467V190.563C78.5467 190.051 78.2949 189.684 77.7913 189.46C77.55 189.356 77.272 189.3 76.952 189.3H74.2033V192.93H76.3645C76.7684 192.922 77.0989 192.814 77.3507 192.611C77.613 192.411 77.7494 192.155 77.7494 191.843V191.731H77.9172V194.626H77.7494V194.514C77.7494 194.218 77.613 193.966 77.3507 193.762C77.0989 193.562 76.7737 193.454 76.3855 193.442H74.2033V196.945H76.3435C77.1409 196.945 77.8018 196.777 78.3369 196.433C78.8825 196.081 79.2864 195.586 79.5539 194.946H79.7218L78.9664 197.489H70.4893V197.361H70.6991Z" fill="#42433E"/>
<path d="M93.5508 189.268V196.593C93.5613 196.809 93.6662 196.989 93.8655 197.137C94.0754 197.289 94.3167 197.361 94.5999 197.361H94.7888L94.8098 197.489H89.8368V197.361H90.0467C90.3247 197.361 90.5607 197.289 90.7601 197.137C90.9542 196.989 91.0643 196.813 91.0958 196.609V189.268H88.8926C88.389 189.28 87.9903 189.404 87.6966 189.636C87.4028 189.859 87.2559 190.163 87.2559 190.547V190.691H87.0881V188.516C87.534 188.656 88.1792 188.732 89.0185 188.74H95.6071C95.9429 188.74 96.3048 188.72 96.6982 188.676C97.1022 188.624 97.3802 188.572 97.5376 188.516V190.691H97.3907V190.547C97.3907 190.027 97.1284 189.66 96.6143 189.444C96.373 189.34 96.0897 189.28 95.754 189.268H93.5508Z" fill="#42433E"/>
<path d="M107.029 189.811C108.188 188.992 109.757 188.58 111.729 188.58C113.702 188.58 115.265 188.992 116.429 189.811C117.589 190.623 118.171 191.727 118.171 193.122C118.171 194.522 117.589 195.63 116.429 196.449C115.265 197.261 113.702 197.665 111.729 197.665C109.757 197.665 108.188 197.261 107.029 196.449C105.865 195.63 105.288 194.522 105.288 193.122C105.288 191.727 105.865 190.623 107.029 189.811ZM108.98 196.065C109.652 196.781 110.559 197.137 111.708 197.137C112.868 197.137 113.786 196.781 114.457 196.065C115.139 195.342 115.485 194.362 115.485 193.122C115.485 191.887 115.139 190.911 114.457 190.195C113.786 189.472 112.868 189.108 111.708 189.108C110.559 189.108 109.652 189.472 108.98 190.195C108.309 190.911 107.973 191.887 107.973 193.122C107.973 194.362 108.309 195.342 108.98 196.065Z" fill="#42433E"/>
<path d="M126.407 196.321C126.407 195.725 126.575 195.218 126.911 194.802H127.058C127.042 194.866 127.037 194.93 127.037 194.994C127.037 195.57 127.309 196.073 127.855 196.497C128.401 196.925 129.14 197.137 130.079 197.137C130.803 197.137 131.37 197.005 131.779 196.737C132.183 196.473 132.387 196.137 132.387 195.729C132.387 195.486 132.288 195.274 132.094 195.09C131.894 194.898 131.558 194.686 131.086 194.45L128.233 193.01C127.184 192.467 126.659 191.803 126.659 191.011C126.659 190.927 126.664 190.847 126.68 190.771C126.748 190.111 127.084 189.584 127.687 189.188C128.301 188.784 129.114 188.58 130.121 188.58C130.719 188.58 131.464 188.624 132.345 188.708H133.373L133.164 190.547H132.996C132.996 190.111 132.786 189.763 132.366 189.508C131.947 189.244 131.385 189.108 130.688 189.108C129.848 189.108 129.229 189.308 128.841 189.7C128.642 189.891 128.547 190.083 128.547 190.275C128.547 190.467 128.595 190.635 128.694 190.771C128.846 190.987 129.182 191.215 129.701 191.459L132.828 193.01C133.804 193.502 134.297 194.142 134.297 194.93C134.297 195.817 133.898 196.493 133.101 196.961C132.314 197.433 131.265 197.665 129.953 197.665C129.208 197.665 128.526 197.593 127.897 197.457C127.278 197.321 126.816 197.133 126.512 196.897C126.439 196.749 126.407 196.557 126.407 196.321Z" fill="#42433E"/>
<path d="M164.7 197.361H164.847V197.489H159.622V197.361H159.769C160.005 197.361 160.178 197.309 160.293 197.201C160.419 197.085 160.482 196.977 160.482 196.881C160.482 196.777 160.451 196.673 160.398 196.577L159.58 195.042H155.761L154.901 196.577C154.859 196.685 154.838 196.785 154.838 196.881C154.838 196.977 154.89 197.085 155.006 197.201C155.131 197.309 155.31 197.361 155.551 197.361H155.677V197.489H152.173V197.361H152.32C152.572 197.361 152.823 197.305 153.075 197.185C153.327 197.069 153.537 196.897 153.705 196.673L157.482 190.147C157.996 189.316 158.268 188.768 158.3 188.5H158.447L163.315 196.641C163.467 196.889 163.672 197.069 163.923 197.185C164.175 197.305 164.432 197.361 164.7 197.361ZM156.034 194.514H159.307L157.733 191.443L156.034 194.514Z" fill="#42433E"/>
<path d="M186.571 197.361H186.823V197.489H181.913V197.377H182.164C182.343 197.369 182.5 197.309 182.626 197.201C182.762 197.097 182.82 196.973 182.794 196.833L182.164 192.307L179.08 196.353C178.671 196.865 178.471 197.329 178.471 197.745H178.304L174.086 192.355L173.456 196.833C173.425 196.973 173.477 197.101 173.603 197.217C173.74 197.325 173.902 197.377 174.086 197.377H174.338V197.489H170.918V197.361H171.169C171.474 197.361 171.741 197.293 171.967 197.153C172.187 197.017 172.323 196.825 172.365 196.577L173.729 188.58H173.876L178.954 194.946L183.822 188.58H183.969L185.375 196.577C185.427 196.825 185.569 197.017 185.794 197.153C186.015 197.293 186.277 197.361 186.571 197.361Z" fill="#42433E"/>
<path d="M199.244 197.489H194.082V197.361H194.292C194.68 197.361 194.984 197.233 195.194 196.977C195.278 196.861 195.325 196.733 195.341 196.593V189.652C195.325 189.44 195.215 189.26 195.005 189.108C194.806 188.96 194.57 188.884 194.292 188.884H194.082V188.756H198.824C200.083 188.756 201.08 188.932 201.825 189.284C202.58 189.636 202.963 190.171 202.979 190.883C202.963 191.259 202.858 191.579 202.664 191.843C202.312 192.367 201.746 192.667 200.964 192.738C201.804 192.794 202.496 193.034 203.042 193.458C203.587 193.874 203.86 194.41 203.86 195.058C203.86 195.837 203.446 196.441 202.622 196.865C201.793 197.281 200.671 197.489 199.244 197.489ZM200.356 191.059C200.34 189.887 199.642 189.3 198.257 189.3H197.796V196.913H198.551C198.551 196.913 198.557 196.913 198.572 196.913C199.328 196.913 199.926 196.749 200.377 196.417C200.823 196.089 201.048 195.582 201.048 194.898C201.048 194.218 200.796 193.71 200.293 193.378C199.789 193.038 199.139 192.866 198.341 192.866V192.754C198.913 192.754 199.391 192.619 199.768 192.339C200.146 192.063 200.34 191.635 200.356 191.059Z" fill="#42433E"/>
<path d="M212.055 197.361C212.333 197.361 212.569 197.289 212.769 197.137C212.979 196.977 213.089 196.793 213.104 196.577V189.652C213.089 189.44 212.979 189.26 212.769 189.108C212.569 188.96 212.333 188.884 212.055 188.884H211.845V188.756H216.818L216.797 188.884H216.609C216.315 188.884 216.063 188.96 215.853 189.108C215.654 189.26 215.559 189.44 215.559 189.652V196.577C215.559 196.793 215.654 196.977 215.853 197.137C216.063 197.289 216.315 197.361 216.609 197.361H216.797L216.818 197.489H211.845V197.361H212.055Z" fill="#42433E"/>
<path d="M225.11 197.361C225.388 197.361 225.624 197.289 225.823 197.137C226.033 196.977 226.143 196.793 226.159 196.577V189.636C226.127 189.412 226.043 189.252 225.907 189.156C225.639 188.976 225.372 188.884 225.11 188.884H224.9V188.756H231.153C231.698 188.756 232.144 188.724 232.495 188.66C232.842 188.596 233.052 188.556 233.125 188.532V190.707H232.957V190.563C232.957 190.051 232.705 189.684 232.202 189.46C231.96 189.356 231.682 189.3 231.362 189.3H228.614V192.93H230.775C231.179 192.922 231.509 192.814 231.761 192.611C232.023 192.411 232.16 192.155 232.16 191.843V191.731H232.328V194.626H232.16V194.514C232.16 194.218 232.023 193.966 231.761 193.762C231.509 193.562 231.184 193.454 230.796 193.442H228.614V196.945H230.754C231.551 196.945 232.212 196.777 232.747 196.433C233.293 196.081 233.697 195.586 233.964 194.946H234.132L233.377 197.489H224.9V197.361H225.11Z" fill="#42433E"/>
<path d="M254.634 188.884C254.256 188.884 253.968 189.008 253.774 189.252C253.69 189.36 253.637 189.488 253.627 189.636V196.065C253.627 196.621 253.674 197.089 253.774 197.473L253.816 197.665H253.669L245.401 191.667V196.609C245.401 196.825 245.496 197.005 245.695 197.153C245.889 197.293 246.125 197.361 246.409 197.361H246.723V197.489H241.75V197.361H242.044C242.338 197.361 242.579 197.293 242.779 197.153C242.973 197.005 243.072 196.825 243.072 196.609V190.131C243.072 189.58 243.02 189.12 242.925 188.756L242.883 188.564H243.03L251.298 194.562V189.636C251.282 189.424 251.177 189.248 250.983 189.108C250.784 188.96 250.553 188.884 250.29 188.884H249.997V188.756H254.949V188.884H254.634Z" fill="#42433E"/>
<path d="M268.848 189.268V196.593C268.859 196.809 268.964 196.989 269.163 197.137C269.373 197.289 269.614 197.361 269.897 197.361H270.086L270.107 197.489H265.134V197.361H265.344C265.622 197.361 265.858 197.289 266.057 197.137C266.251 196.989 266.362 196.813 266.393 196.609V189.268H264.19C263.686 189.28 263.288 189.404 262.994 189.636C262.7 189.859 262.553 190.163 262.553 190.547V190.691H262.385V188.516C262.831 188.656 263.477 188.732 264.316 188.74H270.904C271.24 188.74 271.602 188.72 271.996 188.676C272.399 188.624 272.677 188.572 272.835 188.516V190.691H272.688V190.547C272.688 190.027 272.426 189.66 271.912 189.444C271.67 189.34 271.387 189.28 271.051 189.268H268.848Z" fill="#42433E"/>
<path d="M291.873 197.361H292.02V197.489H286.796V197.361H286.942C287.178 197.361 287.352 197.309 287.467 197.201C287.593 197.085 287.656 196.977 287.656 196.881C287.656 196.777 287.624 196.673 287.572 196.577L286.754 195.042H282.935L282.074 196.577C282.032 196.685 282.011 196.785 282.011 196.881C282.011 196.977 282.064 197.085 282.179 197.201C282.305 197.309 282.483 197.361 282.725 197.361H282.851V197.489H279.347V197.361H279.493C279.745 197.361 279.997 197.305 280.249 197.185C280.501 197.069 280.71 196.897 280.878 196.673L284.655 190.147C285.169 189.316 285.442 188.768 285.474 188.5H285.62L290.488 196.641C290.641 196.889 290.845 197.069 291.097 197.185C291.349 197.305 291.606 197.361 291.873 197.361ZM283.207 194.514H286.481L284.907 191.443L283.207 194.514Z" fill="#42433E"/>
<path d="M299.14 197.361C299.418 197.361 299.654 197.289 299.853 197.137C300.063 196.977 300.173 196.793 300.189 196.577V189.652C300.173 189.44 300.063 189.26 299.853 189.108C299.654 188.96 299.418 188.884 299.14 188.884H298.93V188.756H303.903L303.882 188.884H303.693C303.399 188.884 303.147 188.96 302.938 189.108C302.738 189.26 302.644 189.44 302.644 189.652V196.577C302.644 196.793 302.738 196.977 302.938 197.137C303.147 197.289 303.399 197.361 303.693 197.361H303.882L303.903 197.489H298.93V197.361H299.14Z" fill="#42433E"/>
<path d="M312.11 196.321C312.11 195.725 312.278 195.218 312.614 194.802H312.761C312.745 194.866 312.74 194.93 312.74 194.994C312.74 195.57 313.013 196.073 313.558 196.497C314.104 196.925 314.843 197.137 315.782 197.137C316.506 197.137 317.073 197.005 317.482 196.737C317.886 196.473 318.091 196.137 318.091 195.729C318.091 195.486 317.991 195.274 317.797 195.09C317.597 194.898 317.262 194.686 316.79 194.45L313.936 193.01C312.887 192.467 312.362 191.803 312.362 191.011C312.362 190.927 312.367 190.847 312.383 190.771C312.451 190.111 312.787 189.584 313.39 189.188C314.004 188.784 314.817 188.58 315.824 188.58C316.422 188.58 317.167 188.624 318.049 188.708H319.077L318.867 190.547H318.699C318.699 190.111 318.489 189.763 318.07 189.508C317.65 189.244 317.089 189.108 316.391 189.108C315.552 189.108 314.933 189.308 314.544 189.7C314.345 189.891 314.251 190.083 314.251 190.275C314.251 190.467 314.298 190.635 314.398 190.771C314.55 190.987 314.885 191.215 315.405 191.459L318.531 193.01C319.507 193.502 320 194.142 320 194.93C320 195.817 319.601 196.493 318.804 196.961C318.017 197.433 316.968 197.665 315.657 197.665C314.912 197.665 314.23 197.593 313.6 197.457C312.981 197.321 312.52 197.133 312.215 196.897C312.142 196.749 312.11 196.557 312.11 196.321Z" fill="#42433E"/>
<path d="M73.6075 122.555C73.6075 122.099 73.7334 121.703 73.9852 121.371H74.1111C74.0954 121.427 74.0901 121.479 74.0901 121.531C74.0901 121.971 74.2894 122.355 74.6986 122.683C75.1183 123.003 75.6848 123.163 76.3982 123.163C76.9543 123.163 77.3897 123.063 77.6992 122.859C78.0191 122.659 78.1818 122.403 78.1818 122.091C78.1818 121.911 78.1031 121.747 77.951 121.595C77.7936 121.447 77.5365 121.287 77.1746 121.115L75.0134 120.012C74.2003 119.596 73.7963 119.092 73.7963 118.492C73.7963 118.428 73.8016 118.364 73.8173 118.3C73.8698 117.801 74.1321 117.397 74.5937 117.085C75.0553 116.777 75.6691 116.621 76.4402 116.621C76.9018 116.621 77.4684 116.653 78.1398 116.717H78.9372L78.7693 118.124H78.6434C78.6434 117.797 78.4808 117.529 78.1608 117.325C77.8356 117.125 77.4106 117.021 76.8808 117.021C76.2199 117.021 75.753 117.177 75.475 117.485C75.3176 117.637 75.2442 117.785 75.2442 117.933C75.2442 118.072 75.2756 118.196 75.3491 118.3C75.475 118.46 75.732 118.636 76.1254 118.828L78.4965 120.012C79.2519 120.388 79.6296 120.875 79.6296 121.483C79.6296 122.155 79.3253 122.675 78.7273 123.035C78.1241 123.387 77.3215 123.563 76.3143 123.563C75.753 123.563 75.2284 123.515 74.7406 123.419C74.2632 123.315 73.9118 123.171 73.6914 122.987C73.6337 122.871 73.6075 122.727 73.6075 122.555Z" fill="#42433E"/>
<path d="M82.4939 123.339C82.7037 123.339 82.882 123.283 83.0394 123.163C83.1915 123.047 83.2755 122.903 83.2912 122.731V117.453C83.2755 117.285 83.1915 117.145 83.0394 117.037C82.882 116.921 82.7037 116.861 82.4939 116.861H82.326V116.765H86.1239V116.861H85.956C85.7462 116.861 85.5574 116.921 85.3895 117.037C85.2321 117.145 85.1587 117.285 85.1587 117.453V122.731C85.1587 122.903 85.2321 123.047 85.3895 123.163C85.5574 123.283 85.7462 123.339 85.956 123.339H86.1239V123.435H82.326V123.339H82.4939Z" fill="#42433E"/>
<path d="M98.4447 116.861C98.151 116.861 97.9254 116.957 97.7733 117.149C97.7156 117.225 97.6789 117.321 97.6684 117.437V122.347C97.6684 122.775 97.6999 123.131 97.7733 123.419L97.8153 123.563H97.7103L91.3945 118.988V122.763C91.3945 122.923 91.4627 123.063 91.6043 123.179C91.7564 123.287 91.94 123.339 92.1499 123.339H92.3807V123.435H88.6038V123.339H88.8346C89.0444 123.339 89.2228 123.287 89.3801 123.179C89.5323 123.063 89.6109 122.923 89.6109 122.763V117.805C89.6109 117.389 89.569 117.045 89.4851 116.765L89.4641 116.621H89.569L95.8848 121.211V117.437C95.8848 117.277 95.8061 117.145 95.654 117.037C95.4967 116.921 95.3183 116.861 95.1085 116.861H94.8986V116.765H98.6756V116.861H98.4447Z" fill="#42433E"/>
<path d="M106.364 123.563C104.754 123.563 103.489 123.255 102.566 122.635C101.653 122.019 101.202 121.175 101.202 120.108C101.202 119.032 101.653 118.184 102.566 117.565C103.474 116.937 104.717 116.621 106.301 116.621C107.502 116.621 108.536 116.797 109.407 117.149L109.448 118.78H109.344C108.908 117.609 107.938 117.021 106.427 117.021C105.446 117.021 104.67 117.293 104.098 117.837C103.521 118.38 103.238 119.128 103.238 120.076C103.238 121.015 103.51 121.763 104.056 122.315C104.601 122.871 105.341 123.155 106.28 123.163C107.245 123.163 107.98 122.983 108.483 122.619C108.997 122.235 109.365 121.579 109.574 120.652H109.658L109.784 122.283C109.113 123.139 107.969 123.563 106.364 123.563Z" fill="#42433E"/>
<path d="M112.676 123.339C112.886 123.339 113.064 123.283 113.221 123.163C113.374 123.047 113.458 122.903 113.473 122.731V117.437C113.458 117.269 113.395 117.145 113.284 117.069C113.085 116.933 112.886 116.861 112.676 116.861H112.508V116.765H117.292C117.712 116.765 118.053 116.745 118.32 116.701C118.583 116.649 118.745 116.613 118.803 116.589V118.252H118.677V118.14C118.677 117.749 118.478 117.469 118.089 117.309C117.906 117.225 117.691 117.177 117.439 117.165H115.341V119.948H116.998C117.303 119.94 117.554 119.86 117.754 119.708C117.964 119.548 118.068 119.356 118.068 119.132V119.036H118.194V121.243H118.068V121.163C118.068 120.932 117.969 120.74 117.775 120.588C117.575 120.428 117.324 120.348 117.019 120.348H115.341V123.019H116.977C117.591 123.019 118.1 122.887 118.509 122.619C118.929 122.355 119.233 121.975 119.432 121.483H119.558L118.992 123.435H112.508V123.339H112.676Z" fill="#42433E"/>
<path d="M207.74 116.621C208.228 116.621 208.716 116.701 209.209 116.861C209.697 117.013 210.075 117.237 210.342 117.533C210.62 117.821 210.762 118.164 210.762 118.556C210.762 118.888 210.626 119.26 210.363 119.676C210.222 119.912 209.891 120.248 209.377 120.684C209.068 120.951 208.606 121.267 207.992 121.627C207.389 121.991 207.069 122.183 207.027 122.203H209.608C209.97 122.203 210.269 122.135 210.51 121.995C210.762 121.847 210.998 121.607 211.223 121.275H211.349L210.615 123.435H204.635V123.339C204.745 123.243 204.955 123.063 205.264 122.795C205.584 122.519 205.82 122.315 205.978 122.187C206.146 122.051 206.366 121.847 206.649 121.579C206.943 121.315 207.163 121.095 207.321 120.923C207.489 120.756 207.677 120.548 207.887 120.3C208.097 120.056 208.254 119.836 208.37 119.644C208.632 119.188 208.769 118.76 208.769 118.364C208.769 117.972 208.622 117.653 208.328 117.405C208.045 117.149 207.677 117.021 207.216 117.021C206.597 117.021 206.135 117.181 205.831 117.501C205.521 117.813 205.375 118.244 205.39 118.796H205.264L204.656 117.325C205.327 116.857 206.355 116.621 207.74 116.621Z" fill="#42433E"/>
<path d="M214.877 117.565C215.507 116.937 216.357 116.621 217.437 116.621C218.528 116.621 219.389 116.937 220.018 117.565C220.648 118.196 220.962 119.044 220.962 120.108C220.962 121.163 220.648 122.007 220.018 122.635C219.389 123.255 218.528 123.563 217.437 123.563C216.357 123.563 215.507 123.255 214.877 122.635C214.248 122.007 213.933 121.163 213.933 120.108C213.933 119.044 214.248 118.196 214.877 117.565ZM217.458 117.021C216.755 117.021 216.288 117.481 216.052 118.396C215.937 118.856 215.884 119.42 215.884 120.092C215.884 121.107 216.016 121.875 216.283 122.395C216.545 122.907 216.934 123.163 217.437 123.163C217.951 123.163 218.345 122.907 218.612 122.395C218.874 121.875 219.011 121.111 219.011 120.108C219.011 119.096 218.874 118.328 218.612 117.805C218.345 117.285 217.962 117.021 217.458 117.021Z" fill="#42433E"/>
<path d="M226.799 116.621C227.287 116.621 227.775 116.701 228.268 116.861C228.756 117.013 229.134 117.237 229.401 117.533C229.679 117.821 229.821 118.164 229.821 118.556C229.821 118.888 229.685 119.26 229.422 119.676C229.281 119.912 228.95 120.248 228.436 120.684C228.127 120.951 227.665 121.267 227.051 121.627C226.448 121.991 226.128 122.183 226.086 122.203H228.667C229.029 122.203 229.328 122.135 229.569 121.995C229.821 121.847 230.057 121.607 230.283 121.275H230.408L229.674 123.435H223.694V123.339C223.804 123.243 224.014 123.063 224.323 122.795C224.643 122.519 224.879 122.315 225.037 122.187C225.205 122.051 225.425 121.847 225.708 121.579C226.002 121.315 226.222 121.095 226.38 120.923C226.548 120.756 226.736 120.548 226.946 120.3C227.156 120.056 227.313 119.836 227.429 119.644C227.691 119.188 227.828 118.76 227.828 118.364C227.828 117.972 227.681 117.653 227.387 117.405C227.104 117.149 226.736 117.021 226.275 117.021C225.656 117.021 225.194 117.181 224.89 117.501C224.58 117.813 224.434 118.244 224.449 118.796H224.323L223.715 117.325C224.386 116.857 225.415 116.621 226.799 116.621Z" fill="#42433E"/>
<path d="M233.936 117.565C234.566 116.937 235.416 116.621 236.496 116.621C237.587 116.621 238.448 116.937 239.077 117.565C239.707 118.196 240.021 119.044 240.021 120.108C240.021 121.163 239.707 122.007 239.077 122.635C238.448 123.255 237.587 123.563 236.496 123.563C235.416 123.563 234.566 123.255 233.936 122.635C233.307 122.007 232.992 121.163 232.992 120.108C232.992 119.044 233.307 118.196 233.936 117.565ZM236.517 117.021C235.814 117.021 235.347 117.481 235.111 118.396C234.996 118.856 234.943 119.42 234.943 120.092C234.943 121.107 235.075 121.875 235.342 122.395C235.604 122.907 235.993 123.163 236.496 123.163C237.01 123.163 237.404 122.907 237.671 122.395C237.934 121.875 238.07 121.111 238.07 120.108C238.07 119.096 237.934 118.328 237.671 117.805C237.404 117.285 237.021 117.021 236.517 117.021Z" fill="#42433E"/>
<path d="M141.227 85.9746C141.107 85.8386 141.023 85.7546 140.949 85.6627C139.869 84.2751 138.489 83.0636 137.109 81.852C136.858 81.6161 136.538 81.4601 136.155 81.3841C135.982 81.3521 135.814 81.3082 135.646 81.2722C134.633 81.0522 133.616 80.8403 132.603 80.6164C132.194 80.5324 131.806 80.4165 131.428 80.2645C131.213 80.1725 130.988 80.1006 130.757 80.0406C130.122 79.8766 129.508 79.6887 128.905 79.4728C128.428 79.2968 127.971 79.1009 127.525 78.889C126.261 78.2932 125.191 77.5214 124.158 76.7217C123.885 76.5098 123.623 76.2979 123.429 76.0379C123.402 75.99 123.366 75.946 123.313 75.906C122.668 75.4661 122.348 74.8583 121.881 74.3265C121.514 73.8987 121.309 73.4108 121.047 72.943C120.884 72.6471 120.779 72.3312 120.591 72.0473C120.323 71.6354 120.187 71.1916 120.029 70.7557C119.882 70.3399 119.877 69.912 119.903 69.4842C119.919 69.2003 120.334 68.9644 120.727 68.9963C120.942 69.0083 121.136 69.0603 121.32 69.1443C122.117 69.5402 122.946 69.896 123.623 70.4119C123.974 70.6758 124.399 70.8677 124.74 71.1436C125.149 71.4715 125.606 71.7714 126.025 72.0913C126.592 72.5311 127.164 72.967 127.824 73.3269C127.914 73.3669 127.992 73.4188 128.066 73.4788C128.48 73.8907 129.057 74.1546 129.619 74.4305C130.678 74.9583 131.748 75.4701 132.818 75.986C132.85 76.002 132.876 76.014 132.908 76.0259C133.663 76.2499 134.35 76.5778 135.09 76.8297C136.113 77.1816 137.162 77.4855 138.164 77.8693C138.814 78.0093 139.365 78.2972 139.947 78.5491C140.493 78.789 141.044 79.0089 141.542 79.3168C142.14 79.6887 142.806 79.9926 143.446 80.3205C143.535 80.3645 143.625 80.4005 143.724 80.4364C143.866 80.4844 143.992 80.4644 144.102 80.3805C144.212 80.2725 144.322 80.1685 144.417 80.0566C144.758 79.6527 145.104 79.2488 145.419 78.833C145.67 78.5091 145.954 78.2012 146.263 77.9133C146.368 77.8053 146.489 77.7054 146.615 77.6174C147.15 77.2655 147.722 76.9576 148.33 76.6897C148.556 76.5938 148.744 76.6217 148.897 76.7777C149.017 76.9096 149.159 77.0336 149.238 77.1816C149.563 77.8093 149.773 78.4611 149.558 79.1409C149.437 79.5288 149.379 79.9246 149.379 80.3285C149.369 80.9683 149.29 81.608 149.222 82.2478C149.169 82.6757 149.18 83.0995 149.248 83.5274C149.269 83.6953 149.369 83.8313 149.552 83.9313C149.631 83.9832 149.72 84.0272 149.809 84.0712C150.575 84.4071 151.231 84.8589 151.902 85.2868C152.548 85.6987 153.151 86.1425 153.723 86.6143C154.294 87.0862 154.882 87.546 155.464 88.0099C155.7 88.2058 155.947 88.3977 156.167 88.6057C156.728 89.1175 157.29 89.6293 157.83 90.1571C158.265 90.577 158.68 91.0089 159.089 91.4447C159.593 91.9885 160.086 92.5403 160.574 93.0961C160.705 93.2561 160.815 93.42 160.92 93.592C161.376 94.2837 161.885 94.9555 162.441 95.6073C162.488 95.6673 162.551 95.6793 162.63 95.6473C162.661 95.6353 162.677 95.6153 162.688 95.5873C162.703 95.4593 162.745 95.3234 162.724 95.1954C162.577 94.2917 162.514 93.384 162.368 92.4843C162.263 91.7926 162.179 91.1008 162.016 90.4171C161.859 89.7293 161.78 89.0375 161.654 88.3498C161.486 87.4221 161.345 86.4904 161.193 85.5627C160.972 84.2072 160.526 82.8836 160.154 81.5561C160.122 81.4481 160.091 81.3481 160.049 81.2442C160.017 81.1682 159.991 81.0762 159.923 81.0242C159.404 80.6564 159.283 80.0766 158.711 79.7327C158.496 79.6047 158.349 79.4088 158.176 79.2409C157.825 78.905 157.447 78.5891 156.975 78.3452C156.592 78.1452 156.324 77.8613 155.994 77.6214C155.716 77.4135 155.427 77.2215 155.123 77.0416C154.557 76.7257 154.053 76.3458 153.466 76.0499C152.731 75.6821 152.002 75.3102 151.215 75.0143C150.906 74.8903 150.612 74.7424 150.344 74.5744C149.704 74.1946 149.033 73.8547 148.367 73.5028C148.021 73.3189 147.664 73.1469 147.318 72.967C147.108 72.871 146.908 72.7631 146.72 72.6391C145.754 71.9633 144.616 71.4795 143.551 70.9117C143.179 70.7158 142.785 70.5318 142.465 70.2799C142.334 70.1879 142.198 70.108 142.051 70.032C140.818 69.3202 139.685 68.5245 138.662 67.6408C137.713 66.8211 136.768 65.9934 135.829 65.1617C135.693 65.0377 135.572 64.9057 135.467 64.7658C135.179 64.4019 134.901 64.03 134.602 63.6662C134.424 63.4342 134.23 63.2143 134.009 63.0064C133.448 62.5106 133.081 61.9347 132.713 61.3589C132.394 60.8511 132.084 60.3433 131.754 59.8395C131.381 59.2637 131.103 58.6559 130.82 58.0521C130.589 57.5482 130.405 57.0324 130.274 56.5086C130.033 55.5609 129.729 54.6292 129.361 53.7055C129.278 53.5016 129.215 53.2937 129.136 53.0898C128.884 52.418 128.648 51.7462 128.375 51.0824C128.244 50.7785 128.134 50.4707 128.045 50.1588C127.929 49.7389 127.777 49.327 127.599 48.9192C127.431 48.5433 127.342 48.1434 127.226 47.7516C127.111 47.3517 127.19 46.9558 127.321 46.564C127.342 46.512 127.368 46.464 127.405 46.416C127.504 46.2561 127.672 46.1721 127.908 46.1681C128.344 46.1521 128.748 46.2281 129.12 46.396C129.556 46.576 129.939 46.8039 130.279 47.0798C131.114 47.7636 132 48.4114 132.792 49.1271C132.839 49.1671 132.902 49.1991 132.944 49.2391C133.731 50.0308 134.644 50.7346 135.426 51.5303C136.055 52.1701 136.758 52.7699 137.466 53.3657C137.582 53.4616 137.707 53.5576 137.818 53.6616C138.73 54.5773 139.779 55.409 140.771 56.2727C141.584 56.9764 142.413 57.6642 143.189 58.392C143.472 58.6599 143.803 58.9038 144.118 59.1557C144.191 59.2117 144.291 59.2517 144.354 59.3156C144.857 59.8315 145.503 60.2513 146.064 60.7272C146.436 61.0471 146.835 61.3509 147.218 61.6628C147.386 61.7988 147.548 61.9387 147.701 62.0827C148.351 62.6825 149.001 63.2783 149.689 63.8501C149.998 64.106 150.281 64.3779 150.538 64.6618C151.115 65.3016 151.682 65.9414 152.217 66.6012C152.532 66.985 152.778 67.4049 153.051 67.8047C153.576 68.5645 154.058 69.3402 154.635 70.072C155.265 70.8757 155.821 71.7114 156.419 72.5231C156.54 72.6871 156.644 72.855 156.734 73.031C156.954 73.4228 157.18 73.8147 157.4 74.2066C157.437 74.2745 157.494 74.2945 157.562 74.2546C157.594 74.2346 157.604 74.2106 157.604 74.1826C157.473 73.8227 157.347 73.4628 157.206 73.1069C157.122 72.899 157.064 72.6911 157.027 72.4792C156.954 72.0273 156.828 71.5835 156.655 71.1436C156.503 70.7637 156.366 70.3759 156.335 69.972C156.319 69.8361 156.298 69.7041 156.267 69.5721C156.041 68.5445 155.8 67.5208 155.585 66.4892C155.469 65.9614 155.37 65.4336 155.317 64.9017C155.275 64.5019 155.186 64.102 155.113 63.7101C155.039 63.3663 154.987 63.0224 154.961 62.6745C154.945 62.3546 154.908 62.0347 154.877 61.7148C154.793 60.8911 154.761 60.0634 154.693 59.2357C154.599 58.136 154.662 57.0444 154.683 55.9488C154.688 55.469 154.63 54.9851 154.635 54.5053C154.641 54.3973 154.62 54.2934 154.572 54.1894C154.263 53.5696 154.09 52.9018 153.602 52.334C153.466 52.1781 153.376 52.0021 153.261 51.8382C152.92 51.3384 152.553 50.8505 152.044 50.4347C151.666 50.1148 151.341 49.7709 151.068 49.391C150.864 49.1151 150.596 48.8632 150.36 48.5953C149.788 47.9515 149.306 47.2717 148.818 46.588C148.629 46.3321 148.44 46.0761 148.251 45.8162C147.638 44.9765 147.097 44.1088 146.63 43.2131C146.074 42.1695 145.592 41.1098 145.172 40.0302C145.093 39.8263 145.03 39.6223 144.978 39.4104C144.894 39.0425 144.794 38.6747 144.7 38.3068C144.579 37.807 144.511 37.3031 144.501 36.7953C144.464 36.0196 144.438 35.2438 144.443 34.4721C144.443 33.7204 144.495 32.9726 144.495 32.2249C144.495 31.1812 144.485 30.1416 144.343 29.1019C144.317 28.918 144.328 28.7261 144.317 28.5421C144.312 28.3542 144.312 28.1663 144.28 27.9823C144.139 27.0466 144.202 26.1149 144.27 25.1793C144.275 25.0193 144.301 24.8594 144.343 24.7034C144.39 24.5715 144.453 24.4515 144.543 24.3356C144.71 24.1196 144.957 24.0437 145.272 24.1116C145.44 24.1516 145.602 24.2036 145.754 24.2716C146.237 24.4995 146.641 24.7914 146.977 25.1393C147.538 25.7271 147.989 26.3589 148.341 27.0306C148.655 27.6544 148.996 28.2742 149.311 28.898C149.437 29.1459 149.547 29.3978 149.636 29.6577C149.741 29.9976 149.878 30.3295 150.045 30.6534C150.177 30.8973 150.266 31.1572 150.376 31.4131C150.565 31.869 150.775 32.3248 150.927 32.7927C151.173 33.5444 151.519 34.2722 151.881 34.9959C152.291 35.8196 152.731 36.6354 153.151 37.4591C153.298 37.759 153.429 38.0669 153.544 38.3748C153.78 39.0186 154.006 39.6623 154.221 40.3101C154.462 41.0659 154.683 41.8216 154.777 42.5973C154.803 42.7813 154.871 42.9652 154.903 43.1491C155.097 44.2088 155.317 45.2644 155.396 46.3321C155.443 46.9199 155.564 47.4997 155.658 48.0835C155.658 48.1035 155.706 48.1394 155.721 48.1394C155.784 48.1274 155.842 48.1115 155.894 48.0875C155.921 48.0715 155.942 48.0475 155.952 48.0235C155.968 47.9995 155.984 47.9715 155.989 47.9475C156.094 47.3317 156.372 46.7519 156.597 46.1641C156.697 45.9082 156.839 45.6603 156.959 45.4124C157.006 45.3124 157.064 45.2124 157.106 45.1125C157.347 44.5527 157.578 43.9929 157.83 43.437C158.082 42.8812 158.334 42.3254 158.633 41.7816C158.895 41.3178 159.204 40.8659 159.524 40.4181C159.682 40.2101 159.787 39.9862 159.839 39.7463C159.934 39.2745 160.101 38.8066 160.07 38.3228C160.065 38.1908 160.122 38.0589 160.143 37.9269C160.217 37.5271 160.322 37.1352 160.337 36.7353C160.358 36.3355 160.275 35.9356 160.248 35.5357C160.227 35.1319 160.096 34.752 159.86 34.3881C159.566 33.9323 159.304 33.4644 159.068 32.9886C158.869 32.5887 158.727 32.1769 158.58 31.765C158.439 31.3772 158.302 30.9893 158.202 30.5934C158.098 30.1496 158.035 29.6977 157.961 29.2459C157.861 28.6341 157.772 28.0263 157.678 27.4145C157.662 27.2825 157.641 27.1466 157.631 27.0146C157.568 25.947 157.547 24.8794 157.762 23.8157C157.914 23.104 157.982 22.3802 158.077 21.6605C158.145 21.1846 158.26 20.7128 158.428 20.2449C158.549 19.8851 158.68 19.5172 158.727 19.1493C158.795 18.5815 159.005 18.0497 159.236 17.5139C159.383 17.162 159.535 16.8021 159.666 16.4422C159.955 15.6145 160.301 14.8028 160.699 14.0031C160.873 13.6552 160.977 13.2873 161.214 12.9554C161.261 12.8914 161.24 12.7995 161.255 12.7235C161.276 12.6195 161.308 12.5156 161.345 12.4116C161.413 12.2317 161.455 12.0397 161.575 11.8838C161.922 11.4439 162.016 10.9201 162.415 10.5003C162.635 10.2603 162.824 10.0004 162.971 9.72853C163.139 9.46062 163.328 9.20471 163.548 8.96079C164.172 8.22104 164.812 7.48129 165.442 6.73755C165.741 6.37767 166.071 6.02579 166.239 5.60993C166.276 5.53395 166.323 5.46198 166.375 5.394C166.743 4.84619 167.11 4.29838 167.477 3.75456C167.55 3.66259 167.603 3.56263 167.65 3.46266C167.76 3.17476 167.96 2.92284 168.154 2.66693C168.279 2.51099 168.395 2.34704 168.489 2.1751C168.788 1.5953 169.26 1.09547 169.727 0.595637C169.911 0.391706 170.173 0.255751 170.43 0.111801C170.603 0.0118347 170.818 -0.00016146 171.034 0.0158341C171.217 0.0318276 171.374 0.0798123 171.469 0.207769C171.485 0.23176 171.5 0.255752 171.521 0.279744C172.035 0.903532 172.277 1.5953 172.392 2.32305C172.476 2.87886 172.555 3.43467 172.497 3.99848C172.45 4.50631 172.497 5.01413 172.466 5.52196C172.397 6.61759 172.334 7.70921 172.219 8.80084C172.119 9.73253 172.02 10.6642 171.915 11.5959C171.836 12.2877 171.815 12.9834 171.658 13.6712C171.6 13.9631 171.579 14.255 171.595 14.5509C171.621 15.4866 171.542 16.4222 171.532 17.3579C171.516 18.7774 171.39 20.189 170.929 21.5725C170.766 22.0643 170.645 22.5642 170.43 23.044C170.346 23.2199 170.257 23.3959 170.152 23.5638C170.105 23.6358 170.084 23.7118 170.079 23.7917C170.089 23.8437 170.121 23.8877 170.173 23.9237C170.199 23.9397 170.236 23.9437 170.268 23.9357C170.394 23.8957 170.54 23.8677 170.645 23.7997C171.312 23.3559 172.109 23.076 172.89 22.7801C173.022 22.7361 173.153 22.7001 173.289 22.6761C173.898 22.5442 174.506 22.4122 175.115 22.2843C175.146 22.2763 175.183 22.2723 175.214 22.2643C176.216 22.1163 177.223 21.9963 178.246 22.0603C178.986 22.1083 179.705 22.2523 180.345 22.5442C180.985 22.8361 181.625 23.116 182.207 23.4559C182.805 23.8157 183.403 24.1996 183.739 24.7554C183.76 24.7794 183.775 24.8034 183.796 24.8234C184.321 25.3872 184.515 26.035 184.651 26.6987C184.693 26.9067 184.657 27.1226 184.662 27.3385C184.667 27.6304 184.672 27.9223 184.693 28.2142C184.693 28.2422 184.798 28.2822 184.861 28.2822C184.929 28.2782 184.992 28.2582 185.05 28.2262C185.527 27.9423 186.047 27.7264 186.613 27.5704C187.269 27.3785 187.919 27.1786 188.601 27.0466C189.593 26.8627 190.537 26.5628 191.497 26.2989C191.859 26.1989 192.226 26.099 192.583 25.995C192.987 25.883 193.401 25.831 193.826 25.843C194.13 25.847 194.377 25.939 194.566 26.1229C194.639 26.1789 194.686 26.2509 194.713 26.3269C194.76 26.6228 194.744 26.9187 194.534 27.1826C194.062 27.7784 193.569 28.3502 192.913 28.854C192.268 29.3418 191.633 29.8377 191.02 30.3575C190.6 30.7134 190.159 31.0573 189.729 31.4091C189.582 31.5251 189.446 31.6451 189.32 31.777C188.932 32.1929 188.481 32.5687 187.977 32.9046C187.773 33.0526 187.584 33.2085 187.411 33.3765C187.196 33.5884 186.954 33.7843 186.729 33.9883C186.613 34.0882 186.487 34.1842 186.382 34.2922C186.078 34.6161 185.779 34.9439 185.396 35.2278C185.223 35.3558 185.097 35.5237 184.956 35.6757C184.557 36.0836 184.206 36.5194 183.723 36.8793C183.649 36.9353 183.587 36.9992 183.534 37.0672C182.968 37.715 182.406 38.3588 181.845 39.0066C181.614 39.2745 181.389 39.5464 181.168 39.8223C180.99 40.0502 180.817 40.2821 180.659 40.522C180.539 40.714 180.381 40.8939 180.193 41.0499C180.046 41.1658 179.925 41.2978 179.836 41.4417C179.558 41.9695 179.117 42.4214 178.734 42.9012C177.947 43.8849 177.071 44.8246 176.237 45.7842C176.006 46.0522 175.776 46.3201 175.545 46.588C175.235 46.9479 174.936 47.3117 174.522 47.6076C174.443 47.6636 174.375 47.7236 174.323 47.7916C173.709 48.5553 172.833 49.1431 172.035 49.7829C171.306 50.3587 170.498 50.8745 169.701 51.4023C169.308 51.6742 168.862 51.8782 168.363 52.0181C167.802 52.1701 167.262 52.378 166.727 52.5739C166.05 52.8179 165.331 52.9418 164.602 53.0298C164.151 53.0818 163.7 53.1337 163.244 53.1777C162.609 53.2337 162.021 53.4137 161.45 53.6176C161.287 53.6736 161.145 53.7495 161.014 53.8415C160.605 54.1334 160.206 54.4333 159.818 54.7452C159.697 54.8452 159.608 54.9571 159.551 55.0851C159.309 55.5889 159.021 56.0767 158.738 56.5646C158.564 56.8845 158.407 57.2124 158.276 57.5442C157.856 58.5359 157.494 59.5436 157.159 60.5552C157.048 60.8911 157.001 61.239 156.923 61.5789C156.886 61.7388 156.849 61.8948 156.818 62.0507C156.702 62.6065 156.629 63.1663 156.603 63.7261C156.534 64.8298 156.681 65.9174 156.902 67.001C157.085 67.9527 157.232 68.9084 157.431 69.86C157.562 70.4918 157.746 71.1196 157.909 71.7514C157.987 72.0393 158.077 72.3232 158.134 72.6151C158.323 73.5988 158.68 74.5545 159.016 75.5061C159.22 76.0979 159.477 76.6857 159.718 77.2735C159.745 77.3215 159.787 77.3655 159.839 77.4015C159.85 77.4095 159.913 77.4015 159.923 77.3895C160.086 77.2095 160.128 76.9936 160.196 76.7897C160.29 76.5338 160.364 76.2699 160.411 76.006C160.49 75.6101 160.621 75.2222 160.815 74.8503C161.177 74.1226 161.408 73.3669 161.817 72.6551C162.011 72.3312 162.079 71.9913 162.021 71.6354C162 71.5315 162.011 71.4195 161.99 71.3156C161.791 70.1879 162.016 69.0763 162.236 67.9687C162.294 67.7328 162.336 67.4929 162.357 67.2529C162.383 67.041 162.42 66.8291 162.478 66.6212C162.514 66.4332 162.567 66.2533 162.598 66.0653C162.808 64.7298 163.317 63.4542 163.878 62.1867C164.025 61.8588 164.219 61.5429 164.398 61.223C164.712 60.6592 165.032 60.0914 165.358 59.5316C165.447 59.3876 165.552 59.2477 165.667 59.1117C166.124 58.5719 166.59 58.0361 167.047 57.4963C167.598 56.8405 168.29 56.2767 168.982 55.7049C169.407 55.349 169.879 55.0291 170.262 54.6412C170.472 54.4333 170.745 54.2534 171.007 54.0774C171.815 53.5216 172.618 52.9658 173.452 52.43C173.877 52.1541 174.349 51.9182 174.816 51.6742C175.97 51.0665 177.113 50.4427 178.404 49.9988C178.724 49.8869 179.023 49.7429 179.332 49.6189C180.014 49.343 180.691 49.0591 181.383 48.7992C181.829 48.6393 182.28 48.4953 182.747 48.3714C184.2 47.9715 185.611 47.4957 187.059 47.0838C187.752 46.8839 188.439 46.6839 189.121 46.468C189.577 46.3241 190.007 46.1481 190.458 45.9962C191.355 45.6883 192.231 45.3564 193.16 45.1045C193.758 44.9365 194.33 44.7366 194.891 44.5087C196.061 44.0408 197.33 43.8369 198.621 43.681C198.689 43.669 198.757 43.665 198.831 43.669C199.203 43.685 199.56 43.8569 199.502 44.2408C199.476 44.4287 199.408 44.6086 199.308 44.7806C198.631 45.9362 197.718 46.9838 196.743 47.9995C196.25 48.5153 195.673 48.9912 195.138 49.483C195.043 49.563 194.944 49.6389 194.865 49.7269C194.466 50.1668 194.02 50.5826 193.532 50.9665C193.265 51.1784 193.003 51.3903 192.725 51.5983C192.321 51.8942 191.943 52.2101 191.591 52.5459C191.282 52.8338 190.952 53.1058 190.595 53.3617C190.322 53.5696 190.075 53.7975 189.86 54.0414C189.084 54.9011 188.323 55.7688 187.531 56.6206C187.08 57.0964 186.708 57.6122 186.293 58.112C186.199 58.224 186.12 58.348 185.994 58.4439C185.444 58.8638 185.05 59.3716 184.604 59.8515C184.258 60.2193 183.917 60.5912 183.56 60.9591C183.288 61.235 182.978 61.4909 182.71 61.7708C182.443 62.0507 182.149 62.3146 181.845 62.5785C181.457 62.9184 181.069 63.2623 180.659 63.5942C180.177 63.9821 179.694 64.3699 179.185 64.7338C178.493 65.2296 177.8 65.7215 177.103 66.2133C176.977 66.3013 176.83 66.3812 176.699 66.4652C176.096 66.8371 175.44 67.153 174.889 67.5688C174.087 67.9567 173.352 68.4205 172.612 68.8684C171.479 69.5562 170.226 70.092 168.972 70.6358C168.731 70.7477 168.479 70.8397 168.217 70.9157C166.716 71.2996 165.274 71.7954 163.794 72.2152C163.501 72.2952 163.233 72.4312 162.939 72.5231C162.509 72.6551 162.278 72.907 162.168 73.2349C161.922 73.9587 161.57 74.6584 161.292 75.3782C160.909 76.3538 160.652 77.3495 160.505 78.3612C160.458 78.737 160.469 79.1089 160.526 79.4808C160.563 79.7207 160.595 79.9606 160.631 80.2005C160.642 80.3045 160.668 80.4125 160.705 80.5124C161.13 81.5641 161.418 82.6357 161.686 83.7153C161.822 84.2671 162 84.815 162.142 85.3668C162.399 86.3904 162.598 87.4181 162.74 88.4577C162.84 89.1735 162.981 89.8892 163.118 90.605C163.128 90.677 163.202 90.7449 163.254 90.8129C163.286 90.8089 163.317 90.7969 163.343 90.7809C163.39 90.7409 163.422 90.693 163.443 90.645C163.611 90.0132 163.899 89.4094 164.13 88.7936C164.497 87.8139 164.943 86.8623 165.478 85.9266C165.835 85.2908 166.176 84.643 166.664 84.0512C166.758 83.9392 166.842 83.8233 166.921 83.7033C167.414 82.8676 168.101 82.1239 168.778 81.3761C168.841 81.3082 168.93 81.2562 168.977 81.1882C169.423 80.4804 170.079 79.8886 170.755 79.3048C171.17 78.945 171.6 78.5891 172.014 78.2252C172.749 77.5814 173.567 76.9936 174.354 76.3858C175.099 75.818 175.907 75.3062 176.778 74.8503C177.963 74.2186 179.259 73.7387 180.565 73.2789C181.105 73.087 181.646 72.891 182.202 72.7191C183.141 72.4232 184.048 72.0673 185.013 71.8154C185.344 71.7194 185.685 71.6714 186.042 71.6674C186.461 71.6714 186.881 71.6634 187.306 71.6634C188.04 71.6634 188.78 71.6474 189.488 71.8434C189.651 71.8874 189.834 71.8874 190.007 71.9153C190.144 71.9313 190.28 71.9633 190.411 72.0033C190.857 72.1593 191.308 72.3072 191.738 72.4912C192.231 72.6991 192.746 72.867 193.281 72.999C193.984 73.1669 194.686 73.3389 195.395 73.4988C195.594 73.5428 195.804 73.5788 196.008 73.6028C196.286 73.6348 196.564 73.6628 196.848 73.6907C197.666 73.7627 198.411 73.9786 199.082 74.3425C199.68 74.6704 200.315 74.9663 200.934 75.2662C201.259 75.4262 201.6 75.5621 201.957 75.6781C202.545 75.862 203.043 76.1659 203.541 76.4658C203.762 76.5978 203.961 76.7497 204.165 76.8977C204.307 77.0056 204.381 77.1376 204.386 77.2895C204.391 77.4415 204.328 77.5734 204.192 77.6894C203.505 78.2412 203.452 78.2572 202.482 78.3811C201.894 78.4531 201.307 78.5291 200.719 78.6051C200.436 78.6411 200.158 78.6451 199.88 78.6131C199.182 78.5211 198.484 78.4851 197.776 78.5051C197.105 78.5251 196.449 78.4531 195.804 78.2972C194.697 78.0173 193.532 77.9573 192.394 77.8053C191.56 77.6934 190.726 77.6214 189.897 77.5054C189.126 77.4095 188.355 77.4215 187.589 77.5414C187.28 77.5974 186.996 77.6974 186.744 77.8453C186.194 78.1372 185.674 78.4531 185.181 78.797C184.51 79.2688 183.807 79.7127 183.209 80.2405C183.109 80.3165 183.004 80.3885 182.899 80.4564C182.102 81.0163 181.31 81.5881 180.565 82.1879C179.967 82.6757 179.369 83.1635 178.771 83.6514C178.44 83.9273 178.11 84.2072 177.759 84.4671C177.533 84.635 177.334 84.819 177.161 85.0229C177.087 85.1109 177.003 85.1988 176.924 85.2908C176.604 85.6747 176.227 86.0225 175.791 86.3344C174.727 87.1102 173.672 87.8979 172.534 88.6137C171.233 89.4294 169.874 90.1891 168.384 90.8049C167.587 91.1368 166.795 91.4887 166.019 91.8566C165.484 92.1125 164.99 92.4164 164.623 92.8202C164.424 93.0442 164.193 93.2441 163.931 93.424C163.705 93.576 163.611 93.7759 163.595 93.9958C163.579 94.1798 163.574 94.3677 163.59 94.5556C163.642 95.0875 163.653 95.6233 163.742 96.1511C163.81 96.6029 163.847 97.0548 163.852 97.5106C163.857 98.0704 163.952 98.6302 163.884 99.1941C163.878 99.33 163.889 99.462 163.915 99.5939C164.219 101.537 164.261 103.489 164.298 105.44C164.308 105.84 164.251 106.24 164.23 106.644L164.114 108.567C164.109 108.647 164.114 108.727 164.099 108.807C163.92 110.162 163.836 111.526 163.516 112.873C163.301 113.765 163.154 114.669 162.987 115.568C162.792 116.6 162.604 117.632 162.336 118.655C162.31 118.759 162.299 118.867 162.31 118.971C162.31 119.015 162.378 119.055 162.425 119.091C162.441 119.099 162.493 119.091 162.514 119.079C162.577 119.051 162.635 119.019 162.682 118.983C163.217 118.451 163.758 117.928 164.403 117.468C164.628 117.308 164.786 117.088 164.975 116.896C165.19 116.684 165.405 116.472 165.625 116.264C165.772 116.12 165.935 115.98 166.092 115.832C166.758 115.217 167.026 114.465 167.341 113.729C167.393 113.573 167.424 113.413 167.43 113.253C167.456 113.013 167.472 112.773 167.482 112.534C167.508 111.838 167.529 111.142 167.556 110.45C167.561 110.29 167.577 110.13 167.587 109.97C167.613 109.355 167.76 108.747 167.755 108.131C167.755 107.787 167.855 107.439 167.918 107.095C168.028 106.54 168.154 105.988 168.253 105.432C168.369 104.792 168.626 104.18 168.878 103.569C169.03 103.213 169.161 102.849 169.36 102.509C169.685 101.949 169.969 101.369 170.409 100.85C170.855 100.334 171.291 99.8178 171.747 99.31C172.57 98.3903 172.576 98.3943 173.662 97.5106C173.74 97.4506 173.814 97.3987 173.882 97.3347C174.223 96.9948 174.606 96.6789 174.973 96.359C175.571 95.8352 176.117 95.2754 176.683 94.7316C176.987 94.4357 177.286 94.1438 177.612 93.8599C177.979 93.54 178.273 93.1681 178.582 92.8122C179.065 92.2524 179.537 91.6886 180.004 91.1248C180.287 90.7849 180.57 90.449 180.759 90.0692C180.885 89.8213 181.095 89.6013 181.278 89.3734C181.625 88.9375 181.971 88.5057 182.244 88.0379C182.495 87.602 182.831 87.1901 183.046 86.7343C183.177 86.4584 183.329 86.1865 183.429 85.9026C183.66 85.2588 183.959 84.631 184.321 84.0192C184.541 83.6553 184.735 83.2835 184.903 82.9036C185.155 82.3198 185.496 81.764 185.811 81.1962C185.963 80.9283 186.183 80.6804 186.382 80.4324C186.587 80.1805 186.823 79.9446 187.022 79.6927C187.248 79.4088 187.594 79.2209 187.951 79.0569C188.271 78.909 188.628 78.921 188.974 79.0089C189.042 79.0249 189.105 79.0529 189.152 79.0889C189.394 79.2888 189.609 79.4968 189.698 79.7647C189.939 80.5204 190.107 81.2762 190.07 82.0639C190.023 83.1075 190.007 84.1512 189.908 85.1908C189.902 85.2708 189.902 85.3508 189.908 85.4307C189.944 86.3704 189.761 87.2981 189.561 88.2218C189.462 88.6976 189.362 89.1735 189.341 89.6533C189.32 90.1931 189.194 90.7209 189.068 91.2408C188.869 92.0565 188.664 92.8682 188.486 93.6879C188.334 94.3717 188.035 95.0315 187.799 95.7032C187.699 95.9872 187.589 96.2671 187.5 96.555C187.311 97.1228 187.127 97.6946 186.886 98.2544C186.713 98.6622 186.582 99.0781 186.403 99.482C185.973 100.474 185.438 101.429 184.877 102.381C184.851 102.433 184.819 102.481 184.783 102.525C184.4 103.005 184.069 103.509 183.733 104.008C183.471 104.388 183.183 104.752 182.863 105.108C182.034 106.072 181.189 107.023 180.355 107.983C180.177 108.183 179.972 108.367 179.752 108.539C179.316 108.891 178.897 109.247 178.493 109.619C178.273 109.826 178.026 110.018 177.759 110.19C177.533 110.318 177.323 110.458 177.124 110.61C176.274 111.258 175.277 111.762 174.281 112.262C174.076 112.366 173.85 112.45 173.662 112.566C173.027 112.961 172.287 113.205 171.548 113.457C171.291 113.549 171.028 113.621 170.755 113.677C169.748 113.865 168.846 114.209 168.085 114.757C167.96 114.849 167.823 114.933 167.681 115.009C167.508 115.105 167.367 115.225 167.257 115.361C166.879 115.812 166.48 116.256 165.982 116.636C165.866 116.736 165.762 116.84 165.667 116.956C165.122 117.548 164.508 118.096 163.831 118.607C163.805 118.623 163.779 118.643 163.758 118.663C163.249 119.175 162.74 119.683 162.184 120.171C161.958 120.383 161.822 120.627 161.77 120.899C161.623 121.554 161.471 122.214 161.297 122.87C161.119 123.554 160.915 124.23 160.715 124.909C160.699 124.989 160.663 125.065 160.615 125.137C160.327 125.509 160.191 125.925 160.012 126.333C159.965 126.433 159.897 126.525 159.802 126.605C159.734 126.673 159.619 126.677 159.514 126.657C159.409 126.621 159.357 126.561 159.346 126.473C159.378 126.317 159.419 126.157 159.472 126.005C159.802 125.269 160.038 124.513 160.254 123.758C160.453 123.054 160.663 122.35 160.883 121.646C160.962 121.407 160.941 121.171 160.81 120.943C160.5 120.399 160.133 119.887 159.629 119.431C159.026 118.875 158.444 118.304 157.851 117.74C157.452 117.364 157.017 117.016 156.545 116.696C156.204 116.464 155.884 116.216 155.58 115.956C155.102 115.564 154.62 115.181 154.064 114.845C153.738 114.641 153.424 114.425 153.13 114.197C152.353 113.617 151.483 113.121 150.727 112.518C150.271 112.154 149.72 111.854 149.206 111.534C148.75 111.238 148.335 110.914 147.963 110.558C147.638 110.274 147.286 110.014 146.914 109.774C146.174 109.283 145.466 108.759 144.889 108.151C144.333 107.559 143.782 106.971 143.231 106.384C143.126 106.276 143.032 106.164 142.953 106.044C142.533 105.396 142.14 104.736 141.705 104.096C141.385 103.649 141.154 103.173 141.007 102.673C140.96 102.509 140.844 102.377 140.656 102.289C140.309 102.105 139.963 101.925 139.612 101.745C139.119 101.485 138.631 101.229 138.201 100.905C137.828 100.626 137.34 100.442 137.005 100.126C136.029 99.5499 135.242 98.8262 134.382 98.1584C134.188 98.0065 134.004 97.8425 133.836 97.6666C132.939 96.7469 132.005 95.8432 131.203 94.8675C131.129 94.7756 131.061 94.6836 130.993 94.5876C130.636 94.0958 130.29 93.6 129.923 93.1121C129.624 92.7203 129.367 92.3084 129.152 91.8846C128.973 91.5367 128.8 91.1848 128.596 90.8449C128.302 90.3571 128.123 89.8372 127.903 89.3294C127.762 89.0255 127.693 88.7096 127.688 88.3857C127.704 87.77 127.588 87.1582 127.515 86.5464C127.494 86.3864 127.489 86.2265 127.494 86.0665C127.504 85.9386 127.578 85.8346 127.709 85.7586C127.84 85.6787 127.992 85.6507 128.155 85.6747C128.297 85.6907 128.422 85.7266 128.548 85.7786C128.937 85.9626 129.314 86.1545 129.608 86.4304C129.786 86.5943 129.991 86.7423 130.185 86.8983C130.72 87.3221 131.234 87.758 131.79 88.1698C132.462 88.6736 133.075 89.2255 133.726 89.7533C134.445 90.3371 135.184 90.9089 135.808 91.5567C136.302 91.9006 136.737 92.2924 137.288 92.5843C138.038 92.9842 138.709 93.448 139.381 93.9278C139.601 94.0998 139.853 94.2397 140.136 94.3517C140.168 94.3677 140.204 94.3717 140.236 94.3597C140.273 94.3437 140.294 94.3237 140.299 94.2957C140.32 94.0558 140.336 93.8199 140.336 93.58C140.325 92.8562 140.372 92.1365 140.456 91.4167C140.467 91.3647 140.472 91.3127 140.472 91.2608C140.43 90.669 140.572 90.0892 140.635 89.5054C140.729 88.6536 140.844 87.8019 141.07 86.9622C141.149 86.6503 141.175 86.3264 141.227 85.9746ZM159.566 95.5633C158.911 95.2714 158.286 94.9235 157.557 94.7156C157.426 94.6716 157.305 94.6196 157.19 94.5596C156.86 94.4037 156.54 94.2397 156.199 94.0998C155.831 93.9478 155.438 93.8319 155.066 93.6799C154.42 93.404 153.749 93.1801 153.046 93.0082C152.91 92.9762 152.784 92.9322 152.658 92.8802C151.944 92.5963 151.236 92.3124 150.517 92.0285C150.36 91.9685 150.197 91.9205 150.035 91.8766C149.951 91.8526 149.804 91.9325 149.809 91.9965C149.83 92.3164 149.799 92.6363 149.967 92.9442C150.024 93.0402 150.061 93.1441 150.072 93.2521C150.114 93.6519 150.224 94.0438 150.402 94.4237C150.439 94.5276 150.47 94.6316 150.486 94.7356C150.712 95.7352 150.932 96.7349 151.152 97.7386C151.168 97.8145 151.199 97.8905 151.226 97.9705C151.378 98.4623 151.535 98.9581 151.687 99.45C151.908 100.154 152.107 100.857 152.458 101.529C152.532 101.677 152.621 101.837 152.757 101.949C153.214 102.321 153.665 102.697 154.174 103.025C154.625 103.317 155.071 103.617 155.522 103.912C155.816 104.108 156.052 104.344 156.356 104.52C156.797 104.788 157.18 105.096 157.51 105.448C157.699 105.64 157.903 105.82 158.129 105.992C158.47 106.26 158.779 106.548 159.063 106.851C159.398 107.195 159.745 107.531 160.075 107.879C160.301 108.115 160.547 108.351 160.705 108.615C160.962 109.051 161.376 109.431 161.523 109.91C161.544 109.962 161.575 110.01 161.617 110.054C162 110.53 162.32 111.034 162.577 111.562C162.614 111.646 162.766 111.702 162.824 111.658C162.882 111.618 162.945 111.586 162.955 111.546C163.102 110.782 163.312 110.022 163.317 109.243C163.312 108.867 163.333 108.495 163.38 108.123C163.537 107.163 163.401 106.204 163.469 105.244C163.516 104.576 163.453 103.908 163.427 103.241C163.401 102.497 163.364 101.749 163.322 101.001C163.296 100.602 163.191 100.202 163.207 99.8058C163.223 99.266 163.102 98.7422 163.081 98.2064C163.076 98.0145 162.997 97.8385 162.84 97.6866C162.646 97.4986 162.472 97.2867 162.231 97.1348C161.633 96.7669 161.093 96.347 160.458 96.0111C160.17 95.8552 159.871 95.7152 159.566 95.5633ZM162.137 38.4308L162.116 38.4228C161.869 38.7147 161.602 38.9986 161.371 39.2985C161.014 39.7583 160.657 40.2181 160.343 40.698C160.143 41.0059 160.08 41.3618 159.766 41.6297C159.398 42.3214 158.995 43.0052 158.675 43.713C157.851 45.5323 157.117 47.3677 156.66 49.2671C156.624 49.423 156.576 49.579 156.519 49.7349C156.23 50.5386 156.146 51.3663 156.057 52.1901C155.968 53.0418 155.915 53.8975 155.826 54.7492C155.758 55.309 155.747 55.8688 155.789 56.4286C155.915 57.7322 156.041 59.0397 156.172 60.3433C156.183 60.4233 156.204 60.5032 156.235 60.5792C156.262 60.6392 156.319 60.6672 156.382 60.6512C156.419 60.6432 156.445 60.6312 156.466 60.6072C156.508 60.5352 156.545 60.4633 156.571 60.3873C156.828 59.6355 157.069 58.8838 157.358 58.14C157.562 57.6002 157.804 57.0724 158.077 56.5526C158.313 56.1047 158.591 55.6729 158.842 55.233C159.052 54.8652 159.241 54.4933 159.451 54.1254C159.839 53.4496 159.996 52.7459 159.923 52.0141C159.918 51.9342 159.907 51.8542 159.907 51.7742C159.876 50.2107 160.133 48.6793 160.684 47.1758C161.025 46.2241 161.439 45.2844 161.833 44.3447C162.111 43.693 162.908 42.4174 163.301 41.8656C163.553 41.5137 163.857 41.1818 164.041 40.8019C164.072 40.726 164.125 40.654 164.198 40.594C164.45 40.3981 164.576 40.1502 164.749 39.9182C165.232 39.2665 165.777 38.6427 166.375 38.0469C166.69 37.727 167.042 37.4231 167.351 37.1032C167.624 36.8233 167.886 36.5394 168.243 36.3155C168.295 36.2795 168.337 36.2355 168.358 36.1835C168.379 36.1315 168.374 36.0835 168.342 36.0396C168.222 35.9436 168.096 35.8356 167.944 35.7837C167.582 35.6637 167.299 35.4718 167.01 35.2718C166.753 35.0959 166.428 34.9799 166.129 34.84C166.029 34.792 165.835 34.816 165.741 34.888C165.515 35.0599 165.258 35.2118 165.08 35.4038C164.513 36.0156 163.815 36.5514 163.27 37.1752C162.908 37.603 162.514 38.0149 162.137 38.4308ZM156.571 109.383C156.393 109.295 156.22 109.203 156.041 109.123C155.889 109.055 155.732 108.995 155.574 108.935C155.438 108.883 155.317 108.891 155.307 108.955C155.296 109.031 155.27 109.119 155.307 109.183C155.438 109.403 155.58 109.615 155.742 109.822C156.188 110.394 156.587 110.99 156.928 111.606C157.211 112.122 157.547 112.625 157.82 113.145C158.113 113.717 158.512 114.253 158.753 114.841C158.827 115.021 158.921 115.193 159.031 115.361C159.65 116.352 160.08 117.396 160.6 118.416C160.789 118.763 160.904 119.123 160.946 119.499C160.972 119.659 161.014 119.815 161.067 119.967C161.082 119.991 161.103 120.011 161.135 120.023C161.193 119.999 161.271 119.975 161.292 119.931C161.345 119.835 161.381 119.731 161.402 119.627C161.471 119.311 161.513 118.991 161.596 118.675C161.817 117.84 162.011 117 162.142 116.152C162.168 115.912 162.226 115.676 162.305 115.441C162.472 114.973 162.488 114.493 162.583 114.017C162.614 113.853 162.572 113.697 162.457 113.553C162.383 113.465 162.326 113.365 162.289 113.265C162.179 112.977 161.99 112.725 161.712 112.514C161.088 112.006 160.479 111.486 159.703 111.11C159.519 111.03 159.357 110.93 159.204 110.818C158.848 110.514 158.391 110.31 158.003 110.042C157.898 109.966 157.783 109.91 157.657 109.87C157.253 109.754 156.923 109.559 156.571 109.383ZM161.964 34.1122C161.644 34.5321 161.434 34.84 161.182 35.1279C160.998 35.3318 160.92 35.5557 160.93 35.8036C160.941 35.9916 160.915 36.1795 160.946 36.3635C161.014 36.7953 160.962 37.2152 160.888 37.639C160.852 37.827 160.81 38.0109 160.783 38.1948C160.762 38.2748 160.757 38.3548 160.768 38.4347C160.778 38.4907 160.815 38.5307 160.873 38.5627C160.935 38.5747 160.993 38.5667 161.04 38.5347C161.187 38.3828 161.318 38.2268 161.455 38.0709C162.583 36.7153 163.784 35.4038 165.232 34.2322C165.337 34.1442 165.363 34.0442 165.321 33.9323C165.158 33.4125 164.985 32.8966 164.812 32.3808C164.786 32.3128 164.618 32.2808 164.545 32.3328C163.815 32.8327 163.044 33.2845 162.341 33.8123C162.168 33.9403 162 34.0802 161.964 34.1122Z" fill="#838B66"/>
</svg>
